<svg width="13" height="14" viewBox="0 0 13 14" fill="none" xmlns="http://www.w3.org/2000/svg">
<path d="M5.81079 3.15335C6.03867 3.11842 6.2689 3.10104 6.49945 3.10137C8.56542 3.10137 10.508 4.58914 11.6384 6.99945C11.4655 7.36625 11.2702 7.72208 11.0537 8.06492C10.9849 8.17134 10.9488 8.29555 10.9497 8.42224C10.9512 8.56403 10.999 8.70144 11.0858 8.81353C11.1727 8.92561 11.2938 9.00621 11.4307 9.04302C11.5677 9.07983 11.7129 9.07083 11.8442 9.0174C11.9756 8.96396 12.0858 8.86903 12.1581 8.74708C12.4608 8.27147 12.7238 7.77169 12.9443 7.25282C12.9791 7.17175 12.9971 7.08444 12.9971 6.9962C12.9971 6.90796 12.9791 6.82064 12.9443 6.73957C11.6319 3.69258 9.16313 1.80202 6.49945 1.80202C6.19453 1.80048 5.8901 1.82657 5.5899 1.87998C5.50458 1.89448 5.42295 1.92565 5.34968 1.9717C5.27641 2.01775 5.21292 2.07778 5.16285 2.14836C5.11278 2.21894 5.0771 2.2987 5.05785 2.38307C5.0386 2.46745 5.03616 2.55478 5.05066 2.6401C5.06517 2.72542 5.09633 2.80704 5.14238 2.88032C5.18843 2.95359 5.24846 3.01707 5.31905 3.06714C5.38963 3.11722 5.46938 3.1529 5.55376 3.17215C5.63813 3.1914 5.72547 3.19384 5.81079 3.17933V3.15335ZM1.11361 0.691065C1.05303 0.63049 0.981121 0.582439 0.901976 0.549656C0.82283 0.516873 0.738003 0.5 0.652337 0.5C0.566671 0.5 0.481844 0.516873 0.402698 0.549656C0.323553 0.582439 0.25164 0.63049 0.191065 0.691065C0.0687281 0.813402 0 0.979326 0 1.15234C0 1.32535 0.0687281 1.49127 0.191065 1.61361L2.20507 3.62112C1.28615 4.50567 0.554792 5.56625 0.0546325 6.73957C0.018859 6.82154 0.000394209 6.91001 0.000394209 6.99945C0.000394209 7.08888 0.018859 7.17735 0.0546325 7.25932C1.36698 10.3063 3.83576 12.1969 6.49945 12.1969C7.66699 12.1888 8.80696 11.8412 9.78032 11.1964L11.8853 13.3078C11.9457 13.3687 12.0175 13.4171 12.0967 13.45C12.1759 13.483 12.2608 13.5 12.3466 13.5C12.4323 13.5 12.5172 13.483 12.5964 13.45C12.6756 13.4171 12.7474 13.3687 12.8078 13.3078C12.8687 13.2474 12.9171 13.1756 12.95 13.0964C12.983 13.0172 13 12.9323 13 12.8466C13 12.7608 12.983 12.6759 12.95 12.5967C12.9171 12.5175 12.8687 12.4457 12.8078 12.3853L1.11361 0.691065ZM5.24557 6.66161L6.83728 8.25333C6.72747 8.28481 6.61367 8.30013 6.49945 8.2988C6.15483 8.2988 5.82434 8.16191 5.58066 7.91823C5.33698 7.67455 5.20009 7.34406 5.20009 6.99945C5.19876 6.88522 5.21408 6.77142 5.24557 6.66161ZM6.49945 10.8975C4.43347 10.8975 2.49093 9.40975 1.36698 6.99945C1.78673 6.07284 2.38248 5.23659 3.12112 4.53716L4.27105 5.70009C4.00094 6.19306 3.89796 6.76033 3.97756 7.31679C4.05716 7.87324 4.31504 8.38889 4.71252 8.78637C5.11 9.18385 5.62565 9.44173 6.18211 9.52133C6.73856 9.60093 7.30583 9.49795 7.7988 9.22784L8.83179 10.2478C8.12435 10.6642 7.32027 10.8882 6.49945 10.8975Z" fill="#BCC4D8"/>
</svg>
