<svg width="13" height="10" viewBox="0 0 13 10" fill="none" xmlns="http://www.w3.org/2000/svg">
<path d="M12.9458 4.75C11.6332 1.81875 9.16407 0 6.5 0C3.83593 0 1.36679 1.81875 0.0542462 4.75C0.0184675 4.82885 0 4.91396 0 5C0 5.08604 0.0184675 5.17115 0.0542462 5.25C1.36679 8.18125 3.83593 10 6.5 10C9.16407 10 11.6332 8.18125 12.9458 5.25C12.9815 5.17115 13 5.08604 13 5C13 4.91396 12.9815 4.82885 12.9458 4.75ZM6.5 8.75C4.44022 8.75 2.4909 7.31875 1.36679 5C2.4909 2.68125 4.44022 1.25 6.5 1.25C8.55978 1.25 10.5091 2.68125 11.6332 5C10.5091 7.31875 8.55978 8.75 6.5 8.75ZM6.5 2.5C5.98595 2.5 5.48344 2.64662 5.05602 2.92133C4.6286 3.19603 4.29547 3.58648 4.09875 4.04329C3.90203 4.50011 3.85056 5.00277 3.95085 5.48773C4.05113 5.97268 4.29867 6.41814 4.66216 6.76777C5.02565 7.1174 5.48877 7.3555 5.99294 7.45196C6.49712 7.54843 7.01971 7.49892 7.49463 7.3097C7.96955 7.12048 8.37547 6.80005 8.66107 6.38893C8.94666 5.9778 9.09909 5.49445 9.09909 5C9.09909 4.33696 8.82526 3.70107 8.33784 3.23223C7.85041 2.76339 7.18932 2.5 6.5 2.5ZM6.5 6.25C6.24297 6.25 5.99172 6.17669 5.77801 6.03934C5.5643 5.90199 5.39773 5.70676 5.29938 5.47835C5.20102 5.24995 5.17528 4.99861 5.22542 4.75614C5.27557 4.51366 5.39934 4.29093 5.58108 4.11612C5.76283 3.9413 5.99438 3.82225 6.24647 3.77402C6.49856 3.72579 6.75985 3.75054 6.99731 3.84515C7.23478 3.93976 7.43774 4.09998 7.58053 4.30554C7.72333 4.5111 7.79955 4.75277 7.79955 5C7.79955 5.33152 7.66263 5.64946 7.41892 5.88388C7.17521 6.1183 6.84466 6.25 6.5 6.25Z" fill="#7182A6" fill-opacity="0.5"/>
</svg>
