<svg width="151" height="30" viewBox="0 0 151 30" fill="none" xmlns="http://www.w3.org/2000/svg">
<path d="M3.6516 20.9077C5.75097 25.9562 12.891 27.0057 12.891 27.0057C11.0961 28.0595 9.19525 29.3296 6.57745 29.3296C6.57745 29.3296 2.07884 27.5301 0.479314 22.6316C-0.578387 19.3924 1.17909 14.9339 1.17909 14.9339C1.17909 14.9339 2.19847 14.024 2.97405 13.5162C3.85608 12.9386 5.43789 12.2227 5.43789 12.2227C5.43789 12.2227 2.37743 17.8436 3.6516 20.9077Z" fill="#CAE1F6"/>
<path d="M3.6516 20.9077C5.75097 25.9562 12.891 27.0057 12.891 27.0057C11.0961 28.0595 9.19525 29.3296 6.57745 29.3296C6.57745 29.3296 2.07884 27.5301 0.479314 22.6316C-0.578387 19.3924 1.17909 14.9339 1.17909 14.9339C1.17909 14.9339 2.19847 14.024 2.97405 13.5162C3.85608 12.9386 5.43789 12.2227 5.43789 12.2227C5.43789 12.2227 2.37743 17.8436 3.6516 20.9077Z" fill="url(#paint0_linear_1743_20129)"/>
<path d="M5.97629 9.08594C3.9119 10.8946 1.17773 14.9342 1.17773 14.9342C1.17773 14.9342 5.37647 10.8854 12.7243 10.6855C16.7715 10.5753 23.621 7.43644 23.621 7.43644C24.4729 4.9247 24.0124 3.59819 23.1211 1.23831C21.545 -0.445005 18.8172 0.707268 17.3229 1.98808C15.5734 3.48763 13.9679 4.63295 12.2744 5.63698C9.86224 7.06706 8.26246 7.08299 5.97629 9.08594Z" fill="url(#paint1_linear_1743_20129)"/>
<path d="M15.8753 29.3303C15.8753 29.3303 6.98923 29.4802 6.57812 29.3303C6.63934 29.1803 13.494 30.28 20.224 17.3839C26.328 5.68741 22.6733 0.838867 22.6733 0.838867L29.8711 7.43688C29.8711 7.43688 33.465 10.7359 27.2219 21.0828C21.4236 29.3303 15.8753 29.3303 15.8753 29.3303Z" fill="url(#paint2_linear_1743_20129)"/>
<path d="M46.8642 26.863H45.094C44.2473 26.863 43.6444 26.6706 43.2853 26.2858C42.9389 25.901 42.7658 25.343 42.7658 24.6118V23.6305C42.1116 23.5407 41.5151 23.3419 40.9763 23.034C40.4504 22.7133 40.0014 22.2772 39.6294 21.7256C39.2703 21.1612 38.988 20.4685 38.7828 19.6475C38.5904 18.8266 38.4942 17.8645 38.4942 16.7613C38.4942 15.5299 38.616 14.478 38.8598 13.6058C39.1163 12.7207 39.4691 12.0023 39.918 11.4507C40.3798 10.8863 40.9314 10.4758 41.5728 10.2193C42.227 9.94991 42.9582 9.81522 43.7663 9.81522C44.5744 9.81522 45.2992 9.94991 45.9406 10.2193C46.5948 10.4758 47.1464 10.8863 47.5953 11.4507C48.0571 12.0023 48.4099 12.7207 48.6536 13.6058C48.9102 14.478 49.0384 15.5299 49.0384 16.7613C49.0384 17.8389 48.9422 18.7753 48.7498 19.5706C48.5702 20.3659 48.3073 21.0457 47.9609 21.6102C47.6146 22.1617 47.1848 22.6043 46.6717 22.9378C46.1715 23.2585 45.6071 23.4766 44.9785 23.592V24.8812H46.8642V26.863ZM43.7663 21.5909C44.6386 21.5909 45.312 21.3215 45.7866 20.7828C46.2613 20.2312 46.4986 19.4487 46.4986 18.4353V15.0873C46.4986 14.074 46.2613 13.2979 45.7866 12.7591C45.312 12.2076 44.6386 11.9318 43.7663 11.9318C42.894 11.9318 42.2206 12.2076 41.746 12.7591C41.2714 13.2979 41.034 14.074 41.034 15.0873V18.4353C41.034 19.4487 41.2714 20.2312 41.746 20.7828C42.2206 21.3215 42.894 21.5909 43.7663 21.5909ZM56.5926 21.7833H56.3232C55.9384 23.0661 55.1238 23.7075 53.8796 23.7075C52.9816 23.7075 52.289 23.406 51.8015 22.8031C51.3269 22.1874 51.0896 21.3087 51.0896 20.1671V13.4326H53.4178V19.7822C53.4178 21.1035 53.9052 21.7641 54.8801 21.7641C55.3547 21.7641 55.7588 21.623 56.0923 21.3408C56.4258 21.0586 56.5926 20.6673 56.5926 20.1671V13.4326H58.9208V23.4766H56.5926V21.7833ZM68.0066 23.4766C66.9676 23.4766 66.4224 22.9057 66.3711 21.7641H66.1402C66.0119 22.3798 65.7233 22.8608 65.2743 23.2072C64.8254 23.5407 64.2674 23.7075 63.6004 23.7075C62.6768 23.7075 61.9841 23.4509 61.5223 22.9378C61.0605 22.4247 60.8296 21.7064 60.8296 20.7828C60.8296 19.7309 61.1567 18.9484 61.8109 18.4353C62.4651 17.9222 63.4079 17.6657 64.6394 17.6657H66.1979V16.7998C66.1979 16.2098 66.0697 15.7736 65.8131 15.4914C65.5694 15.2092 65.1589 15.0681 64.5817 15.0681C64.107 15.0681 63.7094 15.1836 63.3887 15.4144C63.068 15.6325 62.7858 15.9468 62.5421 16.3573L61.1759 15.1258C61.5479 14.5486 62.0161 14.0868 62.5806 13.7405C63.1578 13.3813 63.889 13.2017 64.7741 13.2017C67.2754 13.2017 68.5261 14.3818 68.5261 16.7421V21.6102H69.4112V23.4766H68.0066ZM64.4855 21.995C64.9601 21.995 65.3641 21.8603 65.6977 21.5909C66.0312 21.3087 66.1979 20.9239 66.1979 20.4364V19.1088H64.7933C63.7158 19.1088 63.177 19.5257 63.177 20.3595V20.7828C63.177 21.2061 63.2925 21.5139 63.5234 21.7064C63.7543 21.8988 64.075 21.995 64.4855 21.995ZM71.2168 23.4766V13.4326H73.545V15.1066H73.8143C74.212 13.8367 75.0137 13.2017 76.2195 13.2017C77.1174 13.2017 77.8101 13.5096 78.2976 14.1253C78.785 14.7282 79.0287 15.594 79.0287 16.7229V23.4766H76.7005V17.1269C76.7005 15.8185 76.2131 15.1643 75.2382 15.1643C74.7636 15.1643 74.3595 15.3054 74.026 15.5876C73.7053 15.857 73.545 16.2418 73.545 16.7421V23.4766H71.2168ZM84.2283 23.4766C83.4201 23.4766 82.8365 23.297 82.4773 22.9378C82.1181 22.5786 81.9385 22.0078 81.9385 21.2253V15.299H80.6109V13.4326H81.3036C81.6371 13.4326 81.8616 13.3556 81.977 13.2017C82.1053 13.0478 82.1694 12.804 82.1694 12.4705V10.7003H84.2667V13.4326H86.0754V15.299H84.2667V21.6102H85.9215V23.4766H84.2283ZM94.4259 23.4766C93.3868 23.4766 92.8417 22.9057 92.7903 21.7641H92.5594C92.4312 22.3798 92.1425 22.8608 91.6936 23.2072C91.2446 23.5407 90.6866 23.7075 90.0196 23.7075C89.096 23.7075 88.4033 23.4509 87.9415 22.9378C87.4797 22.4247 87.2488 21.7064 87.2488 20.7828C87.2488 19.7309 87.5759 18.9484 88.2301 18.4353C88.8844 17.9222 89.8272 17.6657 91.0586 17.6657H92.6172V16.7998C92.6172 16.2098 92.4889 15.7736 92.2323 15.4914C91.9886 15.2092 91.5781 15.0681 91.0009 15.0681C90.5263 15.0681 90.1286 15.1836 89.8079 15.4144C89.4872 15.6325 89.205 15.9468 88.9613 16.3573L87.5952 15.1258C87.9672 14.5486 88.4354 14.0868 88.9998 13.7405C89.577 13.3813 90.3082 13.2017 91.1933 13.2017C93.6947 13.2017 94.9454 14.3818 94.9454 16.7421V21.6102H95.8305V23.4766H94.4259ZM90.9047 21.995C91.3793 21.995 91.7834 21.8603 92.1169 21.5909C92.4504 21.3087 92.6172 20.9239 92.6172 20.4364V19.1088H91.2126C90.135 19.1088 89.5963 19.5257 89.5963 20.3595V20.7828C89.5963 21.2061 89.7117 21.5139 89.9426 21.7064C90.1735 21.8988 90.4942 21.995 90.9047 21.995ZM97.636 23.4766V13.4326H99.9642V15.1066H100.234C100.631 13.8367 101.42 13.2017 102.6 13.2017C103.857 13.2017 104.672 13.8623 105.044 15.1836H105.275C105.493 14.5037 105.826 14.0034 106.275 13.6827C106.737 13.362 107.295 13.2017 107.949 13.2017C108.796 13.2017 109.457 13.5096 109.931 14.1253C110.406 14.7282 110.643 15.594 110.643 16.7229V23.4766H108.315V17.1269C108.315 15.8185 107.847 15.1643 106.91 15.1643C106.461 15.1643 106.077 15.3054 105.756 15.5876C105.448 15.857 105.294 16.2418 105.294 16.7421V23.4766H102.966V17.1269C102.966 16.4342 102.85 15.934 102.619 15.6261C102.389 15.3182 102.042 15.1643 101.58 15.1643C101.132 15.1643 100.747 15.3054 100.426 15.5876C100.118 15.857 99.9642 16.2418 99.9642 16.7421V23.4766H97.636ZM119.605 23.4766C118.566 23.4766 118.021 22.9057 117.969 21.7641H117.739C117.61 22.3798 117.322 22.8608 116.873 23.2072C116.424 23.5407 115.866 23.7075 115.199 23.7075C114.275 23.7075 113.582 23.4509 113.121 22.9378C112.659 22.4247 112.428 21.7064 112.428 20.7828C112.428 19.7309 112.755 18.9484 113.409 18.4353C114.063 17.9222 115.006 17.6657 116.238 17.6657H117.796V16.7998C117.796 16.2098 117.668 15.7736 117.411 15.4914C117.168 15.2092 116.757 15.0681 116.18 15.0681C115.705 15.0681 115.308 15.1836 114.987 15.4144C114.666 15.6325 114.384 15.9468 114.14 16.3573L112.774 15.1258C113.146 14.5486 113.614 14.0868 114.179 13.7405C114.756 13.3813 115.487 13.2017 116.372 13.2017C118.874 13.2017 120.124 14.3818 120.124 16.7421V21.6102H121.01V23.4766H119.605ZM116.084 21.995C116.558 21.995 116.962 21.8603 117.296 21.5909C117.629 21.3087 117.796 20.9239 117.796 20.4364V19.1088H116.392C115.314 19.1088 114.775 19.5257 114.775 20.3595V20.7828C114.775 21.2061 114.891 21.5139 115.122 21.7064C115.353 21.8988 115.673 21.995 116.084 21.995ZM125.605 23.4766C124.796 23.4766 124.213 23.297 123.854 22.9378C123.494 22.5786 123.315 22.0078 123.315 21.2253V15.299H121.987V13.4326H122.68C123.013 13.4326 123.238 13.3556 123.353 13.2017C123.482 13.0478 123.546 12.804 123.546 12.4705V10.7003H125.643V13.4326H127.452V15.299H125.643V21.6102H127.298V23.4766H125.605ZM130.415 11.8548C129.927 11.8548 129.574 11.7522 129.356 11.5469C129.138 11.3289 129.029 11.0403 129.029 10.6811V10.2963C129.029 9.93708 129.138 9.65488 129.356 9.44964C129.574 9.23157 129.927 9.12254 130.415 9.12254C130.902 9.12254 131.255 9.23157 131.473 9.44964C131.691 9.65488 131.8 9.93708 131.8 10.2963V10.6811C131.8 11.0403 131.691 11.3289 131.473 11.5469C131.255 11.7522 130.902 11.8548 130.415 11.8548ZM129.26 13.4326H131.588V23.4766H129.26V13.4326ZM137.668 23.7075C136.308 23.7075 135.269 23.2841 134.551 22.4375C133.845 21.5909 133.492 20.2633 133.492 18.4546C133.492 16.6459 133.845 15.3182 134.551 14.4716C135.269 13.625 136.308 13.2017 137.668 13.2017C138.655 13.2017 139.438 13.4262 140.015 13.8751C140.605 14.3241 141.029 14.9398 141.285 15.7223L139.38 16.5689C139.278 16.0815 139.092 15.7159 138.822 15.4722C138.566 15.2156 138.181 15.0873 137.668 15.0873C136.513 15.0873 135.936 15.78 135.936 17.1654V19.7437C135.936 21.1291 136.513 21.8218 137.668 21.8218C138.206 21.8218 138.617 21.6935 138.899 21.437C139.181 21.1804 139.393 20.7828 139.534 20.244L141.343 21.1099C140.753 22.8416 139.528 23.7075 137.668 23.7075ZM146.074 23.7075C145.24 23.7075 144.509 23.5599 143.88 23.2649C143.252 22.957 142.7 22.5017 142.225 21.8988L143.649 20.5134C143.97 20.9624 144.329 21.3023 144.727 21.5332C145.124 21.7641 145.586 21.8795 146.112 21.8795C147.087 21.8795 147.574 21.4691 147.574 20.6481C147.574 20.3274 147.491 20.0773 147.324 19.8977C147.17 19.7053 146.901 19.577 146.516 19.5128L145.573 19.3397C144.521 19.1473 143.758 18.8202 143.284 18.3584C142.809 17.8966 142.572 17.2231 142.572 16.338C142.572 15.2862 142.88 14.5037 143.495 13.9906C144.111 13.4647 144.983 13.2017 146.112 13.2017C146.895 13.2017 147.568 13.33 148.132 13.5865C148.71 13.8431 149.21 14.2215 149.633 14.7218L148.267 16.0879C148.011 15.7672 147.696 15.5107 147.324 15.3182C146.965 15.1258 146.561 15.0296 146.112 15.0296C145.214 15.0296 144.765 15.4337 144.765 16.2418C144.765 16.5753 144.855 16.8319 145.035 17.0115C145.214 17.1782 145.496 17.2937 145.881 17.3578L146.843 17.531C147.895 17.7234 148.646 18.0505 149.095 18.5123C149.556 18.9613 149.787 19.5962 149.787 20.4172C149.787 21.4562 149.467 22.2644 148.825 22.8416C148.184 23.4188 147.267 23.7075 146.074 23.7075Z" fill="#014182"/>
<defs>
<linearGradient id="paint0_linear_1743_20129" x1="0.140634" y1="12.3458" x2="-1.86686" y2="29.3911" gradientUnits="userSpaceOnUse">
<stop stop-color="#59AEFF"/>
<stop offset="1" stop-color="#003686"/>
</linearGradient>
<linearGradient id="paint1_linear_1743_20129" x1="21.4828" y1="3.03777" x2="4.20467" y2="12.2229" gradientUnits="userSpaceOnUse">
<stop stop-color="#0082FF"/>
<stop offset="1" stop-color="#003B77"/>
</linearGradient>
<linearGradient id="paint2_linear_1743_20129" x1="22.7345" y1="0.838868" x2="9.7384" y2="31.3797" gradientUnits="userSpaceOnUse">
<stop stop-color="#003E7C"/>
<stop offset="1" stop-color="#0083FF"/>
</linearGradient>
</defs>
</svg>
