<svg xmlns="http://www.w3.org/2000/svg">
	<symbol id="gears" viewBox="0 0 16 16">
		<path fill-rule="evenodd" clip-rule="evenodd" d="M6.324 5.493a3.016 3.016 0 1 1 3.351 5.015 3.016 3.016 0 0 1-3.35-5.015Zm.507 4.257a2.104 2.104 0 1 0 2.338-3.5 2.104 2.104 0 0 0-2.338 3.5Z" />
		<path fill-rule="evenodd" clip-rule="evenodd" d="m13.876 5.886.757.136a1.328 1.328 0 0 1 1.124 1.338v1.29a1.348 1.348 0 0 1-1.134 1.338l-.757.126c-.067.184-.135.368-.223.552l.456.621a1.367 1.367 0 0 1-.145 1.745l-.912.912a1.387 1.387 0 0 1-.97.397 1.357 1.357 0 0 1-.795-.252l-.62-.446-.543.223-.136.757a1.348 1.348 0 0 1-1.338 1.134H7.36a1.357 1.357 0 0 1-1.338-1.134l-.126-.757a4.793 4.793 0 0 1-.514-.213l-.64.456a1.309 1.309 0 0 1-.786.252c-.362 0-.71-.143-.97-.398l-.901-.911a1.338 1.338 0 0 1-.146-1.745l.437-.611a4.555 4.555 0 0 1-.233-.553l-.766-.136A1.348 1.348 0 0 1 .242 8.67V7.39a1.348 1.348 0 0 1 1.183-1.338l.737-.126c.066-.189.144-.374.233-.553l-.456-.64a1.348 1.348 0 0 1 .059-1.745l.911-.912a1.348 1.348 0 0 1 .97-.397c.293-.005.58.087.814.262l.582.436a5.38 5.38 0 0 1 .543-.233l.175-.766A1.348 1.348 0 0 1 7.33.243h1.28a1.367 1.367 0 0 1 1.348 1.134l.116.737.591.243.611-.446c.228-.167.504-.255.786-.252a1.348 1.348 0 0 1 .97.397l.911.912a1.338 1.338 0 0 1 .145 1.745l-.446.63c.088.177.165.358.233.543Zm.868 3.045a.446.446 0 0 0 .102-.291l-.039-1.26a.427.427 0 0 0-.369-.437l-.97-.165a.514.514 0 0 1-.387-.34c-.097-.303-.22-.599-.368-.882a.514.514 0 0 1 0-.513l.591-.825a.446.446 0 0 0 0-.572l-.912-.911a.435.435 0 0 0-.31-.136.427.427 0 0 0-.262.087l-.834.592a.495.495 0 0 1-.513 0 4.773 4.773 0 0 0-.902-.369.504.504 0 0 1-.35-.388l-.164-.97a.446.446 0 0 0-.446-.368H7.33a.446.446 0 0 0-.446.369l-.175.97a.485.485 0 0 1-.33.387 5.74 5.74 0 0 0-.901.35.485.485 0 0 1-.524 0l-.814-.592a.446.446 0 0 0-.572.058l-.912.902a.456.456 0 0 0 0 .582l.601.834a.495.495 0 0 1 0 .513 5.39 5.39 0 0 0-.349.883.495.495 0 0 1-.388.34l-.97.164a.446.446 0 0 0-.368.446v1.28a.446.446 0 0 0 .369.446l.97.175a.485.485 0 0 1 .387.339c.092.313.209.617.35.912a.475.475 0 0 1 0 .513l-.583.815a.456.456 0 0 0 .049.582l.911.901a.437.437 0 0 0 .31.136.484.484 0 0 0 .262-.077l.834-.601a.533.533 0 0 1 .514-.04c.273.144.559.261.854.35a.514.514 0 0 1 .339.388l.165.97a.446.446 0 0 0 .436.368h1.348a.446.446 0 0 0 .446-.369l.165-.97a.514.514 0 0 1 .34-.387c.303-.094.599-.214.882-.359a.475.475 0 0 1 .514 0l.824.582a.426.426 0 0 0 .262.087.456.456 0 0 0 .32-.136l.901-.902a.456.456 0 0 0 0-.581l-.591-.834a.475.475 0 0 1 0-.504c.143-.285.263-.58.359-.883a.495.495 0 0 1 .388-.34l.97-.164a.446.446 0 0 0 .266-.155Z" />
	</symbol>

	<symbol id="plus" viewBox="0 0 10 10">
		<path d="M4.22 9.88v-4.2H0V4.2h4.22V.12h1.56V4.2H10v1.48H5.78v4.2H4.22Z" />
	</symbol>
</svg>
