<svg width="16" height="16" viewBox="0 0 16 16" fill="none" xmlns="http://www.w3.org/2000/svg" class='wrap'>
	<path fill-rule="evenodd" clip-rule="evenodd" d="M5.04374 2.04367C4.99212 2.06696 4.51796 2.52018 3.99001 3.05079C3.15971 3.88535 3.02726 4.03137 3.00874 4.1328C2.99697 4.19727 2.9971 4.30211 3.00905 4.36578C3.02266 4.43838 3.07407 4.52474 3.14704 4.59769C3.22004 4.6706 3.30646 4.72197 3.37911 4.73558C3.44282 4.74752 3.54773 4.74752 3.61225 4.73554C3.71012 4.71741 3.81391 4.6302 4.23804 4.20959L4.74649 3.70534V8.6532C4.74649 12.8131 4.75344 13.6176 4.79011 13.7053C4.81411 13.7627 4.88692 13.8502 4.95194 13.8998C5.05056 13.9749 5.1 13.9899 5.25022 13.9899C5.38327 13.9899 5.45282 13.973 5.51668 13.9254C5.56421 13.8899 5.63211 13.8221 5.66759 13.7746C5.73205 13.6883 5.73211 13.6831 5.74022 8.69707L5.74832 3.70591L6.25649 4.20988C6.68037 4.63024 6.78413 4.71741 6.882 4.73554C6.94655 4.74752 7.05143 4.74752 7.11514 4.73558C7.18779 4.72197 7.27421 4.6706 7.34721 4.59769C7.42018 4.52474 7.47159 4.43838 7.4852 4.36578C7.49715 4.30211 7.49728 4.19727 7.48551 4.1328C7.46699 4.03137 7.33454 3.88532 6.50424 3.05076C5.97317 2.51699 5.49938 2.06649 5.44369 2.04238C5.3883 2.0184 5.29678 1.99936 5.2403 2.00002C5.18383 2.0007 5.09537 2.02034 5.04374 2.04367Z" fill="currentColor" stroke="currentColor" stroke-width="0.3" class='up'/>
	<path fill-rule="evenodd" clip-rule="evenodd" d="M9.54942 2.04295C9.4978 2.06587 9.4248 2.11808 9.38725 2.15898C9.34967 2.19985 9.30389 2.27292 9.28556 2.32132C9.2624 2.38232 9.25217 3.92759 9.25217 7.35416V12.299L8.74372 11.7947C8.31959 11.3741 8.2158 11.2869 8.11793 11.2688C8.05341 11.2568 7.9485 11.2568 7.88479 11.2687C7.81214 11.2823 7.72572 11.3337 7.65272 11.4066C7.57975 11.4796 7.52834 11.5659 7.51473 11.6385C7.50278 11.7022 7.50256 11.807 7.5142 11.8715C7.53266 11.9734 7.66533 12.1185 8.52679 12.9794C9.38825 13.8403 9.5335 13.9728 9.63547 13.9913C9.69999 14.0029 9.80559 14.0029 9.87014 13.9913C9.97211 13.9728 10.1174 13.8403 10.9788 12.9794C11.8403 12.1185 11.9729 11.9734 11.9914 11.8715C12.003 11.807 12.0028 11.7022 11.9909 11.6385C11.9773 11.5659 11.9259 11.4796 11.8529 11.4066C11.7799 11.3337 11.6935 11.2823 11.6208 11.2687C11.5571 11.2568 11.4522 11.2568 11.3877 11.2688C11.2898 11.2869 11.1861 11.3741 10.7622 11.7944L10.254 12.2984L10.2459 7.31029L10.2378 2.32223L10.1476 2.2041C10.098 2.13913 10.0105 2.06637 9.95306 2.04238C9.89564 2.0184 9.80246 1.99936 9.74598 2.00002C9.68951 2.0007 9.60105 2.02 9.54942 2.04295Z" fill="currentColor" stroke="currentColor" stroke-width="0.3" class='down'/>
	</svg>

