<svg width="392" height="231" viewBox="0 0 392 231" fill="none" xmlns="http://www.w3.org/2000/svg">
<g clip-path="url(#clip0_183_1379)">
<g filter="url(#filter0_bi_183_1379)">
<path d="M391.907 0H0.201691V230.167H391.907V0Z" fill="url(#paint0_linear_183_1379)"/>
<path d="M391.506 0.401623H0.603302V229.765H391.506V0.401623Z" stroke="#E2E9F6" stroke-width="0.803246"/>
</g>
<path d="M30.2271 71.0385L87.8956 71.1619" stroke="#1790FF" stroke-width="0.660903" stroke-linecap="round"/>
<path d="M91.417 67.6367H225.801" stroke="#1790FF" stroke-width="0.660903" stroke-linecap="round"/>
<path d="M232.848 68.9614L371.18 68.8484" stroke="#1790FF" stroke-width="0.881203" stroke-linecap="round" stroke-linejoin="bevel" stroke-dasharray="0 1.76"/>
<path d="M35.1938 206.629V206.436L36.2294 205.372C36.533 205.058 36.6848 204.792 36.6848 204.574C36.6848 204.386 36.6257 204.238 36.5075 204.131C36.3893 204.023 36.2415 203.97 36.0642 203.97C35.7499 203.97 35.5256 204.112 35.3912 204.397L35.2099 204.288C35.2932 204.119 35.4087 203.99 35.5565 203.901C35.7069 203.81 35.8762 203.764 36.0642 203.764C36.2926 203.764 36.4887 203.837 36.6526 203.982C36.8191 204.127 36.9024 204.324 36.9024 204.574C36.9024 204.735 36.8554 204.893 36.7614 205.046C36.67 205.196 36.5411 205.356 36.3745 205.525L35.5 206.424H36.9669V206.629H35.1938ZM39.1533 206.279C38.9679 206.542 38.7087 206.674 38.3756 206.674C38.0425 206.674 37.7832 206.542 37.5978 206.279C37.4125 206.016 37.3198 205.662 37.3198 205.219C37.3198 204.776 37.4125 204.422 37.5978 204.159C37.7832 203.896 38.0425 203.764 38.3756 203.764C38.7087 203.764 38.9679 203.896 39.1533 204.159C39.3387 204.422 39.4314 204.776 39.4314 205.219C39.4314 205.662 39.3387 206.016 39.1533 206.279ZM37.759 206.142C37.9068 206.359 38.1123 206.468 38.3756 206.468C38.6389 206.468 38.8444 206.359 38.9921 206.142C39.1399 205.922 39.2138 205.614 39.2138 205.219C39.2138 204.824 39.1399 204.518 38.9921 204.3C38.8444 204.08 38.6389 203.97 38.3756 203.97C38.1123 203.97 37.9068 204.08 37.759 204.3C37.6113 204.518 37.5374 204.824 37.5374 205.219C37.5374 205.614 37.6113 205.922 37.759 206.142ZM39.7784 206.629V206.436L40.814 205.372C41.1176 205.058 41.2694 204.792 41.2694 204.574C41.2694 204.386 41.2103 204.238 41.0921 204.131C40.9739 204.023 40.8261 203.97 40.6488 203.97C40.3345 203.97 40.1102 204.112 39.9759 204.397L39.7945 204.288C39.8778 204.119 39.9933 203.99 40.1411 203.901C40.2915 203.81 40.4608 203.764 40.6488 203.764C40.8772 203.764 41.0733 203.837 41.2372 203.982C41.4037 204.127 41.487 204.324 41.487 204.574C41.487 204.735 41.44 204.893 41.346 205.046C41.2546 205.196 41.1257 205.356 40.9591 205.525L40.0847 206.424H41.5515V206.629H39.7784ZM43.7379 206.279C43.5526 206.542 43.2933 206.674 42.9602 206.674C42.6271 206.674 42.3678 206.542 42.1824 206.279C41.9971 206.016 41.9044 205.662 41.9044 205.219C41.9044 204.776 41.9971 204.422 42.1824 204.159C42.3678 203.896 42.6271 203.764 42.9602 203.764C43.2933 203.764 43.5526 203.896 43.7379 204.159C43.9233 204.422 44.016 204.776 44.016 205.219C44.016 205.662 43.9233 206.016 43.7379 206.279ZM42.3436 206.142C42.4914 206.359 42.6969 206.468 42.9602 206.468C43.2235 206.468 43.429 206.359 43.5767 206.142C43.7245 205.922 43.7984 205.614 43.7984 205.219C43.7984 204.824 43.7245 204.518 43.5767 204.3C43.429 204.08 43.2235 203.97 42.9602 203.97C42.6969 203.97 42.4914 204.08 42.3436 204.3C42.1959 204.518 42.122 204.824 42.122 205.219C42.122 205.614 42.1959 205.922 42.3436 206.142ZM46.2544 206.629L45.4364 203.809H45.6621L46.3914 206.343L47.1772 203.809H47.4311L48.2209 206.343L48.9463 203.809H49.172L48.3539 206.629H48.096L47.3062 204.087L46.5123 206.629H46.2544ZM49.4002 206.629V206.436L50.4358 205.372C50.7394 205.058 50.8912 204.792 50.8912 204.574C50.8912 204.386 50.8321 204.238 50.7139 204.131C50.5957 204.023 50.4479 203.97 50.2706 203.97C49.9563 203.97 49.732 204.112 49.5976 204.397L49.4163 204.288C49.4996 204.119 49.6151 203.99 49.7629 203.901C49.9133 203.81 50.0825 203.764 50.2706 203.764C50.4989 203.764 50.6951 203.837 50.8589 203.982C51.0255 204.127 51.1088 204.324 51.1088 204.574C51.1088 204.735 51.0618 204.893 50.9677 205.046C50.8764 205.196 50.7474 205.356 50.5809 205.525L49.7064 206.424H51.1733V206.629H49.4002ZM52.3532 204.816C52.6299 204.816 52.8569 204.903 53.0342 205.078C53.2115 205.25 53.3002 205.473 53.3002 205.747C53.3002 206.018 53.2115 206.241 53.0342 206.416C52.8569 206.588 52.6299 206.674 52.3532 206.674C52.0765 206.674 51.8495 206.588 51.6722 206.416C51.4949 206.241 51.4062 206.018 51.4062 205.747C51.4062 205.535 51.464 205.347 51.5795 205.183L52.5265 203.809H52.7683L52.047 204.86C52.149 204.831 52.2511 204.816 52.3532 204.816ZM51.8213 206.267C51.9556 206.401 52.1329 206.468 52.3532 206.468C52.5735 206.468 52.7508 206.401 52.8851 206.267C53.0195 206.132 53.0866 205.959 53.0866 205.747C53.0866 205.532 53.0195 205.357 52.8851 205.223C52.7508 205.089 52.5735 205.022 52.3532 205.022C52.1329 205.022 51.9556 205.089 51.8213 205.223C51.6897 205.357 51.6238 205.532 51.6238 205.747C51.6238 205.959 51.6897 206.132 51.8213 206.267Z" fill="#4F4F4F"/>
<path d="M69.1201 206.465V206.271L70.1557 205.208C70.4593 204.893 70.6111 204.627 70.6111 204.41C70.6111 204.222 70.552 204.074 70.4337 203.966C70.3155 203.859 70.1678 203.805 69.9905 203.805C69.6762 203.805 69.4518 203.948 69.3175 204.232L69.1362 204.124C69.2195 203.954 69.335 203.825 69.4827 203.737C69.6332 203.645 69.8024 203.6 69.9905 203.6C70.2188 203.6 70.4149 203.672 70.5788 203.817C70.7454 203.962 70.8287 204.16 70.8287 204.41C70.8287 204.571 70.7816 204.728 70.6876 204.881C70.5963 205.032 70.4673 205.191 70.3008 205.361L69.4263 206.259H70.8931V206.465H69.1201ZM73.0796 206.114C72.8942 206.378 72.635 206.509 72.3018 206.509C71.9687 206.509 71.7095 206.378 71.5241 206.114C71.3387 205.851 71.2461 205.498 71.2461 205.054C71.2461 204.611 71.3387 204.258 71.5241 203.995C71.7095 203.731 71.9687 203.6 72.3018 203.6C72.635 203.6 72.8942 203.731 73.0796 203.995C73.265 204.258 73.3576 204.611 73.3576 205.054C73.3576 205.498 73.265 205.851 73.0796 206.114ZM71.6853 205.977C71.8331 206.195 72.0386 206.304 72.3018 206.304C72.5651 206.304 72.7706 206.195 72.9184 205.977C73.0662 205.757 73.14 205.449 73.14 205.054C73.14 204.66 73.0662 204.353 72.9184 204.136C72.7706 203.915 72.5651 203.805 72.3018 203.805C72.0386 203.805 71.8331 203.915 71.6853 204.136C71.5375 204.353 71.4637 204.66 71.4637 205.054C71.4637 205.449 71.5375 205.757 71.6853 205.977ZM73.7047 206.465V206.271L74.7403 205.208C75.0439 204.893 75.1957 204.627 75.1957 204.41C75.1957 204.222 75.1366 204.074 75.0184 203.966C74.9002 203.859 74.7524 203.805 74.5751 203.805C74.2608 203.805 74.0364 203.948 73.9021 204.232L73.7208 204.124C73.8041 203.954 73.9196 203.825 74.0673 203.737C74.2178 203.645 74.387 203.6 74.5751 203.6C74.8034 203.6 74.9996 203.672 75.1634 203.817C75.33 203.962 75.4133 204.16 75.4133 204.41C75.4133 204.571 75.3663 204.728 75.2722 204.881C75.1809 205.032 75.0519 205.191 74.8854 205.361L74.0109 206.259H75.4777V206.465H73.7047ZM77.6642 206.114C77.4788 206.378 77.2196 206.509 76.8865 206.509C76.5533 206.509 76.2941 206.378 76.1087 206.114C75.9234 205.851 75.8307 205.498 75.8307 205.054C75.8307 204.611 75.9234 204.258 76.1087 203.995C76.2941 203.731 76.5533 203.6 76.8865 203.6C77.2196 203.6 77.4788 203.731 77.6642 203.995C77.8496 204.258 77.9422 204.611 77.9422 205.054C77.9422 205.498 77.8496 205.851 77.6642 206.114ZM76.2699 205.977C76.4177 206.195 76.6232 206.304 76.8865 206.304C77.1497 206.304 77.3552 206.195 77.503 205.977C77.6508 205.757 77.7246 205.449 77.7246 205.054C77.7246 204.66 77.6508 204.353 77.503 204.136C77.3552 203.915 77.1497 203.805 76.8865 203.805C76.6232 203.805 76.4177 203.915 76.2699 204.136C76.1222 204.353 76.0483 204.66 76.0483 205.054C76.0483 205.449 76.1222 205.757 76.2699 205.977ZM80.1807 206.465L79.3627 203.644H79.5883L80.3177 206.179L81.1035 203.644H81.3574L82.1472 206.179L82.8726 203.644H83.0982L82.2802 206.465H82.0223L81.2325 203.922L80.4386 206.465H80.1807ZM84.4005 204.817C84.6369 204.841 84.8317 204.925 84.9848 205.071C85.1379 205.216 85.2145 205.409 85.2145 205.651C85.2145 205.914 85.1245 206.124 84.9445 206.279C84.7645 206.433 84.5442 206.509 84.2836 206.509C84.0741 206.509 83.8887 206.462 83.7275 206.368C83.5663 206.274 83.4522 206.142 83.385 205.973L83.5623 205.868C83.6134 206.008 83.702 206.116 83.8283 206.191C83.9545 206.266 84.1063 206.304 84.2836 206.304C84.4932 206.304 84.6651 206.245 84.7994 206.126C84.9338 206.008 85.0009 205.85 85.0009 205.651C85.0009 205.452 84.9324 205.294 84.7954 205.175C84.6611 205.057 84.4878 204.998 84.2756 204.998V204.994L84.2715 204.998H84.2151L84.1224 204.857L84.8357 203.846H83.4575V203.644H85.0815V203.846L84.4005 204.817ZM86.1707 203.644H86.3521V206.465H86.1385V203.878L85.4857 204.083L85.4333 203.898L86.1707 203.644Z" fill="#4F4F4F"/>
<path d="M113.62 206.465V206.271L114.656 205.208C114.959 204.893 115.111 204.627 115.111 204.41C115.111 204.222 115.052 204.074 114.934 203.966C114.816 203.859 114.668 203.805 114.49 203.805C114.176 203.805 113.952 203.948 113.818 204.232L113.636 204.124C113.719 203.954 113.835 203.825 113.983 203.737C114.133 203.645 114.302 203.6 114.49 203.6C114.719 203.6 114.915 203.672 115.079 203.817C115.245 203.962 115.329 204.16 115.329 204.41C115.329 204.571 115.282 204.728 115.188 204.881C115.096 205.032 114.967 205.191 114.801 205.361L113.926 206.259H115.393V206.465H113.62ZM117.58 206.114C117.394 206.378 117.135 206.509 116.802 206.509C116.469 206.509 116.209 206.378 116.024 206.114C115.839 205.851 115.746 205.498 115.746 205.054C115.746 204.611 115.839 204.258 116.024 203.995C116.209 203.731 116.469 203.6 116.802 203.6C117.135 203.6 117.394 203.731 117.58 203.995C117.765 204.258 117.858 204.611 117.858 205.054C117.858 205.498 117.765 205.851 117.58 206.114ZM116.185 205.977C116.333 206.195 116.539 206.304 116.802 206.304C117.065 206.304 117.271 206.195 117.418 205.977C117.566 205.757 117.64 205.449 117.64 205.054C117.64 204.66 117.566 204.353 117.418 204.136C117.271 203.915 117.065 203.805 116.802 203.805C116.539 203.805 116.333 203.915 116.185 204.136C116.038 204.353 115.964 204.66 115.964 205.054C115.964 205.449 116.038 205.757 116.185 205.977ZM118.205 206.465V206.271L119.24 205.208C119.544 204.893 119.696 204.627 119.696 204.41C119.696 204.222 119.637 204.074 119.518 203.966C119.4 203.859 119.252 203.805 119.075 203.805C118.761 203.805 118.536 203.948 118.402 204.232L118.221 204.124C118.304 203.954 118.42 203.825 118.567 203.737C118.718 203.645 118.887 203.6 119.075 203.6C119.303 203.6 119.5 203.672 119.663 203.817C119.83 203.962 119.913 204.16 119.913 204.41C119.913 204.571 119.866 204.728 119.772 204.881C119.681 205.032 119.552 205.191 119.385 205.361L118.511 206.259H119.978V206.465H118.205ZM122.164 206.114C121.979 206.378 121.72 206.509 121.386 206.509C121.053 206.509 120.794 206.378 120.609 206.114C120.423 205.851 120.331 205.498 120.331 205.054C120.331 204.611 120.423 204.258 120.609 203.995C120.794 203.731 121.053 203.6 121.386 203.6C121.72 203.6 121.979 203.731 122.164 203.995C122.35 204.258 122.442 204.611 122.442 205.054C122.442 205.498 122.35 205.851 122.164 206.114ZM120.77 205.977C120.918 206.195 121.123 206.304 121.386 206.304C121.65 206.304 121.855 206.195 122.003 205.977C122.151 205.757 122.225 205.449 122.225 205.054C122.225 204.66 122.151 204.353 122.003 204.136C121.855 203.915 121.65 203.805 121.386 203.805C121.123 203.805 120.918 203.915 120.77 204.136C120.622 204.353 120.548 204.66 120.548 205.054C120.548 205.449 120.622 205.757 120.77 205.977ZM124.681 206.465L123.863 203.644H124.088L124.818 206.179L125.604 203.644H125.857L126.647 206.179L127.373 203.644H127.598L126.78 206.465H126.522L125.732 203.922L124.939 206.465H124.681ZM128.9 204.817C129.137 204.841 129.332 204.925 129.485 205.071C129.638 205.216 129.715 205.409 129.715 205.651C129.715 205.914 129.625 206.124 129.445 206.279C129.265 206.433 129.044 206.509 128.784 206.509C128.574 206.509 128.389 206.462 128.228 206.368C128.066 206.274 127.952 206.142 127.885 205.973L128.062 205.868C128.113 206.008 128.202 206.116 128.328 206.191C128.455 206.266 128.606 206.304 128.784 206.304C128.993 206.304 129.165 206.245 129.299 206.126C129.434 206.008 129.501 205.85 129.501 205.651C129.501 205.452 129.432 205.294 129.295 205.175C129.161 205.057 128.988 204.998 128.776 204.998V204.994L128.772 204.998H128.715L128.622 204.857L129.336 203.846H127.958V203.644H129.582V203.846L128.9 204.817ZM130.984 204.651C131.261 204.651 131.488 204.739 131.665 204.913C131.842 205.085 131.931 205.308 131.931 205.582C131.931 205.854 131.842 206.077 131.665 206.251C131.488 206.423 131.261 206.509 130.984 206.509C130.707 206.509 130.48 206.423 130.303 206.251C130.126 206.077 130.037 205.854 130.037 205.582C130.037 205.37 130.095 205.182 130.21 205.018L131.157 203.644H131.399L130.678 204.696C130.78 204.666 130.882 204.651 130.984 204.651ZM130.452 206.102C130.587 206.236 130.764 206.304 130.984 206.304C131.204 206.304 131.382 206.236 131.516 206.102C131.65 205.968 131.718 205.795 131.718 205.582C131.718 205.367 131.65 205.193 131.516 205.058C131.382 204.924 131.204 204.857 130.984 204.857C130.764 204.857 130.587 204.924 130.452 205.058C130.321 205.193 130.255 205.367 130.255 205.582C130.255 205.795 130.321 205.968 130.452 206.102Z" fill="#4F4F4F"/>
<path d="M165.171 206.465V206.271L166.207 205.208C166.511 204.893 166.662 204.627 166.662 204.41C166.662 204.222 166.603 204.074 166.485 203.966C166.367 203.859 166.219 203.805 166.042 203.805C165.727 203.805 165.503 203.948 165.369 204.232L165.187 204.124C165.271 203.954 165.386 203.825 165.534 203.737C165.684 203.645 165.854 203.6 166.042 203.6C166.27 203.6 166.466 203.672 166.63 203.817C166.797 203.962 166.88 204.16 166.88 204.41C166.88 204.571 166.833 204.728 166.739 204.881C166.648 205.032 166.519 205.191 166.352 205.361L165.478 206.259H166.944V206.465H165.171ZM169.131 206.114C168.945 206.378 168.686 206.509 168.353 206.509C168.02 206.509 167.761 206.378 167.575 206.114C167.39 205.851 167.297 205.498 167.297 205.054C167.297 204.611 167.39 204.258 167.575 203.995C167.761 203.731 168.02 203.6 168.353 203.6C168.686 203.6 168.945 203.731 169.131 203.995C169.316 204.258 169.409 204.611 169.409 205.054C169.409 205.498 169.316 205.851 169.131 206.114ZM167.737 205.977C167.884 206.195 168.09 206.304 168.353 206.304C168.616 206.304 168.822 206.195 168.97 205.977C169.117 205.757 169.191 205.449 169.191 205.054C169.191 204.66 169.117 204.353 168.97 204.136C168.822 203.915 168.616 203.805 168.353 203.805C168.09 203.805 167.884 203.915 167.737 204.136C167.589 204.353 167.515 204.66 167.515 205.054C167.515 205.449 167.589 205.757 167.737 205.977ZM169.756 206.465V206.271L170.792 205.208C171.095 204.893 171.247 204.627 171.247 204.41C171.247 204.222 171.188 204.074 171.07 203.966C170.951 203.859 170.804 203.805 170.626 203.805C170.312 203.805 170.088 203.948 169.953 204.232L169.772 204.124C169.855 203.954 169.971 203.825 170.119 203.737C170.269 203.645 170.438 203.6 170.626 203.6C170.855 203.6 171.051 203.672 171.215 203.817C171.381 203.962 171.465 204.16 171.465 204.41C171.465 204.571 171.418 204.728 171.324 204.881C171.232 205.032 171.103 205.191 170.937 205.361L170.062 206.259H171.529V206.465H169.756ZM173.715 206.114C173.53 206.378 173.271 206.509 172.938 206.509C172.605 206.509 172.345 206.378 172.16 206.114C171.975 205.851 171.882 205.498 171.882 205.054C171.882 204.611 171.975 204.258 172.16 203.995C172.345 203.731 172.605 203.6 172.938 203.6C173.271 203.6 173.53 203.731 173.715 203.995C173.901 204.258 173.994 204.611 173.994 205.054C173.994 205.498 173.901 205.851 173.715 206.114ZM172.321 205.977C172.469 206.195 172.674 206.304 172.938 206.304C173.201 206.304 173.407 206.195 173.554 205.977C173.702 205.757 173.776 205.449 173.776 205.054C173.776 204.66 173.702 204.353 173.554 204.136C173.407 203.915 173.201 203.805 172.938 203.805C172.674 203.805 172.469 203.915 172.321 204.136C172.173 204.353 172.1 204.66 172.1 205.054C172.1 205.449 172.173 205.757 172.321 205.977ZM176.232 206.465L175.414 203.644H175.64L176.369 206.179L177.155 203.644H177.409L178.198 206.179L178.924 203.644H179.149L178.331 206.465H178.074L177.284 203.922L176.49 206.465H176.232ZM181.413 205.671V205.872H181.05V206.465H180.836V205.872H179.317V205.671L180.389 203.644H180.623L179.555 205.671H180.836V204.784H181.05V205.671H181.413ZM182.242 203.644H182.423V206.465H182.209V203.878L181.557 204.083L181.504 203.898L182.242 203.644Z" fill="#4F4F4F"/>
<path d="M207.912 206.465V206.271L208.947 205.208C209.251 204.893 209.403 204.627 209.403 204.41C209.403 204.222 209.343 204.074 209.225 203.966C209.107 203.859 208.959 203.805 208.782 203.805C208.468 203.805 208.243 203.948 208.109 204.232L207.928 204.124C208.011 203.954 208.126 203.825 208.274 203.737C208.425 203.645 208.594 203.6 208.782 203.6C209.01 203.6 209.206 203.672 209.37 203.817C209.537 203.962 209.62 204.16 209.62 204.41C209.62 204.571 209.573 204.728 209.479 204.881C209.388 205.032 209.259 205.191 209.092 205.361L208.218 206.259H209.685V206.465H207.912ZM211.871 206.114C211.686 206.378 211.426 206.509 211.093 206.509C210.76 206.509 210.501 206.378 210.316 206.114C210.13 205.851 210.038 205.498 210.038 205.054C210.038 204.611 210.13 204.258 210.316 203.995C210.501 203.731 210.76 203.6 211.093 203.6C211.426 203.6 211.686 203.731 211.871 203.995C212.056 204.258 212.149 204.611 212.149 205.054C212.149 205.498 212.056 205.851 211.871 206.114ZM210.477 205.977C210.625 206.195 210.83 206.304 211.093 206.304C211.357 206.304 211.562 206.195 211.71 205.977C211.858 205.757 211.932 205.449 211.932 205.054C211.932 204.66 211.858 204.353 211.71 204.136C211.562 203.915 211.357 203.805 211.093 203.805C210.83 203.805 210.625 203.915 210.477 204.136C210.329 204.353 210.255 204.66 210.255 205.054C210.255 205.449 210.329 205.757 210.477 205.977ZM212.496 206.465V206.271L213.532 205.208C213.835 204.893 213.987 204.627 213.987 204.41C213.987 204.222 213.928 204.074 213.81 203.966C213.692 203.859 213.544 203.805 213.367 203.805C213.052 203.805 212.828 203.948 212.694 204.232L212.512 204.124C212.596 203.954 212.711 203.825 212.859 203.737C213.009 203.645 213.179 203.6 213.367 203.6C213.595 203.6 213.791 203.672 213.955 203.817C214.121 203.962 214.205 204.16 214.205 204.41C214.205 204.571 214.158 204.728 214.064 204.881C213.972 205.032 213.843 205.191 213.677 205.361L212.802 206.259H214.269V206.465H212.496ZM216.456 206.114C216.27 206.378 216.011 206.509 215.678 206.509C215.345 206.509 215.086 206.378 214.9 206.114C214.715 205.851 214.622 205.498 214.622 205.054C214.622 204.611 214.715 204.258 214.9 203.995C215.086 203.731 215.345 203.6 215.678 203.6C216.011 203.6 216.27 203.731 216.456 203.995C216.641 204.258 216.734 204.611 216.734 205.054C216.734 205.498 216.641 205.851 216.456 206.114ZM215.061 205.977C215.209 206.195 215.415 206.304 215.678 206.304C215.941 206.304 216.147 206.195 216.295 205.977C216.442 205.757 216.516 205.449 216.516 205.054C216.516 204.66 216.442 204.353 216.295 204.136C216.147 203.915 215.941 203.805 215.678 203.805C215.415 203.805 215.209 203.915 215.061 204.136C214.914 204.353 214.84 204.66 214.84 205.054C214.84 205.449 214.914 205.757 215.061 205.977ZM218.972 206.465L218.154 203.644H218.38L219.109 206.179L219.895 203.644H220.149L220.939 206.179L221.664 203.644H221.89L221.072 206.465H220.814L220.024 203.922L219.23 206.465H218.972ZM224.153 205.671V205.872H223.79V206.465H223.577V205.872H222.058V205.671L223.129 203.644H223.363L222.295 205.671H223.577V204.784H223.79V205.671H224.153ZM226.491 205.671V205.872H226.128V206.465H225.914V205.872H224.395V205.671L225.467 203.644H225.701L224.633 205.671H225.914V204.784H226.128V205.671H226.491Z" fill="#4F4F4F"/>
<path d="M302.2 206.465V206.271L303.236 205.208C303.539 204.893 303.691 204.627 303.691 204.41C303.691 204.222 303.632 204.074 303.514 203.966C303.396 203.859 303.248 203.805 303.071 203.805C302.756 203.805 302.532 203.948 302.398 204.232L302.216 204.124C302.3 203.954 302.415 203.825 302.563 203.737C302.713 203.645 302.883 203.6 303.071 203.6C303.299 203.6 303.495 203.672 303.659 203.817C303.825 203.962 303.909 204.16 303.909 204.41C303.909 204.571 303.862 204.728 303.768 204.881C303.676 205.032 303.547 205.191 303.381 205.361L302.506 206.259H303.973V206.465H302.2ZM306.16 206.114C305.974 206.378 305.715 206.509 305.382 206.509C305.049 206.509 304.79 206.378 304.604 206.114C304.419 205.851 304.326 205.498 304.326 205.054C304.326 204.611 304.419 204.258 304.604 203.995C304.79 203.731 305.049 203.6 305.382 203.6C305.715 203.6 305.974 203.731 306.16 203.995C306.345 204.258 306.438 204.611 306.438 205.054C306.438 205.498 306.345 205.851 306.16 206.114ZM304.765 205.977C304.913 206.195 305.119 206.304 305.382 206.304C305.645 206.304 305.851 206.195 305.998 205.977C306.146 205.757 306.22 205.449 306.22 205.054C306.22 204.66 306.146 204.353 305.998 204.136C305.851 203.915 305.645 203.805 305.382 203.805C305.119 203.805 304.913 203.915 304.765 204.136C304.618 204.353 304.544 204.66 304.544 205.054C304.544 205.449 304.618 205.757 304.765 205.977ZM306.785 206.465V206.271L307.82 205.208C308.124 204.893 308.276 204.627 308.276 204.41C308.276 204.222 308.217 204.074 308.098 203.966C307.98 203.859 307.832 203.805 307.655 203.805C307.341 203.805 307.117 203.948 306.982 204.232L306.801 204.124C306.884 203.954 307 203.825 307.147 203.737C307.298 203.645 307.467 203.6 307.655 203.6C307.884 203.6 308.08 203.672 308.244 203.817C308.41 203.962 308.493 204.16 308.493 204.41C308.493 204.571 308.446 204.728 308.352 204.881C308.261 205.032 308.132 205.191 307.965 205.361L307.091 206.259H308.558V206.465H306.785ZM310.744 206.114C310.559 206.378 310.3 206.509 309.967 206.509C309.633 206.509 309.374 206.378 309.189 206.114C309.003 205.851 308.911 205.498 308.911 205.054C308.911 204.611 309.003 204.258 309.189 203.995C309.374 203.731 309.633 203.6 309.967 203.6C310.3 203.6 310.559 203.731 310.744 203.995C310.93 204.258 311.022 204.611 311.022 205.054C311.022 205.498 310.93 205.851 310.744 206.114ZM309.35 205.977C309.498 206.195 309.703 206.304 309.967 206.304C310.23 206.304 310.435 206.195 310.583 205.977C310.731 205.757 310.805 205.449 310.805 205.054C310.805 204.66 310.731 204.353 310.583 204.136C310.435 203.915 310.23 203.805 309.967 203.805C309.703 203.805 309.498 203.915 309.35 204.136C309.202 204.353 309.128 204.66 309.128 205.054C309.128 205.449 309.202 205.757 309.35 205.977ZM313.261 206.465L312.443 203.644H312.668L313.398 206.179L314.184 203.644H314.437L315.227 206.179L315.953 203.644H316.178L315.36 206.465H315.102L314.313 203.922L313.519 206.465H313.261ZM317.345 204.793C317.608 204.793 317.829 204.87 318.009 205.026C318.192 205.179 318.283 205.388 318.283 205.651C318.283 205.914 318.192 206.124 318.009 206.279C317.829 206.433 317.608 206.509 317.345 206.509C317.138 206.509 316.952 206.459 316.788 206.36C316.627 206.261 316.516 206.121 316.454 205.941L316.635 205.836C316.681 205.987 316.767 206.102 316.893 206.183C317.019 206.263 317.17 206.304 317.345 206.304C317.557 206.304 317.73 206.245 317.864 206.126C318.001 206.008 318.07 205.85 318.07 205.651C318.07 205.452 318.001 205.294 317.864 205.175C317.73 205.057 317.557 204.998 317.345 204.998H316.591L316.688 203.644H318.179V203.846H316.877L316.813 204.793H317.345ZM318.547 206.465V206.271L319.583 205.208C319.887 204.893 320.038 204.627 320.038 204.41C320.038 204.222 319.979 204.074 319.861 203.966C319.743 203.859 319.595 203.805 319.418 203.805C319.103 203.805 318.879 203.948 318.745 204.232L318.563 204.124C318.647 203.954 318.762 203.825 318.91 203.737C319.06 203.645 319.23 203.6 319.418 203.6C319.646 203.6 319.842 203.672 320.006 203.817C320.173 203.962 320.256 204.16 320.256 204.41C320.256 204.571 320.209 204.728 320.115 204.881C320.024 205.032 319.895 205.191 319.728 205.361L318.854 206.259H320.32V206.465H318.547Z" fill="#4F4F4F"/>
<path d="M251.529 206.465V206.271L252.565 205.208C252.868 204.893 253.02 204.627 253.02 204.41C253.02 204.222 252.961 204.074 252.843 203.966C252.725 203.859 252.577 203.805 252.4 203.805C252.085 203.805 251.861 203.948 251.727 204.232L251.545 204.124C251.629 203.954 251.744 203.825 251.892 203.737C252.042 203.645 252.212 203.6 252.4 203.6C252.628 203.6 252.824 203.672 252.988 203.817C253.155 203.962 253.238 204.16 253.238 204.41C253.238 204.571 253.191 204.728 253.097 204.881C253.005 205.032 252.877 205.191 252.71 205.361L251.835 206.259H253.302V206.465H251.529ZM255.489 206.114C255.303 206.378 255.044 206.509 254.711 206.509C254.378 206.509 254.119 206.378 253.933 206.114C253.748 205.851 253.655 205.498 253.655 205.054C253.655 204.611 253.748 204.258 253.933 203.995C254.119 203.731 254.378 203.6 254.711 203.6C255.044 203.6 255.303 203.731 255.489 203.995C255.674 204.258 255.767 204.611 255.767 205.054C255.767 205.498 255.674 205.851 255.489 206.114ZM254.094 205.977C254.242 206.195 254.448 206.304 254.711 206.304C254.974 206.304 255.18 206.195 255.328 205.977C255.475 205.757 255.549 205.449 255.549 205.054C255.549 204.66 255.475 204.353 255.328 204.136C255.18 203.915 254.974 203.805 254.711 203.805C254.448 203.805 254.242 203.915 254.094 204.136C253.947 204.353 253.873 204.66 253.873 205.054C253.873 205.449 253.947 205.757 254.094 205.977ZM256.114 206.465V206.271L257.149 205.208C257.453 204.893 257.605 204.627 257.605 204.41C257.605 204.222 257.546 204.074 257.428 203.966C257.309 203.859 257.162 203.805 256.984 203.805C256.67 203.805 256.446 203.948 256.311 204.232L256.13 204.124C256.213 203.954 256.329 203.825 256.477 203.737C256.627 203.645 256.796 203.6 256.984 203.6C257.213 203.6 257.409 203.672 257.573 203.817C257.739 203.962 257.822 204.16 257.822 204.41C257.822 204.571 257.775 204.728 257.681 204.881C257.59 205.032 257.461 205.191 257.295 205.361L256.42 206.259H257.887V206.465H256.114ZM260.073 206.114C259.888 206.378 259.629 206.509 259.296 206.509C258.963 206.509 258.703 206.378 258.518 206.114C258.333 205.851 258.24 205.498 258.24 205.054C258.24 204.611 258.333 204.258 258.518 203.995C258.703 203.731 258.963 203.6 259.296 203.6C259.629 203.6 259.888 203.731 260.073 203.995C260.259 204.258 260.351 204.611 260.351 205.054C260.351 205.498 260.259 205.851 260.073 206.114ZM258.679 205.977C258.827 206.195 259.032 206.304 259.296 206.304C259.559 206.304 259.764 206.195 259.912 205.977C260.06 205.757 260.134 205.449 260.134 205.054C260.134 204.66 260.06 204.353 259.912 204.136C259.764 203.915 259.559 203.805 259.296 203.805C259.032 203.805 258.827 203.915 258.679 204.136C258.531 204.353 258.457 204.66 258.457 205.054C258.457 205.449 258.531 205.757 258.679 205.977ZM262.59 206.465L261.772 203.644H261.998L262.727 206.179L263.513 203.644H263.767L264.556 206.179L265.282 203.644H265.507L264.689 206.465H264.431L263.642 203.922L262.848 206.465H262.59ZM267.771 205.671V205.872H267.408V206.465H267.194V205.872H265.675V205.671L266.747 203.644H266.981L265.913 205.671H267.194V204.784H267.408V205.671H267.771ZM267.886 203.644H269.595V203.846L268.499 206.465H268.277L269.373 203.846H267.886V203.644Z" fill="#4F4F4F"/>
<path d="M355.51 206.465V206.271L356.545 205.208C356.849 204.893 357.001 204.627 357.001 204.41C357.001 204.222 356.942 204.074 356.823 203.966C356.705 203.859 356.557 203.805 356.38 203.805C356.066 203.805 355.841 203.948 355.707 204.232L355.526 204.124C355.609 203.954 355.725 203.825 355.872 203.737C356.023 203.645 356.192 203.6 356.38 203.6C356.608 203.6 356.805 203.672 356.968 203.817C357.135 203.962 357.218 204.16 357.218 204.41C357.218 204.571 357.171 204.728 357.077 204.881C356.986 205.032 356.857 205.191 356.69 205.361L355.816 206.259H357.283V206.465H355.51ZM359.469 206.114C359.284 206.378 359.025 206.509 358.691 206.509C358.358 206.509 358.099 206.378 357.914 206.114C357.728 205.851 357.636 205.498 357.636 205.054C357.636 204.611 357.728 204.258 357.914 203.995C358.099 203.731 358.358 203.6 358.691 203.6C359.025 203.6 359.284 203.731 359.469 203.995C359.655 204.258 359.747 204.611 359.747 205.054C359.747 205.498 359.655 205.851 359.469 206.114ZM358.075 205.977C358.223 206.195 358.428 206.304 358.691 206.304C358.955 206.304 359.16 206.195 359.308 205.977C359.456 205.757 359.53 205.449 359.53 205.054C359.53 204.66 359.456 204.353 359.308 204.136C359.16 203.915 358.955 203.805 358.691 203.805C358.428 203.805 358.223 203.915 358.075 204.136C357.927 204.353 357.853 204.66 357.853 205.054C357.853 205.449 357.927 205.757 358.075 205.977ZM360.094 206.465V206.271L361.13 205.208C361.434 204.893 361.585 204.627 361.585 204.41C361.585 204.222 361.526 204.074 361.408 203.966C361.29 203.859 361.142 203.805 360.965 203.805C360.65 203.805 360.426 203.948 360.292 204.232L360.11 204.124C360.194 203.954 360.309 203.825 360.457 203.737C360.607 203.645 360.777 203.6 360.965 203.6C361.193 203.6 361.389 203.672 361.553 203.817C361.72 203.962 361.803 204.16 361.803 204.41C361.803 204.571 361.756 204.728 361.662 204.881C361.571 205.032 361.442 205.191 361.275 205.361L360.401 206.259H361.867V206.465H360.094ZM362.852 203.644H363.033V206.465H362.82V203.878L362.167 204.083L362.115 203.898L362.852 203.644ZM365.409 206.465L364.591 203.644H364.817L365.546 206.179L366.332 203.644H366.586L367.376 206.179L368.101 203.644H368.327L367.509 206.465H367.251L366.461 203.922L365.667 206.465H365.409ZM369.493 204.793C369.756 204.793 369.978 204.87 370.158 205.026C370.341 205.179 370.432 205.388 370.432 205.651C370.432 205.914 370.341 206.124 370.158 206.279C369.978 206.433 369.756 206.509 369.493 206.509C369.286 206.509 369.101 206.459 368.937 206.36C368.776 206.261 368.664 206.121 368.603 205.941L368.784 205.836C368.83 205.987 368.916 206.102 369.042 206.183C369.168 206.263 369.319 206.304 369.493 206.304C369.705 206.304 369.879 206.245 370.013 206.126C370.15 206.008 370.219 205.85 370.219 205.651C370.219 205.452 370.15 205.294 370.013 205.175C369.879 205.057 369.705 204.998 369.493 204.998H368.74L368.836 203.644H370.327V203.846H369.026L368.961 204.793H369.493Z" fill="#4F4F4F"/>
<path d="M35.144 40.524V40.1613L36.1272 39.1579C36.3663 38.9188 36.4859 38.7119 36.4859 38.5373C36.4859 38.4003 36.4442 38.2942 36.3609 38.2189C36.2803 38.141 36.1769 38.1021 36.0507 38.1021C35.8142 38.1021 35.6396 38.2189 35.5268 38.4527L35.1359 38.223C35.2246 38.0349 35.3495 37.8925 35.5107 37.7958C35.6719 37.6991 35.8505 37.6508 36.0466 37.6508C36.2938 37.6508 36.506 37.7287 36.6833 37.8845C36.8606 38.0403 36.9493 38.2525 36.9493 38.5212C36.9493 38.8086 36.7894 39.1149 36.4697 39.44L35.833 40.0767H37.0017V40.524H35.144ZM39.196 40.1774C39.0026 40.4434 38.7312 40.5763 38.382 40.5763C38.0327 40.5763 37.7601 40.4434 37.5639 40.1774C37.3705 39.9114 37.2738 39.5568 37.2738 39.1135C37.2738 38.6703 37.3705 38.3157 37.5639 38.0497C37.7601 37.7837 38.0327 37.6508 38.382 37.6508C38.7312 37.6508 39.0026 37.7837 39.196 38.0497C39.3921 38.3157 39.4902 38.6703 39.4902 39.1135C39.4902 39.5568 39.3921 39.9114 39.196 40.1774ZM38.382 40.125C38.5915 40.125 38.7514 40.0377 38.8615 39.8631C38.9717 39.6885 39.0267 39.4386 39.0267 39.1135C39.0267 38.7885 38.9717 38.5386 38.8615 38.364C38.7514 38.1894 38.5915 38.1021 38.382 38.1021C38.1751 38.1021 38.0153 38.1894 37.9024 38.364C37.7923 38.5386 37.7372 38.7885 37.7372 39.1135C37.7372 39.4386 37.7923 39.6885 37.9024 39.8631C38.0153 40.0377 38.1751 40.125 38.382 40.125ZM39.7168 40.524V40.1613L40.7 39.1579C40.9391 38.9188 41.0587 38.7119 41.0587 38.5373C41.0587 38.4003 41.017 38.2942 40.9337 38.2189C40.8532 38.141 40.7497 38.1021 40.6235 38.1021C40.387 38.1021 40.2124 38.2189 40.0996 38.4527L39.7087 38.223C39.7974 38.0349 39.9223 37.8925 40.0835 37.7958C40.2447 37.6991 40.4233 37.6508 40.6194 37.6508C40.8666 37.6508 41.0788 37.7287 41.2561 37.8845C41.4334 38.0403 41.5221 38.2525 41.5221 38.5212C41.5221 38.8086 41.3622 39.1149 41.0426 39.44L40.4059 40.0767H41.5745V40.524H39.7168ZM43.7688 40.1774C43.5754 40.4434 43.304 40.5763 42.9548 40.5763C42.6055 40.5763 42.3329 40.4434 42.1368 40.1774C41.9433 39.9114 41.8466 39.5568 41.8466 39.1135C41.8466 38.6703 41.9433 38.3157 42.1368 38.0497C42.3329 37.7837 42.6055 37.6508 42.9548 37.6508C43.304 37.6508 43.5754 37.7837 43.7688 38.0497C43.9649 38.3157 44.063 38.6703 44.063 39.1135C44.063 39.5568 43.9649 39.9114 43.7688 40.1774ZM42.9548 40.125C43.1643 40.125 43.3242 40.0377 43.4343 39.8631C43.5445 39.6885 43.5995 39.4386 43.5995 39.1135C43.5995 38.7885 43.5445 38.5386 43.4343 38.364C43.3242 38.1894 43.1643 38.1021 42.9548 38.1021C42.7479 38.1021 42.5881 38.1894 42.4752 38.364C42.3651 38.5386 42.31 38.7885 42.31 39.1135C42.31 39.4386 42.3651 39.6885 42.4752 39.8631C42.5881 40.0377 42.7479 40.125 42.9548 40.125ZM45.356 40.524V40.1613L46.3393 39.1579C46.5784 38.9188 46.6979 38.7119 46.6979 38.5373C46.6979 38.4003 46.6563 38.2942 46.573 38.2189C46.4924 38.141 46.389 38.1021 46.2627 38.1021C46.0263 38.1021 45.8517 38.2189 45.7389 38.4527L45.348 38.223C45.4366 38.0349 45.5616 37.8925 45.7227 37.7958C45.8839 37.6991 46.0626 37.6508 46.2587 37.6508C46.5059 37.6508 46.7181 37.7287 46.8954 37.8845C47.0727 38.0403 47.1614 38.2525 47.1614 38.5212C47.1614 38.8086 47.0015 39.1149 46.6818 39.44L46.0451 40.0767H47.2137V40.524H45.356ZM50.352 39.1135C50.352 39.4897 50.2284 39.8147 49.9812 40.0887L50.2794 40.395L49.953 40.6892L49.6427 40.3708C49.4063 40.5078 49.1551 40.5763 48.8892 40.5763C48.4835 40.5763 48.1383 40.4353 47.8535 40.1532C47.5688 39.8685 47.4264 39.5219 47.4264 39.1135C47.4264 38.7052 47.5688 38.36 47.8535 38.0779C48.1383 37.7931 48.4835 37.6508 48.8892 37.6508C49.2948 37.6508 49.64 37.7931 49.9248 38.0779C50.2096 38.36 50.352 38.7052 50.352 39.1135ZM48.8892 40.125C49.0396 40.125 49.1807 40.0941 49.3123 40.0323L48.7965 39.5044L49.1229 39.2103L49.6629 39.7623C49.8133 39.577 49.8885 39.3607 49.8885 39.1135C49.8885 38.8261 49.7918 38.5857 49.5984 38.3922C49.405 38.1988 49.1686 38.1021 48.8892 38.1021C48.6098 38.1021 48.3734 38.1988 48.1799 38.3922C47.9865 38.5857 47.8898 38.8261 47.8898 39.1135C47.8898 39.401 47.9865 39.6414 48.1799 39.8349C48.3734 40.0283 48.6098 40.125 48.8892 40.125Z" fill="#1790FF"/>
<path d="M91.5414 40.5234V40.1608L92.5247 39.1574C92.7638 38.9183 92.8833 38.7114 92.8833 38.5368C92.8833 38.3998 92.8417 38.2937 92.7584 38.2184C92.6778 38.1405 92.5744 38.1016 92.4481 38.1016C92.2117 38.1016 92.0371 38.2184 91.9243 38.4522L91.5334 38.2225C91.622 38.0344 91.7469 37.892 91.9081 37.7953C92.0693 37.6986 92.248 37.6502 92.4441 37.6502C92.6912 37.6502 92.9035 37.7281 93.0808 37.884C93.2581 38.0398 93.3467 38.252 93.3467 38.5207C93.3467 38.8081 93.1869 39.1144 92.8672 39.4394L92.2305 40.0761H93.3991V40.5234H91.5414ZM95.5934 40.1769C95.4 40.4428 95.1287 40.5758 94.7794 40.5758C94.4302 40.5758 94.1575 40.4428 93.9614 40.1769C93.768 39.9109 93.6713 39.5563 93.6713 39.113C93.6713 38.6698 93.768 38.3151 93.9614 38.0492C94.1575 37.7832 94.4302 37.6502 94.7794 37.6502C95.1287 37.6502 95.4 37.7832 95.5934 38.0492C95.7896 38.3151 95.8876 38.6698 95.8876 39.113C95.8876 39.5563 95.7896 39.9109 95.5934 40.1769ZM94.7794 40.1245C94.989 40.1245 95.1488 40.0372 95.259 39.8626C95.3691 39.6879 95.4242 39.4381 95.4242 39.113C95.4242 38.788 95.3691 38.5381 95.259 38.3635C95.1488 38.1889 94.989 38.1016 94.7794 38.1016C94.5726 38.1016 94.4127 38.1889 94.2999 38.3635C94.1898 38.5381 94.1347 38.788 94.1347 39.113C94.1347 39.4381 94.1898 39.6879 94.2999 39.8626C94.4127 40.0372 94.5726 40.1245 94.7794 40.1245ZM96.1142 40.5234V40.1608L97.0975 39.1574C97.3366 38.9183 97.4561 38.7114 97.4561 38.5368C97.4561 38.3998 97.4145 38.2937 97.3312 38.2184C97.2506 38.1405 97.1472 38.1016 97.0209 38.1016C96.7845 38.1016 96.6099 38.2184 96.4971 38.4522L96.1062 38.2225C96.1948 38.0344 96.3197 37.892 96.4809 37.7953C96.6421 37.6986 96.8208 37.6502 97.0169 37.6502C97.264 37.6502 97.4763 37.7281 97.6536 37.884C97.8309 38.0398 97.9196 38.252 97.9196 38.5207C97.9196 38.8081 97.7597 39.1144 97.44 39.4394L96.8033 40.0761H97.9719V40.5234H96.1142ZM100.166 40.1769C99.9728 40.4428 99.7015 40.5758 99.3522 40.5758C99.003 40.5758 98.7303 40.4428 98.5342 40.1769C98.3408 39.9109 98.2441 39.5563 98.2441 39.113C98.2441 38.6698 98.3408 38.3151 98.5342 38.0492C98.7303 37.7832 99.003 37.6502 99.3522 37.6502C99.7015 37.6502 99.9728 37.7832 100.166 38.0492C100.362 38.3151 100.46 38.6698 100.46 39.113C100.46 39.5563 100.362 39.9109 100.166 40.1769ZM99.3522 40.1245C99.5618 40.1245 99.7216 40.0372 99.8318 39.8626C99.9419 39.6879 99.997 39.4381 99.997 39.113C99.997 38.788 99.9419 38.5381 99.8318 38.3635C99.7216 38.1889 99.5618 38.1016 99.3522 38.1016C99.1454 38.1016 98.9855 38.1889 98.8727 38.3635C98.7626 38.5381 98.7075 38.788 98.7075 39.113C98.7075 39.4381 98.7626 39.6879 98.8727 39.8626C98.9855 40.0372 99.1454 40.1245 99.3522 40.1245ZM102.975 38.8551C103.179 38.9035 103.344 38.9989 103.47 39.1412C103.599 39.2809 103.664 39.4569 103.664 39.6691C103.664 39.9512 103.568 40.1729 103.377 40.334C103.187 40.4952 102.953 40.5758 102.676 40.5758C102.461 40.5758 102.268 40.5261 102.096 40.4267C101.927 40.3273 101.805 40.1823 101.729 39.9915L102.124 39.7618C102.208 40.0036 102.392 40.1245 102.676 40.1245C102.837 40.1245 102.965 40.0842 103.059 40.0036C103.153 39.9203 103.2 39.8088 103.2 39.6691C103.2 39.5294 103.153 39.4193 103.059 39.3387C102.965 39.2581 102.837 39.2178 102.676 39.2178H102.572L102.386 38.9398L102.995 38.1378H101.814V37.7026H103.547V38.0975L102.975 38.8551ZM106.871 39.113C106.871 39.4891 106.748 39.8142 106.501 40.0882L106.799 40.3945L106.472 40.6887L106.162 40.3703C105.926 40.5073 105.675 40.5758 105.409 40.5758C105.003 40.5758 104.658 40.4348 104.373 40.1527C104.088 39.8679 103.946 39.5214 103.946 39.113C103.946 38.7047 104.088 38.3595 104.373 38.0774C104.658 37.7926 105.003 37.6502 105.409 37.6502C105.814 37.6502 106.159 37.7926 106.444 38.0774C106.729 38.3595 106.871 38.7047 106.871 39.113ZM105.409 40.1245C105.559 40.1245 105.7 40.0936 105.832 40.0318L105.316 39.5039L105.642 39.2097L106.182 39.7618C106.333 39.5764 106.408 39.3602 106.408 39.113C106.408 38.8256 106.311 38.5851 106.118 38.3917C105.924 38.1983 105.688 38.1016 105.409 38.1016C105.129 38.1016 104.893 38.1983 104.699 38.3917C104.506 38.5851 104.409 38.8256 104.409 39.113C104.409 39.4005 104.506 39.6409 104.699 39.8344C104.893 40.0278 105.129 40.1245 105.409 40.1245Z" fill="#1790FF"/>
<path d="M233.416 40.3555V39.9928L234.399 38.9894C234.638 38.7503 234.758 38.5434 234.758 38.3688C234.758 38.2318 234.716 38.1257 234.633 38.0505C234.552 37.9726 234.449 37.9336 234.323 37.9336C234.086 37.9336 233.912 38.0505 233.799 38.2842L233.408 38.0545C233.497 37.8664 233.621 37.7241 233.783 37.6273C233.944 37.5306 234.122 37.4823 234.319 37.4823C234.566 37.4823 234.778 37.5602 234.955 37.716C235.133 37.8718 235.221 38.084 235.221 38.3527C235.221 38.6401 235.061 38.9464 234.742 39.2715L234.105 39.9082H235.274V40.3555H233.416ZM237.468 40.0089C237.275 40.2749 237.003 40.4079 236.654 40.4079C236.305 40.4079 236.032 40.2749 235.836 40.0089C235.642 39.7429 235.546 39.3883 235.546 38.9451C235.546 38.5018 235.642 38.1472 235.836 37.8812C236.032 37.6152 236.305 37.4823 236.654 37.4823C237.003 37.4823 237.275 37.6152 237.468 37.8812C237.664 38.1472 237.762 38.5018 237.762 38.9451C237.762 39.3883 237.664 39.7429 237.468 40.0089ZM236.654 39.9565C236.864 39.9565 237.023 39.8692 237.133 39.6946C237.244 39.52 237.299 39.2701 237.299 38.9451C237.299 38.62 237.244 38.3702 237.133 38.1955C237.023 38.0209 236.864 37.9336 236.654 37.9336C236.447 37.9336 236.287 38.0209 236.174 38.1955C236.064 38.3702 236.009 38.62 236.009 38.9451C236.009 39.2701 236.064 39.52 236.174 39.6946C236.287 39.8692 236.447 39.9565 236.654 39.9565ZM237.989 40.3555V39.9928L238.972 38.9894C239.211 38.7503 239.331 38.5434 239.331 38.3688C239.331 38.2318 239.289 38.1257 239.206 38.0505C239.125 37.9726 239.022 37.9336 238.895 37.9336C238.659 37.9336 238.484 38.0505 238.372 38.2842L237.981 38.0545C238.069 37.8664 238.194 37.7241 238.355 37.6273C238.517 37.5306 238.695 37.4823 238.891 37.4823C239.139 37.4823 239.351 37.5602 239.528 37.716C239.705 37.8718 239.794 38.084 239.794 38.3527C239.794 38.6401 239.634 38.9464 239.315 39.2715L238.678 39.9082H239.846V40.3555H237.989ZM242.041 40.0089C241.847 40.2749 241.576 40.4079 241.227 40.4079C240.878 40.4079 240.605 40.2749 240.409 40.0089C240.215 39.7429 240.119 39.3883 240.119 38.9451C240.119 38.5018 240.215 38.1472 240.409 37.8812C240.605 37.6152 240.878 37.4823 241.227 37.4823C241.576 37.4823 241.847 37.6152 242.041 37.8812C242.237 38.1472 242.335 38.5018 242.335 38.9451C242.335 39.3883 242.237 39.7429 242.041 40.0089ZM241.227 39.9565C241.436 39.9565 241.596 39.8692 241.706 39.6946C241.816 39.52 241.872 39.2701 241.872 38.9451C241.872 38.62 241.816 38.3702 241.706 38.1955C241.596 38.0209 241.436 37.9336 241.227 37.9336C241.02 37.9336 240.86 38.0209 240.747 38.1955C240.637 38.3702 240.582 38.62 240.582 38.9451C240.582 39.2701 240.637 39.52 240.747 39.6946C240.86 39.8692 241.02 39.9565 241.227 39.9565ZM245.772 39.4165V39.8477H245.449V40.3555H244.982V39.8477H243.596V39.4165L244.567 37.5347H245.071L244.099 39.4165H244.982V38.6831H245.449V39.4165H245.772ZM248.907 38.9451C248.907 39.3212 248.784 39.6462 248.537 39.9203L248.835 40.2265L248.508 40.5207L248.198 40.2023C247.962 40.3393 247.71 40.4079 247.444 40.4079C247.039 40.4079 246.694 40.2668 246.409 39.9847C246.124 39.7 245.982 39.3534 245.982 38.9451C245.982 38.5367 246.124 38.1915 246.409 37.9094C246.694 37.6247 247.039 37.4823 247.444 37.4823C247.85 37.4823 248.195 37.6247 248.48 37.9094C248.765 38.1915 248.907 38.5367 248.907 38.9451ZM247.444 39.9565C247.595 39.9565 247.736 39.9256 247.868 39.8638L247.352 39.3359L247.678 39.0418L248.218 39.5938C248.369 39.4085 248.444 39.1922 248.444 38.9451C248.444 38.6576 248.347 38.4172 248.154 38.2237C247.96 38.0303 247.724 37.9336 247.444 37.9336C247.165 37.9336 246.929 38.0303 246.735 38.2237C246.542 38.4172 246.445 38.6576 246.445 38.9451C246.445 39.2325 246.542 39.473 246.735 39.6664C246.929 39.8598 247.165 39.9565 247.444 39.9565Z" fill="#1790FF"/>
<path d="M18.0073 31.1016V30.9081L19.0429 29.8443C19.3465 29.53 19.4983 29.264 19.4983 29.0464C19.4983 28.8583 19.4392 28.7106 19.321 28.6031C19.2028 28.4957 19.055 28.4419 18.8777 28.4419C18.5634 28.4419 18.339 28.5843 18.2047 28.8691L18.0234 28.7603C18.1067 28.591 18.2222 28.4621 18.3699 28.3734C18.5204 28.2821 18.6896 28.2364 18.8777 28.2364C19.106 28.2364 19.3022 28.309 19.466 28.454C19.6326 28.5991 19.7159 28.7966 19.7159 29.0464C19.7159 29.2076 19.6689 29.3647 19.5748 29.5179C19.4835 29.6683 19.3545 29.8282 19.188 29.9974L18.3135 30.896H19.7803V31.1016H18.0073ZM21.9668 30.751C21.7814 31.0143 21.5222 31.1459 21.1891 31.1459C20.8559 31.1459 20.5967 31.0143 20.4113 30.751C20.2259 30.4877 20.1333 30.1344 20.1333 29.6912C20.1333 29.2479 20.2259 28.8946 20.4113 28.6313C20.5967 28.3681 20.8559 28.2364 21.1891 28.2364C21.5222 28.2364 21.7814 28.3681 21.9668 28.6313C22.1522 28.8946 22.2448 29.2479 22.2448 29.6912C22.2448 30.1344 22.1522 30.4877 21.9668 30.751ZM20.5725 30.614C20.7203 30.8316 20.9258 30.9404 21.1891 30.9404C21.4523 30.9404 21.6578 30.8316 21.8056 30.614C21.9534 30.3937 22.0272 30.0861 22.0272 29.6912C22.0272 29.2962 21.9534 28.99 21.8056 28.7724C21.6578 28.5521 21.4523 28.4419 21.1891 28.4419C20.9258 28.4419 20.7203 28.5521 20.5725 28.7724C20.4247 28.99 20.3509 29.2962 20.3509 29.6912C20.3509 30.0861 20.4247 30.3937 20.5725 30.614ZM23.2497 29.4373C23.0724 29.4373 22.9246 29.3795 22.8064 29.264C22.6909 29.1485 22.6331 29.0061 22.6331 28.8369C22.6331 28.6676 22.6909 28.5252 22.8064 28.4097C22.9246 28.2942 23.0724 28.2364 23.2497 28.2364C23.427 28.2364 23.5734 28.2942 23.6889 28.4097C23.8071 28.5252 23.8662 28.6676 23.8662 28.8369C23.8662 29.0061 23.8085 29.1485 23.6929 29.264C23.5774 29.3795 23.4297 29.4373 23.2497 29.4373ZM22.9515 29.1351C23.0294 29.213 23.1288 29.2519 23.2497 29.2519C23.3706 29.2519 23.47 29.213 23.5479 29.1351C23.6285 29.0545 23.6688 28.9551 23.6688 28.8369C23.6688 28.7186 23.6285 28.6206 23.5479 28.5427C23.47 28.4621 23.3706 28.4218 23.2497 28.4218C23.1288 28.4218 23.0294 28.4621 22.9515 28.5427C22.8736 28.6206 22.8346 28.7186 22.8346 28.8369C22.8346 28.9551 22.8736 29.0545 22.9515 29.1351ZM22.7862 30.7389L24.7004 28.587L24.8374 28.6636L22.9192 30.8155L22.7862 30.7389ZM24.8293 30.9726C24.7138 31.0881 24.5674 31.1459 24.3901 31.1459C24.2128 31.1459 24.065 31.0881 23.9468 30.9726C23.8313 30.8571 23.7735 30.7147 23.7735 30.5455C23.7735 30.3762 23.8313 30.2338 23.9468 30.1183C24.065 30.0028 24.2128 29.945 24.3901 29.945C24.5674 29.945 24.7138 30.0028 24.8293 30.1183C24.9475 30.2338 25.0066 30.3762 25.0066 30.5455C25.0066 30.7147 24.9475 30.8571 24.8293 30.9726ZM24.0919 30.8437C24.1698 30.9216 24.2692 30.9605 24.3901 30.9605C24.511 30.9605 24.6104 30.9216 24.6883 30.8437C24.7689 30.7631 24.8092 30.6637 24.8092 30.5455C24.8092 30.4273 24.7689 30.3292 24.6883 30.2513C24.6104 30.1707 24.511 30.1304 24.3901 30.1304C24.2692 30.1304 24.1698 30.1707 24.0919 30.2513C24.014 30.3292 23.975 30.4273 23.975 30.5455C23.975 30.6637 24.014 30.7631 24.0919 30.8437Z" fill="#4F4F4F"/>
<path d="M16.7986 90.4893C16.6132 90.7525 16.354 90.8842 16.0208 90.8842C15.6877 90.8842 15.4285 90.7525 15.2431 90.4893C15.0577 90.226 14.965 89.8727 14.965 89.4294C14.965 88.9862 15.0577 88.6329 15.2431 88.3696C15.4285 88.1063 15.6877 87.9747 16.0208 87.9747C16.354 87.9747 16.6132 88.1063 16.7986 88.3696C16.9839 88.6329 17.0766 88.9862 17.0766 89.4294C17.0766 89.8727 16.9839 90.226 16.7986 90.4893ZM15.4043 90.3522C15.552 90.5699 15.7576 90.6787 16.0208 90.6787C16.2841 90.6787 16.4896 90.5699 16.6374 90.3522C16.7851 90.132 16.859 89.8244 16.859 89.4294C16.859 89.0345 16.7851 88.7283 16.6374 88.5107C16.4896 88.2904 16.2841 88.1802 16.0208 88.1802C15.7576 88.1802 15.552 88.2904 15.4043 88.5107C15.2565 88.7283 15.1826 89.0345 15.1826 89.4294C15.1826 89.8244 15.2565 90.132 15.4043 90.3522ZM18.0814 89.1756C17.9041 89.1756 17.7564 89.1178 17.6382 89.0023C17.5227 88.8868 17.4649 88.7444 17.4649 88.5751C17.4649 88.4059 17.5227 88.2635 17.6382 88.148C17.7564 88.0325 17.9041 87.9747 18.0814 87.9747C18.2588 87.9747 18.4052 88.0325 18.5207 88.148C18.6389 88.2635 18.698 88.4059 18.698 88.5751C18.698 88.7444 18.6402 88.8868 18.5247 89.0023C18.4092 89.1178 18.2614 89.1756 18.0814 89.1756ZM17.7832 88.8733C17.8612 88.9512 17.9606 88.9902 18.0814 88.9902C18.2023 88.9902 18.3017 88.9512 18.3796 88.8733C18.4602 88.7927 18.5005 88.6933 18.5005 88.5751C18.5005 88.4569 18.4602 88.3589 18.3796 88.281C18.3017 88.2004 18.2023 88.1601 18.0814 88.1601C17.9606 88.1601 17.8612 88.2004 17.7832 88.281C17.7053 88.3589 17.6664 88.4569 17.6664 88.5751C17.6664 88.6933 17.7053 88.7927 17.7832 88.8733ZM17.618 90.4772L19.5321 88.3253L19.6692 88.4019L17.751 90.5537L17.618 90.4772ZM19.6611 90.7109C19.5456 90.8264 19.3992 90.8842 19.2219 90.8842C19.0445 90.8842 18.8968 90.8264 18.7786 90.7109C18.6631 90.5954 18.6053 90.453 18.6053 90.2837C18.6053 90.1145 18.6631 89.9721 18.7786 89.8566C18.8968 89.7411 19.0445 89.6833 19.2219 89.6833C19.3992 89.6833 19.5456 89.7411 19.6611 89.8566C19.7793 89.9721 19.8384 90.1145 19.8384 90.2837C19.8384 90.453 19.7793 90.5954 19.6611 90.7109ZM18.9237 90.5819C19.0016 90.6598 19.101 90.6988 19.2219 90.6988C19.3427 90.6988 19.4421 90.6598 19.5201 90.5819C19.6007 90.5013 19.6409 90.4019 19.6409 90.2837C19.6409 90.1655 19.6007 90.0675 19.5201 89.9896C19.4421 89.909 19.3427 89.8687 19.2219 89.8687C19.101 89.8687 19.0016 89.909 18.9237 89.9896C18.8457 90.0675 18.8068 90.1655 18.8068 90.2837C18.8068 90.4019 18.8457 90.5013 18.9237 90.5819Z" fill="#4F4F4F"/>
<path d="M15.0053 119.425V119.231H16.6736V119.425H15.0053ZM17.7336 117.917H17.915V120.738H17.7014V118.151L17.0486 118.357L16.9962 118.171L17.7336 117.917ZM20.3128 120.388C20.1274 120.651 19.8682 120.783 19.535 120.783C19.2019 120.783 18.9427 120.651 18.7573 120.388C18.5719 120.124 18.4793 119.771 18.4793 119.328C18.4793 118.885 18.5719 118.531 18.7573 118.268C18.9427 118.005 19.2019 117.873 19.535 117.873C19.8682 117.873 20.1274 118.005 20.3128 118.268C20.4982 118.531 20.5908 118.885 20.5908 119.328C20.5908 119.771 20.4982 120.124 20.3128 120.388ZM18.9185 120.251C19.0663 120.468 19.2718 120.577 19.535 120.577C19.7983 120.577 20.0038 120.468 20.1516 120.251C20.2993 120.03 20.3732 119.723 20.3732 119.328C20.3732 118.933 20.2993 118.627 20.1516 118.409C20.0038 118.189 19.7983 118.079 19.535 118.079C19.2718 118.079 19.0663 118.189 18.9185 118.409C18.7707 118.627 18.6969 118.933 18.6969 119.328C18.6969 119.723 18.7707 120.03 18.9185 120.251ZM21.5957 119.074C21.4183 119.074 21.2706 119.016 21.1524 118.901C21.0369 118.785 20.9791 118.643 20.9791 118.474C20.9791 118.304 21.0369 118.162 21.1524 118.046C21.2706 117.931 21.4183 117.873 21.5957 117.873C21.773 117.873 21.9194 117.931 22.0349 118.046C22.1531 118.162 22.2122 118.304 22.2122 118.474C22.2122 118.643 22.1544 118.785 22.0389 118.901C21.9234 119.016 21.7756 119.074 21.5957 119.074ZM21.2975 118.772C21.3754 118.85 21.4748 118.889 21.5957 118.889C21.7165 118.889 21.8159 118.85 21.8939 118.772C21.9744 118.691 22.0147 118.592 22.0147 118.474C22.0147 118.355 21.9744 118.257 21.8939 118.179C21.8159 118.099 21.7165 118.059 21.5957 118.059C21.4748 118.059 21.3754 118.099 21.2975 118.179C21.2195 118.257 21.1806 118.355 21.1806 118.474C21.1806 118.592 21.2195 118.691 21.2975 118.772ZM21.1322 120.376L23.0464 118.224L23.1834 118.3L21.2652 120.452L21.1322 120.376ZM23.1753 120.609C23.0598 120.725 22.9134 120.783 22.7361 120.783C22.5588 120.783 22.411 120.725 22.2928 120.609C22.1773 120.494 22.1195 120.351 22.1195 120.182C22.1195 120.013 22.1773 119.871 22.2928 119.755C22.411 119.64 22.5588 119.582 22.7361 119.582C22.9134 119.582 23.0598 119.64 23.1753 119.755C23.2935 119.871 23.3526 120.013 23.3526 120.182C23.3526 120.351 23.2935 120.494 23.1753 120.609ZM22.4379 120.48C22.5158 120.558 22.6152 120.597 22.7361 120.597C22.857 120.597 22.9564 120.558 23.0343 120.48C23.1149 120.4 23.1552 120.3 23.1552 120.182C23.1552 120.064 23.1149 119.966 23.0343 119.888C22.9564 119.807 22.857 119.767 22.7361 119.767C22.6152 119.767 22.5158 119.807 22.4379 119.888C22.36 119.966 22.321 120.064 22.321 120.182C22.321 120.3 22.36 120.4 22.4379 120.48Z" fill="#4F4F4F"/>
<path d="M15.0053 150.209V150.016H16.6736V150.209H15.0053ZM17.101 151.523V151.33L18.1366 150.266C18.4402 149.951 18.592 149.685 18.592 149.468C18.592 149.28 18.5329 149.132 18.4147 149.025C18.2964 148.917 18.1487 148.863 17.9714 148.863C17.6571 148.863 17.4327 149.006 17.2984 149.29L17.1171 149.182C17.2004 149.012 17.3159 148.883 17.4636 148.795C17.6141 148.703 17.7833 148.658 17.9714 148.658C18.1997 148.658 18.3958 148.73 18.5597 148.875C18.7263 149.02 18.8096 149.218 18.8096 149.468C18.8096 149.629 18.7626 149.786 18.6685 149.939C18.5772 150.09 18.4482 150.25 18.2817 150.419L17.4072 151.317H18.874V151.523H17.101ZM21.0605 151.172C20.8751 151.436 20.6159 151.567 20.2827 151.567C19.9496 151.567 19.6904 151.436 19.505 151.172C19.3196 150.909 19.227 150.556 19.227 150.113C19.227 149.669 19.3196 149.316 19.505 149.053C19.6904 148.789 19.9496 148.658 20.2827 148.658C20.6159 148.658 20.8751 148.789 21.0605 149.053C21.2459 149.316 21.3385 149.669 21.3385 150.113C21.3385 150.556 21.2459 150.909 21.0605 151.172ZM19.6662 151.035C19.814 151.253 20.0195 151.362 20.2827 151.362C20.546 151.362 20.7515 151.253 20.8993 151.035C21.0471 150.815 21.1209 150.507 21.1209 150.113C21.1209 149.718 21.0471 149.411 20.8993 149.194C20.7515 148.973 20.546 148.863 20.2827 148.863C20.0195 148.863 19.814 148.973 19.6662 149.194C19.5184 149.411 19.4446 149.718 19.4446 150.113C19.4446 150.507 19.5184 150.815 19.6662 151.035ZM22.3434 149.859C22.1661 149.859 22.0183 149.801 21.9001 149.685C21.7846 149.57 21.7268 149.427 21.7268 149.258C21.7268 149.089 21.7846 148.947 21.9001 148.831C22.0183 148.716 22.1661 148.658 22.3434 148.658C22.5207 148.658 22.6671 148.716 22.7826 148.831C22.9008 148.947 22.9599 149.089 22.9599 149.258C22.9599 149.427 22.9021 149.57 22.7866 149.685C22.6711 149.801 22.5234 149.859 22.3434 149.859ZM22.0452 149.556C22.1231 149.634 22.2225 149.673 22.3434 149.673C22.4643 149.673 22.5637 149.634 22.6416 149.556C22.7222 149.476 22.7625 149.376 22.7625 149.258C22.7625 149.14 22.7222 149.042 22.6416 148.964C22.5637 148.883 22.4643 148.843 22.3434 148.843C22.2225 148.843 22.1231 148.883 22.0452 148.964C21.9673 149.042 21.9283 149.14 21.9283 149.258C21.9283 149.376 21.9673 149.476 22.0452 149.556ZM21.8799 151.16L23.7941 149.008L23.9311 149.085L22.0129 151.237L21.8799 151.16ZM23.923 151.394C23.8075 151.51 23.6611 151.567 23.4838 151.567C23.3065 151.567 23.1587 151.51 23.0405 151.394C22.925 151.278 22.8672 151.136 22.8672 150.967C22.8672 150.798 22.925 150.655 23.0405 150.54C23.1587 150.424 23.3065 150.366 23.4838 150.366C23.6611 150.366 23.8075 150.424 23.923 150.54C24.0412 150.655 24.1003 150.798 24.1003 150.967C24.1003 151.136 24.0412 151.278 23.923 151.394ZM23.1856 151.265C23.2635 151.343 23.3629 151.382 23.4838 151.382C23.6047 151.382 23.7041 151.343 23.782 151.265C23.8626 151.184 23.9029 151.085 23.9029 150.967C23.9029 150.849 23.8626 150.751 23.782 150.673C23.7041 150.592 23.6047 150.552 23.4838 150.552C23.3629 150.552 23.2635 150.592 23.1856 150.673C23.1077 150.751 23.0687 150.849 23.0687 150.967C23.0687 151.085 23.1077 151.184 23.1856 151.265Z" fill="#4F4F4F"/>
<path d="M15.4463 180.474V180.281H17.1146V180.474H15.4463ZM18.5372 180.14C18.7736 180.164 18.9684 180.249 19.1215 180.394C19.2747 180.539 19.3512 180.732 19.3512 180.974C19.3512 181.237 19.2612 181.447 19.0812 181.603C18.9012 181.756 18.6809 181.832 18.4204 181.832C18.2108 181.832 18.0254 181.785 17.8643 181.691C17.7031 181.597 17.5889 181.466 17.5217 181.296L17.699 181.192C17.7501 181.331 17.8387 181.439 17.965 181.514C18.0913 181.589 18.243 181.627 18.4204 181.627C18.6299 181.627 18.8018 181.568 18.9362 181.45C19.0705 181.331 19.1377 181.173 19.1377 180.974C19.1377 180.775 19.0691 180.617 18.9321 180.499C18.7978 180.38 18.6245 180.321 18.4123 180.321V180.317L18.4083 180.321H18.3519L18.2592 180.18L18.9724 179.169H17.5943V178.967H19.2182V179.169L18.5372 180.14ZM21.588 181.437C21.4026 181.701 21.1434 181.832 20.8102 181.832C20.4771 181.832 20.2179 181.701 20.0325 181.437C19.8471 181.174 19.7545 180.821 19.7545 180.378C19.7545 179.934 19.8471 179.581 20.0325 179.318C20.2179 179.055 20.4771 178.923 20.8102 178.923C21.1434 178.923 21.4026 179.055 21.588 179.318C21.7733 179.581 21.866 179.934 21.866 180.378C21.866 180.821 21.7733 181.174 21.588 181.437ZM20.1937 181.3C20.3414 181.518 20.547 181.627 20.8102 181.627C21.0735 181.627 21.279 181.518 21.4268 181.3C21.5745 181.08 21.6484 180.773 21.6484 180.378C21.6484 179.983 21.5745 179.677 21.4268 179.459C21.279 179.239 21.0735 179.128 20.8102 179.128C20.547 179.128 20.3414 179.239 20.1937 179.459C20.0459 179.677 19.9721 179.983 19.9721 180.378C19.9721 180.773 20.0459 181.08 20.1937 181.3ZM22.8709 180.124C22.6935 180.124 22.5458 180.066 22.4276 179.951C22.3121 179.835 22.2543 179.693 22.2543 179.523C22.2543 179.354 22.3121 179.212 22.4276 179.096C22.5458 178.981 22.6935 178.923 22.8709 178.923C23.0482 178.923 23.1946 178.981 23.3101 179.096C23.4283 179.212 23.4874 179.354 23.4874 179.523C23.4874 179.693 23.4296 179.835 23.3141 179.951C23.1986 180.066 23.0508 180.124 22.8709 180.124ZM22.5727 179.822C22.6506 179.899 22.75 179.938 22.8709 179.938C22.9917 179.938 23.0911 179.899 23.1691 179.822C23.2496 179.741 23.2899 179.642 23.2899 179.523C23.2899 179.405 23.2496 179.307 23.1691 179.229C23.0911 179.149 22.9917 179.108 22.8709 179.108C22.75 179.108 22.6506 179.149 22.5727 179.229C22.4947 179.307 22.4558 179.405 22.4558 179.523C22.4558 179.642 22.4947 179.741 22.5727 179.822ZM22.4074 181.425L24.3216 179.274L24.4586 179.35L22.5404 181.502L22.4074 181.425ZM24.4505 181.659C24.335 181.775 24.1886 181.832 24.0113 181.832C23.834 181.832 23.6862 181.775 23.568 181.659C23.4525 181.544 23.3947 181.401 23.3947 181.232C23.3947 181.063 23.4525 180.92 23.568 180.805C23.6862 180.689 23.834 180.632 24.0113 180.632C24.1886 180.632 24.335 180.689 24.4505 180.805C24.5687 180.92 24.6278 181.063 24.6278 181.232C24.6278 181.401 24.5687 181.544 24.4505 181.659ZM23.7131 181.53C23.791 181.608 23.8904 181.647 24.0113 181.647C24.1322 181.647 24.2316 181.608 24.3095 181.53C24.3901 181.45 24.4304 181.35 24.4304 181.232C24.4304 181.114 24.3901 181.016 24.3095 180.938C24.2316 180.857 24.1322 180.817 24.0113 180.817C23.8904 180.817 23.791 180.857 23.7131 180.938C23.6352 181.016 23.5962 181.114 23.5962 181.232C23.5962 181.35 23.6352 181.45 23.7131 181.53Z" fill="#4F4F4F"/>
<path d="M18.6419 56.7964H18.8232V59.6172H18.6096V57.0301L17.9568 57.2356L17.9044 57.0502L18.6419 56.7964ZM21.221 59.2666C21.0357 59.5299 20.7764 59.6615 20.4433 59.6615C20.1102 59.6615 19.8509 59.5299 19.6656 59.2666C19.4802 59.0033 19.3875 58.6501 19.3875 58.2068C19.3875 57.7635 19.4802 57.4102 19.6656 57.147C19.8509 56.8837 20.1102 56.752 20.4433 56.752C20.7764 56.752 21.0357 56.8837 21.221 57.147C21.4064 57.4102 21.4991 57.7635 21.4991 58.2068C21.4991 58.6501 21.4064 59.0033 21.221 59.2666ZM19.8268 59.1296C19.9745 59.3472 20.18 59.456 20.4433 59.456C20.7066 59.456 20.9121 59.3472 21.0599 59.1296C21.2076 58.9093 21.2815 58.6017 21.2815 58.2068C21.2815 57.8119 21.2076 57.5056 21.0599 57.288C20.9121 57.0677 20.7066 56.9576 20.4433 56.9576C20.18 56.9576 19.9745 57.0677 19.8268 57.288C19.679 57.5056 19.6051 57.8119 19.6051 58.2068C19.6051 58.6017 19.679 58.9093 19.8268 59.1296ZM22.5039 57.9529C22.3266 57.9529 22.1788 57.8951 22.0606 57.7796C21.9451 57.6641 21.8874 57.5217 21.8874 57.3525C21.8874 57.1832 21.9451 57.0408 22.0606 56.9253C22.1788 56.8098 22.3266 56.752 22.5039 56.752C22.6812 56.752 22.8276 56.8098 22.9432 56.9253C23.0614 57.0408 23.1205 57.1832 23.1205 57.3525C23.1205 57.5217 23.0627 57.6641 22.9472 57.7796C22.8317 57.8951 22.6839 57.9529 22.5039 57.9529ZM22.2057 57.6507C22.2836 57.7286 22.383 57.7675 22.5039 57.7675C22.6248 57.7675 22.7242 57.7286 22.8021 57.6507C22.8827 57.5701 22.923 57.4707 22.923 57.3525C22.923 57.2343 22.8827 57.1362 22.8021 57.0583C22.7242 56.9777 22.6248 56.9374 22.5039 56.9374C22.383 56.9374 22.2836 56.9777 22.2057 57.0583C22.1278 57.1362 22.0889 57.2343 22.0889 57.3525C22.0889 57.4707 22.1278 57.5701 22.2057 57.6507ZM22.0405 59.2545L23.9546 57.1026L24.0916 57.1792L22.1735 59.3311L22.0405 59.2545ZM24.0836 59.4882C23.968 59.6038 23.8216 59.6615 23.6443 59.6615C23.467 59.6615 23.3193 59.6038 23.2011 59.4882C23.0855 59.3727 23.0278 59.2303 23.0278 59.0611C23.0278 58.8918 23.0855 58.7495 23.2011 58.6339C23.3193 58.5184 23.467 58.4607 23.6443 58.4607C23.8216 58.4607 23.968 58.5184 24.0836 58.6339C24.2018 58.7495 24.2609 58.8918 24.2609 59.0611C24.2609 59.2303 24.2018 59.3727 24.0836 59.4882ZM23.3461 59.3593C23.424 59.4372 23.5234 59.4761 23.6443 59.4761C23.7652 59.4761 23.8646 59.4372 23.9425 59.3593C24.0231 59.2787 24.0634 59.1793 24.0634 59.0611C24.0634 58.9429 24.0231 58.8448 23.9425 58.7669C23.8646 58.6863 23.7652 58.646 23.6443 58.646C23.5234 58.646 23.424 58.6863 23.3461 58.7669C23.2682 58.8448 23.2293 58.9429 23.2293 59.0611C23.2293 59.1793 23.2682 59.2787 23.3461 59.3593Z" fill="#4F4F4F"/>
<g opacity="0.3">
<line x1="29.4964" y1="194.969" x2="29.4964" y2="27.9807" stroke="#919191" stroke-width="0.475"/>
<line x1="372.077" y1="119.425" x2="29.7292" y2="119.425" stroke="#DCDCDC" stroke-width="0.475"/>
<line x1="372.522" y1="150.152" x2="29.7339" y2="150.152" stroke="#DCDCDC" stroke-width="0.475"/>
<line x1="372.521" y1="195.206" x2="29.2923" y2="195.206" stroke="#6F6F6F" stroke-width="0.475"/>
<line x1="372.077" y1="89.0227" x2="29.7292" y2="89.0227" stroke="#DCDCDC" stroke-width="0.475"/>
<line x1="372.521" y1="58.6174" x2="29.7329" y2="58.6174" stroke="#DCDCDC" stroke-width="0.475"/>
<line x1="228.001" y1="28.2189" x2="29.7302" y2="28.2189" stroke="#DCDCDC" stroke-width="0.475"/>
<line x1="372.519" y1="179.784" x2="29.7309" y2="179.784" stroke="#DCDCDC" stroke-width="0.475"/>
</g>
<line x1="372.283" y1="194.973" x2="372.283" y2="27.544" stroke="#DCDCDC" stroke-opacity="0.3" stroke-width="0.475"/>
<line x1="228.002" y1="28.1843" x2="372.519" y2="28.1843" stroke="#DCDCDC" stroke-opacity="0.3" stroke-width="0.475"/>
<path d="M371.143 68.9614H232.848V94.9569H371.143V68.9614Z" fill="#1790FF" fill-opacity="0.05"/>
<path d="M225.801 67.6367H91.417V94.954H225.801V67.6367Z" fill="#1790FF" fill-opacity="0.05"/>
<path d="M87.8917 71.1606H29.8848V94.953H87.8917V71.1606Z" fill="#1790FF" fill-opacity="0.05"/>
<path d="M34.6107 20.4453H33.5558L33.1672 19.4302H30.7404L30.3518 20.4453H29.297L31.3749 15.1554H32.5328L34.6107 20.4453ZM32.9055 18.6133L31.9538 16.0913L31.0021 18.6133H32.9055ZM36.9094 20.5405C36.3278 20.5405 35.852 20.3528 35.4819 19.9774C35.1118 19.5967 34.9267 19.1129 34.9267 18.5261C34.9267 17.9445 35.1118 17.466 35.4819 17.0906C35.852 16.7099 36.3278 16.5196 36.9094 16.5196C37.5492 16.5196 38.0382 16.7469 38.3766 17.2016L37.8294 17.7092C37.6179 17.4078 37.3245 17.2571 36.9491 17.2571C36.6001 17.2571 36.3199 17.3761 36.1084 17.614C35.8969 17.8466 35.7912 18.1507 35.7912 18.5261C35.7912 18.9014 35.8969 19.2081 36.1084 19.446C36.3199 19.684 36.6001 19.8029 36.9491 19.8029C37.3139 19.8029 37.6073 19.6522 37.8294 19.3509L38.3766 19.8584C38.0382 20.3131 37.5492 20.5405 36.9094 20.5405ZM40.2568 20.5405C39.9343 20.5405 39.6884 20.4559 39.5192 20.2867C39.3553 20.1175 39.2734 19.8743 39.2734 19.5571V17.3444H38.6389V16.6147H39.2734V15.5679H40.1061V16.6147H40.8833V17.3444H40.1061V19.3509C40.1061 19.4883 40.1378 19.5994 40.2013 19.684C40.2647 19.7633 40.3546 19.8029 40.4709 19.8029C40.6401 19.8029 40.7644 19.758 40.8437 19.6681L41.0419 20.2946C40.8675 20.4585 40.6057 20.5405 40.2568 20.5405ZM45.0576 20.4453H44.2249V19.9377C43.8653 20.3396 43.4133 20.5405 42.8687 20.5405C42.0492 20.5405 41.6394 20.136 41.6394 19.3271V16.6147H42.4721V19.0257C42.4721 19.3059 42.5382 19.5068 42.6704 19.6284C42.8026 19.7448 42.9929 19.8029 43.2414 19.8029C43.4424 19.8029 43.6301 19.7553 43.8045 19.6602C43.979 19.565 44.1191 19.446 44.2249 19.3033V16.6147H45.0576V20.4453ZM49.3116 20.4453H48.4788V20.0329C48.1827 20.3713 47.7703 20.5405 47.2416 20.5405C46.8927 20.5405 46.5834 20.4295 46.3137 20.2074C46.0441 19.98 45.9092 19.6681 45.9092 19.2715C45.9092 18.8644 46.0414 18.5551 46.3058 18.3436C46.5754 18.1322 46.8874 18.0264 47.2416 18.0264C47.7862 18.0264 48.1986 18.1903 48.4788 18.5181V17.9471C48.4788 17.725 48.3969 17.5506 48.233 17.4237C48.0691 17.2968 47.8523 17.2333 47.5826 17.2333C47.1544 17.2333 46.7763 17.3946 46.4485 17.7171L46.1075 17.1382C46.5411 16.7258 47.0777 16.5196 47.7175 16.5196C48.188 16.5196 48.5713 16.6306 48.8674 16.8526C49.1635 17.0747 49.3116 17.4263 49.3116 17.9074V20.4453ZM47.5668 19.9695C47.9845 19.9695 48.2885 19.8373 48.4788 19.5729V18.994C48.2885 18.7296 47.9845 18.5974 47.5668 18.5974C47.3289 18.5974 47.1332 18.6609 46.9799 18.7878C46.8266 18.9147 46.7499 19.0812 46.7499 19.2874C46.7499 19.4936 46.8266 19.6602 46.9799 19.7871C47.1332 19.9087 47.3289 19.9695 47.5668 19.9695ZM51.2239 20.4453H50.3912V15.1554H51.2239V20.4453ZM56.8314 20.5405C56.0436 20.5405 55.3959 20.2841 54.8884 19.7712C54.3808 19.253 54.127 18.5974 54.127 17.8043C54.127 17.0113 54.3808 16.3583 54.8884 15.8454C55.3959 15.3273 56.0436 15.0682 56.8314 15.0682C57.6192 15.0682 58.2669 15.3273 58.7745 15.8454C59.282 16.3583 59.5358 17.0113 59.5358 17.8043C59.5358 18.5604 59.3005 19.1949 58.83 19.7077L59.2662 20.1995L58.6238 20.7388L58.1638 20.2232C57.7725 20.4347 57.3284 20.5405 56.8314 20.5405ZM56.8314 19.7157C57.1011 19.7157 57.3496 19.6628 57.5769 19.5571L56.9266 18.8116L57.569 18.2802L58.2193 19.0257C58.4625 18.6926 58.5841 18.2855 58.5841 17.8043C58.5841 17.2492 58.4229 16.7918 58.1003 16.4323C57.7778 16.0728 57.3548 15.893 56.8314 15.893C56.3027 15.893 55.8771 16.0728 55.5545 16.4323C55.2373 16.7918 55.0787 17.2492 55.0787 17.8043C55.0787 18.3595 55.2373 18.8168 55.5545 19.1764C55.8771 19.5359 56.3027 19.7157 56.8314 19.7157ZM63.8236 20.4453H62.9909V19.9377C62.6314 20.3396 62.1793 20.5405 61.6347 20.5405C60.8152 20.5405 60.4054 20.136 60.4054 19.3271V16.6147H61.2382V19.0257C61.2382 19.3059 61.3043 19.5068 61.4364 19.6284C61.5686 19.7448 61.759 19.8029 62.0075 19.8029C62.2084 19.8029 62.3961 19.7553 62.5705 19.6602C62.745 19.565 62.8851 19.446 62.9909 19.3033V16.6147H63.8236V20.4453ZM68.0776 20.4453H67.2448V20.0329C66.9488 20.3713 66.5364 20.5405 66.0076 20.5405C65.6587 20.5405 65.3494 20.4295 65.0797 20.2074C64.8101 19.98 64.6753 19.6681 64.6753 19.2715C64.6753 18.8644 64.8074 18.5551 65.0718 18.3436C65.3414 18.1322 65.6534 18.0264 66.0076 18.0264C66.5522 18.0264 66.9646 18.1903 67.2448 18.5181V17.9471C67.2448 17.725 67.1629 17.5506 66.999 17.4237C66.8351 17.2968 66.6183 17.2333 66.3487 17.2333C65.9204 17.2333 65.5424 17.3946 65.2146 17.7171L64.8735 17.1382C65.3071 16.7258 65.8437 16.5196 66.4835 16.5196C66.954 16.5196 67.3374 16.6306 67.6335 16.8526C67.9295 17.0747 68.0776 17.4263 68.0776 17.9074V20.4453ZM66.3328 19.9695C66.7505 19.9695 67.0545 19.8373 67.2448 19.5729V18.994C67.0545 18.7296 66.7505 18.5974 66.3328 18.5974C66.0949 18.5974 65.8992 18.6609 65.7459 18.7878C65.5926 18.9147 65.5159 19.0812 65.5159 19.2874C65.5159 19.4936 65.5926 19.6602 65.7459 19.7871C65.8992 19.9087 66.0949 19.9695 66.3328 19.9695ZM69.99 20.4453H69.1572V16.6147H69.99V17.1778C70.138 16.9875 70.3231 16.8315 70.5451 16.7099C70.7672 16.5883 70.9972 16.5275 71.2351 16.5275V17.3523C71.1611 17.3364 71.0738 17.3285 70.9734 17.3285C70.7989 17.3285 70.6112 17.3814 70.4103 17.4871C70.2147 17.5876 70.0746 17.7039 69.99 17.8361V20.4453ZM73.0567 20.5405C72.7341 20.5405 72.4883 20.4559 72.3191 20.2867C72.1552 20.1175 72.0732 19.8743 72.0732 19.5571V17.3444H71.4388V16.6147H72.0732V15.5679H72.906V16.6147H73.6832V17.3444H72.906V19.3509C72.906 19.4883 72.9377 19.5994 73.0011 19.684C73.0646 19.7633 73.1545 19.8029 73.2708 19.8029C73.44 19.8029 73.5642 19.758 73.6435 19.6681L73.8418 20.2946C73.6673 20.4585 73.4056 20.5405 73.0567 20.5405ZM76.2079 20.5405C75.6263 20.5405 75.1451 20.3554 74.7644 19.9853C74.3891 19.6099 74.2014 19.1235 74.2014 18.5261C74.2014 17.9656 74.3838 17.4924 74.7486 17.1064C75.1187 16.7152 75.584 16.5196 76.1444 16.5196C76.7101 16.5196 77.1648 16.7152 77.5085 17.1064C77.8575 17.4977 78.0319 17.9973 78.0319 18.6054V18.8036H75.0737C75.1055 19.105 75.2297 19.3561 75.4465 19.5571C75.6633 19.758 75.9461 19.8584 76.2951 19.8584C76.4907 19.8584 76.6864 19.8214 76.882 19.7474C77.0829 19.6734 77.2494 19.5703 77.3816 19.4381L77.7623 19.9853C77.3763 20.3554 76.8582 20.5405 76.2079 20.5405ZM77.223 18.2167C77.2124 17.9524 77.1146 17.7171 76.9296 17.5109C76.7498 17.3047 76.4881 17.2016 76.1444 17.2016C75.8166 17.2016 75.5602 17.3047 75.3751 17.5109C75.1901 17.7118 75.087 17.9471 75.0658 18.2167H77.223ZM79.6866 20.4453H78.8539V16.6147H79.6866V17.1778C79.8347 16.9875 80.0197 16.8315 80.2418 16.7099C80.4639 16.5883 80.6939 16.5275 80.9318 16.5275V17.3523C80.8578 17.3364 80.7705 17.3285 80.6701 17.3285C80.4956 17.3285 80.3079 17.3814 80.107 17.4871C79.9114 17.5876 79.7712 17.7039 79.6866 17.8361V20.4453ZM88.4226 20.4453H87.3678L86.9792 19.4302H84.5523L84.1637 20.4453H83.1089L85.1868 15.1554H86.3447L88.4226 20.4453ZM86.7174 18.6133L85.7657 16.0913L84.814 18.6133H86.7174ZM92.3947 20.4453H91.562V18.0502C91.562 17.5215 91.3056 17.2571 90.7927 17.2571C90.5918 17.2571 90.4041 17.3073 90.2296 17.4078C90.0552 17.5083 89.915 17.6299 89.8093 17.7726V20.4453H88.9766V16.6147H89.8093V17.1382C89.9521 16.969 90.1424 16.8236 90.3803 16.702C90.6182 16.5804 90.8773 16.5196 91.1575 16.5196C91.5647 16.5196 91.8713 16.6253 92.0775 16.8368C92.289 17.0483 92.3947 17.3523 92.3947 17.7488V20.4453ZM96.6487 20.4453H95.816V20.0329C95.5199 20.3713 95.1075 20.5405 94.5788 20.5405C94.2298 20.5405 93.9205 20.4295 93.6509 20.2074C93.3812 19.98 93.2464 19.6681 93.2464 19.2715C93.2464 18.8644 93.3786 18.5551 93.6429 18.3436C93.9126 18.1322 94.2245 18.0264 94.5788 18.0264C95.1233 18.0264 95.5357 18.1903 95.816 18.5181V17.9471C95.816 17.725 95.734 17.5506 95.5701 17.4237C95.4062 17.2968 95.1894 17.2333 94.9198 17.2333C94.4915 17.2333 94.1135 17.3946 93.7857 17.7171L93.4447 17.1382C93.8782 16.7258 94.4149 16.5196 95.0546 16.5196C95.5252 16.5196 95.9085 16.6306 96.2046 16.8526C96.5007 17.0747 96.6487 17.4263 96.6487 17.9074V20.4453ZM94.9039 19.9695C95.3216 19.9695 95.6256 19.8373 95.816 19.5729V18.994C95.6256 18.7296 95.3216 18.5974 94.9039 18.5974C94.666 18.5974 94.4704 18.6609 94.317 18.7878C94.1637 18.9147 94.0871 19.0812 94.0871 19.2874C94.0871 19.4936 94.1637 19.6602 94.317 19.7871C94.4704 19.9087 94.666 19.9695 94.9039 19.9695ZM98.5611 20.4453H97.7284V15.1554H98.5611V20.4453ZM99.4748 21.9442L99.6017 21.1987C99.6969 21.241 99.8026 21.2622 99.9189 21.2622C100.189 21.2622 100.371 21.1512 100.466 20.9291L100.657 20.4929L99.0862 16.6147H99.9745L101.093 19.4857L102.211 16.6147H103.107L101.259 21.1353C101.032 21.701 100.593 21.9892 99.9427 21.9998C99.7683 21.9998 99.6123 21.9813 99.4748 21.9442ZM104.939 20.5405C104.251 20.5405 103.704 20.3422 103.297 19.9457L103.678 19.3429C103.82 19.491 104.013 19.6179 104.257 19.7236C104.5 19.8294 104.74 19.8822 104.978 19.8822C105.221 19.8822 105.407 19.8346 105.533 19.7395C105.666 19.6443 105.732 19.52 105.732 19.3667C105.732 19.2293 105.652 19.1235 105.494 19.0495C105.335 18.9702 105.142 18.9094 104.915 18.8671C104.687 18.8195 104.46 18.764 104.233 18.7005C104.005 18.6318 103.812 18.5128 103.654 18.3436C103.495 18.1745 103.416 17.955 103.416 17.6854C103.416 17.3576 103.551 17.0826 103.82 16.8606C104.09 16.6332 104.457 16.5196 104.923 16.5196C105.51 16.5196 106.007 16.6993 106.414 17.0588L106.065 17.6457C105.943 17.5083 105.782 17.3972 105.581 17.3126C105.38 17.228 105.163 17.1857 104.931 17.1857C104.714 17.1857 104.539 17.2307 104.407 17.3206C104.28 17.4052 104.217 17.5162 104.217 17.6537C104.217 17.7594 104.272 17.8466 104.383 17.9154C104.5 17.9788 104.643 18.0264 104.812 18.0581C104.986 18.0899 105.174 18.1348 105.375 18.193C105.576 18.2458 105.761 18.3093 105.93 18.3833C106.104 18.4573 106.247 18.5789 106.358 18.7481C106.475 18.912 106.533 19.1129 106.533 19.3509C106.533 19.6998 106.393 19.9853 106.112 20.2074C105.832 20.4295 105.441 20.5405 104.939 20.5405ZM107.783 16.1468C107.646 16.1468 107.524 16.0966 107.418 15.9961C107.318 15.8957 107.268 15.7741 107.268 15.6313C107.268 15.4885 107.318 15.3669 107.418 15.2665C107.524 15.166 107.646 15.1158 107.783 15.1158C107.926 15.1158 108.048 15.166 108.148 15.2665C108.249 15.3669 108.299 15.4885 108.299 15.6313C108.299 15.7741 108.249 15.8957 108.148 15.9961C108.048 16.0966 107.926 16.1468 107.783 16.1468ZM108.204 20.4453H107.371V16.6147H108.204V20.4453ZM110.592 20.5405C109.905 20.5405 109.358 20.3422 108.951 19.9457L109.331 19.3429C109.474 19.491 109.667 19.6179 109.91 19.7236C110.154 19.8294 110.394 19.8822 110.632 19.8822C110.875 19.8822 111.06 19.8346 111.187 19.7395C111.319 19.6443 111.385 19.52 111.385 19.3667C111.385 19.2293 111.306 19.1235 111.148 19.0495C110.989 18.9702 110.796 18.9094 110.569 18.8671C110.341 18.8195 110.114 18.764 109.887 18.7005C109.659 18.6318 109.466 18.5128 109.308 18.3436C109.149 18.1745 109.07 17.955 109.07 17.6854C109.07 17.3576 109.205 17.0826 109.474 16.8606C109.744 16.6332 110.111 16.5196 110.577 16.5196C111.163 16.5196 111.66 16.6993 112.068 17.0588L111.719 17.6457C111.597 17.5083 111.436 17.3972 111.235 17.3126C111.034 17.228 110.817 17.1857 110.584 17.1857C110.368 17.1857 110.193 17.2307 110.061 17.3206C109.934 17.4052 109.871 17.5162 109.871 17.6537C109.871 17.7594 109.926 17.8466 110.037 17.9154C110.154 17.9788 110.296 18.0264 110.466 18.0581C110.64 18.0899 110.828 18.1348 111.029 18.193C111.23 18.2458 111.415 18.3093 111.584 18.3833C111.758 18.4573 111.901 18.5789 112.012 18.7481C112.128 18.912 112.187 19.1129 112.187 19.3509C112.187 19.6998 112.046 19.9853 111.766 20.2074C111.486 20.4295 111.095 20.5405 110.592 20.5405Z" fill="#003C71"/>
<g filter="url(#filter1_d_183_1379)">
<path d="M37.2017 109.495L48.2514 82.1782L58.4673 105.971L70.351 104.869L80.1499 109.495L92.0336 101.565L102.666 99.1413L112.465 109.495L122.89 94.515L133.731 108.394L144.364 95.8368L154.997 103.107L165.212 99.1413L176.054 116.325L186.687 82.1782L197.111 100.463L208.369 113.681L218.793 133.508L229.009 82.1782L240.059 186.16L250.692 125.798L261.533 105.971L271.541 68.5195L282.382 99.1413L292.806 100.463L303.231 103.988L314.489 77.5519H324.496L334.921 95.6165L347.013 107.513L357.02 96.718L367.653 97.8195" stroke="#4DB2F4" stroke-width="1.37573" stroke-linecap="round"/>
</g>
<g filter="url(#filter2_d_183_1379)">
<path d="M37.2017 90.5502L48.2514 63.2329L58.4673 87.0254L70.351 85.9239L80.1499 90.5502L92.0336 82.6193L102.666 80.196L112.465 90.5502L122.89 75.5697L133.731 89.4487L144.364 76.8915L154.997 84.1615L165.212 80.196L176.054 97.3795L186.687 63.2329L197.111 81.5178L208.369 94.7359L218.793 114.563L229.009 63.2329L240.059 167.215L250.692 106.852L261.533 87.0254L271.541 49.5742L282.382 80.196L292.806 81.5178L303.231 85.0427L314.489 58.6066H324.496L334.921 76.6712L347.013 88.5675L357.02 77.7727L367.653 78.8742" stroke="#916CFA" stroke-width="1.37573" stroke-linecap="round"/>
</g>
<path fill-rule="evenodd" clip-rule="evenodd" d="M264.029 142.535C262.563 142.535 261.375 143.723 261.375 145.189V146.577C261.375 147.525 260.869 148.401 260.048 148.875L256.403 150.979C254.634 152.001 254.634 154.554 256.403 155.576L260.773 158.099C261.145 158.314 261.375 158.711 261.375 159.142C261.375 160.607 262.563 161.795 264.029 161.795H344.017C345.482 161.795 346.671 160.607 346.671 159.142V145.189C346.671 143.723 345.482 142.535 344.017 142.535H264.029Z" fill="#739BFF"/>
<path d="M269.685 154.286H269.101V147.451H271.662C272.298 147.451 272.8 147.646 273.169 148.035C273.538 148.418 273.722 148.889 273.722 149.449C273.722 150.01 273.534 150.484 273.158 150.874C272.789 151.256 272.291 151.448 271.662 151.448H269.685V154.286ZM271.601 150.915C272.052 150.915 272.414 150.778 272.687 150.505C272.967 150.232 273.107 149.88 273.107 149.449C273.107 149.019 272.967 148.667 272.687 148.394C272.414 148.121 272.052 147.984 271.601 147.984H269.685V150.915H271.601ZM278.413 154.286H277.88V153.702C277.449 154.173 276.889 154.409 276.199 154.409C275.742 154.409 275.339 154.262 274.99 153.968C274.642 153.668 274.468 153.265 274.468 152.759C274.468 152.247 274.638 151.847 274.98 151.56C275.328 151.267 275.735 151.12 276.199 151.12C276.896 151.12 277.456 151.355 277.88 151.827V150.823C277.88 150.467 277.753 150.191 277.501 149.993C277.248 149.788 276.93 149.685 276.548 149.685C275.94 149.685 275.424 149.928 275 150.413L274.703 150.044C275.216 149.49 275.851 149.214 276.609 149.214C277.142 149.214 277.576 149.347 277.911 149.613C278.245 149.88 278.413 150.276 278.413 150.802V154.286ZM276.384 153.989C277.033 153.989 277.531 153.764 277.88 153.313V152.226C277.525 151.769 277.026 151.54 276.384 151.54C275.981 151.54 275.653 151.656 275.4 151.888C275.154 152.121 275.031 152.414 275.031 152.77C275.031 153.125 275.154 153.419 275.4 153.651C275.653 153.876 275.981 153.989 276.384 153.989ZM283.951 154.286H283.418V150.935C283.418 150.484 283.316 150.167 283.111 149.982C282.906 149.791 282.609 149.695 282.219 149.695C281.912 149.695 281.608 149.777 281.307 149.941C281.007 150.105 280.775 150.307 280.611 150.546V154.286H280.078V149.337H280.611V150.085C280.809 149.853 281.072 149.651 281.4 149.48C281.727 149.303 282.059 149.214 282.394 149.214C283.432 149.214 283.951 149.75 283.951 150.823V154.286ZM287.804 154.409C287.08 154.409 286.486 154.167 286.021 153.682C285.557 153.197 285.325 152.571 285.325 151.806C285.325 151.082 285.55 150.471 286.001 149.972C286.459 149.467 287.029 149.214 287.712 149.214C288.436 149.214 289.007 149.467 289.423 149.972C289.84 150.471 290.049 151.092 290.049 151.837V151.981H285.909C285.936 152.541 286.124 153.009 286.472 153.384C286.821 153.76 287.278 153.948 287.845 153.948C288.501 153.948 289.041 153.719 289.464 153.261L289.741 153.61C289.229 154.143 288.583 154.409 287.804 154.409ZM289.505 151.56C289.499 151.082 289.338 150.648 289.024 150.259C288.716 149.87 288.276 149.675 287.702 149.675C287.162 149.675 286.732 149.87 286.411 150.259C286.097 150.642 285.929 151.075 285.909 151.56H289.505ZM291.958 154.286H291.426V147.451H291.958V154.286ZM298.903 154.286H298.308V151.366L295.593 147.451H296.3L298.605 150.812L300.911 147.451H301.618L298.903 151.366V154.286ZM303.373 154.409C302.662 154.409 302.089 154.16 301.651 153.661C301.214 153.162 300.996 152.544 300.996 151.806C300.996 151.069 301.214 150.454 301.651 149.962C302.089 149.463 302.662 149.214 303.373 149.214C304.09 149.214 304.667 149.463 305.105 149.962C305.542 150.454 305.76 151.069 305.76 151.806C305.76 152.544 305.542 153.162 305.105 153.661C304.667 154.16 304.09 154.409 303.373 154.409ZM303.373 153.927C303.933 153.927 304.374 153.723 304.695 153.313C305.023 152.896 305.187 152.394 305.187 151.806C305.187 151.226 305.023 150.73 304.695 150.32C304.374 149.904 303.933 149.695 303.373 149.695C302.82 149.695 302.379 149.904 302.051 150.32C301.73 150.73 301.569 151.226 301.569 151.806C301.569 152.387 301.73 152.886 302.051 153.302C302.379 153.719 302.82 153.927 303.373 153.927ZM308.469 154.286H307.875V151.366L305.159 147.451H305.866L308.172 150.812L310.478 147.451H311.185L308.469 151.366V154.286Z" fill="white"/>
<path d="M317.342 154.286H315.887V149.327L314.749 150.484L313.919 149.613L316.071 147.451H317.342V154.286ZM319.915 154.153C319.751 154.317 319.557 154.399 319.331 154.399C319.106 154.399 318.911 154.317 318.747 154.153C318.583 153.989 318.501 153.794 318.501 153.569C318.501 153.343 318.583 153.149 318.747 152.985C318.911 152.821 319.106 152.739 319.331 152.739C319.557 152.739 319.751 152.821 319.915 152.985C320.079 153.149 320.161 153.343 320.161 153.569C320.161 153.794 320.079 153.989 319.915 154.153ZM322.729 154.286H321.131L323.58 148.732H320.137V147.451H325.271V148.466L322.729 154.286ZM331.1 154.286H325.956V153.149C327.418 152.063 328.385 151.291 328.856 150.833C329.335 150.368 329.574 149.935 329.574 149.531C329.574 149.251 329.464 149.033 329.246 148.876C329.027 148.719 328.768 148.64 328.467 148.64C327.75 148.64 327.138 148.903 326.633 149.429L325.803 148.466C326.124 148.097 326.517 147.82 326.981 147.636C327.452 147.444 327.938 147.349 328.436 147.349C329.188 147.349 329.809 147.547 330.301 147.943C330.8 148.339 331.049 148.869 331.049 149.531C331.049 150.092 330.827 150.642 330.383 151.181C329.946 151.714 329.256 152.322 328.313 153.005H331.1V154.286ZM333.617 150.751C333.105 150.751 332.688 150.594 332.367 150.279C332.046 149.958 331.885 149.555 331.885 149.07C331.885 148.578 332.046 148.169 332.367 147.841C332.688 147.513 333.105 147.349 333.617 147.349C334.136 147.349 334.557 147.513 334.878 147.841C335.199 148.169 335.359 148.578 335.359 149.07C335.359 149.555 335.199 149.958 334.878 150.279C334.557 150.594 334.136 150.751 333.617 150.751ZM333.72 154.286H332.951L337.316 147.451H338.095L333.72 154.286ZM338.628 153.927C338.307 154.249 337.89 154.409 337.378 154.409C336.866 154.409 336.449 154.249 336.128 153.927C335.807 153.606 335.646 153.203 335.646 152.718C335.646 152.226 335.807 151.817 336.128 151.489C336.449 151.161 336.866 150.997 337.378 150.997C337.89 150.997 338.307 151.161 338.628 151.489C338.956 151.817 339.12 152.226 339.12 152.718C339.12 153.203 338.956 153.606 338.628 153.927ZM333.617 149.952C333.856 149.952 334.051 149.873 334.201 149.716C334.352 149.552 334.427 149.337 334.427 149.07C334.427 148.79 334.352 148.568 334.201 148.404C334.051 148.24 333.856 148.158 333.617 148.158C333.378 148.158 333.183 148.24 333.033 148.404C332.883 148.568 332.808 148.79 332.808 149.07C332.808 149.33 332.883 149.542 333.033 149.706C333.19 149.87 333.385 149.952 333.617 149.952ZM336.794 153.374C336.944 153.531 337.139 153.61 337.378 153.61C337.617 153.61 337.812 153.531 337.962 153.374C338.119 153.21 338.198 152.992 338.198 152.718C338.198 152.438 338.119 152.216 337.962 152.052C337.812 151.888 337.617 151.806 337.378 151.806C337.139 151.806 336.944 151.888 336.794 152.052C336.644 152.216 336.568 152.438 336.568 152.718C336.568 152.992 336.644 153.21 336.794 153.374Z" fill="white"/>
</g>
<defs>
<filter id="filter0_bi_183_1379" x="-33.6876" y="-33.8892" width="459.484" height="297.945" filterUnits="userSpaceOnUse" color-interpolation-filters="sRGB">
<feFlood flood-opacity="0" result="BackgroundImageFix"/>
<feGaussianBlur in="BackgroundImage" stdDeviation="16.9446"/>
<feComposite in2="SourceAlpha" operator="in" result="effect1_backgroundBlur_183_1379"/>
<feBlend mode="normal" in="SourceGraphic" in2="effect1_backgroundBlur_183_1379" result="shape"/>
<feColorMatrix in="SourceAlpha" type="matrix" values="0 0 0 0 0 0 0 0 0 0 0 0 0 0 0 0 0 0 127 0" result="hardAlpha"/>
<feOffset/>
<feGaussianBlur stdDeviation="12.2578"/>
<feComposite in2="hardAlpha" operator="arithmetic" k2="-1" k3="1"/>
<feColorMatrix type="matrix" values="0 0 0 0 1 0 0 0 0 1 0 0 0 0 1 0 0 0 0.05 0"/>
<feBlend mode="normal" in2="shape" result="effect2_innerShadow_183_1379"/>
</filter>
<filter id="filter1_d_183_1379" x="32.9889" y="62.6741" width="338.877" height="127.13" filterUnits="userSpaceOnUse" color-interpolation-filters="sRGB">
<feFlood flood-opacity="0" result="BackgroundImageFix"/>
<feColorMatrix in="SourceAlpha" type="matrix" values="0 0 0 0 0 0 0 0 0 0 0 0 0 0 0 0 0 0 127 0" result="hardAlpha"/>
<feOffset/>
<feGaussianBlur stdDeviation="1.76241"/>
<feColorMatrix type="matrix" values="0 0 0 0 0 0 0 0 0 0 0 0 0 0 0 0 0 0 0.08 0"/>
<feBlend mode="normal" in2="BackgroundImageFix" result="effect1_dropShadow_183_1379"/>
<feBlend mode="normal" in="SourceGraphic" in2="effect1_dropShadow_183_1379" result="shape"/>
</filter>
<filter id="filter2_d_183_1379" x="34.7513" y="45.4912" width="335.352" height="123.605" filterUnits="userSpaceOnUse" color-interpolation-filters="sRGB">
<feFlood flood-opacity="0" result="BackgroundImageFix"/>
<feColorMatrix in="SourceAlpha" type="matrix" values="0 0 0 0 0 0 0 0 0 0 0 0 0 0 0 0 0 0 127 0" result="hardAlpha"/>
<feOffset/>
<feGaussianBlur stdDeviation="0.881203"/>
<feColorMatrix type="matrix" values="0 0 0 0 0 0 0 0 0 0 0 0 0 0 0 0 0 0 0.08 0"/>
<feBlend mode="normal" in2="BackgroundImageFix" result="effect1_dropShadow_183_1379"/>
<feBlend mode="normal" in="SourceGraphic" in2="effect1_dropShadow_183_1379" result="shape"/>
</filter>
<linearGradient id="paint0_linear_183_1379" x1="424.811" y1="7.76344e-06" x2="34.7759" y2="329.397" gradientUnits="userSpaceOnUse">
<stop stop-color="white" stop-opacity="0.85"/>
<stop offset="1" stop-color="white" stop-opacity="0.6"/>
</linearGradient>
<clipPath id="clip0_183_1379">
<rect width="391.706" height="230.167" fill="white" transform="translate(0.20166)"/>
</clipPath>
</defs>
</svg>
