<svg fill="none" xmlns="http://www.w3.org/2000/svg" viewBox="0 0 16 16">
    <path d="M8 13.33a.67.67 0 0 1-.4.62.64.64 0 0 1-.72-.15L2.21 9v-.01A.67.67 0 0 1 2 8.5a.68.68 0 0 1 .2-.48L6.89 3.2a.65.65 0 0 1 .47-.2.64.64 0 0 1 .46.2.67.67 0 0 1 0 .94L3.6 8.48l4.21 4.39c.12.12.19.29.19.46Z" />
    <path d="M14 13.33a.67.67 0 0 1-.4.62.64.64 0 0 1-.72-.15L8.21 9v-.01A.67.67 0 0 1 8 8.5a.68.68 0 0 1 .2-.48l4.68-4.82a.65.65 0 0 1 .47-.2.64.64 0 0 1 .46.2.67.67 0 0 1 0 .94L9.6 8.48l4.21 4.39c.12.12.19.29.19.46Z" />
</svg>