<svg width="15" height="16" viewBox="0 0 15 16" fill="none" xmlns="http://www.w3.org/2000/svg">
<path d="M0.375283 5.5358L7.12501 9.61664C7.23902 9.68552 7.36835 9.72178 7.5 9.72178C7.63165 9.72178 7.76098 9.68552 7.87499 9.61664L14.6247 5.5358C14.7381 5.46732 14.8323 5.369 14.8981 5.2506C14.9639 5.1322 14.9989 4.99784 14.9997 4.86089C15.0002 4.7226 14.9658 4.58663 14.9 4.46673C14.8341 4.34684 14.7392 4.24728 14.6247 4.17813L7.87499 0.10514C7.76098 0.0362617 7.63165 0 7.5 0C7.36835 0 7.23902 0.0362617 7.12501 0.10514L0.375283 4.17813C0.260834 4.24728 0.165877 4.34684 0.100027 4.46673C0.0341774 4.58663 -0.000227133 4.7226 0.000297522 4.86089C0.00108752 4.99784 0.0361153 5.1322 0.1019 5.2506C0.167684 5.369 0.261934 5.46732 0.375283 5.5358ZM7.5 1.72178L12.7498 4.86089L7.5 8L2.25021 4.86089L7.5 1.72178ZM13.8747 7.34863L7.5 11.1391L1.12525 7.31724C1.03966 7.26535 0.945094 7.2317 0.847014 7.21821C0.748935 7.20473 0.649274 7.21168 0.553773 7.23867C0.458272 7.26566 0.368816 7.31215 0.290559 7.37547C0.212302 7.43879 0.146789 7.51768 0.0977937 7.60761C1.82495e-05 7.78781 -0.0256804 8.00116 0.0263052 8.20111C0.0782907 8.40106 0.203741 8.57138 0.375283 8.67491L7.12501 12.7557C7.23902 12.8246 7.36835 12.8609 7.5 12.8609C7.63165 12.8609 7.76098 12.8246 7.87499 12.7557L14.6247 8.67491C14.7963 8.57138 14.9217 8.40106 14.9737 8.20111C15.0257 8.00116 15 7.78781 14.9022 7.60761C14.8532 7.51768 14.7877 7.43879 14.7094 7.37547C14.6312 7.31215 14.5417 7.26566 14.4462 7.23867C14.3507 7.21168 14.2511 7.20473 14.153 7.21821C14.0549 7.2317 13.9603 7.26535 13.8747 7.31724V7.34863ZM13.8747 10.4877L7.5 14.2782L1.12525 10.4564C1.03966 10.4045 0.945094 10.3708 0.847014 10.3573C0.748935 10.3438 0.649274 10.3508 0.553773 10.3778C0.458272 10.4048 0.368816 10.4513 0.290559 10.5146C0.212302 10.5779 0.146789 10.6568 0.0977937 10.7467C1.82495e-05 10.9269 -0.0256804 11.1403 0.0263052 11.3402C0.0782907 11.5402 0.203741 11.7105 0.375283 11.814L7.12501 15.8949C7.23902 15.9637 7.36835 16 7.5 16C7.63165 16 7.76098 15.9637 7.87499 15.8949L14.6247 11.814C14.7963 11.7105 14.9217 11.5402 14.9737 11.3402C15.0257 11.1403 15 10.9269 14.9022 10.7467C14.8532 10.6568 14.7877 10.5779 14.7094 10.5146C14.6312 10.4513 14.5417 10.4048 14.4462 10.3778C14.3507 10.3508 14.2511 10.3438 14.153 10.3573C14.0549 10.3708 13.9603 10.4045 13.8747 10.4564V10.4877Z" fill="#BCC5D8"/>
</svg>
