<svg width="16" height="16" viewBox="0 0 16 16" class="icon"  xmlns="http://www.w3.org/2000/svg">
<path d="M15.76 14.6276L14.7201 13.5885C15.0401 13.1089 15.2 12.5494 15.2 11.9899C15.2 10.2314 13.7601 8.79257 12.0002 8.79257C10.2403 8.79257 8.80038 10.2314 8.80038 11.9899C8.80038 13.7484 10.2403 15.1872 12.0002 15.1872C12.5602 15.1872 13.1202 15.0273 13.6001 14.7076L14.6401 15.7467C14.8001 15.9066 15.28 16.2263 15.76 15.7467C16.08 15.427 16.08 14.9474 15.76 14.6276ZM12.0002 13.5885C11.1203 13.5885 10.4003 12.8691 10.4003 11.9899C10.4003 11.1106 11.1203 10.3912 12.0002 10.3912C12.8802 10.3912 13.6001 11.1106 13.6001 11.9899C13.6001 12.8691 12.8802 13.5885 12.0002 13.5885Z" fill="#C9CDE6"/>
<path d="M11.9994 0H0.799962C0.319985 0 0 0.31973 0 0.799325V15.1872C0 15.6668 0.319985 15.9865 0.799962 15.9865H9.35955C8.07961 15.1072 7.19966 13.6685 7.19966 11.9899C7.19966 9.3521 9.35955 7.19392 11.9994 7.19392C12.2394 7.19392 12.5594 7.19392 12.7994 7.27386V0.799325C12.7994 0.31973 12.4794 0 11.9994 0ZM6.39969 6.3946H2.39988C1.91991 6.3946 1.59992 5.99494 1.59992 5.59527C1.59992 5.11568 1.91991 4.79595 2.39988 4.79595H6.39969C6.87967 4.79595 7.19966 5.11568 7.19966 5.59527C7.19966 5.99494 6.87967 6.3946 6.39969 6.3946ZM10.3995 3.1973H2.39988C1.91991 3.1973 1.59992 2.79764 1.59992 2.39797C1.59992 1.91838 1.91991 1.59865 2.39988 1.59865H10.3995C10.8795 1.59865 11.1995 1.91838 11.1995 2.39797C11.1995 2.79764 10.8795 3.1973 10.3995 3.1973Z" fill="#C9CDE6"/>
</svg>
