<svg width="16" height="16" viewBox="0 0 16 16" fill="none" xmlns="http://www.w3.org/2000/svg">
<path fill-rule="evenodd" clip-rule="evenodd" d="M14.6724 13.6024L14.6268 13.6707L15.696 14.7379C15.968 15.0094 15.968 15.4118 15.696 15.6832C15.4862 15.8927 15.2867 15.9211 15.1251 15.8888C14.9562 15.8551 14.8174 15.7521 14.7484 15.6832L13.6794 14.6162L13.6113 14.6615C13.1617 14.9607 12.6367 15.1106 12.1111 15.1106C10.4551 15.1106 9.10001 13.7578 9.10001 12.1053C9.10001 10.4528 10.4551 9.10001 12.1111 9.10001C13.7672 9.10001 15.1222 10.4528 15.1222 12.1053C15.1222 12.6298 14.9721 13.1537 14.6724 13.6024ZM10.4556 12.1053C10.4556 13.0146 11.2005 13.7579 12.1111 13.7579C13.0217 13.7579 13.7667 13.0146 13.7667 12.1053C13.7667 11.1959 13.0217 10.4526 12.1111 10.4526C11.2005 10.4526 10.4556 11.1959 10.4556 12.1053Z" fill="#BCC5D8"/>
<path fill-rule="evenodd" clip-rule="evenodd" d="M6.59961 3.99961V1.49961H2.43711C2.1956 1.49961 1.96367 1.59406 1.79242 1.76267C1.62113 1.93133 1.52461 2.16041 1.52461 2.39961V13.5996C1.52461 13.8388 1.62113 14.0679 1.79242 14.2366C1.96367 14.4052 2.1956 14.4996 2.43711 14.4996H7.4785C7.66796 14.4996 7.84935 14.5737 7.98286 14.7052C8.11631 14.8366 8.191 15.0145 8.191 15.1996C8.191 15.3848 8.11631 15.5626 7.98286 15.694C7.84935 15.8255 7.66796 15.8996 7.4785 15.8996H2.43711C1.81667 15.8996 1.22195 15.6569 0.783697 15.2254C0.345498 14.794 0.0996094 14.2091 0.0996094 13.5996V2.39961C0.0996094 1.79012 0.345498 1.20527 0.783697 0.77381C1.22195 0.342301 1.81667 0.0996094 2.43711 0.0996094H7.34646C7.42582 0.110005 7.50232 0.135517 7.57169 0.174686L7.60118 0.191335L7.63471 0.186645C7.64532 0.185162 7.65604 0.184723 7.66672 0.185329C7.73465 0.218332 7.79723 0.261009 7.85244 0.311967L12.7252 5.10978C12.7756 5.16266 12.8179 5.22232 12.8509 5.28689V5.35222L12.8562 5.36793C12.8773 5.42951 12.8918 5.49384 12.8996 5.5583V7.00164C12.8996 7.18679 12.8249 7.36467 12.6915 7.49607C12.558 7.62752 12.3766 7.70164 12.1871 7.70164C11.9976 7.70164 11.8162 7.62752 11.6827 7.49607C11.5493 7.36467 11.4746 7.18679 11.4746 7.00164V6.29961H8.93711C8.31667 6.29961 7.72195 6.05692 7.2837 5.62541C6.8455 5.19395 6.59961 4.6091 6.59961 3.99961ZM10.4731 4.89961L8.02461 2.48881V3.99961C8.02461 4.23881 8.12113 4.46789 8.29242 4.63655C8.46367 4.80516 8.6956 4.89961 8.93711 4.89961H10.4731Z" fill="#BCC5D8"/>
</svg>
