<svg width="21" height="20" viewBox="0 0 21 20" xmlns="http://www.w3.org/2000/svg">
    <path fill-rule="evenodd" clip-rule="evenodd" d="M18.4881 2.75359H12.1569V1.26172L1.75 2.86797V16.9473L12.1569 18.7398V16.5286H18.4881C18.6799 16.5383 18.8677 16.4717 19.0104 16.3433C19.1532 16.215 19.2393 16.0353 19.25 15.8436V3.43797C19.2392 3.24638 19.153 3.06686 19.0102 2.93863C18.8675 2.8104 18.6798 2.74388 18.4881 2.75359ZM18.5881 15.9573H12.1356L12.125 14.7767H13.6794V13.4017H12.1131L12.1056 12.5892H13.6794V11.2142H12.0938L12.0863 10.4017H13.6794V9.02672H12.0813V8.21422H13.6794V6.83922H12.0813V6.02672H13.6794V4.65172H12.0813V3.40172H18.5881V15.9573Z" />
    <path d="M14.5547 4.64844H17.2566V6.02344H14.5547V4.64844Z" />
    <path d="M14.5547 6.83984H17.2566V8.21484H14.5547V6.83984Z" />
    <path d="M14.5547 9.02734H17.2566V10.4023H14.5547V9.02734Z" />
    <path d="M14.5547 11.2109H17.2566V12.5859H14.5547V11.2109Z" />
    <path d="M14.5547 13.4023H17.2566V14.7773H14.5547V13.4023Z" />
    <path fill-rule="evenodd" clip-rule="evenodd" d="M4.46656 6.67125L5.80781 6.59438L6.65094 8.9125L7.64719 6.49875L8.98844 6.42188L7.35969 9.71312L8.98844 13.0125L7.57031 12.9169L6.61281 10.4019L5.65469 12.8212L4.35156 12.7063L5.86531 9.79188L4.46656 6.67125Z" fill="white" class="exel-plugin" />
</svg>
    