<svg width="16" height="14" viewBox="0 0 16 14" fill="none" xmlns="http://www.w3.org/2000/svg">
<path d="M14.728 5.26036C14.4992 5.00505 14.1622 4.85841 13.8077 4.8599H13.6003V4.783C13.5997 4.21821 13.5617 2.32682 12.7809 2.32682C12 2.32682 7.63376 2.32682 7.63376 2.32682C7.39228 2.32764 7.0406 2.0166 7.0406 2.0166L6.4224 1.51614C6.4224 1.51614 5.836 0.997709 5.43343 0.999023H1.8937C1.40032 0.999487 1.00049 1.37646 1 1.84163V11.9768C1.00063 12.5416 1.4861 12.9993 2.08511 12.9999H12.6993C13.2739 13.0045 13.7692 12.62 13.8747 12.0874L14.983 6.147C15.0413 5.83046 14.948 5.50582 14.728 5.26036ZM1.46669 1.84163C1.46702 1.6194 1.65802 1.43931 1.89373 1.43901H5.43346C5.67494 1.43818 6.02662 1.74923 6.02662 1.74923L6.64482 2.24966C6.64482 2.24966 7.23122 2.76809 7.63378 2.76678C7.63378 2.76678 11.8968 2.76678 12.5152 2.76678C13.1337 2.76678 13.1333 4.46107 13.1337 4.78297V4.85988H4C3.42544 4.854 2.93001 5.23935 2.82692 5.77232L1.46669 10.499V1.84163ZM14.5232 6.07141L13.4151 12.0106C13.3492 12.333 13.0475 12.5645 12.6993 12.5599H2.08511C1.74369 12.5596 1.46699 12.2987 1.46666 11.9768V11.9021C1.46671 11.8639 1.4703 11.8259 1.47738 11.7884L3.28678 5.84817C3.35106 5.52598 3.65232 5.29439 4 5.29991H13.8077C14.0244 5.29857 14.2307 5.38777 14.371 5.54354C14.502 5.68962 14.5577 5.88287 14.5232 6.07141Z" fill="#017AEE" stroke-width="0.8"/>
</svg>
