<svg width="16" height="16" viewBox="0 0 16 16" fill="none" xmlns="http://www.w3.org/2000/svg">
<path fill-rule="evenodd" clip-rule="evenodd" d="M14.9527 5.25201V5.31841L14.9577 5.33375C14.9782 5.39639 14.9924 5.46109 15 5.52675V10.4304C15 11.049 14.7606 11.6417 14.3354 12.0783C13.9103 12.5148 13.3343 12.7595 12.7343 12.7595H6.4219C5.82194 12.7595 5.24595 12.5148 4.82081 12.0783C4.39558 11.6417 4.1562 11.049 4.1562 10.4304V2.32911C4.1562 1.71049 4.39558 1.11775 4.82081 0.681166C5.24595 0.244675 5.82194 0 6.4219 0H9.60804L9.86053 0.0891138H9.92503C9.98813 0.121816 10.0465 0.163678 10.0983 0.213508L14.8303 5.07199C14.8793 5.12559 14.9205 5.18622 14.9527 5.25201ZM12.6509 4.86076L10.2657 2.41183V3.94937C10.2657 4.19018 10.3588 4.42168 10.5255 4.5928C10.6923 4.76402 10.9191 4.86076 11.1562 4.86076H12.6509ZM8.8905 3.94937V1.41772H6.4219C6.18479 1.41772 5.95799 1.51446 5.79122 1.68568C5.62455 1.8568 5.5314 2.0883 5.5314 2.32911V10.4304C5.5314 10.6712 5.62455 10.9027 5.79122 11.0738C5.95799 11.245 6.18479 11.3418 6.4219 11.3418H12.7343C12.9714 11.3418 13.1982 11.245 13.365 11.0738C13.5317 10.9027 13.6248 10.6712 13.6248 10.4304V6.27848H11.1562C10.5562 6.27848 9.98025 6.03381 9.55511 5.59731C9.12988 5.16073 8.8905 4.56799 8.8905 3.94937Z" fill="#C9CDE6"/>
<path d="M4.8438 14.5823H11.1562C11.3376 14.5823 11.5122 14.6562 11.6414 14.7889C11.7707 14.9216 11.8438 15.1022 11.8438 15.2911C11.8438 15.48 11.7707 15.6607 11.6414 15.7934C11.5122 15.926 11.3376 16 11.1562 16H4.8438C3.8253 16 2.84791 15.5846 2.12683 14.8443C1.40564 14.1038 1 13.099 1 12.0506V3.94937C1 3.76046 1.07312 3.57984 1.2024 3.44711C1.33158 3.31448 1.50617 3.24051 1.6876 3.24051C1.86903 3.24051 2.04362 3.31448 2.1728 3.44711C2.30208 3.57984 2.3752 3.76046 2.3752 3.94937V12.0506C2.3752 12.7212 2.63461 13.3648 3.09723 13.8398C3.55995 14.3148 4.18815 14.5823 4.8438 14.5823Z" fill="#C9CDE6"/>
</svg>
