<svg width="16" height="16" viewBox="0 0 16 18" class="icon"  xmlns="http://www.w3.org/2000/svg" fill="#017AEE">
    <path fill-rule="evenodd" clip-rule="evenodd" d="M14.26 12.9v-1.64c0-.86-.7-1.56-1.56-1.56H8.52V8.26a3.65 3.65 0 1 0-1.04 0V9.7H3.3c-.86 0-1.56.7-1.56 1.56v1.63a2.09 2.09 0 1 0 1.04 0v-1.63c0-.29.24-.52.52-.52h4.18v2.15a2.09 2.09 0 1 0 1.04 0v-2.15h4.18c.28 0 .52.23.52.52v1.63a2.09 2.09 0 1 0 1.04 0Zm-3.99-8.22a2.27 2.27 0 1 1-4.54 0 2.27 2.27 0 0 1 4.54 0ZM8 15.91a.95.95 0 1 0 0-1.9.95.95 0 0 0 0 1.9Zm6.71-.95a.95.95 0 1 1-1.9 0 .95.95 0 0 1 1.9 0Zm-12.47.95a.95.95 0 1 0 0-1.9.95.95 0 0 0 0 1.9Z" />
    <path fill-rule="evenodd" clip-rule="evenodd" d="M8 1.15a3.5 3.5 0 0 0-.5 6.96l.13.02v1.72H3.3c-.78 0-1.41.63-1.41 1.41v1.75l-.11.03a1.94 1.94 0 1 0 .96 0l-.1-.03v-1.75c0-.37.3-.67.66-.67h4.33V13l-.11.03a1.94 1.94 0 1 0 .96 0l-.1-.03v-2.42h4.32c.37 0 .67.3.67.67v1.75l-.12.03a1.94 1.94 0 1 0 .97 0l-.11-.03v-1.75c0-.78-.63-1.41-1.41-1.41H8.37V8.13l.13-.02A3.5 3.5 0 0 0 8 1.15Zm-3.8 3.5A3.8 3.8 0 1 1 8.67 8.4v1.16h4.03c.94 0 1.71.76 1.71 1.71v1.52a2.24 2.24 0 1 1-1.34 0v-1.52c0-.2-.17-.37-.37-.37H8.67v1.9a2.24 2.24 0 1 1-1.34 0v-1.9H3.3c-.2 0-.37.17-.37.37v1.52a2.24 2.24 0 1 1-1.34 0v-1.52c0-.95.77-1.71 1.71-1.71h4.03V8.39A3.8 3.8 0 0 1 4.2 4.65Zm1.38.03a2.42 2.42 0 1 1 4.84 0 2.42 2.42 0 0 1-4.84 0ZM8 2.56A2.12 2.12 0 1 0 8 6.8a2.12 2.12 0 0 0 0-4.24Zm-5.76 11.6a.8.8 0 1 0 0 1.6.8.8 0 0 0 0-1.6Zm-1.1.8a1.1 1.1 0 1 1 2.2 0 1.1 1.1 0 0 1-2.2 0Zm6.86-.8a.8.8 0 1 0 0 1.6.8.8 0 0 0 0-1.6Zm-1.1.8a1.1 1.1 0 1 1 2.2 0 1.1 1.1 0 0 1-2.2 0Zm5.76 0a1.1 1.1 0 1 1 2.2 0 1.1 1.1 0 0 1-2.2 0Zm1.1-.8a.8.8 0 1 0 0 1.6.8.8 0 0 0 0-1.6Z" />
</svg>