<svg width="16" height="16" viewBox="0 0 16 16" fill="none" xmlns="http://www.w3.org/2000/svg">
<path d="M14.2608 11.8954V10.2609C14.2608 9.39778 13.5587 8.69566 12.6956 8.69566H8.52167V7.26269C10.2887 7.00816 11.6521 5.48841 11.6521 3.65219C11.6521 1.63841 10.0138 0 7.99992 0C5.98602 0 4.34773 1.63841 4.34773 3.65219C4.34773 5.48841 5.71117 7.00816 7.47817 7.26269V8.69566H3.30427C2.44117 8.69566 1.73905 9.39778 1.73905 10.2609V11.8954C0.840516 12.128 0.173828 12.9427 0.173828 13.913C0.173828 15.0639 1.10998 16 2.2608 16C3.41161 16 4.34776 15.0639 4.34776 13.913C4.34776 12.9427 3.68108 12.128 2.78255 11.8954V10.2609C2.78255 9.97319 3.01661 9.73913 3.3043 9.73913H7.4782V11.8947C6.57951 12.1273 5.91298 12.9427 5.91298 13.9131C5.91295 15.0639 6.84911 16 7.99992 16C9.15073 16 10.0869 15.0639 10.0869 13.913C10.0869 12.9426 9.42036 12.1273 8.52167 11.8947V9.73909H12.6956C12.9833 9.73909 13.2173 9.97316 13.2173 10.2608V11.8953C12.3188 12.128 11.6521 12.9427 11.6521 13.913C11.6521 15.0638 12.5882 16 13.7391 16C14.8899 16 15.826 15.0638 15.826 13.913C15.826 12.9427 15.1593 12.128 14.2608 11.8954Z" fill="#017AEE"/>
</svg>
