<svg width="14" height="9" viewBox="0 0 14 9" fill="none" xmlns="http://www.w3.org/2000/svg">
<path d="M6.33822 7.70706L1.26557 2.55674C1.18142 2.47215 1.11463 2.3715 1.06905 2.26062C1.02347 2.14973 1 2.0308 1 1.91067C1 1.79055 1.02347 1.67161 1.06905 1.56073C1.11463 1.44984 1.18142 1.3492 1.26557 1.26461C1.43379 1.09513 1.66134 1 1.89853 1C2.13572 1 2.36327 1.09513 2.53149 1.26461L7.02056 5.76886L11.4647 1.26461C11.633 1.09513 11.8605 1 12.0977 1C12.3349 1 12.5624 1.09513 12.7307 1.26461C12.8155 1.34888 12.883 1.44938 12.9292 1.56028C12.9754 1.67118 12.9995 1.79028 13 1.91067C12.9995 2.03107 12.9754 2.15016 12.9292 2.26106C12.883 2.37196 12.8155 2.47246 12.7307 2.55674L7.65801 7.70706C7.57393 7.79942 7.4719 7.87314 7.35832 7.92355C7.24475 7.97397 7.1221 8 6.99811 8C6.87412 8 6.75148 7.97397 6.63791 7.92355C6.52433 7.87314 6.42229 7.79942 6.33822 7.70706Z" fill="#C5C7CD" stroke="white" stroke-width="0.7"/>
</svg>
