<svg width="40" height="38" viewBox="0 0 40 38" fill="none" xmlns="http://www.w3.org/2000/svg">
<path d="M4.55907 26.6346C7.28512 33.1902 16.5566 34.553 16.5566 34.553C14.2259 35.9213 11.7576 37.5705 8.35833 37.5705C8.35833 37.5705 2.5168 35.2339 0.439794 28.8731C-0.93365 24.6669 1.34847 18.8775 1.34847 18.8775C1.34847 18.8775 2.67215 17.696 3.67925 17.0366C4.82459 16.2866 6.87859 15.3569 6.87859 15.3569C6.87859 15.3569 2.90453 22.6558 4.55907 26.6346Z" fill="#CAE1F6"/>
<path d="M4.55907 26.6346C7.28512 33.1902 16.5566 34.553 16.5566 34.553C14.2259 35.9213 11.7576 37.5705 8.35833 37.5705C8.35833 37.5705 2.5168 35.2339 0.439794 28.8731C-0.93365 24.6669 1.34847 18.8775 1.34847 18.8775C1.34847 18.8775 2.67215 17.696 3.67925 17.0366C4.82459 16.2866 6.87859 15.3569 6.87859 15.3569C6.87859 15.3569 2.90453 22.6558 4.55907 26.6346Z" fill="url(#paint0_linear)"/>
<path d="M7.57964 11.2834C4.899 13.632 1.34863 18.8774 1.34863 18.8774C1.34863 18.8774 6.80076 13.62 16.342 13.3604C21.5974 13.2174 30.4916 9.1415 30.4916 9.1415C31.5978 5.87996 30.9999 4.15746 29.8425 1.09312C27.7959 -1.09269 24.2537 0.403558 22.3134 2.06672C20.0416 4.01391 17.9569 5.50112 15.7578 6.80488C12.6256 8.66186 10.5483 8.68254 7.57964 11.2834Z" fill="url(#paint1_linear)"/>
<path d="M20.431 37.5706C20.431 37.5706 8.89223 37.7653 8.3584 37.5706C8.43788 37.3758 17.3387 38.8038 26.0778 22.058C34.004 6.86988 29.2582 0.573975 29.2582 0.573975L38.6047 9.1416C38.6047 9.1416 43.2715 13.4254 35.1647 26.861C27.6356 37.5706 20.431 37.5706 20.431 37.5706Z" fill="url(#paint2_linear)"/>
<defs>
<linearGradient id="paint0_linear" x1="1.21301e-05" y1="15.5169" x2="-2.60675" y2="37.6505" gradientUnits="userSpaceOnUse">
<stop stop-color="#59AEFF"/>
<stop offset="1" stop-color="#003686"/>
</linearGradient>
<linearGradient id="paint1_linear" x1="27.7152" y1="3.42975" x2="5.27916" y2="15.3569" gradientUnits="userSpaceOnUse">
<stop stop-color="#0082FF"/>
<stop offset="1" stop-color="#003B77"/>
</linearGradient>
<linearGradient id="paint2_linear" x1="29.3377" y1="0.573975" x2="12.4621" y2="40.2317" gradientUnits="userSpaceOnUse">
<stop stop-color="#003E7C"/>
<stop offset="1" stop-color="#0083FF"/>
</linearGradient>
</defs>
</svg>
