<svg width="13" height="15" viewBox="0 0 13 15" fill="none" xmlns="http://www.w3.org/2000/svg">
<path d="M0 7.5C0 7.69891 0.0856026 7.88968 0.237976 8.03033C0.390349 8.17098 0.597012 8.25 0.8125 8.25H6.97937L5.11062 9.9675C5.03447 10.0372 4.97403 10.1202 4.93278 10.2116C4.89153 10.303 4.87029 10.401 4.87029 10.5C4.87029 10.599 4.89153 10.697 4.93278 10.7884C4.97403 10.8798 5.03447 10.9628 5.11062 11.0325C5.18616 11.1028 5.27602 11.1586 5.37503 11.1967C5.47404 11.2347 5.58024 11.2543 5.6875 11.2543C5.79476 11.2543 5.90096 11.2347 5.99997 11.1967C6.09898 11.1586 6.18884 11.1028 6.26438 11.0325L9.51437 8.0325C9.58835 7.96117 9.64633 7.87706 9.685 7.785C9.76626 7.6024 9.76626 7.3976 9.685 7.215C9.64633 7.12294 9.58835 7.03883 9.51437 6.9675L6.26438 3.9675C6.18862 3.89757 6.09868 3.8421 5.9997 3.80426C5.90072 3.76641 5.79464 3.74693 5.6875 3.74693C5.58036 3.74693 5.47428 3.76641 5.3753 3.80426C5.27632 3.8421 5.18638 3.89757 5.11062 3.9675C5.03487 4.03743 4.97478 4.12045 4.93378 4.21181C4.89278 4.30318 4.87168 4.40111 4.87168 4.5C4.87168 4.59889 4.89278 4.69682 4.93378 4.78819C4.97478 4.87955 5.03487 4.96257 5.11062 5.0325L6.97937 6.75H0.8125C0.597012 6.75 0.390349 6.82902 0.237976 6.96967C0.0856026 7.11032 0 7.30109 0 7.5ZM10.5625 0H2.4375C1.79103 0 1.17105 0.237053 0.713927 0.65901C0.256807 1.08097 0 1.65326 0 2.25V4.5C0 4.69891 0.0856026 4.88968 0.237976 5.03033C0.390349 5.17098 0.597012 5.25 0.8125 5.25C1.02799 5.25 1.23465 5.17098 1.38702 5.03033C1.5394 4.88968 1.625 4.69891 1.625 4.5V2.25C1.625 2.05109 1.7106 1.86032 1.86298 1.71967C2.01535 1.57902 2.22201 1.5 2.4375 1.5H10.5625C10.778 1.5 10.9847 1.57902 11.137 1.71967C11.2894 1.86032 11.375 2.05109 11.375 2.25V12.75C11.375 12.9489 11.2894 13.1397 11.137 13.2803C10.9847 13.421 10.778 13.5 10.5625 13.5H2.4375C2.22201 13.5 2.01535 13.421 1.86298 13.2803C1.7106 13.1397 1.625 12.9489 1.625 12.75V10.5C1.625 10.3011 1.5394 10.1103 1.38702 9.96967C1.23465 9.82902 1.02799 9.75 0.8125 9.75C0.597012 9.75 0.390349 9.82902 0.237976 9.96967C0.0856026 10.1103 0 10.3011 0 10.5V12.75C0 13.3467 0.256807 13.919 0.713927 14.341C1.17105 14.7629 1.79103 15 2.4375 15H10.5625C11.209 15 11.829 14.7629 12.2861 14.341C12.7432 13.919 13 13.3467 13 12.75V2.25C13 1.65326 12.7432 1.08097 12.2861 0.65901C11.829 0.237053 11.209 0 10.5625 0Z" fill="#BCC4D8"/>
</svg>
