<svg  height="37" viewBox="0 0 1220 236" fill="none" xmlns="http://www.w3.org/2000/svg">
<path d="M28.5 166.5C45.5414 207.48 103.5 216 103.5 216C88.93 224.554 73.5 234.864 52.2503 234.864C52.2503 234.864 15.7332 220.257 2.74927 180.493C-5.83651 154.199 8.42967 118.008 8.42967 118.008C8.42967 118.008 16.7043 110.622 23 106.5C30.1599 101.812 43 96 43 96C43 96 18.157 141.628 28.5 166.5Z" fill="#CAE1F6"/>
<path d="M28.5 166.5C45.5414 207.48 103.5 216 103.5 216C88.93 224.554 73.5 234.864 52.2503 234.864C52.2503 234.864 15.7332 220.257 2.74927 180.493C-5.83651 154.199 8.42967 118.008 8.42967 118.008C8.42967 118.008 16.7043 110.622 23 106.5C30.1599 101.812 43 96 43 96C43 96 18.157 141.628 28.5 166.5Z" fill="url(#paint0_linear)" fill-opacity="0.5"/>
<path d="M47.381 70.5358C30.6235 85.2172 8.4292 118.008 8.4292 118.008C8.4292 118.008 42.512 85.1427 102.157 83.5197C135.01 82.6257 190.61 57.1461 190.61 57.1461C197.525 36.7573 193.788 25.9895 186.552 6.83343C173.758 -6.8307 151.615 2.52276 139.486 12.9196C125.284 25.0921 112.252 34.389 98.5051 42.5392C78.9248 54.1477 65.9387 54.277 47.381 70.5358Z" fill="url(#paint1_linear)"/>
<path d="M127.719 234.864C127.719 234.864 55.5871 236.081 52.25 234.864C52.7469 233.646 108.389 242.573 163.019 137.89C212.568 42.945 182.901 3.58746 182.901 3.58746L241.328 57.1461C241.328 57.1461 270.502 83.9255 219.824 167.915C172.757 234.864 127.719 234.864 127.719 234.864Z" fill="url(#paint2_linear)"/>
<path d="M127.719 234.864C127.719 234.864 55.5871 236.081 52.25 234.864C52.7469 233.646 108.389 242.573 163.019 137.89C212.568 42.945 182.901 3.58746 182.901 3.58746L241.328 57.1461C241.328 57.1461 270.502 83.9255 219.824 167.915C172.757 234.864 127.719 234.864 127.719 234.864Z" fill="black" fill-opacity="0.19"/>
<path d="M379.283 212.489H364.914C358.042 212.489 353.148 210.927 350.232 207.804C347.421 204.68 346.015 200.15 346.015 194.215V186.25C340.705 185.521 335.863 183.907 331.489 181.408C327.22 178.804 323.576 175.264 320.556 170.787C317.641 166.205 315.35 160.582 313.684 153.918C312.122 147.254 311.341 139.445 311.341 130.49C311.341 120.494 312.33 111.955 314.308 104.875C316.391 97.6901 319.254 91.8591 322.899 87.3816C326.647 82.8001 331.125 79.468 336.331 77.3855C341.642 75.1989 347.577 74.1055 354.137 74.1055C360.697 74.1055 366.58 75.1989 371.786 77.3855C377.097 79.468 381.574 82.8001 385.218 87.3816C388.967 91.8591 391.831 97.6901 393.809 104.875C395.891 111.955 396.933 120.494 396.933 130.49C396.933 139.237 396.152 146.838 394.59 153.294C393.132 159.749 390.997 165.268 388.186 169.85C385.375 174.327 381.886 177.919 377.721 180.627C373.66 183.23 369.079 185 363.977 185.937V196.402H379.283V212.489ZM354.137 169.693C361.217 169.693 366.684 167.507 370.537 163.133C374.389 158.656 376.316 152.304 376.316 144.078V116.901C376.316 108.675 374.389 102.376 370.537 98.0025C366.684 93.5251 361.217 91.2864 354.137 91.2864C347.056 91.2864 341.59 93.5251 337.737 98.0025C333.884 102.376 331.958 108.675 331.958 116.901V144.078C331.958 152.304 333.884 158.656 337.737 163.133C341.59 167.507 347.056 169.693 354.137 169.693ZM458.253 171.255H456.066C452.942 181.668 446.33 186.874 436.23 186.874C428.941 186.874 423.319 184.427 419.362 179.533C415.509 174.535 413.583 167.403 413.583 158.135V103.469H432.482V155.012C432.482 165.737 436.438 171.099 444.352 171.099C448.205 171.099 451.485 169.954 454.192 167.663C456.899 165.372 458.253 162.196 458.253 158.135V103.469H477.152V185H458.253V171.255ZM550.905 185C542.471 185 538.045 180.366 537.629 171.099H535.755C534.713 176.097 532.37 180.002 528.726 182.813C525.082 185.521 520.552 186.874 515.138 186.874C507.64 186.874 502.018 184.792 498.269 180.627C494.521 176.462 492.646 170.631 492.646 163.133C492.646 154.595 495.302 148.243 500.612 144.078C505.922 139.913 513.576 137.831 523.572 137.831H536.223V130.802C536.223 126.012 535.182 122.472 533.099 120.181C531.121 117.891 527.789 116.745 523.103 116.745C519.251 116.745 516.023 117.682 513.419 119.557C510.816 121.327 508.526 123.878 506.547 127.21L495.458 117.214C498.477 112.528 502.278 108.78 506.86 105.968C511.545 103.053 517.48 101.595 524.665 101.595C544.97 101.595 555.122 111.174 555.122 130.334V169.85H562.307V185H550.905ZM522.322 172.973C526.175 172.973 529.455 171.88 532.162 169.693C534.869 167.403 536.223 164.279 536.223 160.322V149.545H524.821C516.075 149.545 511.701 152.929 511.701 159.697V163.133C511.701 166.57 512.639 169.069 514.513 170.631C516.387 172.192 518.99 172.973 522.322 172.973ZM576.963 185V103.469H595.862V117.058H598.048C601.276 106.749 607.784 101.595 617.572 101.595C624.861 101.595 630.484 104.094 634.441 109.092C638.397 113.986 640.376 121.014 640.376 130.178V185H621.477V133.457C621.477 122.837 617.52 117.526 609.607 117.526C605.754 117.526 602.474 118.672 599.767 120.962C597.163 123.149 595.862 126.273 595.862 130.334V185H576.963ZM682.582 185C676.022 185 671.285 183.542 668.369 180.627C665.454 177.711 663.996 173.078 663.996 166.726V118.62H653.219V103.469H658.842C661.549 103.469 663.371 102.844 664.308 101.595C665.349 100.345 665.87 98.3669 665.87 95.6597V81.2902H682.895V103.469H697.577V118.62H682.895V169.85H696.327V185H682.582ZM765.36 185C756.926 185 752.501 180.366 752.084 171.099H750.21C749.169 176.097 746.826 180.002 743.181 182.813C739.537 185.521 735.007 186.874 729.593 186.874C722.096 186.874 716.473 184.792 712.724 180.627C708.976 176.462 707.102 170.631 707.102 163.133C707.102 154.595 709.757 148.243 715.067 144.078C720.378 139.913 728.031 137.831 738.027 137.831H750.678V130.802C750.678 126.012 749.637 122.472 747.555 120.181C745.576 117.891 742.244 116.745 737.559 116.745C733.706 116.745 730.478 117.682 727.875 119.557C725.272 121.327 722.981 123.878 721.002 127.21L709.913 117.214C712.933 112.528 716.733 108.78 721.315 105.968C726.001 103.053 731.936 101.595 739.12 101.595C759.425 101.595 769.577 111.174 769.577 130.334V169.85H776.762V185H765.36ZM736.778 172.973C740.63 172.973 743.91 171.88 746.618 169.693C749.325 167.403 750.678 164.279 750.678 160.322V149.545H739.277C730.53 149.545 726.157 152.929 726.157 159.697V163.133C726.157 166.57 727.094 169.069 728.968 170.631C730.842 172.192 733.446 172.973 736.778 172.973ZM791.418 185V103.469H810.317V117.058H812.504C815.732 106.749 822.136 101.595 831.715 101.595C841.92 101.595 848.532 106.957 851.551 117.682H853.425C855.196 112.164 857.903 108.103 861.547 105.5C865.296 102.896 869.825 101.595 875.136 101.595C882.008 101.595 887.371 104.094 891.223 109.092C895.076 113.986 897.002 121.014 897.002 130.178V185H878.103V133.457C878.103 122.837 874.303 117.526 866.702 117.526C863.057 117.526 859.933 118.672 857.33 120.962C854.831 123.149 853.582 126.273 853.582 130.334V185H834.683V133.457C834.683 127.835 833.746 123.774 831.871 121.275C829.997 118.776 827.186 117.526 823.437 117.526C819.793 117.526 816.669 118.672 814.066 120.962C811.567 123.149 810.317 126.273 810.317 130.334V185H791.418ZM969.749 185C961.315 185 956.889 180.366 956.473 171.099H954.598C953.557 176.097 951.214 180.002 947.57 182.813C943.925 185.521 939.396 186.874 933.981 186.874C926.484 186.874 920.861 184.792 917.113 180.627C913.364 176.462 911.49 170.631 911.49 163.133C911.49 154.595 914.145 148.243 919.456 144.078C924.766 139.913 932.42 137.831 942.416 137.831H955.067V130.802C955.067 126.012 954.026 122.472 951.943 120.181C949.965 117.891 946.633 116.745 941.947 116.745C938.094 116.745 934.866 117.682 932.263 119.557C929.66 121.327 927.369 123.878 925.391 127.21L914.302 117.214C917.321 112.528 921.122 108.78 925.703 105.968C930.389 103.053 936.324 101.595 943.509 101.595C963.814 101.595 973.966 111.174 973.966 130.334V169.85H981.151V185H969.749ZM941.166 172.973C945.019 172.973 948.299 171.88 951.006 169.693C953.713 167.403 955.067 164.279 955.067 160.322V149.545H943.665C934.919 149.545 930.545 152.929 930.545 159.697V163.133C930.545 166.57 931.482 169.069 933.357 170.631C935.231 172.192 937.834 172.973 941.166 172.973ZM1018.45 185C1011.89 185 1007.15 183.542 1004.24 180.627C1001.32 177.711 999.864 173.078 999.864 166.726V118.62H989.087V103.469H994.71C997.417 103.469 999.239 102.844 1000.18 101.595C1001.22 100.345 1001.74 98.3669 1001.74 95.6597V81.2902H1018.76V103.469H1033.44V118.62H1018.76V169.85H1032.2V185H1018.45ZM1057.5 90.6616C1053.54 90.6616 1050.68 89.8286 1048.91 88.1626C1047.13 86.3924 1046.25 84.0496 1046.25 81.1341V78.0103C1046.25 75.0947 1047.13 72.8039 1048.91 71.1379C1050.68 69.3678 1053.54 68.4827 1057.5 68.4827C1061.45 68.4827 1064.32 69.3678 1066.09 71.1379C1067.86 72.8039 1068.74 75.0947 1068.74 78.0103V81.1341C1068.74 84.0496 1067.86 86.3924 1066.09 88.1626C1064.32 89.8286 1061.45 90.6616 1057.5 90.6616ZM1048.12 103.469H1067.02V185H1048.12V103.469ZM1116.37 186.874C1105.33 186.874 1096.9 183.438 1091.07 176.566C1085.34 169.693 1082.48 158.916 1082.48 144.235C1082.48 129.553 1085.34 118.776 1091.07 111.903C1096.9 105.031 1105.33 101.595 1116.37 101.595C1124.39 101.595 1130.74 103.417 1135.43 107.061C1140.22 110.706 1143.65 115.704 1145.74 122.056L1130.27 128.928C1129.44 124.971 1127.93 122.004 1125.74 120.025C1123.66 117.943 1120.54 116.901 1116.37 116.901C1107 116.901 1102.31 122.524 1102.31 133.77V154.699C1102.31 165.945 1107 171.568 1116.37 171.568C1120.74 171.568 1124.08 170.526 1126.37 168.444C1128.66 166.361 1130.38 163.133 1131.52 158.76L1146.2 165.789C1141.41 179.846 1131.47 186.874 1116.37 186.874ZM1184.61 186.874C1177.84 186.874 1171.9 185.677 1166.8 183.282C1161.7 180.783 1157.22 177.086 1153.37 172.192L1164.93 160.947C1167.53 164.591 1170.44 167.351 1173.67 169.225C1176.9 171.099 1180.65 172.036 1184.92 172.036C1192.83 172.036 1196.79 168.704 1196.79 162.04C1196.79 159.437 1196.11 157.407 1194.76 155.949C1193.51 154.387 1191.32 153.346 1188.2 152.825L1180.54 151.419C1172.01 149.857 1165.81 147.202 1161.96 143.454C1158.11 139.705 1156.18 134.238 1156.18 127.054C1156.18 118.515 1158.68 112.164 1163.68 107.999C1168.67 103.729 1175.75 101.595 1184.92 101.595C1191.27 101.595 1196.74 102.636 1201.32 104.719C1206 106.801 1210.06 109.873 1213.5 113.934L1202.41 125.023C1200.33 122.42 1197.78 120.338 1194.76 118.776C1191.84 117.214 1188.56 116.433 1184.92 116.433C1177.63 116.433 1173.98 119.713 1173.98 126.273C1173.98 128.98 1174.71 131.063 1176.17 132.52C1177.63 133.874 1179.92 134.811 1183.04 135.332L1190.85 136.737C1199.39 138.299 1205.48 140.955 1209.13 144.703C1212.88 148.348 1214.75 153.502 1214.75 160.166C1214.75 168.6 1212.15 175.16 1206.94 179.846C1201.73 184.531 1194.29 186.874 1184.61 186.874Z" fill="#014182"/>
<defs>
<linearGradient id="paint0_linear" x1="7.58287e-05" y1="97" x2="-16.2955" y2="235.363" gradientUnits="userSpaceOnUse">
<stop stop-color="#6FBAFF"/>
<stop offset="1" stop-color="#2462FF"/>
</linearGradient>
<linearGradient id="paint1_linear" x1="173.254" y1="21.4404" x2="33" y2="96" gradientUnits="userSpaceOnUse">
<stop stop-color="#0082FF"/>
<stop offset="1" stop-color="#0060D0"/>
</linearGradient>
<linearGradient id="paint2_linear" x1="183.398" y1="3.58747" x2="77.9032" y2="251.499" gradientUnits="userSpaceOnUse">
<stop stop-color="#002A7C"/>
<stop offset="1" stop-color="#0070D9"/>
</linearGradient>
</defs>
</svg>
