<svg width="146" height="24" viewBox="0 0 146 24" fill="none" xmlns="http://www.w3.org/2000/svg">
<path d="M11.6729 23.3973H9.37423C8.27488 23.3973 7.49201 23.1474 7.02562 22.6477C6.57589 22.148 6.35102 21.4234 6.35102 20.474V19.1998C5.50152 19.0832 4.72698 18.825 4.0274 18.4252C3.34447 18.0088 2.76148 17.4425 2.27843 16.7262C1.81204 15.9933 1.44559 15.0939 1.17909 14.0278C0.929234 12.9618 0.804308 11.7125 0.804308 10.28C0.804308 8.681 0.962548 7.31514 1.27903 6.18248C1.61216 5.03316 2.07022 4.10038 2.65321 3.38414C3.25286 2.65124 3.9691 2.11822 4.80194 1.78509C5.65143 1.4353 6.60087 1.2604 7.65025 1.2604C8.69963 1.2604 9.64073 1.4353 10.4736 1.78509C11.3231 2.11822 12.0393 2.65124 12.6223 3.38414C13.2219 4.10038 13.68 5.03316 13.9965 6.18248C14.3296 7.31514 14.4962 8.681 14.4962 10.28C14.4962 11.6792 14.3713 12.8952 14.1214 13.9279C13.8882 14.9606 13.5468 15.8434 13.097 16.5763C12.6473 17.2926 12.0893 17.8672 11.423 18.3003C10.7734 18.7167 10.0405 18.9999 9.22431 19.1498V20.8238H11.6729V23.3973ZM7.65025 16.5513C8.78291 16.5513 9.65739 16.2015 10.2737 15.502C10.89 14.7857 11.1981 13.7696 11.1981 12.4538V8.10634C11.1981 6.79045 10.89 5.78272 10.2737 5.08313C9.65739 4.36689 8.78291 4.00877 7.65025 4.00877C6.51759 4.00877 5.64311 4.36689 5.0268 5.08313C4.4105 5.78272 4.10235 6.79045 4.10235 8.10634V12.4538C4.10235 13.7696 4.4105 14.7857 5.0268 15.502C5.64311 16.2015 6.51759 16.5513 7.65025 16.5513ZM24.3054 16.8012H23.9556C23.4559 18.4669 22.3982 19.2997 20.7825 19.2997C19.6165 19.2997 18.7171 18.9083 18.0841 18.1254C17.4678 17.3259 17.1596 16.1849 17.1596 14.7024V5.95761H20.1829V14.2027C20.1829 15.9184 20.8158 16.7762 22.0817 16.7762C22.698 16.7762 23.2227 16.593 23.6558 16.2265C24.0889 15.8601 24.3054 15.352 24.3054 14.7024V5.95761H27.3286V18.9999H24.3054V16.8012ZM39.1267 18.9999C37.7775 18.9999 37.0696 18.2587 37.003 16.7762H36.7031C36.5366 17.5757 36.1618 18.2004 35.5788 18.6501C34.9958 19.0832 34.2712 19.2997 33.4051 19.2997C32.2058 19.2997 31.3063 18.9666 30.7067 18.3003C30.107 17.634 29.8072 16.7012 29.8072 15.502C29.8072 14.1361 30.232 13.12 31.0815 12.4538C31.931 11.7875 33.1552 11.4544 34.7543 11.4544H36.7781V10.33C36.7781 9.56381 36.6115 8.99748 36.2784 8.63103C35.9619 8.26458 35.4289 8.08135 34.6793 8.08135C34.063 8.08135 33.5467 8.23127 33.1303 8.53109C32.7138 8.81425 32.3474 9.22234 32.0309 9.75536L30.257 8.15631C30.74 7.40675 31.348 6.80711 32.0809 6.35738C32.8304 5.89099 33.7799 5.65779 34.9292 5.65779C38.1773 5.65779 39.8013 7.19022 39.8013 10.2551V16.5763H40.9506V18.9999H39.1267ZM34.5544 17.076C35.1707 17.076 35.6954 16.9011 36.1285 16.5513C36.5615 16.1849 36.7781 15.6852 36.7781 15.0522V13.3282H34.9542C33.555 13.3282 32.8554 13.8696 32.8554 14.9523V15.502C32.8554 16.0516 33.0053 16.4514 33.3051 16.7012C33.605 16.9511 34.0214 17.076 34.5544 17.076ZM43.2951 18.9999V5.95761H46.3183V8.13132H46.6681C47.1845 6.4823 48.2255 5.65779 49.7913 5.65779C50.9572 5.65779 51.8567 6.05755 52.4897 6.85708C53.1226 7.63995 53.4391 8.76428 53.4391 10.2301V18.9999H50.4159V10.7548C50.4159 9.05578 49.7829 8.20628 48.517 8.20628C47.9007 8.20628 47.376 8.3895 46.943 8.75595C46.5265 9.10575 46.3183 9.60545 46.3183 10.2551V18.9999H43.2951ZM60.1908 18.9999C59.1414 18.9999 58.3835 18.7667 57.9171 18.3003C57.4507 17.8339 57.2175 17.0927 57.2175 16.0766V8.38118H55.4935V5.95761H56.393C56.8261 5.95761 57.1176 5.85767 57.2675 5.65779C57.4341 5.45791 57.5173 5.14143 57.5173 4.70835V2.40972H60.2407V5.95761H62.5893V8.38118H60.2407V16.5763H62.3895V18.9999H60.1908ZM73.4325 18.9999C72.0833 18.9999 71.3754 18.2587 71.3088 16.7762H71.009C70.8424 17.5757 70.4676 18.2004 69.8846 18.6501C69.3016 19.0832 68.5771 19.2997 67.7109 19.2997C66.5116 19.2997 65.6122 18.9666 65.0125 18.3003C64.4129 17.634 64.113 16.7012 64.113 15.502C64.113 14.1361 64.5378 13.12 65.3873 12.4538C66.2368 11.7875 67.4611 11.4544 69.0601 11.4544H71.0839V10.33C71.0839 9.56381 70.9173 8.99748 70.5842 8.63103C70.2677 8.26458 69.7347 8.08135 68.9852 8.08135C68.3689 8.08135 67.8525 8.23127 67.4361 8.53109C67.0197 8.81425 66.6532 9.22234 66.3367 9.75536L64.5628 8.15631C65.0458 7.40675 65.6538 6.80711 66.3867 6.35738C67.1363 5.89099 68.0857 5.65779 69.235 5.65779C72.4831 5.65779 74.1071 7.19022 74.1071 10.2551V16.5763H75.2564V18.9999H73.4325ZM68.8602 17.076C69.4765 17.076 70.0012 16.9011 70.4343 16.5513C70.8674 16.1849 71.0839 15.6852 71.0839 15.0522V13.3282H69.26C67.8608 13.3282 67.1612 13.8696 67.1612 14.9523V15.502C67.1612 16.0516 67.3112 16.4514 67.611 16.7012C67.9108 16.9511 68.3272 17.076 68.8602 17.076ZM77.6009 18.9999V5.95761H80.6241V8.13132H80.9739C81.4903 6.4823 82.5147 5.65779 84.0471 5.65779C85.6795 5.65779 86.7372 6.51562 87.2202 8.23126H87.5201C87.8032 7.34846 88.2363 6.69884 88.8193 6.28242C89.4189 5.866 90.1435 5.65779 90.993 5.65779C92.0923 5.65779 92.9502 6.05755 93.5665 6.85708C94.1828 7.63995 94.4909 8.76428 94.4909 10.2301V18.9999H91.4677V10.7548C91.4677 9.05578 90.8597 8.20628 89.6438 8.20628C89.0608 8.20628 88.5611 8.3895 88.1447 8.75595C87.7449 9.10575 87.545 9.60545 87.545 10.2551V18.9999H84.5218V10.7548C84.5218 9.8553 84.3719 9.20569 84.0721 8.80592C83.7723 8.40616 83.3225 8.20628 82.7229 8.20628C82.1399 8.20628 81.6402 8.3895 81.2238 8.75595C80.824 9.10575 80.6241 9.60545 80.6241 10.2551V18.9999H77.6009ZM106.128 18.9999C104.779 18.9999 104.071 18.2587 104.004 16.7762H103.704C103.538 17.5757 103.163 18.2004 102.58 18.6501C101.997 19.0832 101.273 19.2997 100.406 19.2997C99.2071 19.2997 98.3076 18.9666 97.708 18.3003C97.1083 17.634 96.8085 16.7012 96.8085 15.502C96.8085 14.1361 97.2332 13.12 98.0827 12.4538C98.9322 11.7875 100.157 11.4544 101.756 11.4544H103.779V10.33C103.779 9.56381 103.613 8.99748 103.28 8.63103C102.963 8.26458 102.43 8.08135 101.681 8.08135C101.064 8.08135 100.548 8.23127 100.132 8.53109C99.7151 8.81425 99.3487 9.22234 99.0322 9.75536L97.2582 8.15631C97.7413 7.40675 98.3492 6.80711 99.0821 6.35738C99.8317 5.89099 100.781 5.65779 101.93 5.65779C105.179 5.65779 106.803 7.19022 106.803 10.2551V16.5763H107.952V18.9999H106.128ZM101.556 17.076C102.172 17.076 102.697 16.9011 103.13 16.5513C103.563 16.1849 103.779 15.6852 103.779 15.0522V13.3282H101.955C100.556 13.3282 99.8567 13.8696 99.8567 14.9523V15.502C99.8567 16.0516 100.007 16.4514 100.306 16.7012C100.606 16.9511 101.023 17.076 101.556 17.076ZM113.919 18.9999C112.869 18.9999 112.111 18.7667 111.645 18.3003C111.179 17.8339 110.945 17.0927 110.945 16.0766V8.38118H109.221V5.95761H110.121C110.554 5.95761 110.845 5.85767 110.995 5.65779C111.162 5.45791 111.245 5.14143 111.245 4.70835V2.40972H113.969V5.95761H116.317V8.38118H113.969V16.5763H116.117V18.9999H113.919ZM120.165 3.90883C119.532 3.90883 119.074 3.77557 118.79 3.50907C118.507 3.2259 118.366 2.85112 118.366 2.38473V1.88503C118.366 1.41864 118.507 1.05219 118.79 0.785681C119.074 0.502515 119.532 0.360932 120.165 0.360932C120.798 0.360932 121.256 0.502515 121.539 0.785681C121.822 1.05219 121.963 1.41864 121.963 1.88503V2.38473C121.963 2.85112 121.822 3.2259 121.539 3.50907C121.256 3.77557 120.798 3.90883 120.165 3.90883ZM118.665 5.95761H121.689V18.9999H118.665V5.95761ZM129.583 19.2997C127.817 19.2997 126.468 18.75 125.535 17.6507C124.619 16.5513 124.161 14.8274 124.161 12.4787C124.161 10.1301 124.619 8.40616 125.535 7.30681C126.468 6.20746 127.817 5.65779 129.583 5.65779C130.865 5.65779 131.881 5.94928 132.631 6.53227C133.397 7.11526 133.947 7.91479 134.28 8.93085L131.806 10.0302C131.673 9.39724 131.432 8.92252 131.082 8.60604C130.749 8.27291 130.249 8.10634 129.583 8.10634C128.084 8.10634 127.334 9.00581 127.334 10.8047V14.1528C127.334 15.9517 128.084 16.8512 129.583 16.8512C130.282 16.8512 130.815 16.6846 131.182 16.3514C131.548 16.0183 131.823 15.502 132.006 14.8024L134.355 15.9267C133.589 18.1754 131.998 19.2997 129.583 19.2997ZM140.498 19.2997C139.415 19.2997 138.466 19.1081 137.65 18.725C136.834 18.3253 136.117 17.734 135.501 16.9511L137.35 15.1522C137.766 15.7351 138.233 16.1766 138.749 16.4764C139.265 16.7762 139.865 16.9261 140.548 16.9261C141.814 16.9261 142.447 16.3931 142.447 15.3271C142.447 14.9106 142.339 14.5858 142.122 14.3526C141.922 14.1028 141.572 13.9362 141.073 13.8529L139.848 13.6281C138.483 13.3782 137.491 12.9535 136.875 12.3538C136.259 11.7542 135.951 10.8797 135.951 9.73038C135.951 8.36452 136.35 7.34846 137.15 6.68218C137.95 5.99926 139.082 5.65779 140.548 5.65779C141.564 5.65779 142.439 5.82436 143.171 6.1575C143.921 6.49063 144.571 6.98201 145.12 7.63162L143.346 9.40557C143.013 8.98915 142.605 8.65601 142.122 8.40616C141.656 8.15631 141.131 8.03138 140.548 8.03138C139.382 8.03138 138.799 8.55607 138.799 9.60545C138.799 10.0385 138.916 10.3717 139.149 10.6049C139.382 10.8214 139.748 10.9713 140.248 11.0546L141.497 11.2795C142.863 11.5293 143.838 11.9541 144.421 12.5537C145.02 13.1367 145.32 13.9612 145.32 15.0272C145.32 16.3764 144.904 17.4258 144.071 18.1754C143.238 18.9249 142.047 19.2997 140.498 19.2997Z" fill="#003C71"/>
</svg>
