<svg width="16" height="16" viewBox="0 0 16 16" fill="none" xmlns="http://www.w3.org/2000/svg">
<path d="M14.6325 6.02152L13.8761 5.88577C13.8086 5.70065 13.7309 5.51937 13.6434 5.34277L14.0895 4.7125C14.279 4.45266 14.3687 4.13324 14.342 3.81271C14.3152 3.49219 14.174 3.192 13.944 2.96713L13.0325 2.05566C12.9056 1.92801 12.7544 1.82706 12.5879 1.75878C12.4213 1.6905 12.2428 1.65627 12.0628 1.6581C11.7807 1.6553 11.5052 1.74373 11.2774 1.91021L10.6665 2.35625L10.075 2.11384L9.95863 1.37691C9.90376 1.05926 9.73841 0.771217 9.49179 0.563635C9.24517 0.356053 8.93313 0.242284 8.61077 0.242416H7.3308C7.00905 0.240676 6.69729 0.354088 6.45187 0.562155C6.20645 0.770222 6.04356 1.05922 5.99264 1.37691L5.8181 2.14293C5.63297 2.2105 5.45169 2.28819 5.27508 2.37564L4.69327 1.9393C4.45807 1.7646 4.1717 1.67256 3.87875 1.6775C3.69876 1.67566 3.52023 1.70989 3.35368 1.77817C3.18714 1.84645 3.03596 1.9474 2.90907 2.07505L1.99757 2.98652C1.78229 3.2232 1.65823 3.52875 1.64757 3.84851C1.63691 4.16827 1.74035 4.4814 1.93939 4.73189L2.39514 5.37186C2.30593 5.55098 2.2282 5.73558 2.16242 5.92456L1.42546 6.05061C1.09893 6.09085 0.798398 6.24912 0.58049 6.4956C0.362582 6.74208 0.242351 7.05974 0.242454 7.38873V8.66867C0.240713 8.9904 0.354129 9.30215 0.562202 9.54757C0.770275 9.79298 1.05928 9.95586 1.37698 10.0068L2.14302 10.1425C2.20767 10.33 2.28524 10.5142 2.37574 10.6952L1.93939 11.3061C1.74982 11.5659 1.66018 11.8854 1.68689 12.2059C1.7136 12.5264 1.85488 12.8266 2.08484 13.0515L2.98664 13.9629C3.24541 14.2172 3.59353 14.3599 3.95632 14.3605C4.23846 14.3633 4.51396 14.2749 4.74176 14.1084L5.38175 13.6527C5.54877 13.7337 5.72037 13.8049 5.89568 13.866L6.02173 14.6223C6.0745 14.9392 6.23792 15.227 6.48293 15.4347C6.72794 15.6425 7.03867 15.7566 7.35989 15.7568H8.63986C8.96161 15.7585 9.27337 15.6451 9.51879 15.4371C9.76421 15.229 9.9271 14.94 9.97802 14.6223L10.1138 13.866L10.6568 13.643L11.2774 14.089C11.5094 14.2544 11.7876 14.3426 12.0725 14.3411C12.4353 14.3405 12.7834 14.1978 13.0422 13.9436L13.9537 13.0321C14.1784 12.8042 14.316 12.5047 14.3426 12.1858C14.3692 11.8668 14.283 11.5487 14.0991 11.2867L13.6434 10.6661C13.7307 10.4819 13.7985 10.2977 13.8664 10.1134L14.6228 9.98739C14.9405 9.93647 15.2295 9.77358 15.4375 9.52817C15.6456 9.28276 15.759 8.97101 15.7573 8.64927V7.35964C15.7634 7.03826 15.6528 6.72556 15.446 6.47951C15.2392 6.23345 14.9501 6.07074 14.6325 6.02152ZM14.8458 8.63958C14.8474 8.74558 14.8112 8.8487 14.7437 8.93044C14.6762 9.01218 14.5817 9.06719 14.4773 9.08562L13.5076 9.25045C13.418 9.2659 13.3344 9.30575 13.266 9.36562C13.1976 9.4255 13.147 9.50308 13.1198 9.58983C13.0237 9.89297 12.9037 10.188 12.761 10.4722C12.7137 10.5478 12.6886 10.6352 12.6886 10.7243C12.6886 10.8135 12.7137 10.9009 12.761 10.9764L13.3525 11.8103C13.4203 11.8921 13.4574 11.995 13.4574 12.1012C13.4574 12.2075 13.4203 12.3103 13.3525 12.3921L12.4507 13.2939C12.3662 13.3796 12.2511 13.4284 12.1307 13.4296C12.0362 13.4304 11.9441 13.3997 11.8689 13.3424L11.0447 12.7606C10.968 12.7113 10.8788 12.6851 10.7877 12.6851C10.6966 12.6851 10.6074 12.7113 10.5307 12.7606C10.2477 12.9058 9.95242 13.0259 9.64833 13.1194C9.56262 13.1484 9.48609 13.1996 9.4265 13.2677C9.36691 13.3358 9.32635 13.4184 9.30894 13.5072L9.1441 14.4769C9.12567 14.5813 9.07065 14.6757 8.98891 14.7432C8.90718 14.8107 8.80406 14.8469 8.69804 14.8453H7.35019C7.24584 14.8447 7.14504 14.8074 7.06531 14.7401C6.98558 14.6728 6.93198 14.5796 6.91384 14.4769L6.74899 13.5072C6.73158 13.4184 6.69103 13.3358 6.63143 13.2677C6.57184 13.1996 6.49532 13.1484 6.4096 13.1194C6.11456 13.0308 5.82879 12.9139 5.55629 12.7703C5.48741 12.7351 5.41055 12.7183 5.33326 12.7218C5.22989 12.7221 5.12882 12.7524 5.04236 12.8091L4.20844 13.4102C4.1304 13.4607 4.03952 13.4876 3.94662 13.4878C3.88846 13.487 3.83105 13.4746 3.77777 13.4513C3.72448 13.428 3.67639 13.3942 3.63633 13.3521L2.72483 12.4503C2.64993 12.3743 2.60405 12.2745 2.5952 12.1682C2.58634 12.0619 2.61505 11.9558 2.67634 11.8685L3.25815 11.054C3.30743 10.9774 3.33363 10.8882 3.33363 10.797C3.33363 10.7059 3.30743 10.6167 3.25815 10.5401C3.11797 10.2459 3.00124 9.94116 2.90907 9.62862C2.88286 9.54131 2.83257 9.46315 2.76396 9.40312C2.69536 9.3431 2.61122 9.30363 2.5212 9.28924L1.55152 9.1147C1.44711 9.09628 1.35268 9.04127 1.28515 8.95953C1.21763 8.87779 1.18143 8.77467 1.18304 8.66867V7.38873C1.18143 7.28272 1.21763 7.17961 1.28515 7.09787C1.35268 7.01613 1.44711 6.96112 1.55152 6.94269L2.5212 6.77785C2.6108 6.7624 2.69441 6.72256 2.76284 6.66268C2.83127 6.60281 2.88186 6.52523 2.90907 6.43847C2.99927 6.13466 3.11608 5.83939 3.25815 5.55609C3.30525 5.47866 3.33015 5.38977 3.33015 5.29914C3.33015 5.2085 3.30525 5.11961 3.25815 5.04218L2.65695 4.20828C2.58914 4.12651 2.55203 4.02361 2.55203 3.91739C2.55203 3.81116 2.58914 3.70826 2.65695 3.62649L3.56845 2.72472C3.65001 2.64043 3.76149 2.59166 3.87875 2.58897C3.97165 2.58921 4.06252 2.61613 4.14056 2.66654L4.95509 3.25802C5.03321 3.30815 5.12408 3.33479 5.2169 3.33479C5.30972 3.33479 5.40059 3.30815 5.47871 3.25802C5.76896 3.11651 6.07063 2.99974 6.38051 2.90895C6.46602 2.88122 6.54214 2.83026 6.60036 2.76177C6.65858 2.69328 6.69661 2.60995 6.7102 2.52109L6.88475 1.55144C6.90317 1.44704 6.95819 1.35261 7.03993 1.28508C7.12167 1.21756 7.22479 1.18136 7.3308 1.18298H8.61077C8.71678 1.18136 8.8199 1.21756 8.90164 1.28508C8.98338 1.35261 9.0384 1.44704 9.05682 1.55144L9.22167 2.52109C9.23895 2.61143 9.28061 2.69532 9.34214 2.76369C9.40367 2.83205 9.48273 2.88229 9.57075 2.90895C9.88314 3.00068 10.1853 3.12415 10.4726 3.27742C10.55 3.32451 10.6389 3.34942 10.7295 3.34942C10.8202 3.34942 10.909 3.32451 10.9865 3.27742L11.8204 2.68593C11.8956 2.62864 11.9877 2.59795 12.0822 2.59866C12.1404 2.59947 12.1978 2.61189 12.2511 2.63521C12.3044 2.65852 12.3525 2.69225 12.3925 2.73441L13.304 3.64588C13.3711 3.72612 13.4078 3.82736 13.4078 3.93193C13.4078 4.0365 13.3711 4.13774 13.304 4.21798L12.7125 5.04218C12.6674 5.1203 12.6437 5.20892 12.6437 5.29914C12.6437 5.38935 12.6674 5.47797 12.7125 5.55609C12.8609 5.83888 12.9842 6.13413 13.081 6.43847C13.11 6.52418 13.1612 6.6007 13.2293 6.6603C13.2974 6.71989 13.38 6.76044 13.4689 6.77785L14.4385 6.94269C14.543 6.95702 14.6385 7.00954 14.7066 7.09012C14.7746 7.1707 14.8104 7.27362 14.807 7.37903L14.8458 8.63958Z" fill="#BCC5D8"/>
<path d="M7.99988 4.984C7.40343 4.984 6.82037 5.16086 6.32444 5.49222C5.82852 5.82358 5.44199 6.29455 5.21373 6.84558C4.98548 7.39662 4.92576 8.00295 5.04212 8.58792C5.15848 9.17289 5.4457 9.71023 5.86746 10.132C6.28921 10.5537 6.82655 10.8409 7.41154 10.9573C7.99653 11.0736 8.60289 11.0139 9.15393 10.7857C9.70498 10.5574 10.176 10.1709 10.5073 9.67499C10.8387 9.17908 11.0156 8.59604 11.0156 7.99961C11.0156 7.19982 10.6979 6.43279 10.1323 5.86725C9.56674 5.30171 8.79969 4.984 7.99988 4.984ZM7.99988 10.1037C7.5837 10.1037 7.17688 9.98034 6.83084 9.74914C6.48481 9.51793 6.21511 9.18931 6.05585 8.80483C5.89659 8.42035 5.85492 7.99727 5.93611 7.58911C6.0173 7.18095 6.2177 6.80603 6.51198 6.51176C6.80626 6.21749 7.18119 6.01709 7.58937 5.9359C7.99754 5.85471 8.42063 5.89638 8.80512 6.05564C9.18961 6.2149 9.51824 6.48459 9.74946 6.83061C9.98067 7.17664 10.1041 7.58345 10.1041 7.99961C10.1041 8.27593 10.0497 8.54954 9.9439 8.80483C9.83816 9.06011 9.68316 9.29207 9.48777 9.48746C9.29238 9.68285 9.06041 9.83784 8.80512 9.94358C8.54983 10.0493 8.2762 10.1037 7.99988 10.1037Z" fill="#BCC5D8"/>
<path d="M8.63986 15.9992H7.35019C6.97871 15.9903 6.62208 15.8516 6.34221 15.6071C6.06234 15.3627 5.8769 15.028 5.8181 14.6611L5.71144 14.0502L5.43993 13.9339L4.84842 14.3023C4.53827 14.515 4.16411 14.6138 3.78941 14.5819C3.41472 14.5501 3.06257 14.3897 2.79271 14.1278L1.93939 13.226C1.66993 12.9585 1.50441 12.6038 1.47244 12.2254C1.44046 11.8471 1.54411 11.4696 1.76485 11.1607L2.09454 10.6661C2.04605 10.5595 2.00727 10.4625 1.96848 10.3559L1.33819 10.2492C0.963129 10.189 0.622012 9.99651 0.376563 9.7066C0.131113 9.4167 -0.00245244 9.04851 3.41022e-05 8.66867V7.38873C-0.000136748 7.01055 0.134478 6.64469 0.379722 6.3568C0.624966 6.06892 0.964782 5.87785 1.33819 5.8179L1.93939 5.71124C1.97551 5.60551 2.0176 5.50191 2.06545 5.40095L1.68727 4.84825C1.47789 4.54048 1.38093 4.16998 1.41272 3.7991C1.44451 3.42823 1.60311 3.07963 1.86182 2.81199L2.77331 1.9393C3.04082 1.6681 3.39491 1.49922 3.77402 1.46202C4.15314 1.42482 4.5333 1.52165 4.84842 1.73568L5.34296 2.09445L5.64356 1.9393L5.75022 1.30903C5.81842 0.940166 6.01407 0.606992 6.30297 0.367722C6.59188 0.128452 6.95568 -0.00170121 7.3308 3.58357e-06H8.61077C8.99063 -0.00248288 9.35883 0.131079 9.64874 0.376521C9.93865 0.621963 10.1311 0.96307 10.1913 1.33812L10.298 1.9393C10.4152 1.97775 10.5288 2.02642 10.6374 2.08475L11.1513 1.71628C11.4662 1.50797 11.844 1.41625 12.2194 1.45697C12.5948 1.4977 12.9441 1.66831 13.207 1.9393L14.1185 2.85077C14.3725 3.11308 14.5285 3.4548 14.5603 3.81854C14.5921 4.18227 14.4977 4.54587 14.2931 4.84825L13.9246 5.35247C13.9731 5.45913 14.0119 5.55609 14.0507 5.66275L14.6713 5.76942C15.0471 5.83007 15.3884 6.02432 15.6324 6.31647C15.8765 6.60862 16.0069 6.97903 15.9997 7.35964V8.63958C16.0022 9.01942 15.8686 9.38761 15.6232 9.67751C15.3777 9.96742 15.0366 10.1599 14.6616 10.2201L14.0507 10.3268C14.0507 10.4237 13.9634 10.5304 13.9149 10.6274L14.2834 11.1413C14.5034 11.4487 14.6067 11.8245 14.5747 12.2012C14.5427 12.578 14.3776 12.931 14.1088 13.1969L13.207 14.1084C12.9347 14.3694 12.5811 14.5291 12.2052 14.5609C11.8293 14.5927 11.4539 14.4945 11.1416 14.2829L10.6665 13.9145L10.3659 14.0502L10.2592 14.6611C10.1981 15.0429 10 15.3893 9.70195 15.6356C9.4039 15.8819 9.02633 16.0111 8.63986 15.9992ZM5.34296 13.3715L5.46902 13.4393L5.97325 13.643H6.109L6.25446 14.535C6.28754 14.8024 6.41716 15.0485 6.61893 15.2271C6.82071 15.4057 7.08075 15.5044 7.35019 15.5047H8.63986C8.91039 15.5047 9.17168 15.4063 9.37505 15.2279C9.57842 15.0495 9.71001 14.8033 9.7453 14.535L9.89075 13.643H10.0265L10.5598 13.4199L10.6859 13.3618L11.4228 13.8854C11.6386 14.035 11.8995 14.1052 12.1612 14.084C12.4229 14.0628 12.6692 13.9515 12.858 13.769L13.7695 12.8575C13.9571 12.6717 14.072 12.4248 14.0933 12.1616C14.1147 11.8983 14.0411 11.6361 13.8858 11.4225L13.3622 10.6661L13.4204 10.5304C13.5076 10.3559 13.5755 10.1813 13.6434 10.0068V9.87103L14.5355 9.72558C14.8037 9.6903 15.05 9.55872 15.2284 9.35535C15.4068 9.15198 15.5051 8.8907 15.5052 8.62018V7.35964C15.5109 7.09524 15.4208 6.8377 15.2515 6.63454C15.0822 6.43138 14.8451 6.2963 14.584 6.25424L13.6822 6.10879V5.97304C13.6212 5.7914 13.5499 5.61335 13.4689 5.43973L13.4107 5.31368L13.9343 4.57675C14.0895 4.36309 14.1632 4.1009 14.1418 3.83766C14.1205 3.57443 14.0056 3.32753 13.8179 3.14167L12.9064 2.2302C12.7176 2.04774 12.4714 1.93641 12.2097 1.91519C11.948 1.89397 11.687 1.96418 11.4713 2.11384L10.6665 2.63745L10.5307 2.57927C10.3475 2.49176 10.1598 2.41408 9.96832 2.34655H9.83257L9.69681 1.41569C9.65364 1.15783 9.52122 0.923343 9.32271 0.753195C9.1242 0.583047 8.87221 0.488059 8.61077 0.484828H7.3308C7.06084 0.486903 6.80064 0.585996 6.59769 0.764014C6.39475 0.942033 6.26259 1.1871 6.22537 1.45448L6.07022 2.36595L5.94416 2.41443C5.76391 2.47459 5.58881 2.54917 5.42053 2.63745L5.28478 2.69563L4.55752 2.13323C4.34179 1.98357 4.08083 1.91337 3.81913 1.93459C3.55743 1.9558 3.31119 2.06713 3.1224 2.24959L2.2109 3.16106C2.02356 3.34672 1.90809 3.59277 1.88501 3.85551C1.86194 4.11825 1.93274 4.38066 2.08484 4.59614L2.61816 5.34277L2.55998 5.46882C2.48241 5.64336 2.41453 5.82759 2.34665 6.00213V6.13788L1.46425 6.28333C1.19603 6.31861 0.949787 6.4502 0.77139 6.65356C0.592994 6.85693 0.494611 7.11821 0.49457 7.38873V8.66867C0.494611 8.93919 0.592994 9.20047 0.77139 9.40383C0.949787 9.6072 1.19603 9.73878 1.46425 9.77407L2.37574 9.92921L2.42423 10.0553C2.48434 10.2387 2.55891 10.417 2.64725 10.5886L2.70544 10.7146L2.18181 11.4419C2.02657 11.6555 1.95295 11.9177 1.9743 12.1809C1.99564 12.4442 2.11053 12.6911 2.29817 12.8769L3.20967 13.7884C3.39821 13.9707 3.64365 14.0827 3.9049 14.1056C4.16615 14.1286 4.42736 14.0611 4.64479 13.9145L5.34296 13.3715ZM8.63986 15.0877H7.35019C7.18826 15.0859 7.032 15.0278 6.90817 14.9235C6.78434 14.8191 6.70065 14.6749 6.67142 14.5156L6.50657 13.546C6.49959 13.4991 6.4795 13.4551 6.44863 13.4191C6.41775 13.383 6.37734 13.3565 6.33203 13.3424C6.02704 13.2473 5.73162 13.124 5.44962 12.9739C5.40926 12.9527 5.36433 12.9416 5.31872 12.9416C5.27311 12.9416 5.22818 12.9527 5.18781 12.9739L4.34419 13.5751C4.21149 13.6681 4.05026 13.7112 3.88885 13.6971C3.72745 13.6829 3.57623 13.6122 3.46178 13.4975L2.55029 12.6054C2.43384 12.492 2.36196 12.3406 2.34772 12.1786C2.33348 12.0167 2.37784 11.8551 2.47271 11.7231L3.06422 10.9086C3.09012 10.868 3.10389 10.8209 3.10389 10.7728C3.10389 10.7247 3.09012 10.6776 3.06422 10.6371C2.90767 10.3456 2.77785 10.0405 2.67634 9.72558C2.66128 9.68255 2.63561 9.644 2.60172 9.61349C2.56782 9.58299 2.52679 9.56151 2.48241 9.55105L1.51273 9.38621C1.35182 9.35667 1.20638 9.27156 1.10182 9.14573C0.997257 9.01991 0.940205 8.86135 0.940622 8.69776V7.38873C0.938599 7.22575 0.99529 7.06749 1.10033 6.94287C1.20538 6.81824 1.35176 6.73557 1.51273 6.70997L2.48241 6.53544C2.52976 6.52961 2.57434 6.50994 2.61056 6.47889C2.64678 6.44785 2.67304 6.4068 2.68604 6.3609C2.78445 6.04777 2.90767 5.74298 3.05452 5.44943C3.08078 5.41083 3.09483 5.36522 3.09483 5.31853C3.09483 5.27184 3.08078 5.22623 3.05452 5.18763L2.46302 4.34403C2.36881 4.21243 2.32397 4.05185 2.33639 3.89049C2.3488 3.72913 2.41767 3.57729 2.53089 3.46165L3.45209 2.55018C3.56841 2.4388 3.71923 2.37042 3.87966 2.35632C4.04008 2.34221 4.20052 2.38323 4.33449 2.47261L5.15872 3.06409C5.19732 3.09036 5.24294 3.1044 5.28963 3.1044C5.33632 3.1044 5.38193 3.09036 5.42053 3.06409C5.71175 2.90696 6.01688 2.77712 6.33203 2.67623C6.37507 2.66117 6.41362 2.6355 6.44412 2.60161C6.47463 2.56772 6.49611 2.52669 6.50657 2.48231L6.68111 1.51266C6.70671 1.35169 6.78938 1.20531 6.91401 1.10027C7.03864 0.995229 7.19691 0.93854 7.35989 0.940563H8.61077C8.77438 0.940147 8.93293 0.997197 9.05876 1.10176C9.18459 1.20632 9.2697 1.35174 9.29924 1.51266L9.46409 2.48231C9.47108 2.52923 9.49116 2.57323 9.52204 2.60925C9.55291 2.64527 9.59333 2.67185 9.63863 2.68593C9.97385 2.78295 10.2987 2.91286 10.6083 3.07379C10.6469 3.10005 10.6925 3.1141 10.7392 3.1141C10.7859 3.1141 10.8315 3.10005 10.8701 3.07379L11.704 2.48231C11.838 2.39293 11.9985 2.35191 12.1589 2.36601C12.3193 2.38012 12.4701 2.4485 12.5865 2.55988L13.4979 3.47135C13.6129 3.58599 13.683 3.73806 13.6955 3.89995C13.7079 4.06185 13.6619 4.22285 13.5658 4.35373L12.9743 5.18763C12.9504 5.22708 12.9377 5.27236 12.9377 5.31853C12.9377 5.3647 12.9504 5.40998 12.9743 5.44943C13.1236 5.74308 13.2501 6.04781 13.3525 6.3609C13.3658 6.40491 13.3909 6.44444 13.4251 6.47521C13.4593 6.50597 13.5013 6.5268 13.5464 6.53544L14.5161 6.70028C14.6771 6.72588 14.8235 6.80854 14.9285 6.93317C15.0336 7.0578 15.0902 7.21606 15.0882 7.37903V8.63958C15.0886 8.80318 15.0316 8.96173 14.927 9.08755C14.8225 9.21338 14.677 9.29849 14.5161 9.32803L13.5464 9.49287C13.5008 9.50044 13.4583 9.5209 13.424 9.55182C13.3896 9.58275 13.3648 9.62285 13.3525 9.66741C13.2515 9.98102 13.125 10.2859 12.9743 10.5789C12.9481 10.6175 12.934 10.6631 12.934 10.7098C12.934 10.7565 12.9481 10.8021 12.9743 10.8407L13.5755 11.6358C13.6711 11.7693 13.7158 11.9326 13.7016 12.0962C13.6874 12.2597 13.6151 12.4129 13.4979 12.5279L12.5865 13.4393C12.4741 13.5772 12.3139 13.6677 12.1378 13.6929C11.9618 13.718 11.7826 13.676 11.6362 13.5751L10.8022 12.9836C10.7636 12.9573 10.718 12.9433 10.6713 12.9433C10.6246 12.9433 10.579 12.9573 10.5404 12.9836C10.2506 13.141 9.94509 13.2678 9.62893 13.3618C9.5859 13.3768 9.54735 13.4025 9.51684 13.4364C9.48634 13.4703 9.46486 13.5113 9.45439 13.5557L9.28955 14.5253C9.25947 14.6781 9.1792 14.8164 9.06148 14.9183C8.94376 15.0202 8.79536 15.0799 8.63986 15.0877ZM5.33326 12.4406C5.45113 12.4374 5.56789 12.4641 5.67265 12.5182C5.9297 12.6537 6.19923 12.7641 6.47748 12.8479C6.60812 12.8869 6.72493 12.9624 6.81423 13.0654C6.90353 13.1684 6.96163 13.2948 6.98171 13.4296L7.15626 14.3993C7.16327 14.4455 7.18676 14.4877 7.2224 14.518C7.25804 14.5483 7.30342 14.5647 7.35019 14.5641H8.63986C8.68827 14.5671 8.73603 14.5518 8.77372 14.5213C8.81142 14.4908 8.83631 14.4473 8.8435 14.3993L9.01804 13.4296C9.03812 13.2948 9.09622 13.1684 9.18552 13.0654C9.27482 12.9624 9.39163 12.8869 9.52227 12.8479C9.81017 12.7608 10.0893 12.6472 10.3562 12.5085C10.4704 12.435 10.6034 12.3959 10.7392 12.3959C10.875 12.3959 11.008 12.435 11.1222 12.5085L11.9562 13.1C11.9928 13.1307 12.0392 13.1476 12.0871 13.1476C12.1349 13.1476 12.1813 13.1307 12.218 13.1L13.1295 12.1885C13.1594 12.1495 13.1755 12.1018 13.1755 12.0527C13.1755 12.0037 13.1594 11.9559 13.1295 11.917L12.6058 11.1219C12.5346 11.0068 12.4968 10.8742 12.4968 10.7389C12.4968 10.6035 12.5346 10.4709 12.6058 10.3559C12.7462 10.0897 12.8598 9.81042 12.9452 9.52196C12.9858 9.39119 13.0615 9.27409 13.1641 9.18345C13.2667 9.09281 13.3923 9.03213 13.527 9.00804L14.4967 8.8432C14.5438 8.83408 14.5861 8.80867 14.6162 8.77142C14.6464 8.73417 14.6624 8.68749 14.6616 8.63958V7.34994C14.6621 7.30317 14.6457 7.25779 14.6154 7.22215C14.5851 7.18652 14.543 7.16303 14.4967 7.15601L13.527 6.98148C13.393 6.95923 13.2677 6.90036 13.1651 6.81138C13.0624 6.7224 12.9863 6.60677 12.9452 6.47726C12.8592 6.18757 12.7421 5.90799 12.5961 5.64336C12.5204 5.5242 12.481 5.38555 12.4827 5.24436C12.4844 5.10317 12.5272 4.96553 12.6058 4.84825L13.1973 4.01435C13.2301 3.9786 13.2482 3.9319 13.2482 3.88345C13.2482 3.83499 13.2301 3.7883 13.1973 3.75255L12.2277 2.90895C12.191 2.87817 12.1446 2.8613 12.0968 2.8613C12.0489 2.8613 12.0025 2.87817 11.9659 2.90895L11.1319 3.50044C11.0224 3.58133 10.8919 3.62892 10.7561 3.63752C10.6202 3.64612 10.4847 3.61536 10.3659 3.54892C10.0863 3.40605 9.79417 3.2892 9.49318 3.19985C9.36367 3.15877 9.24803 3.0827 9.15905 2.98003C9.07006 2.87736 9.0112 2.75209 8.98895 2.61806L8.81441 1.64841C8.80948 1.59869 8.78556 1.55278 8.74762 1.52027C8.70969 1.48775 8.66066 1.47113 8.61077 1.47387H7.3308C7.28289 1.47299 7.2362 1.48904 7.19895 1.51919C7.16171 1.54935 7.13629 1.59167 7.12717 1.63871L6.95262 2.57927C6.92836 2.7125 6.86877 2.83678 6.78008 2.93912C6.69138 3.04146 6.57683 3.11811 6.44839 3.16106C6.15995 3.25065 5.88072 3.36754 5.61447 3.51013C5.49564 3.57657 5.36017 3.60733 5.2243 3.59873C5.08843 3.59014 4.95793 3.54254 4.84842 3.46165L4.0242 2.90895C3.98907 2.87891 3.94436 2.86239 3.89814 2.86239C3.85191 2.86239 3.80721 2.87891 3.77208 2.90895L2.8024 3.82042C2.7697 3.85617 2.75156 3.90287 2.75156 3.95132C2.75156 3.99978 2.7697 4.04648 2.8024 4.08223L3.39391 4.92582C3.47414 5.03535 3.52212 5.16514 3.5324 5.30052C3.54269 5.4359 3.51486 5.57146 3.45209 5.69184C3.31334 5.95868 3.19972 6.23785 3.1127 6.52574C3.07216 6.65651 2.99645 6.77361 2.89384 6.86425C2.79123 6.95489 2.66567 7.01557 2.53089 7.03966L1.56122 7.2045C1.51239 7.21154 1.46779 7.23607 1.43569 7.27352C1.40358 7.31097 1.38617 7.3588 1.38667 7.40812V8.66867C1.38393 8.71855 1.40055 8.76758 1.43307 8.80551C1.46559 8.84345 1.51149 8.86737 1.56122 8.87229L2.53089 9.04683C2.66413 9.07109 2.78841 9.13068 2.89075 9.21937C2.9931 9.30807 3.06975 9.42261 3.1127 9.55105C3.19878 9.84074 3.31582 10.1203 3.46178 10.3849C3.52791 10.5056 3.55845 10.6425 3.54987 10.7798C3.54129 10.9171 3.49393 11.0492 3.4133 11.1607L2.90907 11.9752C2.87829 12.0118 2.86141 12.0582 2.86141 12.1061C2.86141 12.154 2.87829 12.2003 2.90907 12.237L3.82056 13.1484C3.85724 13.1792 3.90359 13.1961 3.95147 13.1961C3.99935 13.1961 4.0457 13.1792 4.08238 13.1484L4.9066 12.6054C5.02547 12.5028 5.17625 12.4445 5.33326 12.4406Z" fill="#BCC5D8"/>
<path d="M7.99988 11.2576C7.35548 11.2576 6.72556 11.0665 6.18976 10.7086C5.65397 10.3506 5.23637 9.84172 4.98977 9.2464C4.74317 8.65107 4.67865 7.99599 4.80436 7.364C4.93008 6.73201 5.24038 6.15148 5.69604 5.69584C6.1517 5.2402 6.73224 4.9299 7.36425 4.80419C7.99626 4.67848 8.65136 4.743 9.2467 4.98959C9.84205 5.23618 10.3509 5.65377 10.7089 6.18955C11.0669 6.72533 11.258 7.35523 11.258 7.99961C11.2554 8.8629 10.9113 9.69011 10.3009 10.3006C9.69043 10.911 8.8632 11.2551 7.99988 11.2576ZM7.99988 5.22641C7.45137 5.22641 6.91519 5.38906 6.45913 5.69378C6.00306 5.9985 5.6476 6.43162 5.4377 6.93835C5.2278 7.44509 5.17288 8.00268 5.27989 8.54063C5.38689 9.07858 5.65102 9.57272 6.03887 9.96055C6.42672 10.3484 6.92087 10.6125 7.45884 10.7195C7.9968 10.8265 8.55441 10.7716 9.06116 10.5617C9.56791 10.3518 10.001 9.99636 10.3058 9.54031C10.6105 9.08426 10.7732 8.54809 10.7732 7.99961C10.7732 7.26411 10.481 6.55874 9.96088 6.03866C9.44079 5.51859 8.7354 5.22641 7.99988 5.22641ZM7.99988 10.3462C7.53576 10.3462 7.08206 10.2085 6.69616 9.95069C6.31026 9.69285 6.00949 9.32637 5.83188 8.89759C5.65427 8.46882 5.6078 7.997 5.69835 7.54182C5.78889 7.08663 6.01238 6.66852 6.34057 6.34035C6.66875 6.01218 7.08687 5.78869 7.54207 5.69815C7.99727 5.6076 8.4691 5.65407 8.89789 5.83168C9.32668 6.00928 9.69317 6.31005 9.95102 6.69593C10.2089 7.08182 10.3465 7.5355 10.3465 7.99961C10.3465 8.62195 10.0993 9.21881 9.65919 9.65887C9.21911 10.0989 8.62224 10.3462 7.99988 10.3462ZM7.99988 6.13788C7.63165 6.13788 7.27169 6.24707 6.96553 6.45164C6.65936 6.65621 6.42073 6.94697 6.27981 7.28716C6.1389 7.62734 6.10203 8.00167 6.17387 8.36281C6.24571 8.72395 6.42302 9.05568 6.6834 9.31605C6.94377 9.57641 7.27551 9.75373 7.63666 9.82556C7.99781 9.8974 8.37215 9.86053 8.71235 9.71962C9.05255 9.57871 9.34332 9.34009 9.54789 9.03393C9.75247 8.72777 9.86166 8.36782 9.86166 7.99961C9.86166 7.50585 9.66551 7.03231 9.31635 6.68317C8.9672 6.33403 8.49365 6.13788 7.99988 6.13788Z" fill="#BCC5D8"/>
</svg>
