<svg width="18" height="16" viewBox="0 0 18 16" fill="none" xmlns="http://www.w3.org/2000/svg">
<path d="M15.6116 2.21709L5.00303 1.01449C4.59131 0.956051 4.17415 1.07605 3.8567 1.34426C3.53929 1.58997 3.33583 1.95419 3.29325 2.3529L3.09897 3.94348H2.49662C1.64171 3.94348 1.00053 4.69995 1.00053 5.55344V13.4869C0.978992 14.3008 1.62241 14.978 2.43767 14.9995C2.45731 15 2.47698 15.0001 2.49662 14.9999H13.1634C14.0183 14.9999 14.7955 14.3404 14.7955 13.4869V13.1765C15.0606 13.1254 15.312 13.0197 15.5338 12.8662C15.8486 12.6016 16.0502 12.2268 16.0973 11.8187L16.9911 3.94348C17.0822 3.08802 16.4672 2.31848 15.6116 2.21709ZM14.0183 13.4869C14.0183 13.9136 13.5909 14.224 13.1634 14.224H2.49662C2.11048 14.2353 1.78827 13.932 1.77693 13.5465C1.77633 13.5266 1.77659 13.5067 1.77771 13.4869V12.0515L4.7893 8.75003C5.15108 8.47272 5.66065 8.49738 5.99394 8.80821L8.11176 10.6703C8.43337 10.9399 8.78151 11.0636 9.25812 11.0971C9.64909 11.1245 10.2483 10.9337 10.2483 10.9337L14.0184 9.72382L14.0183 13.4869ZM14.0183 8.81216L9.78268 10.1854C9.78268 10.1854 8.9586 10.3616 8.63632 10.0884L6.49908 8.20689C5.88654 7.68142 4.99124 7.6492 4.3424 8.12929L1.77771 11.0816V5.55344C1.77771 5.12669 2.06916 4.71937 2.49662 4.71937H13.1634C13.6201 4.73827 13.9889 5.09811 14.0183 5.55344V8.81216ZM16.2146 3.83874C16.2144 3.8413 16.2141 3.8439 16.2138 3.84646L15.3006 11.7217C15.3022 11.9259 15.2089 12.1193 15.0481 12.2455C14.9703 12.323 14.7955 12.3618 14.7955 12.4006V5.55344C14.7648 4.66977 14.0488 3.96349 13.1634 3.94348H3.87612L4.05098 2.4305C4.08891 2.23457 4.19152 2.05703 4.34243 1.92616C4.51284 1.80854 4.71887 1.7537 4.92534 1.77096L15.5145 2.99298C15.9417 3.03348 16.2552 3.41215 16.2146 3.83874Z" fill="#BCC4D8" stroke="#BCC4D8" stroke-width="0.3"/>
</svg>
