<svg viewBox="0 0 35 35" fill="none" xmlns="http://www.w3.org/2000/svg">
	<path d="M5.14328 23.7558C7.32703 29.0066 14.7616 30.1026 14.7616 30.1026C12.8968 31.1985 10.9175 32.5235 8.19399 32.5235C8.19399 32.5235 3.50751 30.6505 1.8472 25.5551C0.743054 22.1854 2.57512 17.5398 2.57512 17.5398C2.57512 17.5398 3.63837 16.5911 4.4399 16.0677C5.35593 15.4706 7.00806 14.7181 7.00806 14.7181C7.00806 14.7181 3.8183 20.566 5.14328 23.7558Z" fill="#D8E4F4" />
	<path d="M5.14328 23.7558C7.32703 29.0066 14.7616 30.1026 14.7616 30.1026C12.8968 31.1985 10.9175 32.5235 8.19399 32.5235C8.19399 32.5235 3.50751 30.6505 1.8472 25.5551C0.743054 22.1854 2.57512 17.5398 2.57512 17.5398C2.57512 17.5398 3.63837 16.5911 4.4399 16.0677C5.35593 15.4706 7.00806 14.7181 7.00806 14.7181C7.00806 14.7181 3.8183 20.566 5.14328 23.7558Z" fill="#D8E4F4" />
	<path d="M7.56533 11.4546C5.4143 13.3358 2.56805 17.5397 2.56805 17.5397C2.56805 17.5397 6.93556 13.3276 14.5828 13.1149C18.7949 13.0004 25.9269 9.73707 25.9269 9.73707C26.8102 7.11983 26.3358 5.74579 25.4034 3.28395C23.7595 1.53368 20.9214 2.72779 19.3674 4.06094C17.5435 5.6231 15.8751 6.81722 14.1166 7.85593C11.6057 9.35266 9.94538 9.36902 7.56533 11.4546Z" fill="#D76B54" />
	<path d="M17.8616 32.5234C17.8616 32.5234 8.61127 32.6788 8.18597 32.5234C8.2514 32.368 15.3834 33.5131 22.3926 20.0916C28.7476 7.91324 24.9444 2.86688 24.9444 2.86688L32.4363 9.73712C32.4363 9.73712 36.174 13.1722 29.68 23.9438C23.6358 32.5234 17.8616 32.5234 17.8616 32.5234Z" fill="#1A3F70" />
</svg>
