<svg fill="none" xmlns="http://www.w3.org/2000/svg" viewBox="0 0 244 216">
    <path opacity=".1" d="M227.56 8 .76 9.83s.33 42.45.36 69.66c.04 34.47-.37 90.38-.37 90.38s51.56.84 77.36 0l-14.96 9.85a8.63 8.63 0 0 0 3.3 8.1l7.95-2.44 2.62 2.45 6.68-2.28s2.73-8.28-2.81-15.8c41.12-1.68 80.6.12 80.6.12s5.42.7 8.66 5.07c9.6 12.92 19.44 36.35 19.44 36.35l26.96-41.47 15.42-2.04c.6-53.35-1.06-106.53-4.41-159.78Z" fill="#144675" />
    <path d="M225.86 159.03s-83.98-1.73-119.6 0c-25.5 1.25-102.14 0-102.14 0s1.57-56.02 0-84.42c-1-18.12 0-72.57 0-72.57s81.57.17 107.8-.85c43.4-1.68 113.94.85 113.94.85v156.99Z" fill="#fff" />
    <path opacity=".25" d="m158.59 96.53-29.62.24.14 17.68 29.62-.24-.14-17.68Z" fill="#FF5757" />
    <path d="M104.33 46.58c-.2.07-.43.11-.67.13v-.27c.2 0 .38-.03.53-.1.15-.08.26-.17.3-.29h.36l.03 2.87h-.53l-.02-2.34ZM135.08 46.5c0 .87-1.61 1.2-1.65 1.85v.05l1.58-.01v.29l-2.1.02v-.25c0-.93 1.61-1.12 1.6-1.93 0-.29-.16-.45-.55-.44-.4 0-.57.17-.57.42v.26h-.5v-.23c0-.44.33-.73 1.07-.74.74 0 1.12.28 1.12.71ZM164.8 46.27v.06c.03.13-.02.25-.12.36-.1.1-.26.2-.46.24.2.05.36.13.46.24.1.1.15.23.13.35v.22c0 .44-.33.73-1.07.74-.74 0-1.07-.28-1.08-.72v-.2h.5v.22c0 .25.18.4.57.4.39 0 .55-.15.55-.44v-.22c0-.29-.2-.42-.6-.42h-.3v-.3h.32c.36 0 .57-.14.57-.4v-.12c0-.3-.18-.45-.56-.44-.38 0-.56.16-.56.42v.15h-.5v-.13c0-.44.34-.72 1.06-.73.74 0 1.09.27 1.09.72ZM193.83 47.64v.58h-.5l-.01-.58-1.56.02v-.3l1.47-2h.58l.02 1.99h.38v.29h-.38Zm-1.57-.28 1.05-.01v-1.4l-1.05 1.4ZM12.9 65.52a.72.72 0 0 1 .3-.19c.13-.04.28-.06.42-.06.61 0 .89.27.9.68v.55c0 .44-.34.73-1.07.73-.74 0-1.09-.28-1.09-.71v-.2h.5v.2c0 .25.18.4.57.4.38 0 .56-.16.56-.42v-.55c-.01-.26-.2-.42-.58-.41-.06 0-.13 0-.2.02a.64.64 0 0 0-.17.07.38.38 0 0 0-.12.1.21.21 0 0 0-.04.12v.06h-.5l.11-1.59 1.9-.01v.28l-1.41.02-.07.9ZM45.96 64.75v.06h-.5v-.06c0-.25-.18-.4-.57-.4-.4 0-.58.16-.58.46v.65a.6.6 0 0 1 .3-.23c.15-.06.31-.09.48-.08.62 0 .9.26.9.67v.42c0 .44-.36.73-1.09.74-.73 0-1.1-.28-1.11-.72l-.01-1.46c0-.45.33-.74 1.1-.75.76 0 1.08.27 1.08.7Zm-1.65 1.09v.42c0 .26.19.4.58.4.39 0 .56-.15.56-.41v-.43c0-.26-.19-.41-.57-.4-.38 0-.56.17-.56.43l-.01-.01ZM74.66 64.13l-1.66.01v-.29l2.16-.01v.28l-1.2 2.6h-.54l1.24-2.59ZM105.5 64.27v.1c.03.11-.01.23-.11.34-.1.1-.25.2-.44.25.2.05.35.13.45.24.1.11.13.24.1.36v.2c.01.18-.1.36-.32.48-.2.13-.5.2-.8.21-.3 0-.58-.07-.8-.2-.2-.12-.33-.29-.33-.47v-.21c-.03-.13 0-.25.1-.36.1-.11.26-.2.45-.25a.93.93 0 0 1-.44-.24c-.1-.1-.15-.23-.12-.35v-.08c0-.18.12-.35.33-.48.2-.13.5-.2.8-.2.3 0 .58.06.8.19.2.12.33.3.33.47Zm-1.74.02v.13c0 .28.23.4.6.4.38 0 .6-.13.6-.4v-.14c0-.3-.23-.44-.6-.43-.38 0-.6.15-.6.43Zm.01 1.23v.26c0 .3.22.43.6.43.39 0 .6-.15.6-.44v-.25c0-.27-.2-.4-.6-.4-.4 0-.6.16-.6.41ZM135.21 64.03l.01 1.5c0 .45-.33.74-1.1.75-.78 0-1.08-.28-1.09-.72v-.05h.5v.07c0 .26.2.4.58.4.38 0 .58-.16.57-.46v-.64a.6.6 0 0 1-.3.23c-.14.06-.3.08-.47.08-.62 0-.9-.26-.9-.67v-.47c0-.44.35-.72 1.1-.73.73 0 1.1.29 1.1.71Zm-1.66.02v.43c0 .26.2.41.57.4.38 0 .57-.15.56-.41v-.43c0-.26-.18-.41-.57-.41-.39 0-.57.15-.57.42h.01ZM162.63 63.65c-.2.08-.42.12-.66.13v-.26c.19 0 .38-.04.53-.1a.56.56 0 0 0 .3-.29h.36l.02 2.87h-.52l-.03-2.35ZM163.93 63.8c0-.44.35-.72 1.08-.73.73 0 1.1.27 1.11.71l.01 1.5c0 .43-.36.72-1.1.73-.73 0-1.09-.28-1.09-.72l-.01-1.49Zm.53 1.49c0 .26.2.41.57.4.38 0 .57-.15.57-.41l-.01-1.5c0-.25-.19-.4-.58-.4-.39 0-.56.16-.56.42l.02 1.49ZM192.05 63.42c-.2.07-.42.11-.66.13v-.27c.2 0 .38-.03.53-.1a.56.56 0 0 0 .3-.29h.35l.02 2.87h-.53l-.01-2.34ZM194.37 63.4c-.2.07-.43.12-.67.13v-.26c.19 0 .38-.04.53-.11a.56.56 0 0 0 .3-.28h.36l.03 2.86h-.53l-.02-2.34ZM13.5 82.4c-.2.07-.44.12-.67.13v-.26c.19 0 .37-.04.52-.1a.57.57 0 0 0 .3-.29h.38l.02 2.87h-.52l-.04-2.35ZM16.98 82.55c0 .86-1.65 1.2-1.64 1.85v.05l1.56-.02v.3l-2.1.01v-.24c0-.93 1.66-1.13 1.65-1.93 0-.3-.16-.45-.56-.45s-.56.17-.56.43v.25h-.5v-.23c0-.44.33-.73 1.07-.73.73-.01 1.08.28 1.08.71ZM43.79 82.16c-.2.07-.43.11-.66.13v-.27c.18 0 .37-.03.52-.1a.57.57 0 0 0 .3-.28h.37l.02 2.86h-.52l-.03-2.34ZM47.25 82.3v.08c.02.12-.02.25-.13.35-.1.1-.26.2-.46.24.2.04.36.13.47.23.1.11.15.24.13.36v.22c0 .44-.34.73-1.08.74-.74 0-1.07-.28-1.08-.72v-.2h.5v.21c0 .26.19.42.57.42.38 0 .55-.16.55-.45v-.22c0-.29-.2-.42-.6-.43h-.3l-.01-.28h.31a.9.9 0 0 0 .24-.03.65.65 0 0 0 .2-.1c.05-.03.1-.07.12-.12.02-.05.03-.1.01-.15v-.13c0-.3-.17-.44-.56-.44s-.56.16-.56.42v.15h-.5v-.13c0-.44.34-.72 1.07-.73.73 0 1.1.27 1.1.71ZM72.99 81.92c-.2.07-.43.12-.67.13v-.26c.2 0 .38-.04.53-.1a.57.57 0 0 0 .3-.29h.36l.03 2.87H73L73 81.92ZM76.27 83.67v.57h-.51v-.57l-1.55.01v-.29l1.46-2h.58l.02 1.99h.39v.28h-.39Zm-1.57-.28h1.05v-1.41l-1.05 1.41ZM103.28 81.68c-.2.07-.43.12-.66.13v-.27c.19 0 .37-.03.52-.1a.57.57 0 0 0 .3-.28h.38l.02 2.86h-.53l-.03-2.34ZM105.16 82.3a.72.72 0 0 1 .3-.17c.12-.05.26-.07.4-.06.62 0 .9.26.9.67v.56c0 .44-.34.73-1.07.73-.73.01-1.08-.28-1.08-.71v-.2h.5v.21c0 .26.18.42.56.42.39 0 .57-.17.56-.43v-.55c0-.26-.19-.42-.57-.41-.07 0-.14 0-.2.02a.64.64 0 0 0-.17.07.37.37 0 0 0-.12.1.21.21 0 0 0-.05.12v.07h-.5l.13-1.6h1.88v.27l-1.4.02-.08.88ZM133.03 81.44c-.2.07-.43.11-.66.13v-.27c.18 0 .37-.03.52-.1a.57.57 0 0 0 .3-.28h.37l.02 2.86h-.52l-.03-2.34ZM136.5 81.58v.05h-.49v-.07c0-.26-.19-.4-.58-.4-.39 0-.58.16-.57.47v.64a.6.6 0 0 1 .3-.24c.14-.05.31-.08.48-.08.61 0 .89.27.9.68v.43c0 .44-.36.73-1.1.74-.72 0-1.1-.28-1.1-.72l-.02-1.46c0-.46.34-.74 1.1-.75.77 0 1.08.27 1.09.7Zm-1.64 1.09v.43c0 .25.18.41.58.4.39 0 .56-.16.56-.41v-.43c0-.26-.2-.41-.57-.41-.39 0-.57.16-.57.42ZM162.78 81.2c-.2.07-.43.11-.66.13v-.27c.19 0 .37-.03.52-.1a.57.57 0 0 0 .3-.28h.37l.02 2.86h-.52l-.03-2.34ZM165.7 80.94l-1.66.01v-.28l2.17-.02v.28l-1.2 2.6h-.5l1.2-2.59ZM192 80.96c-.2.08-.42.12-.66.13v-.26c.19 0 .38-.04.53-.1a.57.57 0 0 0 .3-.29h.37l.02 2.87h-.53l-.02-2.35ZM195.54 81.1v.08c.03.12-.01.25-.1.35-.1.11-.26.2-.44.25.18.05.34.14.44.25.1.1.13.23.1.35v.22c.01.18-.1.35-.32.48-.2.13-.5.2-.8.2-.3 0-.58-.06-.8-.19-.2-.13-.33-.3-.33-.48v-.21c-.03-.12.01-.25.11-.36.1-.1.25-.2.44-.25a.93.93 0 0 1-.44-.24c-.1-.1-.15-.23-.12-.35v-.09c0-.18.12-.35.33-.48.2-.13.5-.2.8-.2.3 0 .58.06.8.19.2.12.32.3.33.47Zm-1.73 0v.15c0 .28.23.4.6.4.38 0 .6-.13.6-.41v-.14c0-.3-.22-.43-.6-.43-.39 0-.6.15-.6.45v-.01Zm.01 1.25v.24c0 .3.22.44.6.43.39 0 .6-.14.6-.44v-.24c0-.28-.2-.42-.6-.41-.4 0-.6.15-.6.43ZM13.64 99.95c-.2.07-.43.11-.67.13v-.27c.2 0 .38-.03.53-.1a.57.57 0 0 0 .3-.28h.37l.03 2.86h-.53l-.03-2.34ZM17.12 100.09v1.46c.01.45-.33.75-1.1.75s-1.08-.27-1.08-.71v-.06h.5v.08c0 .25.19.4.57.4.38 0 .59-.16.59-.46v-.65a.6.6 0 0 1-.31.24c-.14.05-.3.08-.48.07-.61 0-.89-.25-.89-.67v-.43c0-.44.35-.73 1.09-.73.73-.01 1.1.27 1.1.7Zm-1.66.01v.43c0 .26.19.41.57.4.38 0 .57-.15.57-.4v-.44c0-.26-.2-.41-.58-.41-.4 0-.57.15-.57.4v.02ZM44.93 99.87c0 .87-1.65 1.19-1.65 1.85v.05l1.58-.02v.3h-2.1v-.24c0-.92 1.6-1.11 1.6-1.92 0-.3-.17-.45-.56-.45s-.56.17-.56.42v.24h-.5v-.23c0-.44.33-.73 1.07-.74.74 0 1.11.3 1.12.74ZM45.38 99.86c0-.44.35-.72 1.1-.73.73 0 1.09.28 1.1.72v1.49c0 .44-.36.73-1.09.73-.73 0-1.1-.28-1.1-.71v-1.5Zm.54 1.5c0 .25.18.4.57.4.4 0 .57-.16.56-.42v-1.5c-.01-.25-.2-.4-.58-.4-.38 0-.57.15-.57.42l.02 1.5ZM74.35 99.63c0 .87-1.65 1.19-1.64 1.85v.05l1.56-.02v.3h-2.1v-.23c0-.93 1.66-1.12 1.65-1.93 0-.3-.17-.45-.57-.45-.4 0-.55.17-.55.43v.23h-.5v-.23c-.01-.44.33-.73 1.07-.74.73 0 1.08.3 1.08.74ZM75.83 99.44c-.2.08-.43.12-.67.13v-.26c.19 0 .38-.04.53-.1a.57.57 0 0 0 .3-.28h.36l.03 2.86h-.54l-.02-2.35ZM104.44 99.39c0 .87-1.65 1.19-1.65 1.85v.04h1.57v.28l-2.1.02v-.25c0-.92 1.61-1.11 1.6-1.93 0-.29-.16-.44-.55-.44-.4 0-.57.17-.57.42v.24h-.5v-.23c0-.44.34-.73 1.08-.74.74 0 1.11.3 1.12.74ZM107.08 99.37c.01.86-1.65 1.19-1.64 1.85v.04h1.58v.28l-2.1.02v-.25c-.01-.92 1.6-1.12 1.6-1.93 0-.29-.16-.44-.56-.44s-.56.17-.56.42v.24h-.5v-.23c0-.44.33-.73 1.06-.74.74 0 1.12.3 1.12.74ZM134.19 99.15c0 .87-1.61 1.19-1.65 1.85v.05l1.57-.02v.3h-2.09v-.23c0-.93 1.6-1.12 1.6-1.93 0-.3-.17-.45-.57-.45-.4 0-.55.17-.55.43v.23h-.5v-.23c0-.44.33-.73 1.07-.74.74 0 1.11.3 1.12.74ZM136.8 99.13v.07c.02.12-.02.25-.13.35-.1.11-.26.2-.45.24.2.05.36.13.46.24.1.1.15.23.13.35v.22c0 .44-.34.73-1.07.74-.74 0-1.08-.28-1.08-.72v-.2h.5v.22c0 .25.18.41.56.4.39 0 .56-.15.56-.44v-.22c0-.28-.2-.42-.6-.42h-.3v-.29h.32a.9.9 0 0 0 .24-.03.66.66 0 0 0 .2-.09c.05-.04.09-.08.11-.13.02-.05.03-.1.02-.15v-.13c0-.3-.17-.44-.56-.44-.4 0-.57.16-.56.42v.15h-.5v-.13c0-.44.33-.72 1.06-.73.73 0 1.08.28 1.09.72ZM163.89 98.91c0 .87-1.65 1.2-1.65 1.85v.05l1.58-.02v.3l-2.07.01v-.24c-.01-.93 1.65-1.12 1.64-1.93 0-.3-.17-.45-.57-.45-.4 0-.55.17-.55.43v.24h-.5v-.23c-.01-.45.33-.74 1.06-.74.74-.01 1.05.3 1.06.73ZM166.31 100.49v.57h-.52v-.57l-1.55.01v-.29l1.47-2h.58l.02 1.99h.38v.28h-.38Zm-1.57-.28h1.04V98.8l-1.04 1.41ZM193.18 98.68c0 .86-1.61 1.18-1.65 1.85v.04l1.57-.01v.29l-2.1.02v-.25c0-.92 1.65-1.12 1.65-1.93 0-.3-.17-.44-.57-.44-.4 0-.56.17-.55.42v.24h-.5l-.01-.23c0-.44.33-.73 1.07-.74.74 0 1.08.3 1.09.74ZM194.2 99.14a.72.72 0 0 1 .3-.19c.13-.04.27-.06.41-.05.62 0 .9.26.9.67v.56c0 .44-.34.73-1.07.73s-1.07-.28-1.08-.72v-.18h.5v.2c0 .26.18.42.56.41.38 0 .56-.16.56-.42v-.56c0-.25-.19-.4-.57-.4-.07 0-.14 0-.2.02a.64.64 0 0 0-.18.07.37.37 0 0 0-.11.1.21.21 0 0 0-.05.12v.06h-.48l.12-1.59 1.89-.01v.28l-1.41.01-.09.89ZM14.95 117.66c0 .86-1.61 1.19-1.65 1.85v.04l1.58-.01v.29l-2.1.02v-.25c0-.92 1.65-1.12 1.64-1.93 0-.3-.16-.44-.56-.44s-.56.17-.56.43v.25h-.5v-.23c0-.44.33-.73 1.07-.74.74 0 1.07.28 1.08.72ZM17.59 117.63v.05h-.5v-.07c0-.26-.18-.4-.57-.4-.4 0-.58.16-.58.47v.64a.6.6 0 0 1 .3-.24c.14-.05.31-.08.48-.08.61 0 .89.26.89.68v.43c0 .44-.36.73-1.09.73-.73.01-1.1-.27-1.1-.71l-.02-1.47c0-.45.35-.73 1.1-.74.76 0 1.08.27 1.09.7Zm-1.66 1.09v.43c.01.25.19.4.58.4.39 0 .56-.16.56-.41v-.41c0-.26-.2-.42-.57-.41-.39 0-.55.14-.55.42l-.02-.02ZM45.08 117.42c0 .86-1.61 1.18-1.65 1.84v.05l1.58-.01v.29l-2.1.01v-.24c0-.93 1.6-1.12 1.6-1.93 0-.3-.17-.45-.57-.44-.4 0-.55.17-.55.43v.25h-.5v-.23c0-.44.33-.74 1.07-.74s1.11.28 1.12.72ZM47.15 117H45.5v-.28l2.17-.02v.29l-1.2 2.6h-.54l1.23-2.6ZM74.3 117.18c.02.87-1.64 1.19-1.64 1.85v.05l1.57-.02v.3h-2.06v-.23c-.01-.93 1.65-1.12 1.64-1.93 0-.3-.16-.45-.56-.45s-.56.17-.56.43v.25h-.5v-.23c0-.43.34-.73 1.08-.74.73 0 1.04.28 1.04.72ZM76.99 117.14v.1c.03.13 0 .25-.1.36-.1.1-.26.19-.44.24.19.05.34.14.44.24.1.11.14.24.11.36v.22c.02.09 0 .18-.05.27a.72.72 0 0 1-.24.24c-.1.07-.23.13-.37.17a1.78 1.78 0 0 1-1.3-.15.71.71 0 0 1-.23-.24.43.43 0 0 1-.06-.28v-.21a.4.4 0 0 1 .1-.36c.1-.1.26-.2.44-.25a.9.9 0 0 1-.44-.24c-.1-.1-.14-.22-.1-.34l-.01-.1c-.01-.09 0-.18.05-.27a.72.72 0 0 1 .24-.24c.1-.07.23-.13.38-.17a1.78 1.78 0 0 1 1.28.16c.1.06.19.14.24.23.05.09.07.18.06.28v-.02Zm-1.73.02v.14c0 .28.23.4.6.4.38 0 .61-.14.6-.41v-.14c0-.3-.22-.43-.6-.43s-.6.15-.6.44Zm.01 1.24v.24c0 .3.22.44.6.43.39 0 .6-.14.6-.44v-.24c0-.28-.2-.41-.6-.4-.4 0-.6.14-.6.42ZM104.57 116.94c0 .86-1.61 1.18-1.65 1.85v.04l1.57-.01v.29l-2.1.01v-.24c0-.92 1.65-1.12 1.65-1.93 0-.3-.17-.45-.57-.44-.4 0-.55.17-.55.43v.25h-.5v-.23c-.01-.44.33-.73 1.06-.74.74 0 1.08.28 1.09.72ZM107.21 116.91l.01 1.46c0 .46-.33.75-1.1.75-.78.01-1.09-.27-1.09-.7v-.06h.5v.07c0 .26.2.4.58.4.38 0 .58-.16.58-.46v-.64a.6.6 0 0 1-.3.23c-.15.06-.31.08-.48.08-.62 0-.9-.26-.9-.67v-.44c0-.44.35-.73 1.1-.73.73 0 1.1.27 1.1.71Zm-1.66.01v.43c0 .26.19.41.57.41.38 0 .57-.16.57-.42v-.42c0-.27-.19-.42-.58-.41-.39 0-.57.14-.57.4l.01.01ZM134.3 116.7v.09c.02.12-.03.24-.13.35-.1.1-.26.19-.45.24.19.04.35.13.46.23.1.11.15.24.12.36v.22c0 .44-.33.73-1.07.73-.74.01-1.08-.27-1.08-.71v-.2h.5v.22c0 .25.18.4.56.4.38 0 .56-.15.56-.44v-.23c0-.28-.2-.41-.6-.41h-.3v-.29h.31a1 1 0 0 0 .25-.03.7.7 0 0 0 .2-.1c.05-.03.09-.07.11-.12.03-.05.03-.1.02-.15v-.13c0-.3-.18-.45-.57-.44-.39 0-.55.16-.55.42v.14h-.5v-.12c-.01-.44.34-.73 1.07-.73s1.08.25 1.08.7ZM134.77 116.69c0-.44.36-.73 1.09-.73.73 0 1.1.27 1.1.71l.02 1.5c0 .44-.36.72-1.1.73-.74 0-1.1-.28-1.1-.72l-.01-1.5Zm.54 1.49c0 .25.19.4.57.4.38 0 .57-.16.57-.41l-.01-1.52c0-.26-.2-.42-.58-.41-.4 0-.56.16-.56.42l.01 1.52Z" fill="#5A6266" />
    <path d="M161.07 116.47c0-.43.36-.72 1.09-.72.73-.01 1.1.27 1.1.7v1.5c.01.44-.34.72-1.08.73-.74 0-1.1-.27-1.1-.71l-.01-1.5Zm.53 1.5c0 .25.2.4.58.4.38 0 .56-.16.56-.42l-.01-1.51c0-.26-.18-.41-.57-.41-.4 0-.57.16-.57.42l.01 1.51ZM165.88 116.44v.26h-.5v-.27c0-.26-.18-.41-.57-.41-.4 0-.56.16-.56.42l.02 1.51c0 .26.17.42.55.41.39 0 .57-.16.57-.42v-.37h.5v.35c0 .44-.33.73-1.07.73s-1.08-.27-1.09-.71v-1.5c-.01-.43.33-.72 1.06-.72.74-.01 1.09.29 1.09.72ZM167.07 118.6l-.02-2.58-.88.01v-.29l2.29-.02v.3h-.88l.02 2.58h-.53ZM168.94 118.2v.39h-.51v-.4h.51ZM171.5 116.22c-.2.07-.42.12-.66.13v-.27c.2 0 .38-.03.53-.1a.57.57 0 0 0 .3-.28h.37l.03 2.86h-.54l-.02-2.34ZM194.66 116.21c0 .87-1.66 1.19-1.65 1.85v.04h1.58v.28l-2.1.02v-.25c0-.92 1.6-1.12 1.6-1.93 0-.29-.17-.44-.57-.44-.4 0-.55.17-.55.43v.25h-.5v-.23c0-.44.33-.73 1.07-.74.74 0 1.11.28 1.12.72ZM15.06 135.2v.07c.03.13-.02.25-.12.36-.1.1-.26.19-.45.24.2.04.35.13.46.23.1.1.15.23.12.36v.22c0 .44-.33.72-1.07.73-.74 0-1.08-.28-1.08-.71v-.2h.5v.21c0 .26.18.41.56.41.39 0 .57-.16.56-.45v-.22c0-.28-.2-.42-.6-.42h-.29v-.28h.3a.9.9 0 0 0 .25-.04.65.65 0 0 0 .2-.09c.05-.03.09-.08.11-.13.03-.05.03-.1.02-.14v-.13c0-.3-.18-.45-.57-.45-.39 0-.55.17-.55.43v.15h-.5v-.13c0-.44.34-.73 1.07-.73.73-.01 1.08.27 1.08.7ZM46.3 136.54v.59h-.52v-.58l-1.55.01v-.29l1.47-2h.58l.02 1.99h.38v.28h-.38Zm-1.58-.27h1.06l-.02-1.41-1.04 1.4ZM74.17 135.18a.7.7 0 0 1 .3-.18c.13-.04.27-.06.41-.06.62 0 .9.26.9.67v.57c0 .43-.34.72-1.07.73-.73 0-1.08-.28-1.09-.72v-.2h.5v.22c0 .26.19.41.57.4.38 0 .55-.15.55-.41v-.53c0-.26-.18-.41-.56-.41-.07 0-.14 0-.2.02a.64.64 0 0 0-.18.07.38.38 0 0 0-.12.1.2.2 0 0 0-.04.12v.07h-.51l.1-1.6h1.9v.28l-1.4.01-.06.85ZM105.99 134.46v.05h-.5v-.08c0-.25-.18-.4-.57-.4-.39 0-.58.16-.57.47v.64c.06-.1.16-.18.3-.23.14-.06.3-.09.47-.08.62 0 .9.26.9.67v.44c0 .44-.36.72-1.1.73-.72 0-1.09-.28-1.1-.71v-1.46c0-.46.33-.74 1.09-.75.75 0 1.08.27 1.08.71Zm-1.65 1.09v.43c0 .26.18.41.57.41.39 0 .57-.16.57-.42v-.43c0-.26-.2-.41-.58-.4-.38 0-.51.15-.51.4h-.05ZM135.23 133.83l-1.66.01v-.29l2.16-.02v.28l-1.2 2.6-.54.01 1.24-2.6ZM165.56 133.97v.1c.03.11 0 .24-.1.34-.1.11-.25.2-.44.25.19.05.34.13.44.24.1.11.14.23.11.36v.21c0 .18-.1.35-.32.48-.21.13-.5.2-.8.2-.3.01-.58-.06-.8-.18-.2-.13-.33-.3-.33-.48v-.21a.4.4 0 0 1 .1-.36c.1-.11.25-.2.44-.25a.92.92 0 0 1-.44-.24c-.1-.1-.14-.23-.11-.35V134c0-.18.11-.35.32-.48.21-.13.5-.2.8-.2.3 0 .59.06.8.19.21.12.33.3.34.47Zm-1.73.02v.14c0 .28.23.4.61.4s.6-.13.6-.41v-.14c0-.3-.23-.43-.6-.42-.38 0-.61.14-.61.43Zm.01 1.24v.25c0 .29.23.43.61.42.38 0 .59-.14.6-.43v-.25c0-.28-.22-.4-.6-.4-.4 0-.61.14-.61.42ZM194.8 133.75v1.46c.01.46-.33.74-1.1.75-.76 0-1.08-.28-1.08-.71v-.02h.5v.06c0 .26.18.41.56.41.39 0 .6-.16.59-.46v-.65a.58.58 0 0 1-.3.23c-.14.06-.3.09-.47.08-.62 0-.9-.26-.9-.67v-.44c0-.44.35-.72 1.09-.73.74 0 1.1.25 1.1.69Zm-1.66.01v.43c0 .26.19.42.57.41.38 0 .56-.16.56-.42v-.46c0-.26-.18-.41-.57-.4-.4 0-.56.17-.56.4v.04Z" fill="#CCC" />
    <path d="m39.68 44.44-29.5.23.15 17.69 29.5-.24-.15-17.68ZM69.3 44.2l-29.5.24.15 17.68 29.5-.24-.15-17.68ZM98.93 43.96l-29.5.24.14 17.68 29.5-.24-.14-17.68ZM128.54 43.72l-29.5.24.15 17.68 29.5-.24-.15-17.68ZM158.16 43.48l-29.5.24.15 17.68 29.5-.23-.15-17.69ZM187.78 43.24l-29.5.24.15 17.69 29.5-.24-.15-17.69ZM217.4 43l-29.49.24.14 17.68 29.5-.23-.14-17.69Z" stroke="#C4D9EA" stroke-width=".5" stroke-linejoin="round" />
    <path d="m39.82 62.12-29.5.24.15 17.68 29.5-.23-.15-17.69ZM69.45 61.88l-29.5.24.14 17.68 29.5-.23-.14-17.69ZM99.07 61.64l-29.5.24.14 17.68 29.5-.23-.14-17.69ZM128.68 61.4l-29.5.24.15 17.69 29.5-.24-.15-17.68ZM158.3 61.17l-29.5.23.15 17.69 29.5-.24-.14-17.68ZM187.92 60.93l-29.5.23.15 17.69 29.5-.24-.15-17.68ZM217.55 60.69l-29.5.24.14 17.68 29.5-.24-.14-17.68Z" stroke="#C4D9EA" stroke-width=".5" stroke-linejoin="round" />
    <path d="m39.97 79.8-29.5.23.14 17.69 29.5-.24-.14-17.68ZM69.59 79.56l-29.5.24.14 17.68 29.5-.24-.14-17.68ZM99.21 79.32l-29.5.24.15 17.68 29.5-.24-.15-17.68ZM128.82 79.08l-29.5.24.15 17.68 29.5-.24-.15-17.68ZM158.45 78.84l-29.5.24.14 17.68 29.5-.23-.14-17.69ZM188.07 78.6l-29.5.24.14 17.68 29.5-.23-.14-17.69ZM217.7 78.37l-29.5.23.14 17.69 29.5-.24-.15-17.68Z" stroke="#C4D9EA" stroke-width=".5" stroke-linejoin="round" />
    <path d="m40.1 97.48-29.49.24.14 17.69 29.5-.24-.14-17.69ZM69.73 97.24l-29.5.24.14 17.69 29.5-.24-.14-17.69ZM99.35 97l-29.5.24.15 17.69 29.5-.24-.15-17.68ZM128.97 96.77l-29.5.24.14 17.68 29.5-.24-.14-17.68ZM158.6 96.53l-29.5.24.14 17.68 29.5-.24-.15-17.68ZM188.21 96.3l-29.5.23.14 17.68 29.5-.24-.14-17.68ZM217.83 96.05l-29.5.24.15 17.68 29.5-.24-.15-17.68Z" stroke="#C4D9EA" stroke-width=".5" stroke-linejoin="round" />
    <path d="m40.25 115.16-29.5.24.15 17.68 29.5-.24-.15-17.68ZM69.87 114.92l-29.5.24.15 17.68 29.5-.24-.15-17.68ZM99.5 114.68l-29.5.24.14 17.68 29.5-.23-.14-17.69ZM129.11 114.44l-29.5.24.15 17.69 29.5-.24-.15-17.69ZM158.73 114.2l-29.5.24.15 17.69 29.5-.24-.15-17.68ZM188.35 113.97l-29.5.23.15 17.69 29.5-.24-.15-17.69ZM217.98 113.73l-29.5.23.14 17.69 29.5-.24-.14-17.68Z" stroke="#C4D9EA" stroke-width=".5" stroke-linejoin="round" />
    <path d="m40.4 132.84-29.5.24.14 17.69 29.5-.24-.15-17.69ZM70.02 132.6l-29.5.24.14 17.69 29.5-.24-.14-17.69ZM99.64 132.37l-29.5.23.14 17.69 29.5-.24-.14-17.68ZM129.25 132.13l-29.5.23.15 17.69 29.5-.24-.15-17.68ZM158.88 131.89l-29.5.24.14 17.68 29.5-.24-.14-17.68ZM188.5 131.65l-29.5.24.14 17.68 29.5-.23-.14-17.69ZM218.12 131.41l-29.5.24.14 17.68 29.5-.24-.14-17.68Z" stroke="#C4D9EA" stroke-width=".5" stroke-linejoin="round" />
    <path opacity=".5" d="M225.5 2.5c1.42 13.75 1.32 21.62 1.5 35.6-15.2-.39-57.3-1.15-112.5.16-58.57 1.4-99.76.45-111.5.11V2.44s82.4.16 108.9-.86c43.86-1.69 113.6.92 113.6.92Z" fill="#60ABF2" />
    <path d="M108.7 14.07a.53.53 0 0 1-.17-.03 1.14 1.14 0 0 1-.19-.1.5.5 0 0 1-.16-.12.13.13 0 0 1-.02-.08c0-.03 0-.06.02-.08 0-.04.05-.1.1-.2l.12-.38a14.03 14.03 0 0 0 .3-.94l.13-.46.1-.37-2.33-2.38c-.06-.07-.07-.12-.06-.16a.17.17 0 0 1 .08-.09.51.51 0 0 1 .14-.03h.33a.8.8 0 0 1 .25.09c.1.05.2.12.3.2l.39.37c.15.15.32.35.53.6.2.25.44.5.7.82l.47-1.27c.1-.27.22-.54.35-.8.08-.15.17-.3.29-.42a.52.52 0 0 1 .27-.15h.17c.05 0 .09.06.11.13-.2.43-.37.87-.52 1.31l-.5 1.5-.56 1.57c-.19.5-.4 1-.65 1.47ZM111.23 12.77c-.04-.37 0-.75.1-1.1a2.62 2.62 0 0 1 1.35-1.6c.35-.17.71-.25 1.09-.24h.25l.35.1c.13.03.25.08.37.14.11.06.22.14.31.22a.9.9 0 0 1 .2.28.6.6 0 0 1 .04.36c-.2.14-.42.23-.66.28-.25.05-.5.09-.76.1l-.76.06c-.22.01-.44.05-.64.13a.85.85 0 0 0-.43.33c-.1.2-.14.43-.1.66.06.22.18.42.35.56.17.12.36.2.56.22a2 2 0 0 0 .68-.03 5.68 5.68 0 0 0 1.35-.45l.5-.21c.05 0 .1.02.15.06.04.04.06.1.06.16-.13.22-.31.4-.53.54a4.02 4.02 0 0 1-1.73.57c-.31.02-.62 0-.92-.08-.27-.06-.52-.19-.74-.37a1.33 1.33 0 0 1-.44-.7Zm2.47-2.39h-.31c-.12.02-.23.06-.35.1-.1.05-.2.1-.29.18a.39.39 0 0 0-.12.29l1.73-.29a.6.6 0 0 0-.28-.24 1.13 1.13 0 0 0-.38-.06v.02ZM119.55 12.48a2.71 2.71 0 0 1-2.86 1.3c-.11-.02-.22-.05-.31-.1a.64.64 0 0 1-.24-.21.49.49 0 0 1-.1-.31c-.04-.26-.03-.54.04-.8a3 3 0 0 1 .93-1.47c.22-.2.46-.38.72-.53.25-.14.51-.25.79-.32.25-.05.52-.05.77 0a.56.56 0 0 1 .45.2c.12.14.2.31.24.5.06.23.1.48.1.72 0 .27.02.55.04.84a6.52 6.52 0 0 0 .14 1.63h-.5c0-.16-.03-.3-.05-.42 0-.13 0-.24-.03-.34 0-.1-.02-.2-.04-.3-.05-.18-.06-.28-.1-.39Zm-.53-1.87c-.2-.02-.4 0-.6.08a2.88 2.88 0 0 0-1.06.67 3.3 3.3 0 0 0-.67.98.99.99 0 0 0-.08.46.6.6 0 0 0 .15.35c.12.12.28.19.44.2.28 0 .56-.08.8-.21a3.08 3.08 0 0 0 1.2-1.16c.12-.21.21-.43.26-.66a.7.7 0 0 0-.05-.5.43.43 0 0 0-.4-.22v.01ZM120.66 9.92a.16.16 0 0 1 .1-.18.49.49 0 0 1 .2-.04.33.33 0 0 1 .3.15c.07.1.13.22.16.35a3.3 3.3 0 0 1 .12.67 4.43 4.43 0 0 1 1.31-.8 4.67 4.67 0 0 1 1.97-.23.27.27 0 0 1 .29.08c.06.08.1.18.1.29.02.11 0 .23-.05.33a.28.28 0 0 1-.2.19c-.17-.13-.38-.21-.6-.23a2.43 2.43 0 0 0-.71 0 3.04 3.04 0 0 0-1.39.59c-.18.14-.33.32-.44.53-.11.2-.16.42-.14.65l.03.42c0 .14.04.27.06.41l.06.41v.42c-.1 0-.2.02-.3.05a.6.6 0 0 1-.2.03.17.17 0 0 1-.13-.08.95.95 0 0 1-.12-.26c0-.03 0-.13-.04-.3-.03-.16-.04-.36-.06-.6a30.95 30.95 0 0 0-.19-1.57l-.08-.74-.05-.54Z" fill="#000" />
    <path d="M10.3 20.57s25.7-.94 55.18 0c29.47.94 74.29.34 98.21-.42 23.93-.76 52.86-1 52.86-1M10.3 37.78s186.62-1.88 206.22-1.88" stroke="#263238" stroke-linecap="round" stroke-linejoin="round" />
    <path d="m195.4 61.6.22 6.6s17.15-1.2 19.67-.95v-6.6s-15.18-.23-19.9.95Z" fill="#017AEE" stroke="#263238" stroke-width="2" stroke-linecap="round" stroke-linejoin="round" />
    <path d="m60.96 178.08 6.3-6.9v-1.78l4.84-4.4s5.88 2.05 8.68 9.2l-5.12 4.28-1.94.25-7.53 5.37s-5.23-1.8-5.23-6.02Z" fill="#003C71" />
    <path opacity=".27" d="M72.27 166.33s2.15 6.4 7.7 7.7" stroke="#fff" stroke-linecap="round" stroke-linejoin="round" />
    <path opacity=".3" d="m213.16 119.12-1.95 39.65c-10.42-.16-25.3-.36-41.08-.45-3.73-3.27-7.42-20.49-8.84-25.83-1.42-5.35 1.5-21.67 1.5-21.67s-2.29-2.2-2.76-3.72c-.47-1.51 1.25-3.77 1.25-3.77l-.94-5.19-1.88-1.43-1.73-2.12c-3.92-1.63-4.72-3.82-4.72-3.82l16.59-3.79 44.56 32.14Z" fill="#000" fill-opacity=".7" />
    <path d="M189.61 215.03s-6.39-53.41-9.68-62.45c-3.3-9.03-7.64-38.9-7.64-38.9s10.03-.8 13.08-.83c3.03-.03 6.96-2.94 6.96-2.94-.33.6-1.09.23-1.65-3.42-.37-2.44-4.09-3.18-4.09-3.18s-8.9.66-16.42-.34a9.33 9.33 0 0 1-5.6 0c-2.73-1-3.29-2.07-1.79-3.51 0 0-2.13-2.79 5.15-6.74 0 0-4.84-4.34-2.48-7.15 2.36-2.8 7.96-5.61 7.96-5.61s.23-2.12 1.26-2.67c1.02-.55 6.6-2.83 9.66-4.95 3.07-2.12 4.4-1.96 10.06-2.12 5.67-.17 12.58-1.57 15.17-.4 2.02.92 2.95 4.52 2.95 4.52 1.89.6 2.08 3.67 2.2 4.43.55 3.38 4.44 17.38 6.17 19.82 1.73 2.44 2.75 6.68 2.44 8.88-.31 2.2-1.1 4.77-1.9 9.28-.78 4.5-3.45 20.04-4.76 24.51-1.31 4.48-2.04 12.26-1.34 16.04l19.87 47.28" fill="#fff" />
    <path opacity=".4" d="M210.79 88.98s-3.76 2.27-3.76 3.72c0 0-7.15 5.44-7.98 11.84 0 0-3.96 4.02-4.83 5.84-.87 1.83-4.65 3.97-4.65 3.97-1.07-.1-2.14-.14-3.21-.12a40 40 0 0 1-5.37-1.2c1.8-.1 3.44-.2 4.39-.2 2.52 0 5.65-2.03 6.64-2.71-.38 0-.91-.92-1.33-3.65-.37-2.44-4.09-3.18-4.09-3.18s-8.9.66-16.42-.34a9.76 9.76 0 0 1-3.81.39 3.6 3.6 0 0 0-.9-2.6s3.44-2.3 2.54-4.07c-.42-.85-1.97-1.37-3.48-1.69a18.6 18.6 0 0 1 3.4-2.28s-4.83-4.34-2.47-7.15c2.36-2.8 7.95-5.6 7.95-5.6s.23-2.1 1.26-2.66c0 0-.63 3.27 3.92 2.98 4.56-.3 11.04-2.98 11.04-2.98s12.28.34 14.77-1.55c0 0 2.98 2.54 5.16 2.98 2.18.43 1.23 10.26 1.23 10.26ZM223.3 107.47c-.32 2.2-1.1 4.77-1.9 9.28-.78 4.5-3.45 20.04-4.76 24.51-1.31 4.48-2.04 12.26-1.34 16.04l1.67 3.98c-3.62-6.41-3.33-14.83-3.04-17.04.35-2.71 2.35-12.74 4.17-17.92 1.82-5.19 1.95-16.04 1.95-16.41 0-.38-.94 2.38-1.9 5.44a256.1 256.1 0 0 1-4.47 11.68c-.11-1.8 1.36-12.25 1.63-13.44.26-1.2 2.42-9.24 2.8-11.48.36-2.24-1.42-4.77-1.86-6.58-.45-1.82-2.21-9.77-2.68-15.25-.2-2.99-.93-5.91-2.2-8.62.5.84.88 1.74 1.14 2.68 1.89.6 2.08 3.67 2.2 4.43.55 3.38 4.44 17.38 6.17 19.82 1.73 2.44 2.73 6.68 2.42 8.88Z" fill="#4193E1" />
    <path opacity=".4" d="M188.44 205.54c-1.94-15.24-5.81-44.23-8.26-52.18 1.7 2.05 3.61 5.36 4.96 11.74 2.7 12.86 3.54 18.51 3.65 24.4.08 3.77.02 10.72-.35 16.04Z" fill="#017AEE" />
    <path d="M189.61 215.03s-6.39-53.41-9.68-62.45c-3.3-9.03-7.64-38.9-7.64-38.9s10.03-.8 13.08-.83c3.03-.03 6.96-2.94 6.96-2.94-.33.6-1.09.23-1.65-3.42-.37-2.44-4.09-3.18-4.09-3.18s-8.9.66-16.42-.34a9.33 9.33 0 0 1-5.6 0c-2.73-1-3.29-2.07-1.79-3.51 0 0-2.13-2.79 5.15-6.74 0 0-4.84-4.34-2.48-7.15 2.36-2.8 7.96-5.61 7.96-5.61s.23-2.12 1.26-2.67c1.02-.55 6.6-2.83 9.66-4.95 3.07-2.12 4.4-1.96 10.06-2.12 5.67-.17 12.58-1.57 15.17-.4 2.02.92 2.95 4.52 2.95 4.52 1.89.6 2.08 3.67 2.2 4.43.55 3.38 4.44 17.38 6.17 19.82 1.73 2.44 2.75 6.68 2.44 8.88-.31 2.2-1.1 4.77-1.9 9.28-.78 4.5-3.45 20.04-4.76 24.51-1.31 4.48-2.04 12.26-1.34 16.04l19.87 47.28" stroke="#263238" stroke-linecap="round" stroke-linejoin="round" />
    <path d="M162.78 99.46s1.57 2.12 7 1.25c5.42-.86 11.91-6.28 11.91-6.28l3.9-1.66s4.95.55 6.75-.31" stroke="#263238" stroke-linecap="round" stroke-linejoin="round" />
    <path d="M189.57 92.94s3.23 3.46 5.83 4.24M192.33 109.9c2.2-1.41 5.11-5.36 7.78-5.65" stroke="#263238" stroke-linecap="round" stroke-linejoin="round" />
    <path d="M191.89 105.11c1.19-3.94 4.76-7.94 4.76-7.94a18.6 18.6 0 0 1 2.2-3.69 6.24 6.24 0 0 1 3.78-2.59s-3.13-8.84-2.2-10.61M186.6 103.3s2.42-.76 2.97-2.38M186.04 100s-.15 2.52-3.92 3.3M185.57 92.77s1.88-1.24 2.51-2.5M173.4 79.96s-.66 1.89 2.15 2.68c2.81.78 10.36-.08 13.5-2.68 0 0 .77-2.2.54-3.61" stroke="#263238" stroke-linecap="round" stroke-linejoin="round" />
    <path d="M188.62 80.28s9.21-.32 9.92-.32c.71 0 3.54-1.49 4.08-3.06M202.61 90.89s2.08.71 3.51.4M198.01 105.11s-.33-3.49 2.1-8.42M212.5 74.34c1.25 4.86 3.17 20.86 4.47 23.89 1.3 3.02 1.46 4.06.51 6.88-.94 2.83-2.46 9.67-2.46 9.67M215.28 157.31c-1.02-3.22-1.65-7.46-1.26-9.43" stroke="#263238" stroke-linecap="round" stroke-linejoin="round" />
    <path d="M155.53 88.85s-2.61.48-3.5 1.9c0 0 .78 1.19 3.93.87 3.15-.31-.43-2.77-.43-2.77Z" fill="#263238" />
    <path d="m164.83 83.92 73.72-10.94.94 13.15-74.04 7.35-3.45-1.56-5.67.14a3.04 3.04 0 0 1-.55-3.85l5.83-1.25 3.22-3.04Z" fill="#60ABF2" />
    <path d="m177.5 84.6 30.4-4.31a2.3 2.3 0 0 1 2.6 2.04l.06.6a2.29 2.29 0 0 1-2 2.5l-30.45 3.7a2.28 2.28 0 0 1-2.56-2.05 2.3 2.3 0 0 1 1.95-2.48Z" fill="#263238" />
    <path opacity=".3" d="m239.49 86.13-74.04 7.35-3.45-1.56-5.67.14c-.3-.27-.54-.6-.71-.97l5.96-.2 2.62.24 10.3-.87 3.02-5.65s2.65-.34 4.77 2.35c2.12 2.7 3.3 2.35 3.3 2.35l50.7-5.3.6-.6s-2.05-4.64 0-8.43c.5-.94 1.1-1.33 1.7-1.32l.9 12.47Z" fill="#000" fill-opacity=".7" />
    <path d="m164.83 83.92 73.72-10.94.94 13.15-74.04 7.35-3.45-1.56-5.67.14a3.04 3.04 0 0 1-.55-3.85l5.83-1.25 3.22-3.04Z" stroke="#263238" stroke-linecap="round" stroke-linejoin="round" />
    <path d="M238.55 72.98c5.1-.4 6.2 12.64.94 13.15-5.04.5-6.13-12.73-.94-13.15Z" fill="#017AEE" />
    <path opacity=".3" d="M239.49 86.13c-1.38.14-2.46-.75-3.2-2.13l.6-.6s-2.05-4.63 0-8.42c.5-.94 1.1-1.33 1.7-1.32 1.78 0 3.6 3.46 3.53 5.32l.77.2c.28 3.26-.76 6.7-3.4 6.95Z" fill="#000" fill-opacity=".7" />
    <path d="M238.55 72.98c5.1-.4 6.2 12.64.94 13.15-5.04.5-6.13-12.73-.94-13.15ZM164.83 83.92s-1.46 1.83-1.07 5.32a7.92 7.92 0 0 0 1.7 4.24M161.6 86.98a6.46 6.46 0 0 0 .4 4.96" stroke="#263238" stroke-linecap="round" stroke-linejoin="round" />
    <path d="M236.26 86.46c-5.04.52-6.02-12.17-.87-13" stroke="#263238" stroke-linecap="round" stroke-linejoin="round" />
    <path d="M238.65 73.8c4.04-.35 4.9 10.92.74 11.37-4 .43-4.84-11-.74-11.37Z" stroke="#263238" stroke-linecap="round" stroke-linejoin="round" />
    <path d="M238.66 74.6s2.1.79 2.49 4.62c.37 3.83-1.8 5.02-1.8 5.02" stroke="#263238" stroke-linecap="round" stroke-linejoin="round" />
    <path d="M192.33 114.23s-5.36.32-5.96 0c-.6-.32-3.93-6.6-4.09-8.56a484 484 0 0 1-.62-12.19c-.16-3.92-.16-10.06-7.55-8.75-3.3.6-3.85 3.7-4.95 10.73-1.1 7.02-.08 8.88-.86 17.84-.8 8.96.15 12.52 2.04 17.03 1.89 4.51 2.59 15.98 7.62 20.22 5.03 4.24 7 12.42 7 12.42" fill="#fff" />
    <path opacity=".4" d="M179.18 91.68c-1.35.33-6.55.57-6.9 2.33-.33 1.77 2.76 2.55 4.04 4.11-.05 0-5.37 0-6.56 2.6-1.2 2.59.99 8.15.99 11.22 0 3.06-2.68 9.2-.63 12.37 1.79 2.78 3.44 9.18 2.58 15.25-.9-3.64-1.52-7.15-2.38-9.25-1.9-4.5-2.83-8.06-2.05-17.02.79-8.96-.23-10.81.88-17.85.78-5.03 1.3-8.07 2.75-9.6 1.7-.36 3.61-.5 4.76.32 2.47 1.73 3.9 5.19 2.52 5.52Z" fill="#017AEE" />
    <path d="M192.33 114.23s-5.36.32-5.96 0c-.6-.32-3.93-6.6-4.09-8.56a484 484 0 0 1-.62-12.19c-.16-3.92-.16-10.06-7.55-8.75-3.3.6-3.85 3.7-4.95 10.73-1.1 7.02-.08 8.88-.86 17.84-.8 8.96.15 12.52 2.04 17.03 1.89 4.51 2.59 15.98 7.62 20.22 5.03 4.24 7 12.42 7 12.42" stroke="#263238" stroke-linecap="round" stroke-linejoin="round" />
    <path d="M182.27 105.67s-.5-.17-.8-3.23a5.6 5.6 0 0 0-2.9-4.32M171.66 98.12s-2.19.47-3.06 3.53" stroke="#263238" stroke-linecap="round" stroke-linejoin="round" />
</svg>