<svg viewBox="0 0 10 8" fill="#017AEE" >
    <path d="M9.2531 0.644045C9.33434 0.67789 9.40807 0.727487 9.47004 0.789972C9.53771 0.8524 9.59172 0.928168 9.62866 1.0125C9.6656 1.09683 9.68467 1.1879 9.68467 1.27997C9.68467 1.37204 9.6656 1.46311 9.62866 1.54744C9.59172 1.63178 9.53771 1.70754 9.47004 1.76997L4.03005 7.20997C3.96807 7.27246 3.89434 7.32205 3.8131 7.3559C3.73186 7.38975 3.64472 7.40717 3.55671 7.40717C3.4687 7.40717 3.38157 7.38975 3.30033 7.3559C3.21909 7.32205 3.14535 7.27246 3.08338 7.20997L0.523378 4.64997C0.45903 4.58781 0.407556 4.51359 0.371893 4.43154C0.336231 4.34948 0.317079 4.26121 0.315532 4.17176C0.313984 4.0823 0.330071 3.99342 0.362874 3.91018C0.395676 3.82695 0.444552 3.75099 0.506711 3.68664C0.56887 3.62229 0.643095 3.57082 0.725147 3.53515C0.807199 3.49949 0.895472 3.48034 0.984926 3.47879C1.07438 3.47725 1.16326 3.49333 1.2465 3.52613C1.32974 3.55894 1.4057 3.60781 1.47004 3.66997L3.55671 5.76331L8.52338 0.789972C8.58535 0.727487 8.65909 0.67789 8.74033 0.644045C8.82157 0.610199 8.9087 0.592773 8.99671 0.592773C9.08472 0.592773 9.17186 0.610199 9.2531 0.644045Z" />
</svg>
    