<svg viewBox="0 0 16 16">
	<path d="M12.2531 4.64404C12.3343 4.67789 12.4081 4.72749 12.47 4.78997C12.5377 4.8524 12.5917 4.92817 12.6287 5.0125C12.6656 5.09683 12.6847 5.1879 12.6847 5.27997C12.6847 5.37204 12.6656 5.46311 12.6287 5.54744C12.5917 5.63178 12.5377 5.70754 12.47 5.76997L7.03005 11.21C6.96807 11.2725 6.89434 11.3221 6.8131 11.3559C6.73186 11.3897 6.64472 11.4072 6.55671 11.4072C6.4687 11.4072 6.38157 11.3897 6.30033 11.3559C6.21909 11.3221 6.14535 11.2725 6.08338 11.21L3.52338 8.64997C3.45903 8.58781 3.40756 8.51359 3.37189 8.43154C3.33623 8.34948 3.31708 8.26121 3.31553 8.17176C3.31398 8.0823 3.33007 7.99342 3.36287 7.91018C3.39568 7.82695 3.44455 7.75099 3.50671 7.68664C3.56887 7.62229 3.64309 7.57082 3.72515 7.53515C3.8072 7.49949 3.89547 7.48034 3.98493 7.47879C4.07438 7.47725 4.16326 7.49333 4.2465 7.52613C4.32974 7.55894 4.4057 7.60781 4.47004 7.66997L6.55671 9.76331L11.5234 4.78997C11.5854 4.72749 11.6591 4.67789 11.7403 4.64404C11.8216 4.6102 11.9087 4.59277 11.9967 4.59277C12.0847 4.59277 12.1719 4.6102 12.2531 4.64404Z" />
</svg>
