<svg width="16" height="16" viewBox="0 0 16 16" fill="none" xmlns="http://www.w3.org/2000/svg">
<path d="M9.26451 10.4887C8.87327 10.2157 8.45518 9.99329 8.01792 9.82334C8.59959 9.29459 8.98546 8.5539 9.05259 7.7247C9.93468 6.8651 11.0909 6.39385 12.3304 6.39385C13.2981 6.39385 14.2272 6.68526 15.0175 7.23648C15.3007 7.43401 15.6901 7.36467 15.8876 7.08143C16.085 6.79832 16.0156 6.40874 15.7325 6.21133C15.3413 5.93835 14.9231 5.71603 14.4858 5.54596C15.1277 4.96252 15.5312 4.12123 15.5312 3.18752C15.5312 1.42986 14.1016 0 12.3441 0C10.5868 0 9.15709 1.42986 9.15709 3.18752C9.15709 4.11745 9.55736 4.95568 10.1948 5.53888C10.1075 5.57246 10.0207 5.60798 9.9348 5.64583C9.54368 5.81797 9.17601 6.02967 8.83409 6.27823C8.36253 5.10658 7.21445 4.27738 5.87619 4.27738C4.11886 4.27738 2.68905 5.70724 2.68905 7.46478C2.68905 8.39214 3.08712 9.22806 3.72116 9.81101C2.02596 10.4462 0.651448 11.8105 0.091876 13.5505C-0.0936713 14.1275 0.00459554 14.7393 0.36153 15.2293C0.718465 15.7191 1.27071 16 1.87667 16H7.31358C7.65867 16 7.93845 15.7202 7.93845 15.3749C7.93845 15.0298 7.65867 14.75 7.31358 14.75H1.87667C1.67464 14.75 1.49056 14.6563 1.37154 14.493C1.25252 14.3296 1.21981 14.1256 1.28158 13.9332C1.89925 12.0126 3.78305 10.6712 5.86252 10.6712C6.83005 10.6712 7.75925 10.9626 8.54954 11.5139C8.83262 11.7114 9.22215 11.6419 9.41966 11.3588C9.61705 11.0757 9.54771 10.6861 9.26451 10.4887ZM12.3441 1.25003C13.4123 1.25003 14.2814 2.11916 14.2814 3.18752C14.2814 4.25577 13.4123 5.12502 12.3441 5.12502C11.276 5.12502 10.4068 4.25577 10.4068 3.18752C10.4068 2.11916 11.276 1.25003 12.3441 1.25003ZM5.87619 5.52729C6.94443 5.52729 7.81345 6.39653 7.81345 7.46478C7.81345 8.53315 6.94443 9.40227 5.87619 9.40227C4.80795 9.40227 3.93893 8.53315 3.93893 7.46478C3.93893 6.39653 4.80795 5.52729 5.87619 5.52729ZM16 13.0313C16 13.3764 15.7202 13.6562 15.375 13.6562H13.6565V15.3749C13.6565 15.7202 13.3767 16 13.0316 16C12.6864 16 12.4066 15.7202 12.4066 15.3749V13.6562H10.6881C10.343 13.6562 10.0632 13.3764 10.0632 13.0313C10.0632 12.686 10.343 12.4062 10.6881 12.4062H12.4066V10.6875C12.4066 10.3423 12.6864 10.0625 13.0316 10.0625C13.3767 10.0625 13.6565 10.3423 13.6565 10.6875V12.4062H15.375C15.7202 12.4062 16 12.686 16 13.0313Z" fill="#017AEE"/>
</svg>
