<svg width="16" height="16" viewBox="0 0 16 16" fill="currentColor" xmlns="http://www.w3.org/2000/svg">
<path fill-rule="evenodd" clip-rule="evenodd" d="M8.898 8.13497C8.7278 8.29205 8.54232 8.4322 8.34417 8.55284C8.404 8.56537 8.46337 8.57859 8.52225 8.59249C8.39062 8.78013 8.27501 8.98005 8.17747 9.1902C7.71669 9.09832 7.22286 9.05068 6.6998 9.05068H6.58221C3.809 9.05068 1.01038 10.5566 1.01038 13.9215C1.01038 14.1062 0.862688 14.2556 0.68019 14.2556C0.497692 14.2556 0.35 14.1062 0.35 13.9215C0.35 11.1572 2.0969 9.15538 4.84002 8.56521C3.8137 7.9522 3.12134 6.81755 3.12134 5.51822C3.12134 3.57066 4.67445 1.98672 6.58315 1.98672C8.48809 1.98672 10.0393 3.57066 10.0393 5.51822C10.0393 6.47311 9.66607 7.3384 9.06161 7.9738C9.00552 8.02588 8.95095 8.07963 8.898 8.13497ZM6.58221 2.65494C5.03851 2.65494 3.78266 3.93999 3.78266 5.51822C3.78266 7.0974 5.03851 8.38245 6.58221 8.38245C8.12404 8.38245 9.37801 7.0974 9.37801 5.51822C9.37801 3.93904 8.12404 2.65494 6.58221 2.65494Z" />
<path fill-rule="evenodd" clip-rule="evenodd" d="M2.77134 5.51822C2.77134 3.38394 4.47464 1.63672 6.58315 1.63672C8.6884 1.63672 10.3893 3.38444 10.3893 5.51822C10.3893 6.56598 9.9794 7.51683 9.3152 8.21503L9.30772 8.22289L9.29977 8.23028C9.24872 8.27768 9.19906 8.3266 9.15085 8.37697L9.14335 8.3848L9.13538 8.39216C9.09643 8.42811 9.05676 8.46325 9.01637 8.49756L8.80878 8.79349C8.68894 8.96433 8.58371 9.14631 8.49494 9.33756L8.37902 9.58728L8.10903 9.53344C7.67248 9.44639 7.20168 9.40068 6.6998 9.40068H6.58221C5.25313 9.40068 3.94016 9.76238 2.96844 10.5027C2.00827 11.2341 1.36038 12.3492 1.36038 13.9215C1.36038 14.2955 1.05987 14.6056 0.68019 14.6056C0.300506 14.6056 0 14.2955 0 13.9215C0 11.2288 1.57038 9.21387 4.05103 8.41422C3.26653 7.70349 2.77134 6.6692 2.77134 5.51822ZM7.53885 8.74183L7.40629 8.71407L7.75776 8.50009C7.51588 8.59993 7.25896 8.66992 6.99128 8.70549C7.17728 8.71168 7.35987 8.72383 7.53885 8.74183ZM6.20502 8.7096C5.93486 8.67664 5.67539 8.60872 5.43095 8.5105L5.78247 8.72046L5.57578 8.76493C5.78465 8.73794 5.99479 8.71957 6.20502 8.7096ZM6.58221 3.00494C5.23924 3.00494 4.13266 4.12577 4.13266 5.51822C4.13266 6.9117 5.23931 8.03245 6.58221 8.03245C7.92278 8.03245 9.02801 6.91216 9.02801 5.51822C9.02801 4.12443 7.92293 3.00494 6.58221 3.00494Z" />
<path d="M11.6562 6.76778C9.43614 6.76778 7.62907 8.59519 7.62907 10.8427C7.62907 13.0891 9.43614 14.9177 11.6562 14.9177C13.8762 14.9177 15.6821 13.0891 15.6821 10.8427C15.6821 8.59519 13.8762 6.76778 11.6562 6.76778ZM11.6562 14.1173C9.87159 14.1173 8.42009 12.6485 8.42009 10.8427C8.42009 9.03696 9.87159 7.5682 11.6562 7.5682C13.4407 7.5682 14.8922 9.03696 14.8922 10.8427C14.8922 12.6485 13.4407 14.1173 11.6562 14.1173Z" />
<path d="M13.0402 10.6172H11.9825V9.54611C11.9825 9.39443 11.8612 9.27169 11.7113 9.27169C11.5614 9.27169 11.4401 9.39443 11.4401 9.54611V10.6172H10.3817C10.2318 10.6172 10.1105 10.7399 10.1105 10.8916C10.1105 11.0433 10.2318 11.166 10.3817 11.166H11.4401V12.2371C11.4401 12.3888 11.5614 12.5115 11.7113 12.5115C11.8612 12.5115 11.9825 12.3888 11.9825 12.2371V11.166H13.0402C13.19 11.166 13.3113 11.0433 13.3113 10.8916C13.3113 10.7407 13.19 10.6172 13.0402 10.6172Z" />
<path fill-rule="evenodd" clip-rule="evenodd" d="M7.37907 10.8427C7.37907 8.45987 9.29534 6.51778 11.6562 6.51778C14.0171 6.51778 15.9321 8.45996 15.9321 10.8427C15.9321 13.2243 14.0171 15.1677 11.6562 15.1677C9.29529 15.1677 7.37907 13.2244 7.37907 10.8427ZM11.6562 7.01778C9.57694 7.01778 7.87907 8.73052 7.87907 10.8427C7.87907 12.9539 9.57699 14.6677 11.6562 14.6677C13.7352 14.6677 15.4321 12.954 15.4321 10.8427C15.4321 8.73043 13.7353 7.01778 11.6562 7.01778ZM11.6562 7.8182C10.0124 7.8182 8.67009 9.17224 8.67009 10.8427C8.67009 12.5132 10.0124 13.8673 11.6562 13.8673C13.2999 13.8673 14.6422 12.5132 14.6422 10.8427C14.6422 9.17224 13.2999 7.8182 11.6562 7.8182ZM8.17009 10.8427C8.17009 8.90168 9.73075 7.3182 11.6562 7.3182C13.5816 7.3182 15.1422 8.90168 15.1422 10.8427C15.1422 12.7838 13.5816 14.3673 11.6562 14.3673C9.73075 14.3673 8.17009 12.7838 8.17009 10.8427ZM11.1901 9.54611C11.1901 9.25917 11.4206 9.02169 11.7113 9.02169C12.0021 9.02169 12.2325 9.25917 12.2325 9.54611V10.3672H13.0402C13.3314 10.3672 13.5613 10.6059 13.5613 10.8916C13.5613 11.1785 13.3309 11.416 13.0402 11.416H12.2325V12.2371C12.2325 12.5241 12.0021 12.7615 11.7113 12.7615C11.4206 12.7615 11.1901 12.5241 11.1901 12.2371V11.416H10.3817C10.0909 11.416 9.86051 11.1785 9.86051 10.8916C9.86051 10.6047 10.0909 10.3672 10.3817 10.3672H11.1901V9.54611ZM11.7113 9.52169C11.7023 9.52169 11.6901 9.5297 11.6901 9.54611V10.8672H10.3817C10.3727 10.8672 10.3605 10.8752 10.3605 10.8916C10.3605 10.908 10.3727 10.916 10.3817 10.916H11.6901V12.2371C11.6901 12.2535 11.7023 12.2615 11.7113 12.2615C11.7203 12.2615 11.7325 12.2535 11.7325 12.2371V10.916H13.0402C13.0492 10.916 13.0613 10.908 13.0613 10.8916C13.0613 10.8843 13.0586 10.8781 13.054 10.8734C13.0494 10.8688 13.0448 10.8672 13.0402 10.8672H11.7325V9.54611C11.7325 9.5297 11.7203 9.52169 11.7113 9.52169Z" />
</svg>
