<svg width="16" height="16" viewBox="0 0 16 16" fill="none" xmlns="http://www.w3.org/2000/svg">
<path d="M3.66581 10.5004C3.49186 10.5004 3.32368 10.4334 3.1987 10.3129C3.13612 10.2527 3.08614 10.1807 3.05192 10.1011C3.0177 10.0214 3 9.93569 3 9.84903C3 9.76236 3.0177 9.67668 3.05192 9.59697C3.0861 9.51739 3.13628 9.44525 3.19876 9.38507L8.00443 4.7151L8.01126 4.70792C8.07388 4.64207 8.14954 4.58987 8.23328 4.55429C8.31701 4.51871 8.4072 4.50043 8.49822 4.50043C8.58923 4.50043 8.67942 4.51871 8.76315 4.55429C8.84628 4.58961 8.92093 4.64133 8.9829 4.70591L13.7959 9.38337L13.797 9.38445L13.7985 9.38581C13.8616 9.44581 13.9121 9.51767 13.9468 9.59737C13.9813 9.67656 13.9994 9.76177 14 9.84806V9.84999C13.9994 9.93628 13.9813 10.0215 13.9468 10.1007C13.9121 10.1804 13.8616 10.2522 13.7984 10.3123L13.7973 10.3134C13.6722 10.4338 13.5044 10.5004 13.3306 10.5004C13.1568 10.5004 12.9883 10.4331 12.8634 10.3128L8.52015 6.09936L4.13261 10.3132C4.00756 10.4338 3.83963 10.5004 3.66581 10.5004Z" fill="#017AEE"/>
</svg>
