<svg xmlns="http://www.w3.org/2000/svg" viewBox="0 0 16 16">
	<path fill-rule="evenodd" clip-rule="evenodd" d="M15.45 5.32a8.69 8.69 0 0 0-1.87-2.94A8.48 8.48 0 0 0 10.66.54a2.4 2.4 0 0 0-2.54.54L5.78 3.4c-.69.69-.89 1.75-.5 2.64l.4.8-5.13 5.13a.6.6 0 0 0-.17.43v2.62c0 .32.27.6.6.6h2.61a.6.6 0 0 0 .6-.6v-1.08h1.07a.6.6 0 0 0 .6-.6V12.3h1.07c.35 0 .72-.6 1.07-.95.35-.36.72-.8.96-1.09.32.18.65.35.99.49.9.37 1.92.17 2.6-.51l2.37-2.36c.67-.67.88-1.67.53-2.55ZM5.26 11.1h1.67L8.5 9.29a.6.6 0 0 1 .82-.2c.34.2.7.4 1.07.55.45.19.97.08 1.31-.26l2.37-2.35c.33-.34.44-.84.27-1.27a7.5 7.5 0 0 0-1.6-2.54 7.29 7.29 0 0 0-2.52-1.57 1.2 1.2 0 0 0-1.27.27L6.62 4.25c-.34.34-.44.87-.25 1.31.17.38.36.74.57 1.08a.6.6 0 0 1-.1.73l-5.27 5.28v1.78H3v-1.07c0-.33.27-.6.6-.6h1.07V11.7c0-.33.26-.6.6-.6Z" />
	<path fill-rule="evenodd" clip-rule="evenodd" d="M10.91 6.07a1 1 0 1 0 0-2 1 1 0 0 0 0 2Z" />
</svg>
