<svg xmlns="http://www.w3.org/2000/svg" viewBox="0 0 201 38">
    <path d="M4.9162 26.6522C7.6425 33.2075 16.9242 34.5758 16.9242 34.5758C14.5961 35.944 12.1251 37.5982 8.72485 37.5982C8.72485 37.5982 2.87402 35.2599 0.801217 28.8985C-0.577251 24.6917 1.70998 18.8919 1.70998 18.8919C1.70998 18.8919 3.0374 17.7074 4.03806 17.0539C5.18168 16.3085 7.24427 15.3691 7.24427 15.3691C7.24427 15.3691 3.26204 22.6699 4.9162 26.6522Z" fill="#EDF3FB" fill-opacity="0.5" />
    <path d="M4.9162 26.6522C7.6425 33.2075 16.9242 34.5758 16.9242 34.5758C14.5961 35.944 12.1251 37.5982 8.72485 37.5982C8.72485 37.5982 2.87402 35.2599 0.801217 28.8985C-0.577251 24.6917 1.70998 18.8919 1.70998 18.8919C1.70998 18.8919 3.0374 17.7074 4.03806 17.0539C5.18168 16.3085 7.24427 15.3691 7.24427 15.3691C7.24427 15.3691 3.26204 22.6699 4.9162 26.6522Z" fill="#EDF3FB" fill-opacity="0.5" />
    <path d="M7.94001 11.2948C5.25455 13.6433 1.70117 18.8917 1.70117 18.8917C1.70117 18.8917 7.15378 13.6331 16.7009 13.3676C21.9595 13.2247 30.8634 9.15054 30.8634 9.15054C31.9662 5.88306 31.374 4.16764 30.2099 1.09416C28.1575 -1.09096 24.6144 0.399825 22.6743 2.0642C20.3973 4.01447 18.3143 5.50526 16.1189 6.80204C12.9842 8.67063 10.9114 8.69105 7.94001 11.2948Z" fill="#D76B54" />
    <path d="M20.7943 37.5981C20.7943 37.5981 9.24581 37.7921 8.71484 37.5981C8.79653 37.4041 17.7004 38.8336 26.4511 22.0776C34.385 6.87359 29.6369 0.573486 29.6369 0.573486L38.9901 9.15062C38.9901 9.15062 43.6564 13.4392 35.549 26.8869C28.0032 37.5981 20.7943 37.5981 20.7943 37.5981Z" fill="#1A3F70" />
    <path d="M64.1702 32.6377C63.7402 32.7477 63.3202 32.8177 62.9002 32.8677C62.4802 32.9177 62.0502 32.9377 61.6202 32.9377C60.3702 32.9377 59.3702 32.5977 58.6202 31.9077C57.8602 31.2277 57.4502 30.2477 57.3902 28.9677C57.2202 28.9977 57.0502 29.0177 56.8902 29.0277C56.7302 29.0377 56.5702 29.0477 56.4202 29.0477C55.3002 29.0477 54.2702 28.8577 53.3502 28.4877C52.4302 28.1177 51.6502 27.5777 51.0002 26.8677C50.3502 26.1577 49.8602 25.2877 49.5102 24.2577C49.1602 23.2277 48.9902 22.0477 48.9902 20.7277C48.9902 19.4277 49.1602 18.2577 49.5102 17.2177C49.8502 16.1877 50.3502 15.2977 51.0102 14.5577C51.6402 13.8577 52.4202 13.3177 53.3602 12.9477C54.3002 12.5777 55.3102 12.3877 56.4202 12.3877C57.5702 12.3877 58.6002 12.5777 59.5102 12.9477C60.4202 13.3277 61.2002 13.8577 61.8402 14.5577C62.4902 15.2777 62.9902 16.1477 63.3402 17.1877C63.6902 18.2277 63.8602 19.4077 63.8602 20.7177C63.8602 22.6777 63.4602 24.3177 62.6602 25.6577C61.8602 26.9977 60.7902 27.9377 59.4402 28.4677C59.4702 29.2877 59.6602 29.9177 60.0202 30.3677C60.3802 30.8177 61.0302 31.0477 61.9802 31.0477C62.2702 31.0477 62.6202 31.0077 63.0302 30.9177C63.4302 30.8277 63.7202 30.7477 63.8902 30.6777H64.1802V32.6377H64.1702ZM61.6402 20.7277C61.6402 18.6477 61.1702 17.0477 60.2402 15.9177C59.3102 14.7877 58.0402 14.2277 56.4302 14.2277C54.8002 14.2277 53.5302 14.7877 52.6002 15.9177C51.6702 17.0477 51.2102 18.6477 51.2102 20.7277C51.2102 22.8277 51.6802 24.4277 52.6302 25.5477C53.5802 26.6577 54.8402 27.2177 56.4302 27.2177C58.0202 27.2177 59.2902 26.6577 60.2302 25.5477C61.1702 24.4277 61.6402 22.8277 61.6402 20.7277Z" fill="#141923" />
    <path d="M77.0102 28.7177H74.9902V27.3877C74.3102 27.9277 73.6602 28.3377 73.0302 28.6277C72.4002 28.9177 71.7202 29.0577 70.9702 29.0577C69.7102 29.0577 68.7302 28.6777 68.0302 27.8977C67.3302 27.1277 66.9802 25.9977 66.9802 24.5077V16.7177H69.0002V23.5477C69.0002 24.1577 69.0302 24.6777 69.0902 25.1077C69.1502 25.5377 69.2702 25.9077 69.4602 26.2177C69.6502 26.5377 69.9002 26.7577 70.2102 26.9077C70.5202 27.0477 70.9702 27.1177 71.5502 27.1177C72.0702 27.1177 72.6402 26.9777 73.2602 26.7077C73.8802 26.4377 74.4602 26.0877 74.9902 25.6677V16.7077H77.0102V28.7177Z" fill="#141923" />
    <path d="M88.7002 28.7177V27.4577C88.1202 27.9577 87.5102 28.3477 86.8802 28.6277C86.2502 28.9077 85.5702 29.0477 84.8302 29.0477C83.4002 29.0477 82.2602 28.4977 81.4202 27.3977C80.5802 26.2977 80.1602 24.7677 80.1602 22.8077C80.1602 21.7877 80.3102 20.8877 80.6002 20.0877C80.8902 19.2877 81.2802 18.6177 81.7802 18.0577C82.2702 17.5177 82.8302 17.0977 83.4802 16.8077C84.1302 16.5177 84.8002 16.3777 85.4902 16.3777C86.1202 16.3777 86.6802 16.4577 87.1702 16.6177C87.6602 16.7777 88.1702 16.9977 88.7102 17.2777V16.7177H90.7302V28.7177H88.7002ZM88.7002 25.7677V18.9377C88.1602 18.6977 87.6702 18.5177 87.2402 18.4077C86.8102 18.2977 86.3402 18.2377 85.8302 18.2377C84.7002 18.2377 83.8202 18.6277 83.1902 19.4177C82.5602 20.2077 82.2402 21.3277 82.2402 22.7677C82.2402 24.1877 82.4802 25.2777 82.9702 26.0177C83.4602 26.7577 84.2402 27.1277 85.3102 27.1277C85.8802 27.1277 86.4602 26.9977 87.0502 26.7477C87.6402 26.4977 88.1902 26.1677 88.7002 25.7677Z" fill="#141923" />
    <path d="M104.72 28.7177H102.7V21.8877C102.7 21.3377 102.67 20.8177 102.6 20.3377C102.54 19.8577 102.42 19.4777 102.25 19.2077C102.07 18.9077 101.81 18.6877 101.48 18.5377C101.14 18.3877 100.71 18.3177 100.17 18.3177C99.6202 18.3177 99.0402 18.4577 98.4402 18.7277C97.8402 18.9977 97.2602 19.3477 96.7102 19.7677V28.7277H94.6902V16.7277H96.7102V18.0577C97.3402 17.5377 97.9902 17.1277 98.6702 16.8377C99.3402 16.5477 100.03 16.3977 100.74 16.3977C102.04 16.3977 103.02 16.7877 103.7 17.5677C104.38 18.3477 104.72 19.4777 104.72 20.9377V28.7177Z" fill="#141923" />
    <path d="M114.84 28.6177C114.46 28.7177 114.05 28.7977 113.6 28.8677C113.15 28.9277 112.75 28.9677 112.4 28.9677C111.18 28.9677 110.24 28.6377 109.61 27.9777C108.97 27.3177 108.65 26.2677 108.65 24.8077V18.4277H107.29V16.7277H108.65V13.2777H110.67V16.7277H114.84V18.4277H110.67V23.8977C110.67 24.5277 110.68 25.0177 110.71 25.3777C110.74 25.7377 110.84 26.0677 111.01 26.3677C111.17 26.6577 111.38 26.8677 111.66 26.9977C111.94 27.1277 112.36 27.1977 112.92 27.1977C113.25 27.1977 113.59 27.1477 113.95 27.0477C114.31 26.9477 114.57 26.8677 114.72 26.8077H114.83V28.6177H114.84Z" fill="#141923" />
    <path d="M124.99 28.7177V27.4577C124.41 27.9577 123.8 28.3477 123.17 28.6277C122.54 28.9077 121.86 29.0477 121.12 29.0477C119.69 29.0477 118.55 28.4977 117.71 27.3977C116.87 26.2977 116.45 24.7677 116.45 22.8077C116.45 21.7877 116.6 20.8877 116.89 20.0877C117.18 19.2877 117.57 18.6177 118.07 18.0577C118.56 17.5177 119.12 17.0977 119.77 16.8077C120.42 16.5177 121.09 16.3777 121.78 16.3777C122.41 16.3777 122.97 16.4577 123.46 16.6177C123.95 16.7777 124.46 16.9977 125 17.2777V16.7177H127.02V28.7177H124.99ZM124.99 25.7677V18.9377C124.45 18.6977 123.96 18.5177 123.53 18.4077C123.1 18.2977 122.63 18.2377 122.12 18.2377C120.99 18.2377 120.11 18.6277 119.48 19.4177C118.85 20.2077 118.53 21.3277 118.53 22.7677C118.53 24.1877 118.77 25.2777 119.26 26.0177C119.75 26.7577 120.53 27.1277 121.6 27.1277C122.17 27.1277 122.75 26.9977 123.34 26.7477C123.94 26.4977 124.49 26.1677 124.99 25.7677Z" fill="#141923" />
    <path d="M148.5 28.7177H146.48V21.8877C146.48 21.3677 146.46 20.8777 146.41 20.3977C146.36 19.9177 146.27 19.5377 146.12 19.2477C145.95 18.9377 145.72 18.7077 145.41 18.5477C145.1 18.3877 144.66 18.3077 144.08 18.3077C143.51 18.3077 142.95 18.4477 142.38 18.7277C141.81 19.0077 141.25 19.3677 140.68 19.8077C140.7 19.9777 140.72 20.1677 140.73 20.3877C140.75 20.6077 140.75 20.8177 140.75 21.0377V28.7177H138.73V21.8877C138.73 21.3577 138.71 20.8577 138.66 20.3777C138.61 19.8977 138.51 19.5177 138.36 19.2377C138.19 18.9277 137.96 18.6977 137.65 18.5477C137.34 18.3977 136.9 18.3177 136.32 18.3177C135.77 18.3177 135.22 18.4577 134.66 18.7277C134.1 18.9977 133.55 19.3477 133 19.7677V28.7277H130.98V16.7277H133V18.0577C133.63 17.5377 134.26 17.1277 134.89 16.8377C135.52 16.5477 136.18 16.3977 136.89 16.3977C137.71 16.3977 138.4 16.5677 138.97 16.9177C139.54 17.2677 139.96 17.7377 140.24 18.3477C141.06 17.6577 141.8 17.1677 142.47 16.8577C143.14 16.5577 143.86 16.3977 144.63 16.3977C145.95 16.3977 146.92 16.7977 147.55 17.5977C148.18 18.3977 148.49 19.5077 148.49 20.9477V28.7177H148.5Z" fill="#141923" />
    <path d="M160.1 28.7177V27.4577C159.52 27.9577 158.91 28.3477 158.28 28.6277C157.65 28.9077 156.97 29.0477 156.23 29.0477C154.8 29.0477 153.66 28.4977 152.82 27.3977C151.98 26.2977 151.56 24.7677 151.56 22.8077C151.56 21.7877 151.7 20.8877 152 20.0877C152.29 19.2977 152.68 18.6177 153.18 18.0577C153.67 17.5177 154.23 17.0977 154.88 16.8077C155.53 16.5177 156.2 16.3777 156.89 16.3777C157.52 16.3777 158.08 16.4577 158.57 16.6177C159.06 16.7777 159.57 16.9977 160.11 17.2777V16.7177H162.13V28.7177H160.1ZM160.1 25.7677V18.9377C159.56 18.6977 159.07 18.5177 158.64 18.4077C158.21 18.2977 157.74 18.2377 157.23 18.2377C156.1 18.2377 155.22 18.6277 154.59 19.4177C153.96 20.2077 153.64 21.3277 153.64 22.7677C153.64 24.1877 153.88 25.2777 154.37 26.0177C154.86 26.7577 155.64 27.1277 156.71 27.1277C157.28 27.1277 157.86 26.9977 158.45 26.7477C159.04 26.4977 159.59 26.1677 160.1 25.7677Z" fill="#141923" />
    <path d="M172.32 28.6177C171.94 28.7177 171.53 28.7977 171.08 28.8677C170.63 28.9277 170.23 28.9677 169.88 28.9677C168.66 28.9677 167.72 28.6377 167.09 27.9777C166.46 27.3177 166.13 26.2677 166.13 24.8077V18.4277H164.77V16.7277H166.13V13.2777H168.15V16.7277H172.32V18.4277H168.15V23.8977C168.15 24.5277 168.16 25.0177 168.19 25.3777C168.22 25.7377 168.32 26.0677 168.49 26.3677C168.65 26.6577 168.86 26.8677 169.14 26.9977C169.42 27.1277 169.84 27.1977 170.4 27.1977C170.73 27.1977 171.07 27.1477 171.43 27.0477C171.79 26.9477 172.05 26.8677 172.2 26.8077H172.31V28.6177H172.32Z" fill="#141923" />
    <path d="M176.93 14.7077H174.65V12.6177H176.93V14.7077ZM176.8 28.7177H174.78V16.7177H176.8V28.7177Z" fill="#141923" />
    <path d="M189.67 27.9677C189 28.2877 188.36 28.5377 187.75 28.7177C187.14 28.8977 186.5 28.9877 185.82 28.9877C184.95 28.9877 184.16 28.8577 183.44 28.6077C182.72 28.3577 182.1 27.9677 181.58 27.4577C181.06 26.9377 180.65 26.2877 180.37 25.4977C180.09 24.7077 179.94 23.7877 179.94 22.7377C179.94 20.7777 180.48 19.2377 181.56 18.1177C182.64 16.9977 184.06 16.4377 185.83 16.4377C186.52 16.4377 187.19 16.5377 187.85 16.7277C188.51 16.9177 189.12 17.1577 189.67 17.4377V19.6877H189.56C188.94 19.2077 188.31 18.8377 187.65 18.5777C187 18.3177 186.36 18.1877 185.73 18.1877C184.58 18.1877 183.68 18.5677 183.02 19.3377C182.36 20.1077 182.03 21.2377 182.03 22.7277C182.03 24.1777 182.35 25.2877 183 26.0577C183.65 26.8377 184.56 27.2277 185.73 27.2277C186.14 27.2277 186.55 27.1777 186.98 27.0677C187.41 26.9577 187.78 26.8177 188.12 26.6477C188.41 26.4977 188.69 26.3377 188.95 26.1677C189.21 25.9977 189.41 25.8577 189.56 25.7377H189.67V27.9677Z" fill="#141923" />
    <path d="M200.83 25.2577C200.83 26.3577 200.38 27.2477 199.47 27.9577C198.56 28.6577 197.33 29.0077 195.76 29.0077C194.87 29.0077 194.06 28.8977 193.32 28.6877C192.58 28.4777 191.96 28.2477 191.46 27.9977V25.7377H191.57C192.21 26.2177 192.92 26.5977 193.7 26.8777C194.48 27.1577 195.23 27.2977 195.95 27.2977C196.84 27.2977 197.53 27.1577 198.03 26.8677C198.53 26.5777 198.78 26.1277 198.78 25.5177C198.78 25.0477 198.64 24.6877 198.37 24.4477C198.1 24.2077 197.58 23.9977 196.8 23.8277C196.51 23.7677 196.14 23.6877 195.68 23.5977C195.22 23.5077 194.8 23.4177 194.42 23.3177C193.37 23.0377 192.62 22.6277 192.18 22.0877C191.74 21.5477 191.52 20.8777 191.52 20.0977C191.52 19.6077 191.62 19.1377 191.83 18.6977C192.04 18.2577 192.34 17.8677 192.76 17.5277C193.16 17.1877 193.67 16.9277 194.29 16.7277C194.91 16.5277 195.6 16.4377 196.37 16.4377C197.09 16.4377 197.81 16.5277 198.55 16.6977C199.28 16.8677 199.89 17.0877 200.38 17.3377V19.4977H200.27C199.75 19.1177 199.13 18.7977 198.39 18.5377C197.65 18.2777 196.93 18.1477 196.22 18.1477C195.48 18.1477 194.86 18.2877 194.35 18.5677C193.84 18.8477 193.59 19.2677 193.59 19.8277C193.59 20.3177 193.74 20.6977 194.05 20.9477C194.35 21.1977 194.84 21.4077 195.51 21.5577C195.88 21.6477 196.3 21.7277 196.76 21.8177C197.22 21.9077 197.61 21.9877 197.91 22.0577C198.85 22.2777 199.57 22.6377 200.08 23.1677C200.58 23.6877 200.83 24.3877 200.83 25.2577Z" fill="#141923" />
</svg>