<svg viewBox="0 0 211 40" fill="none" xmlns="http://www.w3.org/2000/svg">
<path d="M5.16073 27.9784C8.02267 34.8599 17.7661 36.2962 17.7661 36.2962C15.3222 37.7326 12.7283 39.469 9.15887 39.469C9.15887 39.469 3.01695 37.0144 0.841021 30.3365C-0.606027 25.9204 1.795 19.832 1.795 19.832C1.795 19.832 3.18845 18.5887 4.2389 17.9026C5.43942 17.1202 7.60463 16.134 7.60463 16.134C7.60463 16.134 3.42427 23.798 5.16073 27.9784Z" fill="#D8E4F4"/>
<path d="M5.16073 27.9784C8.02267 34.8599 17.7661 36.2962 17.7661 36.2962C15.3222 37.7326 12.7283 39.469 9.15887 39.469C9.15887 39.469 3.01695 37.0144 0.841021 30.3365C-0.606027 25.9204 1.795 19.832 1.795 19.832C1.795 19.832 3.18845 18.5887 4.2389 17.9026C5.43942 17.1202 7.60463 16.134 7.60463 16.134C7.60463 16.134 3.42427 23.798 5.16073 27.9784Z" fill="#D8E4F4"/>
<path d="M8.33561 11.8571C5.51654 14.3225 1.78638 19.832 1.78638 19.832C1.78638 19.832 7.51026 14.3117 17.5324 14.0331C23.0526 13.883 32.3995 9.60616 32.3995 9.60616C33.5571 6.17612 32.9354 4.37535 31.7135 1.14897C29.559 -1.14487 25.8395 0.420083 23.8029 2.16726C21.4126 4.21456 19.226 5.77952 16.9214 7.14082C13.6307 9.10237 11.4548 9.12381 8.33561 11.8571Z" fill="#D76B54"/>
<path d="M21.8284 39.4692C21.8284 39.4692 9.70533 39.6728 9.14795 39.4692C9.2337 39.2655 18.5806 40.7662 27.7666 23.1765C36.0952 7.21608 31.1109 0.602539 31.1109 0.602539L40.9294 9.60639C40.9294 9.60639 45.8279 14.1083 37.3171 28.2251C29.3959 39.4692 21.8284 39.4692 21.8284 39.4692Z" fill="#1A3F70"/>
<path d="M67.3632 34.2615C66.9118 34.377 66.4709 34.4504 66.03 34.5029C65.5891 34.5554 65.1377 34.5764 64.6863 34.5764C63.3741 34.5764 62.3244 34.2195 61.5371 33.4952C60.7393 32.7813 60.3089 31.7526 60.2459 30.4089C60.0674 30.4404 59.889 30.4614 59.721 30.4719C59.5531 30.4824 59.3851 30.4929 59.2276 30.4929C58.0519 30.4929 56.9707 30.2934 56.0049 29.905C55.0391 29.5166 54.2203 28.9497 53.538 28.2044C52.8556 27.4591 52.3413 26.5458 51.9738 25.4646C51.6064 24.3833 51.428 23.1446 51.428 21.759C51.428 20.3943 51.6064 19.1661 51.9738 18.0743C52.3308 16.9931 52.8556 16.0588 53.5485 15.282C54.2098 14.5472 55.0286 13.9803 56.0154 13.5919C57.0022 13.2035 58.0624 13.004 59.2276 13.004C60.4348 13.004 61.5161 13.2035 62.4714 13.5919C63.4266 13.9908 64.2454 14.5472 64.9173 15.282C65.5996 16.0378 66.1245 16.9511 66.4919 18.0428C66.8593 19.1346 67.0378 20.3733 67.0378 21.7485C67.0378 23.806 66.6179 25.5276 65.7781 26.9342C64.9383 28.3409 63.815 29.3277 62.3979 29.884C62.4294 30.7448 62.6288 31.4062 63.0067 31.8786C63.3846 32.3509 64.067 32.5924 65.0642 32.5924C65.3687 32.5924 65.7361 32.5504 66.1665 32.4559C66.5864 32.3614 66.8908 32.2775 67.0693 32.204H67.3737V34.2615H67.3632ZM64.7073 21.759C64.7073 19.5755 64.2139 17.8959 63.2377 16.7097C62.2614 15.5234 60.9282 14.9356 59.2381 14.9356C57.527 14.9356 56.1938 15.5234 55.2176 16.7097C54.2413 17.8959 53.7584 19.5755 53.7584 21.759C53.7584 23.9634 54.2518 25.643 55.2491 26.8188C56.2463 27.984 57.569 28.5718 59.2381 28.5718C60.9072 28.5718 62.2404 27.984 63.2272 26.8188C64.2139 25.643 64.7073 23.9634 64.7073 21.759Z" fill="#141923"/>
<path d="M80.842 30.1465H78.7215V28.7503C78.0077 29.3172 77.3253 29.7476 76.664 30.052C76.0027 30.3564 75.2888 30.5034 74.5015 30.5034C73.1788 30.5034 72.1501 30.1045 71.4152 29.2857C70.6804 28.4774 70.313 27.2911 70.313 25.727V17.5495H72.4335V24.7193C72.4335 25.3596 72.465 25.9055 72.528 26.3569C72.591 26.8083 72.7169 27.1967 72.9164 27.5221C73.1158 27.858 73.3783 28.089 73.7037 28.2464C74.0291 28.3934 74.5015 28.4669 75.1104 28.4669C75.6562 28.4669 76.2546 28.3199 76.9054 28.0365C77.5563 27.753 78.1651 27.3856 78.7215 26.9447V17.539H80.842V30.1465Z" fill="#141923"/>
<path d="M93.1136 30.1465V28.8238C92.5047 29.3487 91.8644 29.7581 91.2031 30.052C90.5417 30.3459 89.8279 30.4929 89.0511 30.4929C87.5499 30.4929 86.3532 29.9155 85.4714 28.7608C84.5896 27.6061 84.1487 25.9999 84.1487 23.9424C84.1487 22.8717 84.3062 21.9269 84.6106 21.0871C84.915 20.2473 85.3244 19.544 85.8493 18.9561C86.3637 18.3893 86.9516 17.9484 87.6339 17.6439C88.3162 17.3395 89.0196 17.1925 89.7439 17.1925C90.4052 17.1925 90.9931 17.2765 91.5075 17.4445C92.0219 17.6124 92.5572 17.8434 93.1241 18.1373V17.5495H95.2446V30.1465H93.1136ZM93.1136 27.0497V19.8799C92.5467 19.628 92.0324 19.439 91.581 19.3235C91.1296 19.2081 90.6362 19.1451 90.1008 19.1451C88.9146 19.1451 87.9908 19.5545 87.3295 20.3838C86.6681 21.2131 86.3322 22.3888 86.3322 23.9004C86.3322 25.3911 86.5841 26.5353 87.0985 27.3121C87.6129 28.089 88.4317 28.4774 89.5549 28.4774C90.1533 28.4774 90.7622 28.3409 91.3815 28.0785C92.0009 27.816 92.5782 27.4696 93.1136 27.0497Z" fill="#141923"/>
<path d="M109.931 30.1465H107.81V22.9767C107.81 22.3993 107.779 21.8534 107.705 21.3496C107.642 20.8457 107.516 20.4468 107.338 20.1633C107.149 19.8484 106.876 19.6175 106.529 19.46C106.173 19.3025 105.721 19.2291 105.154 19.2291C104.577 19.2291 103.968 19.376 103.338 19.6595C102.708 19.9429 102.099 20.3103 101.522 20.7512V30.157H99.4016V17.5599H101.522V18.9561C102.183 18.4102 102.866 17.9799 103.58 17.6754C104.283 17.371 105.007 17.2135 105.753 17.2135C107.117 17.2135 108.146 17.6229 108.86 18.4417C109.574 19.2605 109.931 20.4468 109.931 21.9794V30.1465Z" fill="#141923"/>
<path d="M120.554 30.0415C120.155 30.1465 119.725 30.2304 119.252 30.3039C118.78 30.3669 118.36 30.4089 117.993 30.4089C116.712 30.4089 115.725 30.0625 115.064 29.3697C114.392 28.6768 114.056 27.5746 114.056 26.0419V19.3445H112.628V17.5599H114.056V13.9383H116.177V17.5599H120.554V19.3445H116.177V25.0867C116.177 25.748 116.187 26.2624 116.219 26.6403C116.25 27.0182 116.355 27.3646 116.534 27.6796C116.702 27.984 116.922 28.2044 117.216 28.3409C117.51 28.4774 117.951 28.5508 118.539 28.5508C118.885 28.5508 119.242 28.4984 119.62 28.3934C119.998 28.2884 120.271 28.2044 120.428 28.1414H120.544V30.0415H120.554Z" fill="#141923"/>
<path d="M131.209 30.1465V28.8238C130.6 29.3487 129.96 29.7581 129.299 30.052C128.637 30.3459 127.923 30.4929 127.147 30.4929C125.645 30.4929 124.449 29.9155 123.567 28.7608C122.685 27.6061 122.244 25.9999 122.244 23.9424C122.244 22.8717 122.402 21.9269 122.706 21.0871C123.011 20.2473 123.42 19.544 123.945 18.9561C124.459 18.3893 125.047 17.9484 125.729 17.6439C126.412 17.3395 127.115 17.1925 127.839 17.1925C128.501 17.1925 129.089 17.2765 129.603 17.4445C130.117 17.6124 130.653 17.8434 131.22 18.1373V17.5495H133.34V30.1465H131.209ZM131.209 27.0497V19.8799C130.642 19.628 130.128 19.439 129.676 19.3235C129.225 19.2081 128.732 19.1451 128.196 19.1451C127.01 19.1451 126.086 19.5545 125.425 20.3838C124.764 21.2131 124.428 22.3888 124.428 23.9004C124.428 25.3911 124.68 26.5353 125.194 27.3121C125.708 28.089 126.527 28.4774 127.65 28.4774C128.249 28.4774 128.858 28.3409 129.477 28.0785C130.107 27.816 130.684 27.4696 131.209 27.0497Z" fill="#141923"/>
<path d="M155.889 30.1465H153.768V22.9767C153.768 22.4308 153.747 21.9164 153.695 21.4125C153.642 20.9087 153.548 20.5098 153.39 20.2053C153.212 19.8799 152.97 19.6385 152.645 19.4705C152.32 19.3025 151.858 19.2186 151.249 19.2186C150.65 19.2186 150.063 19.3655 149.464 19.6595C148.866 19.9534 148.278 20.3313 147.68 20.7932C147.701 20.9716 147.722 21.1711 147.732 21.402C147.753 21.633 147.753 21.8534 147.753 22.0844V30.1465H145.633V22.9767C145.633 22.4203 145.612 21.8954 145.559 21.3915C145.507 20.8877 145.402 20.4888 145.244 20.1948C145.066 19.8694 144.824 19.628 144.499 19.4705C144.174 19.313 143.712 19.2291 143.103 19.2291C142.525 19.2291 141.948 19.376 141.36 19.6595C140.772 19.9429 140.195 20.3103 139.618 20.7512V30.157H137.497V17.5599H139.618V18.9561C140.279 18.4102 140.94 17.9799 141.602 17.6754C142.263 17.371 142.956 17.2135 143.701 17.2135C144.562 17.2135 145.286 17.392 145.885 17.7594C146.483 18.1268 146.924 18.6202 147.218 19.2605C148.079 18.5362 148.855 18.0218 149.559 17.6964C150.262 17.3815 151.018 17.2135 151.826 17.2135C153.212 17.2135 154.23 17.6334 154.891 18.4732C155.553 19.313 155.878 20.4783 155.878 21.9899V30.1465H155.889Z" fill="#141923"/>
<path d="M168.066 30.1465V28.8238C167.457 29.3487 166.817 29.7581 166.155 30.052C165.494 30.3459 164.78 30.4929 164.003 30.4929C162.502 30.4929 161.305 29.9155 160.424 28.7608C159.542 27.6061 159.101 25.9999 159.101 23.9424C159.101 22.8717 159.248 21.9269 159.563 21.0871C159.867 20.2578 160.277 19.544 160.802 18.9561C161.316 18.3893 161.904 17.9484 162.586 17.6439C163.268 17.3395 163.972 17.1925 164.696 17.1925C165.357 17.1925 165.945 17.2765 166.46 17.4445C166.974 17.6124 167.509 17.8434 168.076 18.1373V17.5495H170.197V30.1465H168.066ZM168.066 27.0497V19.8799C167.499 19.628 166.985 19.439 166.533 19.3235C166.082 19.2081 165.588 19.1451 165.053 19.1451C163.867 19.1451 162.943 19.5545 162.282 20.3838C161.62 21.2131 161.284 22.3888 161.284 23.9004C161.284 25.3911 161.536 26.5353 162.051 27.3121C162.565 28.089 163.384 28.4774 164.507 28.4774C165.106 28.4774 165.714 28.3409 166.334 28.0785C166.953 27.816 167.53 27.4696 168.066 27.0497Z" fill="#141923"/>
<path d="M180.894 30.0415C180.495 30.1465 180.064 30.2304 179.592 30.3039C179.12 30.3669 178.7 30.4089 178.332 30.4089C177.052 30.4089 176.065 30.0625 175.404 29.3697C174.742 28.6768 174.396 27.5746 174.396 26.0419V19.3445H172.968V17.5599H174.396V13.9383H176.516V17.5599H180.894V19.3445H176.516V25.0867C176.516 25.748 176.527 26.2624 176.558 26.6403C176.59 27.0182 176.695 27.3646 176.873 27.6796C177.041 27.984 177.262 28.2044 177.556 28.3409C177.85 28.4774 178.29 28.5508 178.878 28.5508C179.225 28.5508 179.582 28.4984 179.96 28.3934C180.337 28.2884 180.61 28.2044 180.768 28.1414H180.883V30.0415H180.894Z" fill="#141923"/>
<path d="M185.733 15.4395H183.34V13.2455H185.733V15.4395ZM185.597 30.1465H183.476V17.5495H185.597V30.1465Z" fill="#141923"/>
<path d="M199.107 29.3592C198.404 29.6951 197.732 29.9575 197.091 30.1465C196.451 30.3354 195.779 30.4299 195.065 30.4299C194.152 30.4299 193.323 30.2934 192.567 30.031C191.811 29.7686 191.16 29.3592 190.614 28.8238C190.069 28.2779 189.638 27.5956 189.344 26.7663C189.05 25.937 188.893 24.9712 188.893 23.869C188.893 21.8114 189.46 20.1948 190.593 19.0191C191.727 17.8434 193.218 17.2555 195.076 17.2555C195.8 17.2555 196.504 17.3605 197.196 17.5599C197.889 17.7594 198.53 18.0113 199.107 18.3053V20.6672H198.992C198.341 20.1633 197.679 19.7749 196.986 19.502C196.304 19.2291 195.632 19.0926 194.971 19.0926C193.764 19.0926 192.819 19.4915 192.126 20.2998C191.433 21.1081 191.087 22.2943 191.087 23.8585C191.087 25.3806 191.423 26.5458 192.105 27.3541C192.787 28.1729 193.743 28.5823 194.971 28.5823C195.401 28.5823 195.832 28.5299 196.283 28.4144C196.735 28.2989 197.123 28.1519 197.48 27.9735C197.784 27.816 198.078 27.6481 198.351 27.4696C198.624 27.2911 198.834 27.1442 198.992 27.0182H199.107V29.3592Z" fill="#141923"/>
<path d="M210.822 26.5143C210.822 27.6691 210.35 28.6033 209.395 29.3487C208.439 30.0835 207.148 30.4509 205.5 30.4509C204.566 30.4509 203.715 30.3354 202.939 30.115C202.162 29.8945 201.511 29.6531 200.986 29.3906V27.0182H201.102C201.773 27.5221 202.519 27.921 203.337 28.2149C204.156 28.5089 204.944 28.6558 205.699 28.6558C206.634 28.6558 207.358 28.5089 207.883 28.2044C208.408 27.9 208.67 27.4276 208.67 26.7873C208.67 26.2939 208.523 25.916 208.24 25.664C207.956 25.4121 207.411 25.1916 206.592 25.0132C206.287 24.9502 205.899 24.8662 205.416 24.7717C204.933 24.6773 204.492 24.5828 204.093 24.4778C202.991 24.1839 202.204 23.7535 201.742 23.1866C201.28 22.6198 201.049 21.9164 201.049 21.0976C201.049 20.5832 201.154 20.0898 201.374 19.628C201.595 19.1661 201.91 18.7567 202.351 18.3997C202.771 18.0428 203.306 17.7699 203.957 17.5599C204.608 17.35 205.332 17.2555 206.14 17.2555C206.896 17.2555 207.652 17.35 208.429 17.5285C209.195 17.7069 209.835 17.9379 210.35 18.2003V20.4678H210.234C209.688 20.0689 209.038 19.7329 208.261 19.46C207.484 19.1871 206.728 19.0506 205.983 19.0506C205.206 19.0506 204.555 19.1976 204.02 19.4915C203.484 19.7854 203.222 20.2263 203.222 20.8142C203.222 21.3286 203.379 21.7275 203.705 21.9899C204.02 22.2523 204.534 22.4728 205.238 22.6302C205.626 22.7247 206.067 22.8087 206.55 22.9032C207.033 22.9977 207.442 23.0816 207.757 23.1551C208.744 23.3861 209.5 23.764 210.035 24.3203C210.56 24.8662 210.822 25.601 210.822 26.5143Z" fill="#141923"/>
</svg>
