<svg fill="none" xmlns="http://www.w3.org/2000/svg" viewBox="0 0 441 370">
	<path d="M220.4 369.45c121.71 0 220.39-34.93 220.39-78.02 0-43.1-98.68-78.03-220.4-78.03S0 248.34 0 291.43s98.67 78.02 220.4 78.02Z" fill="url(#a)" />
	<path d="M239.9 196.86s-.13 7.5 0 8.25c.12.76-2.94 5.16-4.2 4.96-1.25-.2-3.76-.6-4.12-1.02-.36-.42-.2-1.4-.07-2.3.13-.9 1.06-9.08 1.06-9.5 0-.41 5.94-1.54 7.33-.4Z" fill="#FFD3BC" />
	<path d="M235.04 204.69c-1.57.84-2.45 3.42-2.67 3.45-.22.03-.64-.03-.64-.28 0-.26.07-1.12-.22-1.12-.29 0-.6 1.4-.67 3.44-.06 2.04-.78 6.9 0 7.52.5.39 5.04 2.77 5.16 3.09.13.32-.1 2.55.29 2.9.38.35 1.27 1.2 1.97 1.24.7.03 4.75.45 6.66 0 1.92-.45 4.34-1.37 4.4-1.62.07-.26-.47-5.68-1.08-6.34-.6-.67-4.97-6.66-5.32-7.2a6.16 6.16 0 0 1-.6-2.62c0-.76-.7-2.43-1.99-2.83-1.34-.42-4.11-.27-5.29.37Z" fill="#7182A6" />
	<path d="M194.13 201.2s0 4.37-.12 5.13c-.13.75 2.94 5.15 4.2 4.95 1.25-.19 3.75-.6 4.11-1.02.37-.42.2-1.4.08-2.3-.13-.9-.94-5.95-.94-6.36 0-.43-5.93-1.54-7.33-.4Z" fill="#FFD3BC" />
	<path d="M198.18 104.71c-1.78 6.45-5.13 28.55-5.13 39.3 0 10.74-1.08 38.12-1.08 42.28 0 4.16-.44 14.48.63 15.02 1.07.54 3.59 2.15 6.99 1.62 3.4-.54 4.3-2.7 4.4-4.66.08-1.97.9-16.14 1.7-21.6.8-5.47 3.67-16.01 5.55-22.8 1.88-6.78 6.28-20.41 7.44-20.36 1.16.05 8.42 29.93 9.03 31.62.6 1.7 1.75 25.75 1.83 27.77.07 2.02 0 3.96 1.27 4.78 1.26.83 5.16 2.85 7.17 3 2.02.14 3.37-3.07 3.74-4.04.37-.98 1.04-33.15.8-41.98-.25-8.83.46-25.29.05-30.66-.41-5.36-1.72-16.86-2.56-19.29-.82-2.42-41.83 0-41.83 0Z" fill="#003C71" />
	<path d="M185.65 29.73c1.69-1.88 9.59-10.79 11.16-11.1 1.57-.32 5.38-1 6.23-1.88.85-.88 4.45-12.18 3.02-14.24-1.42-2.05-6.92-1.47-8.59 2.03-1.66 3.5-1.58 5.33-4.33 7.75s-14.73 12.2-15.84 13.2c-1.11.98 1.1 5.8 2.85 6.63 1.75.83 5.5-2.4 5.5-2.4Z" fill="url(#b)" />
	<path d="M207.48 32.44c-4.04.85-10.75 1.57-12.96 2.28-2.21.72-10.94 3.78-10.87 2.48.06-1.3 4.03-7.03 3.32-7.62-.72-.59-5.02-1.3-5.74-2.22-.71-.91-1.7-3.06-2.66-2.8-.98.26-12.3 10.81-11.53 14.85 1.82 9.53 28.6 16.46 29.2 20.61.61 4.15-2.07 43.97-.6 45.43 1.46 1.47 16.97 7.1 24.78 7.58 7.82.48 21.53-2.24 22.28-4.3.75-2.05-3.82-41.61-3.29-41.61.54 0 .68 12.45 6.64 15.67 3.93 2.13 9.34-.07 10.37-1.24 1.03-1.17-3.7-17.73-5.83-23.31-2.15-5.58-4.2-17.12-9.03-21.21-4.84-4.1-11.67-3.4-14.02-4.36-2.35-.97-10.24-.27-12.23-.48-1.99-.21-7.83.25-7.83.25Z" fill="#017AEE" />
	<path d="M257.91 74.07s-6.96 2.1-7.5 2.83c-.54.72-1.51 3.62 0 4.83 1.5 1.2 3.16 2.1 4.95.71 1.8-1.39 3.42-3.26 4.45-3.5 1.04-.24 4.13.2 5.43-.3 1.3-.51 3.76-10.36 2.77-10.95-1-.6-10.1 6.38-10.1 6.38Z" fill="url(#c)" />
	<path d="M207.51 31.11c-2.24-.46-6.58-4.7-6.98-9.01-.38-4.2-3.47-16 7.27-20.43 10.09-4.15 20.46.12 21.96 5.24 1.4 4.79-10.45 5-14.79 8.12-4.33 3.11-4.63 5.18-5.71 4.69-1.08-.5-1.75 11.4-1.75 11.4Z" fill="#003C71" />
	<path d="M207.33 22.7c-.14 1.93-.63 11.23.18 12.6.74 1.26 2.06 4.92 7.2 4.76 5.16-.16 8.5-5.32 8.79-5.92.28-.6-.32-8.06-.32-9.3 0-1.25-6.93-4.2-9.7-4.11-2.79.07-6.01.17-6.15 1.97Z" fill="url(#d)" />
	<path d="M207.8 22.73c.59-.01-.1 3.53.95 4.7 1.06 1.15 5.64 7.2 10.49 6.6 4.2-.51 3.59-4.12 4.2-7.1.54-2.7 2.29-2.93 2.9-9.99.23-2.73 1.53-7-.84-7.8-2.38-.78-11.27-2.89-13.48 0-2.21 2.9-2.42 9.86-3.58 8.96-1.16-.9-3.58-5.27-5-2.9-1.43 2.37 1.26 7.62 4.37 7.53Z" fill="#F2DAD4" />
	<path d="m245.25 58.81-14.12 17.85a1.4 1.4 0 0 0 1.12 2.27l26.1-.44c.42 0 .83-.22 1.1-.56l13.32-17.82c.64-.84.03-2.05-1.02-2.04l-25.42.21c-.42 0-.82.2-1.09.53Z" fill="#003C71" />
	<path d="M267.57 66c-1.38.13-3.37.9-3.37 1.62 0 .72 1.6.92 2.04.99.44.06 1.02.2.85.42-.16.22-.5 1.33-1.38 1.14-.88-.2-4.74-.25-5.5-.25-.74 0-1.62.52-1.68 1.07-.05.56-.22.67-.66.7-.44.03-1.24.44-1.24 1.15 0 .72 1.77 1.37 1.77 1.62 0 .26 3.48 2.38 4.17 2.78.68.4 1.95 1.4 2.67 1.4s1.92-.69 2.01-1.67c.09-1 1.5-1.7 1.52-2.2.02-.48-.44-.84-.4-1.14.06-.3 1.3-.74 1.3-1.51 0-.78-.48-1.81-.56-2.14-.06-.32-.36-1.02-.06-1.11.28-.1 1.29-1.03 1.1-1.89-.17-.86-1.95-1.05-2.58-.99Z" fill="#FFD3BC" />
	<path d="M198.87 205.9c1.57.84 2.45 3.42 2.68 3.45.22.03.63-.03.63-.29 0-.25-.06-1.1.22-1.1.29 0 .61 1.39.67 3.43.06 2.04.79 6.9 0 7.52-.5.38-5.03 2.77-5.16 3.09-.13.32.1 2.54-.29 2.9-.38.35-1.27 1.2-1.97 1.24-.7.03-4.75.45-6.66 0-1.91-.45-4.33-1.37-4.4-1.63-.06-.25.48-5.67 1.08-6.33.61-.67 4.97-6.66 5.33-7.2.35-.55.6-1.85.6-2.62 0-.76.7-2.43 1.98-2.83 1.34-.42 4.11-.27 5.3.37Z" fill="#7182A6" />
	<defs>
		<linearGradient id="a" x1="220.39" y1="178.04" x2="220.39" y2="300.56" gradientUnits="userSpaceOnUse">
			<stop stop-color="#BCC4D8" />
			<stop offset=".48" stop-color="#F8FAFF" />
			<stop offset="1" stop-color="#fff" />
		</linearGradient>
		<linearGradient id="b" x1="210.93" y1="18.89" x2="189.35" y2="16.49" gradientUnits="userSpaceOnUse">
			<stop stop-color="#F2BFAD" />
			<stop offset="1" stop-color="#F2DAD4" />
		</linearGradient>
		<linearGradient id="c" x1="259.1" y1="77.28" x2="260.2" y2="95.89" gradientUnits="userSpaceOnUse">
			<stop stop-color="#F2BFAD" />
			<stop offset=".7" stop-color="#F2DAD4" />
		</linearGradient>
		<linearGradient id="d" x1="213.72" y1="26.64" x2="220.85" y2="41.53" gradientUnits="userSpaceOnUse">
			<stop stop-color="#F2BFAD" />
			<stop offset="1" stop-color="#F2DAD4" />
		</linearGradient>
	</defs>
</svg>
