<svg width="16" height="17" viewBox="0 0 16 17" fill="none" xmlns="http://www.w3.org/2000/svg">
    <path fill-rule="evenodd" clip-rule="evenodd" d="M4.02835 1.03672C3.9166 1.05961 3.73132 1.11264 3.61663 1.15461C3.50194 1.19654 3.305 1.29536 3.17899 1.37416C3.05298 1.45296 2.8597 1.6064 2.74948 1.7151C2.63926 1.82382 2.48177 2.01538 2.39956 2.14081C2.31731 2.26623 2.22006 2.44895 2.18346 2.54685C2.14682 2.64476 2.09337 2.80246 2.06464 2.8973C2.01684 3.05496 2.01153 3.52292 2.00265 8.35443C1.99546 12.2618 2.00243 13.7002 2.02932 13.8736C2.04932 14.0026 2.10609 14.219 2.15542 14.3546C2.20478 14.4901 2.30793 14.7018 2.38465 14.8249C2.46136 14.948 2.61994 15.1443 2.73701 15.261C2.85411 15.3777 3.04854 15.5349 3.16908 15.6102C3.28965 15.6855 3.48659 15.7841 3.60672 15.8295C3.72688 15.8748 3.92838 15.9317 4.05455 15.9559C4.24386 15.9923 4.93267 16 7.99835 16C11.0729 16 11.7523 15.9924 11.9422 15.9557C12.0683 15.9314 12.2751 15.8729 12.4017 15.8257C12.5283 15.7785 12.7323 15.6741 12.855 15.5936C12.9777 15.5131 13.167 15.357 13.2757 15.2467C13.3843 15.1365 13.5349 14.9476 13.6103 14.827C13.6857 14.7064 13.7845 14.5094 13.8298 14.3892C13.8751 14.269 13.932 14.0674 13.9562 13.9412C13.9927 13.7512 14.0002 13.0205 14 9.68848C13.9999 7.09436 13.9884 5.59298 13.9677 5.46193C13.9501 5.35014 13.9008 5.15251 13.8581 5.02277C13.8155 4.89303 13.7156 4.67492 13.6363 4.53808C13.5106 4.32144 13.3197 4.11615 12.1596 2.94971C11.4269 2.21295 10.7407 1.54774 10.6348 1.47147C10.5289 1.3952 10.339 1.28557 10.2128 1.22787C10.0866 1.17018 9.89192 1.09701 9.78017 1.0653C9.59073 1.01155 9.39601 1.00723 6.90426 1.00142C4.78384 0.996444 4.18956 1.00373 4.02835 1.03672ZM9.40114 2.01048L9.49883 2.03002V3.06941C9.49883 3.64106 9.51286 4.18457 9.53006 4.27722C9.54722 4.36985 9.61055 4.54618 9.67079 4.66907C9.74878 4.82811 9.8364 4.94441 9.97501 5.07277C10.0821 5.17193 10.2544 5.29273 10.358 5.34119C10.4616 5.38969 10.622 5.44373 10.7146 5.46127C10.8078 5.47897 11.3458 5.4932 11.9218 5.4932H12.9609L12.9804 5.59092C12.9911 5.64467 12.9999 7.48508 12.9999 9.68075C12.9999 13.1185 12.9935 13.6977 12.9533 13.852C12.9277 13.9504 12.8698 14.1039 12.8246 14.193C12.7795 14.282 12.6663 14.435 12.573 14.5327C12.4798 14.6305 12.3221 14.7539 12.2225 14.807C12.1229 14.8601 11.9587 14.9251 11.8576 14.9515C11.6977 14.9932 11.1979 14.9994 7.99835 14.9994C4.79878 14.9994 4.29903 14.9932 4.13907 14.9515C4.03798 14.9251 3.8738 14.8601 3.77424 14.807C3.67465 14.7539 3.51688 14.6305 3.42366 14.5327C3.33041 14.435 3.21719 14.282 3.17208 14.193C3.12694 14.1039 3.06905 13.9504 3.04342 13.852C3.003 13.6967 2.99678 12.9838 2.99678 8.49514C2.99678 4.00645 3.003 3.29359 3.04342 3.13833C3.06905 3.03986 3.12694 2.88639 3.17208 2.7973C3.21719 2.70824 3.33041 2.55533 3.42366 2.45755C3.51688 2.35976 3.67508 2.23609 3.77521 2.18271C3.8753 2.12933 4.03301 2.06526 4.12563 2.04037C4.26577 2.00266 4.71472 1.99472 6.79876 1.993C8.17635 1.99187 9.3474 1.99972 9.40114 2.01048ZM11.6326 4.48605C11.2757 4.49108 10.9384 4.48702 10.883 4.47701C10.8276 4.46697 10.7378 4.42132 10.6834 4.37551C10.6289 4.3297 10.5652 4.24627 10.5418 4.19014C10.5101 4.11427 10.4991 3.90905 10.4991 3.39149V2.69492L11.3903 3.58593L12.2815 4.47692L11.6326 4.48605ZM7.79516 6.538C7.74359 6.56092 7.67066 6.61314 7.63314 6.65404C7.5956 6.69491 7.54987 6.76799 7.53155 6.8164C7.51111 6.87034 7.4982 7.21187 7.4982 7.69834V8.49227L6.6564 8.50152C5.86274 8.51025 5.80966 8.51447 5.72836 8.57526C5.6809 8.61072 5.61507 8.67595 5.58203 8.72022C5.54899 8.76447 5.51498 8.86254 5.50647 8.93812C5.49691 9.02292 5.50891 9.11848 5.53786 9.18772C5.56362 9.24944 5.63783 9.34047 5.70275 9.39003L5.82079 9.48015L6.65949 9.48941L7.4982 9.49867V10.2956C7.4982 10.9063 7.50839 11.117 7.54177 11.1969C7.56575 11.2543 7.63849 11.3418 7.70345 11.3913C7.80198 11.4665 7.85137 11.4815 8.00145 11.4815C8.13437 11.4815 8.20386 11.4646 8.26766 11.417C8.31514 11.3815 8.38297 11.3137 8.41842 11.2662C8.47919 11.1849 8.48341 11.1318 8.49213 10.3393L8.50136 9.49864L9.34175 9.48941C10.1339 9.48069 10.187 9.47646 10.2684 9.41568C10.3158 9.38021 10.3836 9.31236 10.4191 9.26486C10.4667 9.20104 10.4835 9.13152 10.4835 8.99856C10.4835 8.84843 10.4686 8.79903 10.3934 8.70046C10.3439 8.63548 10.2564 8.56272 10.199 8.53873C10.1191 8.50534 9.90858 8.49514 9.29808 8.49514H8.50139L8.49213 7.65616L8.48288 6.81718L8.39279 6.6991C8.34324 6.63416 8.25578 6.56142 8.19842 6.53744C8.14106 6.51345 8.04796 6.49441 7.99154 6.49507C7.93512 6.49575 7.84674 6.51505 7.79516 6.538Z" fill="currentColor" stroke="currentColor" stroke-width="0.2" />
</svg>
    