<svg width="16" height="16" viewBox="0 0 500 500" fill="currentColor" xmlns="http://www.w3.org/2000/svg">
    <path fill-rule="evenodd" clip-rule="evenodd" d="M123.13 3.40857C108.375 6.4128 94.7336 13.428 83.707 23.6828C72.6804 33.9376 64.6954 47.0346 60.6301 61.5336C60.6301 67.4711 60.6301 82.1586 60.6301 233.096C60.6301 355.284 60.6301 400.284 60.6301 405.596C63.1648 421.549 70.5062 436.349 81.674 448.019C92.8418 459.689 107.304 467.675 123.13 470.909C129.068 470.909 150.63 470.909 248.13 470.909C345.63 470.909 365.318 470.909 371.255 470.909C386.661 467.784 400.805 460.189 411.92 449.074C423.036 437.958 430.63 423.814 433.755 408.409C433.755 402.471 433.755 379.659 433.755 275.596C433.755 194.346 433.755 147.471 433.755 143.409C405.726 85.1259 360.305 36.9751 303.755 5.59607C273.874 2.27584 243.762 1.54395 213.755 3.40857C147.505 3.40857 129.068 3.40857 123.13 3.40857ZM291.88 34.6586H295.005C295.005 64.0336 286.255 108.096 310.005 128.409C333.755 148.721 372.505 141.534 403.755 141.534V144.659C403.755 144.659 403.755 204.034 403.755 272.471C403.755 379.971 403.755 397.471 402.193 402.784C400.72 411.621 396.81 419.872 390.903 426.608C384.995 433.343 377.325 438.296 368.755 440.909C363.755 440.909 348.13 440.909 248.13 440.909C148.13 440.909 132.505 440.909 127.505 440.909C118.8 438.851 110.846 434.392 104.549 428.039C98.251 421.686 93.8619 413.694 91.8801 404.971C91.8801 400.284 91.8801 378.409 91.8801 237.784C91.8801 97.1586 91.8801 74.9711 91.8801 70.2836C93.9538 61.6879 98.3409 53.8239 104.566 47.544C110.79 41.2641 118.616 36.8079 127.193 34.6586C154.979 32.953 182.844 32.953 210.63 34.6586C253.755 34.6586 290.318 34.6586 291.88 34.6586ZM331.88 109.034C318.443 97.1586 326.255 71.2211 326.255 56.2211L381.88 112.159C368.13 112.159 341.88 118.096 331.88 109.034Z" />
    <path fill-rule="evenodd" clip-rule="evenodd" d="M123.13 3.40857C108.375 6.4128 94.7336 13.428 83.707 23.6828C72.6804 33.9376 64.6954 47.0346 60.6301 61.5336C60.6301 67.4711 60.6301 82.1586 60.6301 233.096C60.6301 355.284 60.6301 400.284 60.6301 405.596C63.1648 421.549 70.5062 436.349 81.674 448.019C92.8418 459.689 107.304 467.675 123.13 470.909C129.068 470.909 150.63 470.909 248.13 470.909C345.63 470.909 365.318 470.909 371.255 470.909C386.661 467.784 400.805 460.189 411.92 449.074C423.036 437.958 430.63 423.814 433.755 408.409C433.755 402.471 433.755 379.659 433.755 275.596C433.755 194.346 433.755 147.471 433.755 143.409C405.726 85.1259 360.305 36.9751 303.755 5.59607C273.874 2.27584 243.762 1.54395 213.755 3.40857C147.505 3.40857 129.068 3.40857 123.13 3.40857ZM291.88 34.6586H295.005C295.005 64.0336 286.255 108.096 310.005 128.409C333.755 148.721 372.505 141.534 403.755 141.534V144.659C403.755 144.659 403.755 204.034 403.755 272.471C403.755 379.971 403.755 397.471 402.193 402.784C400.72 411.621 396.81 419.872 390.903 426.608C384.995 433.343 377.325 438.296 368.755 440.909C363.755 440.909 348.13 440.909 248.13 440.909C148.13 440.909 132.505 440.909 127.505 440.909C118.8 438.851 110.846 434.392 104.549 428.039C98.251 421.686 93.8619 413.694 91.8801 404.971C91.8801 400.284 91.8801 378.409 91.8801 237.784C91.8801 97.1586 91.8801 74.9711 91.8801 70.2836C93.9538 61.6879 98.3409 53.8239 104.566 47.544C110.79 41.2641 118.616 36.8079 127.193 34.6586C154.979 32.953 182.844 32.953 210.63 34.6586C253.755 34.6586 290.318 34.6586 291.88 34.6586ZM331.88 109.034C318.443 97.1586 326.255 71.2211 326.255 56.2211L381.88 112.159C368.13 112.159 341.88 118.096 331.88 109.034Z" />
    <path d="M248.13 475.284C151.255 475.284 130.318 475.284 123.13 475.284C106.584 471.757 91.5156 463.249 79.9507 450.902C68.3859 438.555 60.8799 422.962 58.4426 406.221C58.4426 400.596 58.4426 356.846 58.4426 233.096C57.8176 78.4086 58.1301 65.9086 60.6301 61.8461C64.6009 47.0711 72.5143 33.6539 83.5235 23.0301C94.5326 12.4063 108.223 4.97574 123.13 1.53357C183.415 1.53357 244.741 1.5338 304.693 3.40857C362.385 34.9185 408.812 83.6395 437.505 142.784C437.505 148.721 437.505 218.409 437.505 275.909C437.505 381.846 437.505 403.096 437.505 409.346C434.237 425.192 426.398 439.733 414.957 451.173C403.517 462.614 388.976 470.453 373.13 473.721C365.63 474.971 344.693 475.284 248.13 475.284ZM124.693 7.47107C110.651 10.562 97.7233 17.4382 87.3117 27.354C76.9001 37.2698 69.4019 49.8467 65.6301 63.7211C65.6301 68.0961 65.6301 89.3461 63.7551 233.096C63.7551 353.409 63.7551 399.971 63.7551 405.284C66.315 420.626 73.4875 434.826 84.3178 445.991C95.148 457.156 109.122 464.758 124.38 467.784C130.005 467.784 153.13 467.784 247.193 467.784C341.255 467.784 364.068 467.784 369.693 467.784C384.642 464.765 398.368 457.402 409.152 446.618C419.936 435.834 427.299 422.108 430.318 407.159C430.318 401.534 430.318 379.346 430.318 274.971C430.318 158.409 430.318 144.659 430.318 143.409C402.348 86.6195 357.917 39.5749 302.818 8.40857C273.215 5.62376 243.449 4.9971 213.755 6.53357C148.443 6.53357 129.38 6.53357 124.693 7.47107ZM249.693 444.971C147.193 444.971 133.755 444.971 128.13 444.971C119.07 442.442 110.888 437.453 104.489 430.559C98.0908 423.664 93.7265 415.132 91.8801 405.909C91.8801 400.596 91.8801 379.971 91.8801 237.784C91.8801 95.5961 91.8801 74.6586 91.8801 69.3461C93.9942 60.8157 98.2663 52.9724 104.286 46.5695C110.306 40.1666 117.871 35.4192 126.255 32.7836C154.354 31.0561 182.532 31.0561 210.63 32.7836C232.505 32.7836 289.693 32.7836 292.505 32.7836L298.13 34.6586C298.13 40.5961 298.13 47.1586 298.13 54.0336C298.13 80.9086 295.005 111.221 312.505 127.471C333.831 140.765 359.412 145.456 384.068 140.596H404.38V146.221C404.38 149.659 404.38 273.409 404.38 274.659C404.38 383.409 404.38 399.659 404.38 405.909C402.044 414.682 397.433 422.684 391.013 429.104C384.593 435.524 376.591 440.135 367.818 442.471C364.068 443.721 350.318 444.034 248.13 444.034L249.693 444.971ZM127.818 38.7211C120.347 40.774 113.538 44.734 108.059 50.2126C102.581 55.6912 98.6205 62.5001 96.5676 69.9711C96.5676 74.6586 96.5676 99.3461 96.5676 236.846C96.5676 374.346 96.5676 398.721 96.5676 403.409C98.5921 410.894 102.543 417.718 108.026 423.201C113.509 428.684 122.695 434.197 130.181 436.221C134.868 436.221 149.38 436.221 247.818 436.221C346.255 436.221 363.13 436.221 367.505 434.659C374.962 432.578 381.756 428.608 387.231 423.134C392.705 417.66 396.674 410.866 398.755 403.409C398.755 398.721 398.755 378.409 398.755 273.721C398.755 200.909 398.755 148.721 398.755 146.221C365.765 146.221 330.005 152.686 305.943 131.534C287.505 111.221 289.38 70.6302 289.38 36.5336C258.351 36.5336 147.31 37.6268 127.818 38.7211ZM248.13 334.034C244.534 334.169 240.979 333.231 237.918 331.338C234.857 329.446 232.429 326.876 230.943 323.598C229.38 320.154 229.38 304.226 229.38 293.721V272.159H206.255C206.255 272.159 185.318 272.159 179.693 272.159C175.466 270.918 171.85 268.155 169.541 264.403C167.233 260.652 166.396 256.178 167.193 251.846C167.474 249.146 168.349 246.542 169.753 244.219C171.158 241.896 173.058 239.912 175.318 238.409C178.755 235.596 180.63 235.596 206.568 235.284H229.38C229.38 218.253 227.861 199.912 229.38 182.944C230.748 179.167 233.331 177.04 236.725 174.891C240.119 172.741 244.131 171.78 248.13 172.159C251.767 172.376 255.286 173.525 258.351 175.496C261.416 177.466 263.555 180.284 264.785 184.034C266.015 187.784 265.63 234.034 265.63 234.034H287.505C297.256 234.034 311.538 233.209 318.13 234.659C322.055 236 324.141 238.044 326.309 241.581C328.477 245.119 329.342 249.302 328.755 253.409C328.846 256.456 328.18 259.478 326.817 262.205C325.453 264.932 323.435 267.278 320.943 269.034C317.505 271.534 315.63 271.534 289.693 271.846H265.639V292.928C265.639 318.24 266.372 320.596 264.068 326.221C262.283 328.759 259.887 330.806 257.101 332.171C254.315 333.537 251.229 334.178 248.13 334.034ZM352.505 117.159C344.543 117.855 336.587 115.756 330.005 111.221C318.443 101.534 320.63 83.4086 322.193 69.0336C322.193 64.3461 322.193 59.9711 322.193 56.2211V48.7211L388.443 114.971H369.38C363.797 115.991 358.164 116.721 352.505 117.159ZM329.068 63.4086C328.104 76.4803 325.165 99.2111 334.693 106.534C338.759 109.659 362.919 109.971 375.318 109.971L329.068 63.4086Z" />
</svg>
    