<svg width="16" height="16" viewBox="0 0 16 16">
	<path d="M7.31079 4.15335C7.53867 4.11842 7.7689 4.10104 7.99945 4.10137C10.0654 4.10137 12.008 5.58914 13.1384 7.99945C12.9655 8.36625 12.7702 8.72208 12.5537 9.06492C12.4849 9.17134 12.4488 9.29555 12.4497 9.42224C12.4512 9.56403 12.499 9.70144 12.5858 9.81353C12.6727 9.92561 12.7938 10.0062 12.9307 10.043C13.0677 10.0798 13.2129 10.0708 13.3442 10.0174C13.4756 9.96396 13.5858 9.86903 13.6581 9.74708C13.9608 9.27147 14.2238 8.77169 14.4443 8.25282C14.4791 8.17175 14.4971 8.08444 14.4971 7.9962C14.4971 7.90796 14.4791 7.82064 14.4443 7.73957C13.1319 4.69258 10.6631 2.80202 7.99945 2.80202C7.69453 2.80048 7.3901 2.82657 7.0899 2.87998C7.00458 2.89448 6.92295 2.92565 6.84968 2.9717C6.77641 3.01775 6.71292 3.07778 6.66285 3.14836C6.61278 3.21894 6.5771 3.2987 6.55785 3.38307C6.5386 3.46745 6.53616 3.55478 6.55066 3.6401C6.56517 3.72542 6.59633 3.80704 6.64238 3.88032C6.68843 3.95359 6.74846 4.01707 6.81905 4.06714C6.88963 4.11722 6.96938 4.1529 7.05376 4.17215C7.13813 4.1914 7.22547 4.19384 7.31079 4.17933V4.15335ZM2.61361 1.69107C2.55303 1.63049 2.48112 1.58244 2.40198 1.54966C2.32283 1.51687 2.238 1.5 2.15234 1.5C2.06667 1.5 1.98184 1.51687 1.9027 1.54966C1.82355 1.58244 1.75164 1.63049 1.69107 1.69107C1.56873 1.8134 1.5 1.97933 1.5 2.15234C1.5 2.32535 1.56873 2.49127 1.69107 2.61361L3.70507 4.62112C2.78615 5.50567 2.05479 6.56625 1.55463 7.73957C1.51886 7.82154 1.50039 7.91001 1.50039 7.99945C1.50039 8.08888 1.51886 8.17735 1.55463 8.25932C2.86698 11.3063 5.33576 13.1969 7.99945 13.1969C9.16699 13.1888 10.307 12.8412 11.2803 12.1964L13.3853 14.3078C13.4457 14.3687 13.5175 14.4171 13.5967 14.45C13.6759 14.483 13.7608 14.5 13.8466 14.5C13.9323 14.5 14.0172 14.483 14.0964 14.45C14.1756 14.4171 14.2474 14.3687 14.3078 14.3078C14.3687 14.2474 14.4171 14.1756 14.45 14.0964C14.483 14.0172 14.5 13.9323 14.5 13.8466C14.5 13.7608 14.483 13.6759 14.45 13.5967C14.4171 13.5175 14.3687 13.4457 14.3078 13.3853L2.61361 1.69107ZM6.74557 7.66161L8.33728 9.25333C8.22747 9.28481 8.11367 9.30013 7.99945 9.2988C7.65483 9.2988 7.32434 9.16191 7.08066 8.91823C6.83698 8.67455 6.70009 8.34406 6.70009 7.99945C6.69876 7.88522 6.71408 7.77142 6.74557 7.66161ZM7.99945 11.8975C5.93347 11.8975 3.99093 10.4098 2.86698 7.99945C3.28673 7.07284 3.88248 6.23659 4.62112 5.53716L5.77105 6.70009C5.50094 7.19306 5.39796 7.76033 5.47756 8.31679C5.55716 8.87324 5.81504 9.38889 6.21252 9.78637C6.61 10.1839 7.12565 10.4417 7.68211 10.5213C8.23856 10.6009 8.80583 10.498 9.2988 10.2278L10.3318 11.2478C9.62435 11.6642 8.82027 11.8882 7.99945 11.8975Z" />
</svg>
