<svg width="16" height="16" viewBox="0 0 16 16">
	<path d="M14.4458 7.75C13.1332 4.81875 10.6641 3 8 3C5.33593 3 2.86679 4.81875 1.55425 7.75C1.51847 7.82885 1.5 7.91396 1.5 8C1.5 8.08604 1.51847 8.17115 1.55425 8.25C2.86679 11.1813 5.33593 13 8 13C10.6641 13 13.1332 11.1813 14.4458 8.25C14.4815 8.17115 14.5 8.08604 14.5 8C14.5 7.91396 14.4815 7.82885 14.4458 7.75ZM8 11.75C5.94022 11.75 3.9909 10.3187 2.86679 8C3.9909 5.68125 5.94022 4.25 8 4.25C10.0598 4.25 12.0091 5.68125 13.1332 8C12.0091 10.3187 10.0598 11.75 8 11.75ZM8 5.5C7.48595 5.5 6.98344 5.64662 6.55602 5.92133C6.1286 6.19603 5.79547 6.58648 5.59875 7.04329C5.40203 7.50011 5.35056 8.00277 5.45085 8.48773C5.55113 8.97268 5.79867 9.41814 6.16216 9.76777C6.52565 10.1174 6.98877 10.3555 7.49294 10.452C7.99712 10.5484 8.51971 10.4989 8.99463 10.3097C9.46955 10.1205 9.87548 9.80005 10.1611 9.38893C10.4467 8.9778 10.5991 8.49445 10.5991 8C10.5991 7.33696 10.3253 6.70107 9.83784 6.23223C9.35041 5.76339 8.68932 5.5 8 5.5ZM8 9.25C7.74297 9.25 7.49172 9.17669 7.27801 9.03934C7.0643 8.90198 6.89773 8.70676 6.79938 8.47835C6.70102 8.24995 6.67528 7.99861 6.72542 7.75614C6.77557 7.51366 6.89934 7.29093 7.08108 7.11612C7.26283 6.9413 7.49438 6.82225 7.74647 6.77402C7.99856 6.72579 8.25985 6.75054 8.49731 6.84515C8.73478 6.93976 8.93774 7.09998 9.08053 7.30554C9.22333 7.5111 9.29955 7.75277 9.29955 8C9.29955 8.33152 9.16263 8.64946 8.91892 8.88388C8.67521 9.1183 8.34466 9.25 8 9.25Z" />
</svg>
