<svg width="16" height="16" viewBox="0 0 16 16" fill="none" xmlns="http://www.w3.org/2000/svg">
	<path d="M6.81079 4.15335C7.03867 4.11842 7.2689 4.10104 7.49945 4.10137C9.56542 4.10137 11.508 5.58914 12.6384 7.99945C12.4655 8.36625 12.2702 8.72208 12.0537 9.06492C11.9849 9.17134 11.9488 9.29555 11.9497 9.42224C11.9512 9.56403 11.999 9.70144 12.0858 9.81353C12.1727 9.92561 12.2938 10.0062 12.4307 10.043C12.5677 10.0798 12.7129 10.0708 12.8442 10.0174C12.9756 9.96396 13.0858 9.86903 13.1581 9.74708C13.4608 9.27147 13.7238 8.77169 13.9443 8.25282C13.9791 8.17175 13.9971 8.08444 13.9971 7.9962C13.9971 7.90796 13.9791 7.82064 13.9443 7.73957C12.6319 4.69258 10.1631 2.80202 7.49945 2.80202C7.19453 2.80048 6.8901 2.82657 6.5899 2.87998C6.50458 2.89448 6.42295 2.92565 6.34968 2.9717C6.27641 3.01775 6.21292 3.07778 6.16285 3.14836C6.11278 3.21894 6.0771 3.2987 6.05785 3.38307C6.0386 3.46745 6.03616 3.55478 6.05066 3.6401C6.06517 3.72542 6.09633 3.80704 6.14238 3.88032C6.18843 3.95359 6.24846 4.01707 6.31905 4.06714C6.38963 4.11722 6.46938 4.1529 6.55376 4.17215C6.63813 4.1914 6.72547 4.19384 6.81079 4.17933V4.15335ZM2.11361 1.69107C2.05303 1.63049 1.98112 1.58244 1.90198 1.54966C1.82283 1.51687 1.738 1.5 1.65234 1.5C1.56667 1.5 1.48184 1.51687 1.4027 1.54966C1.32355 1.58244 1.25164 1.63049 1.19107 1.69107C1.06873 1.8134 1 1.97933 1 2.15234C1 2.32535 1.06873 2.49127 1.19107 2.61361L3.20507 4.62112C2.28615 5.50567 1.55479 6.56625 1.05463 7.73957C1.01886 7.82154 1.00039 7.91001 1.00039 7.99945C1.00039 8.08888 1.01886 8.17735 1.05463 8.25932C2.36698 11.3063 4.83576 13.1969 7.49945 13.1969C8.66699 13.1888 9.80696 12.8412 10.7803 12.1964L12.8853 14.3078C12.9457 14.3687 13.0175 14.4171 13.0967 14.45C13.1759 14.483 13.2608 14.5 13.3466 14.5C13.4323 14.5 13.5172 14.483 13.5964 14.45C13.6756 14.4171 13.7474 14.3687 13.8078 14.3078C13.8687 14.2474 13.9171 14.1756 13.95 14.0964C13.983 14.0172 14 13.9323 14 13.8466C14 13.7608 13.983 13.6759 13.95 13.5967C13.9171 13.5175 13.8687 13.4457 13.8078 13.3853L2.11361 1.69107ZM6.24557 7.66161L7.83728 9.25333C7.72747 9.28481 7.61367 9.30013 7.49945 9.2988C7.15483 9.2988 6.82434 9.16191 6.58066 8.91823C6.33698 8.67455 6.20009 8.34406 6.20009 7.99945C6.19876 7.88522 6.21408 7.77142 6.24557 7.66161ZM7.49945 11.8975C5.43347 11.8975 3.49093 10.4098 2.36698 7.99945C2.78673 7.07284 3.38248 6.23659 4.12112 5.53716L5.27105 6.70009C5.00094 7.19306 4.89796 7.76033 4.97756 8.31679C5.05716 8.87324 5.31504 9.38889 5.71252 9.78637C6.11 10.1839 6.62565 10.4417 7.18211 10.5213C7.73856 10.6009 8.30583 10.498 8.7988 10.2278L9.83179 11.2478C9.12435 11.6642 8.32027 11.8882 7.49945 11.8975Z" />
</svg>
