<svg width="16" height="16" viewBox="0 0 16 16" fill="none" xmlns="http://www.w3.org/2000/svg">
	<path d="M13.9458 7.75C12.6332 4.81875 10.1641 3 7.5 3C4.83593 3 2.36679 4.81875 1.05425 7.75C1.01847 7.82885 1 7.91396 1 8C1 8.08604 1.01847 8.17115 1.05425 8.25C2.36679 11.1812 4.83593 13 7.5 13C10.1641 13 12.6332 11.1812 13.9458 8.25C13.9815 8.17115 14 8.08604 14 8C14 7.91396 13.9815 7.82885 13.9458 7.75ZM7.5 11.75C5.44022 11.75 3.4909 10.3187 2.36679 8C3.4909 5.68125 5.44022 4.25 7.5 4.25C9.55978 4.25 11.5091 5.68125 12.6332 8C11.5091 10.3187 9.55978 11.75 7.5 11.75ZM7.5 5.5C6.98595 5.5 6.48344 5.64662 6.05602 5.92133C5.6286 6.19603 5.29547 6.58648 5.09875 7.04329C4.90203 7.50011 4.85056 8.00277 4.95085 8.48773C5.05113 8.97268 5.29867 9.41814 5.66216 9.76777C6.02565 10.1174 6.48877 10.3555 6.99294 10.452C7.49712 10.5484 8.01971 10.4989 8.49463 10.3097C8.96955 10.1205 9.37547 9.80005 9.66107 9.38893C9.94666 8.9778 10.0991 8.49445 10.0991 8C10.0991 7.33696 9.82526 6.70107 9.33784 6.23223C8.85041 5.76339 8.18932 5.5 7.5 5.5ZM7.5 9.25C7.24297 9.25 6.99172 9.17669 6.77801 9.03934C6.5643 8.90199 6.39773 8.70676 6.29938 8.47835C6.20102 8.24995 6.17528 7.99861 6.22542 7.75614C6.27557 7.51366 6.39934 7.29093 6.58108 7.11612C6.76283 6.9413 6.99438 6.82225 7.24647 6.77402C7.49856 6.72579 7.75985 6.75054 7.99731 6.84515C8.23478 6.93976 8.43774 7.09998 8.58053 7.30554C8.72333 7.5111 8.79955 7.75277 8.79955 8C8.79955 8.33152 8.66263 8.64946 8.41892 8.88388C8.17521 9.1183 7.84466 9.25 7.5 9.25Z" />
</svg>
