<svg viewBox="0 0 16 17" xmlns="http://www.w3.org/2000/svg">
    <path d="M2 8.10547C2 8.30438 2.0856 8.49515 2.23798 8.6358C2.39035 8.77645 2.59701 8.85547 2.8125 8.85547H8.97938L7.11062 10.573C7.03447 10.6427 6.97403 10.7256 6.93278 10.817C6.89153 10.9084 6.87029 11.0065 6.87029 11.1055C6.87029 11.2045 6.89153 11.3025 6.93278 11.3939C6.97403 11.4853 7.03447 11.5682 7.11062 11.638C7.18616 11.7083 7.27602 11.7641 7.37503 11.8021C7.47404 11.8402 7.58024 11.8598 7.6875 11.8598C7.79476 11.8598 7.90096 11.8402 7.99997 11.8021C8.09898 11.7641 8.18884 11.7083 8.26438 11.638L11.5144 8.63797C11.5883 8.56664 11.6463 8.48253 11.685 8.39047C11.7663 8.20787 11.7663 8.00306 11.685 7.82047C11.6463 7.72841 11.5883 7.6443 11.5144 7.57297L8.26438 4.57297C8.18862 4.50304 8.09868 4.44757 7.9997 4.40972C7.90072 4.37188 7.79464 4.3524 7.6875 4.3524C7.58036 4.3524 7.47428 4.37188 7.3753 4.40972C7.27632 4.44757 7.18638 4.50304 7.11062 4.57297C7.03487 4.6429 6.97478 4.72592 6.93378 4.81728C6.89278 4.90865 6.87168 5.00657 6.87168 5.10547C6.87168 5.20436 6.89278 5.30229 6.93378 5.39366C6.97478 5.48502 7.03487 5.56804 7.11062 5.63797L8.97938 7.35547H2.8125C2.59701 7.35547 2.39035 7.43449 2.23798 7.57514C2.0856 7.71579 2 7.90656 2 8.10547V8.10547ZM12.5625 0.605469H4.4375C3.79103 0.605469 3.17105 0.842522 2.71393 1.26448C2.25681 1.68644 2 2.25873 2 2.85547V5.10547C2 5.30438 2.0856 5.49515 2.23798 5.6358C2.39035 5.77645 2.59701 5.85547 2.8125 5.85547C3.02799 5.85547 3.23465 5.77645 3.38702 5.6358C3.5394 5.49515 3.625 5.30438 3.625 5.10547V2.85547C3.625 2.65656 3.7106 2.46579 3.86298 2.32514C4.01535 2.18449 4.22201 2.10547 4.4375 2.10547H12.5625C12.778 2.10547 12.9847 2.18449 13.137 2.32514C13.2894 2.46579 13.375 2.65656 13.375 2.85547V13.3555C13.375 13.5544 13.2894 13.7451 13.137 13.8858C12.9847 14.0265 12.778 14.1055 12.5625 14.1055H4.4375C4.22201 14.1055 4.01535 14.0265 3.86298 13.8858C3.7106 13.7451 3.625 13.5544 3.625 13.3555V11.1055C3.625 10.9066 3.5394 10.7158 3.38702 10.5751C3.23465 10.4345 3.02799 10.3555 2.8125 10.3555C2.59701 10.3555 2.39035 10.4345 2.23798 10.5751C2.0856 10.7158 2 10.9066 2 11.1055V13.3555C2 13.9522 2.25681 14.5245 2.71393 14.9465C3.17105 15.3684 3.79103 15.6055 4.4375 15.6055H12.5625C13.209 15.6055 13.829 15.3684 14.2861 14.9465C14.7432 14.5245 15 13.9522 15 13.3555V2.85547C15 2.25873 14.7432 1.68644 14.2861 1.26448C13.829 0.842522 13.209 0.605469 12.5625 0.605469Z" />
</svg>
    