<svg viewBox="0 0 16 17" xmlns="http://www.w3.org/2000/svg">
	<path
		d="M2 8C2 8.19891 2.0856 8.38968 2.23798 8.53033C2.39035 8.67098 2.59701 8.75 2.8125 8.75H8.97938L7.11062 10.4675C7.03447 10.5372 6.97403 10.6202 6.93278 10.7116C6.89153 10.803 6.87029 10.901 6.87029 11C6.87029 11.099 6.89153 11.197 6.93278 11.2884C6.97403 11.3798 7.03447 11.4628 7.11062 11.5325C7.18616 11.6028 7.27602 11.6586 7.37503 11.6967C7.47404 11.7347 7.58024 11.7543 7.6875 11.7543C7.79476 11.7543 7.90096 11.7347 7.99997 11.6967C8.09898 11.6586 8.18884 11.6028 8.26438 11.5325L11.5144 8.5325C11.5883 8.46117 11.6463 8.37706 11.685 8.285C11.7663 8.1024 11.7663 7.8976 11.685 7.715C11.6463 7.62294 11.5883 7.53883 11.5144 7.4675L8.26438 4.4675C8.18862 4.39757 8.09868 4.3421 7.9997 4.30426C7.90072 4.26641 7.79464 4.24693 7.6875 4.24693C7.58036 4.24693 7.47428 4.26641 7.3753 4.30426C7.27632 4.3421 7.18638 4.39757 7.11062 4.4675C7.03487 4.53743 6.97478 4.62045 6.93378 4.71181C6.89278 4.80318 6.87168 4.90111 6.87168 5C6.87168 5.09889 6.89278 5.19682 6.93378 5.28819C6.97478 5.37955 7.03487 5.46257 7.11062 5.5325L8.97938 7.25H2.8125C2.59701 7.25 2.39035 7.32902 2.23798 7.46967C2.0856 7.61032 2 7.80109 2 8V8ZM12.5625 0.5H4.4375C3.79103 0.5 3.17105 0.737053 2.71393 1.15901C2.25681 1.58097 2 2.15326 2 2.75V5C2 5.19891 2.0856 5.38968 2.23798 5.53033C2.39035 5.67098 2.59701 5.75 2.8125 5.75C3.02799 5.75 3.23465 5.67098 3.38702 5.53033C3.5394 5.38968 3.625 5.19891 3.625 5V2.75C3.625 2.55109 3.7106 2.36032 3.86298 2.21967C4.01535 2.07902 4.22201 2 4.4375 2H12.5625C12.778 2 12.9847 2.07902 13.137 2.21967C13.2894 2.36032 13.375 2.55109 13.375 2.75V13.25C13.375 13.4489 13.2894 13.6397 13.137 13.7803C12.9847 13.921 12.778 14 12.5625 14H4.4375C4.22201 14 4.01535 13.921 3.86298 13.7803C3.7106 13.6397 3.625 13.4489 3.625 13.25V11C3.625 10.8011 3.5394 10.6103 3.38702 10.4697C3.23465 10.329 3.02799 10.25 2.8125 10.25C2.59701 10.25 2.39035 10.329 2.23798 10.4697C2.0856 10.6103 2 10.8011 2 11V13.25C2 13.8467 2.25681 14.419 2.71393 14.841C3.17105 15.2629 3.79103 15.5 4.4375 15.5H12.5625C13.209 15.5 13.829 15.2629 14.2861 14.841C14.7432 14.419 15 13.8467 15 13.25V2.75C15 2.15326 14.7432 1.58097 14.2861 1.15901C13.829 0.737053 13.209 0.5 12.5625 0.5Z" />
</svg>
