<svg viewBox="0 0 17 16" xmlns="http://www.w3.org/2000/svg">
	<path
		d="M1.32883 9.48789C1.09367 6.9567 2.17474 4.66393 3.9678 3.20727C4.66674 2.63897 5.71187 3.12561 5.71187 4.02378C5.71187 4.35365 5.5551 4.65739 5.30035 4.86316C4.02986 5.89849 3.2656 7.53152 3.45176 9.33438C3.69345 11.6827 5.5747 13.5835 7.91973 13.8448C10.98 14.1877 13.5798 11.7905 13.5798 8.79875C13.5798 7.21145 12.8449 5.79072 11.6986 4.85989C11.4438 4.65413 11.2903 4.35038 11.2903 4.02378C11.2903 3.13541 12.3191 2.63244 13.0115 3.18767C14.6511 4.51042 15.7027 6.53211 15.7027 8.79875C15.7027 12.9434 12.1819 16.2845 7.97198 15.9808C4.49037 15.7359 1.65217 12.963 1.32883 9.48789ZM8.49782 0C7.90993 0 7.43635 0.476844 7.43635 1.06147V5.95075C7.43635 6.53864 7.9132 7.01222 8.49782 7.01222C9.08244 7.01222 9.55929 6.53538 9.55929 5.95075V1.06147C9.55929 0.476844 9.08571 0 8.49782 0Z" />
</svg>
