<svg viewBox="0 0 17 16" xmlns="http://www.w3.org/2000/svg">
	<path d="M11.2851 8.53199C12.024 7.95382 12.5633 7.16097 12.8281 6.26375C13.0928 5.36654 13.0698 4.40957 12.7622 3.52598C12.4545 2.64239 11.8777 1.87612 11.1118 1.33378C10.3459 0.791443 9.42903 0.5 8.48882 0.5C7.54861 0.5 6.63178 0.791443 5.86588 1.33378C5.09998 1.87612 4.52309 2.64239 4.21548 3.52598C3.90787 4.40957 3.88483 5.36654 4.14957 6.26375C4.41431 7.16097 4.95366 7.95382 5.69258 8.53199C4.42642 9.03648 3.32165 9.87323 2.49604 10.953C1.67044 12.0328 1.15496 13.3152 1.00455 14.6635C0.993659 14.7619 1.00237 14.8615 1.03019 14.9566C1.05801 15.0517 1.10439 15.1404 1.16668 15.2176C1.29248 15.3737 1.47545 15.4736 1.67534 15.4955C1.87524 15.5173 2.07568 15.4593 2.23257 15.3342C2.38947 15.2091 2.48996 15.0272 2.51195 14.8284C2.67745 13.3631 3.37998 12.0098 4.48531 11.0271C5.59064 10.0444 7.02128 9.5012 8.5039 9.5012C9.98651 9.5012 11.4171 10.0444 12.5225 11.0271C13.6278 12.0098 14.3303 13.3631 14.4958 14.8284C14.5163 15.0125 14.6047 15.1826 14.7439 15.3058C14.8831 15.429 15.0632 15.4966 15.2495 15.4955H15.3324C15.53 15.4729 15.7106 15.3735 15.8348 15.2191C15.9591 15.0646 16.0169 14.8676 15.9957 14.6709C15.8446 13.3189 15.3263 12.0332 14.4965 10.9517C13.6666 9.87029 12.5565 9.03381 11.2851 8.53199V8.53199ZM8.48882 7.9998C7.89255 7.9998 7.30966 7.82395 6.81388 7.4945C6.3181 7.16504 5.93168 6.69678 5.7035 6.14892C5.47531 5.60105 5.41561 4.9982 5.53194 4.41659C5.64826 3.83499 5.9354 3.30074 6.35703 2.88143C6.77865 2.46211 7.31584 2.17656 7.90066 2.06087C8.48548 1.94518 9.09166 2.00455 9.64254 2.23149C10.1934 2.45842 10.6643 2.84271 10.9955 3.33578C11.3268 3.82884 11.5036 4.40852 11.5036 5.00153C11.5036 5.79672 11.186 6.55934 10.6206 7.12162C10.0552 7.68391 9.2884 7.9998 8.48882 7.9998Z" />
</svg>
