<svg viewBox="0 0 20 20" xmlns="http://www.w3.org/2000/svg">
    <path d="M10 3.125C7.59125 3.125 5.625 5.09125 5.625 7.5C5.625 9.00625 6.39375 10.345 7.55875 11.1331C5.32938 12.0894 3.75 14.3 3.75 16.875H5C5 14.1062 7.23125 11.875 10 11.875C12.7688 11.875 15 14.1062 15 16.875H16.25C16.25 14.3 14.6706 12.0887 12.4412 11.1325C13.036 10.7313 13.5233 10.1903 13.8604 9.55702C14.1975 8.92373 14.3742 8.21743 14.375 7.5C14.375 5.09125 12.4088 3.125 10 3.125ZM10 4.375C11.7331 4.375 13.125 5.76688 13.125 7.5C13.125 9.23313 11.7331 10.625 10 10.625C8.26687 10.625 6.875 9.23313 6.875 7.5C6.875 5.76688 8.26687 4.375 10 4.375Z" />
</svg>
