<svg width="16" height="16" viewBox="0 0 16 16" fill="none" xmlns="http://www.w3.org/2000/svg">
<g clip-path="url(#clip0)">
<path d="M6.63184 7.46631C6.46667 7.46631 6.31073 7.51309 6.1921 7.59639C6.07391 7.67939 5.98184 7.80829 5.98184 7.96741V12.5318C5.98184 12.6909 6.07389 12.8198 6.19208 12.9028C6.31071 12.9861 6.46666 13.0329 6.63184 13.0329C6.79701 13.0329 6.95296 12.9861 7.07159 12.9028C7.18978 12.8198 7.28184 12.6909 7.28184 12.5318V7.96741C7.28184 7.80829 7.18978 7.67939 7.07159 7.59639C6.95296 7.51309 6.79701 7.46631 6.63184 7.46631Z" fill="#BCC4D8"/>
<path d="M9.53156 7.46631C9.36639 7.46631 9.21045 7.51309 9.09181 7.59639C8.97363 7.67939 8.88156 7.80829 8.88156 7.96741V12.5318C8.88156 12.6909 8.97361 12.8198 9.0918 12.9028C9.21043 12.9861 9.36638 13.0329 9.53156 13.0329C9.69673 13.0329 9.85268 12.9861 9.97131 12.9028C10.0895 12.8198 10.1816 12.6909 10.1816 12.5318V7.96741C10.1816 7.80829 10.0895 7.67939 9.97131 7.59639C9.85268 7.51309 9.69673 7.46631 9.53156 7.46631Z" fill="#BCC4D8"/>
<path fill-rule="evenodd" clip-rule="evenodd" d="M6.99961 -0.150391C6.08967 -0.150391 5.34961 0.589673 5.34961 1.49961V1.84961H2.74961C1.97752 1.84961 1.34961 2.47752 1.34961 3.24961V4.99961C1.34961 5.35858 1.64064 5.64961 1.99961 5.64961H2.12983L2.555 14.5781C2.59696 15.4592 3.32104 16.1496 4.20311 16.1496H11.7961C12.6782 16.1496 13.4023 15.4592 13.4442 14.5781L13.8694 5.64961H13.9996C14.3586 5.64961 14.6496 5.35858 14.6496 4.99961V3.24961C14.6496 2.47752 14.0217 1.84961 13.2496 1.84961H10.6496V1.49961C10.6496 0.589673 9.90955 -0.150391 8.99961 -0.150391H6.99961ZM6.64961 1.49961C6.64961 1.30676 6.80676 1.14961 6.99961 1.14961H8.99961C9.19245 1.14961 9.34961 1.30676 9.34961 1.49961V1.84961H6.64961V1.49961ZM2.64961 3.24961C2.64961 3.19461 2.69461 3.14961 2.74961 3.14961H13.2496C13.3046 3.14961 13.3496 3.19461 13.3496 3.24961V4.34961H2.64961V3.24961ZM3.85353 14.5163L3.4313 5.64961H12.5679L12.1457 14.5163C12.1368 14.7033 11.9833 14.8496 11.7961 14.8496H4.20311C4.01583 14.8496 3.86242 14.7033 3.85353 14.5163Z" fill="#BCC4D8"/>
</g>
<defs>
<clipPath id="clip0">
<rect width="16" height="16" fill="white"/>
</clipPath>
</defs>
</svg>
