<svg width="16" height="13" viewBox="0 0 16 13" fill="none" xmlns="http://www.w3.org/2000/svg">
<path d="M9.25806 6.90308C9.35524 6.80314 9.45242 6.70319 9.64678 6.70319C9.74396 6.70319 9.93833 6.80314 10.0355 6.90308C10.1327 7.00303 10.2299 7.10298 10.2299 7.30288V9.002C10.2299 9.2019 10.1327 9.30185 10.0355 9.4018C9.84115 9.60169 9.45242 9.60169 9.25806 9.4018C9.16088 9.30185 9.0637 9.2019 9.0637 9.002V7.30288C9.0637 7.20293 9.16088 7.00303 9.25806 6.90308Z" fill="#9EACC2"/>
<path d="M5.9539 6.90308C6.05108 6.80314 6.14826 6.70319 6.34262 6.70319C6.53699 6.70319 6.63417 6.80314 6.73135 6.90308C6.82853 7.00303 6.92571 7.10298 6.92571 7.30288V9.002C6.92571 9.10195 6.82853 9.30185 6.73135 9.4018C6.53699 9.60169 6.14826 9.60169 5.9539 9.4018C5.85672 9.30185 5.75954 9.2019 5.75954 9.002V7.30288C5.75954 7.20293 5.85672 7.00303 5.9539 6.90308Z" fill="#9EACC2"/>
<path fill-rule="evenodd" clip-rule="evenodd" d="M12.6594 0.00664169H2.26102C1.77511 0.00664169 1.19202 0.206539 0.803298 0.606332C0.414574 0.906178 0.12303 1.40592 0.0258489 1.90566C-0.0713323 2.50535 0.12303 3.00509 0.317392 3.50484C0.511755 4.00458 0.99766 4.30442 1.48357 4.50432H1.67793L2.26102 10.901C2.3582 11.5007 2.55256 12.0005 2.94128 12.4002C3.33001 12.8 3.91309 12.9999 4.399 12.9999H11.2989C11.882 12.9999 12.3679 12.8 12.7566 12.4002C13.1453 12.0005 13.4368 11.5007 13.4368 10.901L14.3115 4.50432L14.5058 4.40437C14.9917 4.20448 15.3805 3.90463 15.672 3.40489C15.9636 2.90515 16.0607 2.4054 15.9636 1.90566C15.8664 1.40592 15.4777 0.906178 15.0889 0.506384C14.5028 -0.0965044 12.6594 0.00664169 12.6594 0.00664169ZM3.81591 11.5007C4.01028 11.7006 4.20464 11.8006 4.49618 11.8006V11.9005H11.4932C11.6876 11.9005 11.9791 11.8006 12.1735 11.6007C12.3679 11.4008 12.5622 11.2009 12.5622 10.901L13.1453 4.60427H2.8441L3.42719 10.8011C3.52437 11.1009 3.62155 11.3008 3.81591 11.5007ZM2.26102 3.40489H13.7284C14.0199 3.40489 14.3115 3.30494 14.603 3.10504C14.7974 2.90515 14.8946 2.6053 14.8946 2.30546C14.8946 2.00561 14.7974 1.70577 14.603 1.50587C14.4087 1.30597 14.1171 1.20602 13.8256 1.20602H2.26102C1.96947 1.20602 1.67793 1.30597 1.48357 1.50587C1.2892 1.70577 1.19202 2.00561 1.19202 2.30546C1.19202 2.6053 1.2892 2.8052 1.48357 3.00509C1.67793 3.30494 1.96947 3.40489 2.26102 3.40489Z" fill="#9EACC2"/>
</svg>
