<svg width="9" height="14" viewBox="0 0 9 14" fill="none" xmlns="http://www.w3.org/2000/svg">
<path d="M3.21464 2.79924C3.04427 2.79924 2.88087 2.873 2.7604 3.0043C2.63992 3.1356 2.57224 3.31368 2.57224 3.49937L2.57224 11.6138L1.10114 10.0035C0.980171 9.87171 0.816105 9.79764 0.645032 9.79764C0.473959 9.79764 0.309892 9.87171 0.188925 10.0035C0.0679585 10.1354 -6.73738e-09 10.3142 0 10.5006C6.73738e-09 10.6871 0.0679586 10.8659 0.188926 10.9977L2.75854 13.7982C2.84888 13.8954 2.96359 13.9612 3.08821 13.9874C3.21283 14.0135 3.34177 13.9989 3.45876 13.9453C3.57607 13.8927 3.6765 13.8035 3.74738 13.6889C3.81826 13.5743 3.85642 13.4394 3.85705 13.3011L3.85705 3.49937C3.85705 3.31368 3.78937 3.1356 3.66889 3.0043C3.54842 2.873 3.38502 2.79924 3.21464 2.79924ZM5.54014 0.05474C5.42283 0.107264 5.3224 0.196458 5.25153 0.311083C5.18065 0.425708 5.14249 0.560634 5.14185 0.698857L5.14186 10.5006C5.14186 10.6863 5.20954 10.8644 5.33001 10.9957C5.45049 11.127 5.61388 11.2008 5.78426 11.2008C5.95463 11.2008 6.11803 11.127 6.23851 10.9957C6.35898 10.8644 6.42666 10.6863 6.42666 10.5006L6.42666 2.38616L7.89777 3.99645C7.95749 4.06208 8.02854 4.11416 8.10682 4.14971C8.1851 4.18525 8.26907 4.20355 8.35387 4.20355C8.43868 4.20355 8.52264 4.18525 8.60092 4.14971C8.67921 4.11416 8.75026 4.06208 8.80998 3.99645C8.87019 3.93137 8.91798 3.85393 8.95059 3.76862C8.98321 3.6833 9 3.59179 9 3.49936C9 3.40694 8.98321 3.31543 8.95059 3.23011C8.91798 3.1448 8.87019 3.06736 8.80998 3.00228L6.24037 0.201767C6.15003 0.104619 6.03531 0.0388099 5.91069 0.0126433C5.78607 -0.0135234 5.65713 0.00112466 5.54014 0.05474Z" fill="#9EACC2"/>
</svg>
