<svg viewBox="0 0 16 16" >
    <path d="M12.0194 11.078L14.8747 13.9326L13.9314 14.876L11.0767 12.0206C10.0145 12.8721 8.69337 13.3352 7.33203 13.3333C4.02003 13.3333 1.33203 10.6453 1.33203 7.33331C1.33203 4.02131 4.02003 1.33331 7.33203 1.33331C10.644 1.33331 13.332 4.02131 13.332 7.33331C13.334 8.69465 12.8708 10.0158 12.0194 11.078ZM10.682 10.5833C11.5281 9.71324 12.0006 8.54693 11.9987 7.33331C11.9987 4.75465 9.91003 2.66665 7.33203 2.66665C4.75336 2.66665 2.66536 4.75465 2.66536 7.33331C2.66536 9.91131 4.75336 12 7.33203 12C8.54565 12.0019 9.71195 11.5294 10.582 10.6833L10.682 10.5833Z" />
</svg>