<svg viewBox="0 0 16 16" xmlns="http://www.w3.org/2000/svg">
    <path fill-rule="evenodd" clip-rule="evenodd" d="M6.58579 9.41454A1.99998 1.99998 0 0 0 8 10.0003a1.99998 1.99998 0 1 0 0-3.99998 2 2 0 0 0-1.41421 3.41422ZM8 8.66699a.66667.66667 0 1 0 0-1.33333.66667.66667 0 0 0 0 1.33333Z" />
    <path fill-rule="evenodd" clip-rule="evenodd" d="M1.42397 6.89463c-.06042.36073-.09194.73107-.09194 1.10915 0 .37794.03143.74788.09147 1.10776.05489.32895.36328.53522.68772.61243a2.00009 2.00009 0 0 1 1.26869.94513 1.99999 1.99999 0 0 1 .18459 1.5729c-.09521.3188-.07121.6879.18506.9001a6.65811 6.65811 0 0 0 1.92145 1.1104c.31208.1163.64422-.0477.87287-.2898a2.00152 2.00152 0 0 1 .40854-.3318 1.99964 1.99964 0 0 1 1.04561-.2951c.36909 0 .73098.1021 1.04561.2951.15092.0926.28814.2043.40855.3318.22864.2421.56081.4061.87291.2898a6.65962 6.65962 0 0 0 1.9216-1.1106c.2562-.2121.2802-.5811.1851-.8997a2.00482 2.00482 0 0 1-.0828-.5202 2.00008 2.00008 0 0 1 1.0458-1.80974 2.00064 2.00064 0 0 1 .4905-.1876c.3242-.07716.6325-.28322.6875-.61193.0604-.36066.0919-.73094.0919-1.10895 0-.37786-.0315-.748-.0918-1.10834-.0551-.3287-.3633-.53466-.6876-.61174a2.00046 2.00046 0 0 1-.4908-.18764 1.99911 1.99911 0 0 1-.7783-.7576 2.0002 2.0002 0 0 1-.2676-1.0527 1.9964 1.9964 0 0 1 .083-.52022c.0952-.31876.0712-.68792-.1851-.90005a6.66003 6.66003 0 0 0-1.9214-1.11047c-.3121-.11627-.64427.0477-.87292.28984a1.99992 1.99992 0 0 1-2.49976.33179 1.99915 1.99915 0 0 1-.40854-.33179c-.22865-.24214-.56079-.40611-.87287-.28984a6.66007 6.66007 0 0 0-1.92164 1.11063c-.25618.21207-.28025.58107-.18517.89975a1.99989 1.99989 0 0 1-.1847 1.57221 2.00005 2.00005 0 0 1-1.26829.94514c-.32413.07722-.6322.28326-.68724.61188ZM4.9107 12.3531c.164-.7853.044-1.622-.376-2.3493-.40992-.71056-1.0671-1.24473-1.84667-1.50002a5.41755 5.41755 0 0 1 0-1 3.32868 3.32868 0 0 0 1.84667-1.5 3.3287 3.3287 0 0 0 .376-2.34933 5.32629 5.32629 0 0 1 .86466-.5 3.3287 3.3287 0 0 0 2.22334.84933 3.3288 3.3288 0 0 0 2.2227-.84933c.3032.13921.5927.30661.8646.5a3.32897 3.32897 0 0 0 .376 2.34933 3.32862 3.32862 0 0 0 1.8474 1.5 5.4228 5.4228 0 0 1 0 1 3.32826 3.32826 0 0 0-1.8467 1.50002 3.32832 3.32832 0 0 0-.376 2.3493c-.272.1933-.5613.3607-.8647.5-.59797-.5353-1.3833-.8493-2.2233-.8493a3.32872 3.32872 0 0 0-2.22334.8493 5.33836 5.33836 0 0 1-.86466-.5Z" />
</svg>