<svg width="17" height="17" viewBox="0 0 17 17" xmlns="http://www.w3.org/2000/svg">
    <path fill-rule="evenodd" clip-rule="evenodd" d="M8.29992 12.0669C7.65553 12.0669 7.02561 11.8758 6.48981 11.5178C5.95402 11.1598 5.53642 10.651 5.28982 10.0556C5.04322 9.46031 4.9787 8.80523 5.10441 8.17323C5.23013 7.54124 5.54043 6.96072 5.99609 6.50507C6.45174 6.04943 7.03229 5.73914 7.6643 5.61342C8.29631 5.48771 8.95141 5.55223 9.54675 5.79882C10.1421 6.04542 10.6509 6.463 11.009 6.99878C11.367 7.53456 11.558 8.16447 11.558 8.80884C11.5555 9.67214 11.2114 10.4993 10.6009 11.1098C9.99047 11.7202 9.16324 12.0643 8.29992 12.0669ZM7.26557 7.26087C7.57174 7.0563 7.9317 6.94712 8.29992 6.94712C8.7937 6.94712 9.26725 7.14326 9.6164 7.4924C9.96556 7.84154 10.1617 8.31508 10.1617 8.80884C10.1617 9.17706 10.0525 9.537 9.84794 9.84316C9.64336 10.1493 9.35259 10.3879 9.0124 10.5289C8.6722 10.6698 8.29786 10.7066 7.93671 10.6348C7.57556 10.563 7.24382 10.3856 6.98345 10.1253C6.72307 9.86492 6.54575 9.53319 6.47392 9.17205C6.40208 8.81091 6.43895 8.43658 6.57986 8.09639C6.72078 7.75621 6.95941 7.46544 7.26557 7.26087Z" />
    <path fill-rule="evenodd" clip-rule="evenodd" d="M8.29992 12.0669C7.65553 12.0669 7.02561 11.8758 6.48981 11.5178C5.95402 11.1598 5.53642 10.651 5.28982 10.0556C5.04322 9.46031 4.9787 8.80523 5.10441 8.17323C5.23013 7.54124 5.54043 6.96072 5.99609 6.50507C6.45174 6.04943 7.03229 5.73914 7.6643 5.61342C8.29631 5.48771 8.95141 5.55223 9.54675 5.79882C10.1421 6.04542 10.6509 6.463 11.009 6.99878C11.367 7.53456 11.558 8.16447 11.558 8.80884C11.5555 9.67214 11.2114 10.4993 10.6009 11.1098C9.99047 11.7202 9.16324 12.0643 8.29992 12.0669ZM7.26557 7.26087C7.57174 7.0563 7.9317 6.94712 8.29992 6.94712C8.7937 6.94712 9.26725 7.14326 9.6164 7.4924C9.96556 7.84154 10.1617 8.31508 10.1617 8.80884C10.1617 9.17706 10.0525 9.537 9.84794 9.84316C9.64336 10.1493 9.35259 10.3879 9.0124 10.5289C8.6722 10.6698 8.29786 10.7066 7.93671 10.6348C7.57556 10.563 7.24382 10.3856 6.98345 10.1253C6.72307 9.86492 6.54575 9.53319 6.47392 9.17205C6.40208 8.81091 6.43895 8.43658 6.57986 8.09639C6.72078 7.75621 6.95941 7.46544 7.26557 7.26087Z" />
    <path fill-rule="evenodd" clip-rule="evenodd" d="M8.93991 16.8084H7.65024C7.27876 16.7995 6.92212 16.6608 6.64226 16.4164C6.36239 16.1719 6.17695 15.8372 6.11815 15.4703L6.01149 14.8595L5.73998 14.7431L5.14847 15.1116C4.83832 15.3242 4.46416 15.423 4.08946 15.3912C3.71477 15.3594 3.36261 15.1989 3.09276 14.937L2.23944 14.0353C1.96998 13.7677 1.80446 13.413 1.77249 13.0347C1.74051 12.6563 1.84416 12.2789 2.0649 11.9699L2.39459 11.4754C2.3461 11.3687 2.30732 11.2718 2.26853 11.1651L1.63824 11.0584C1.26318 10.9982 0.922061 10.8057 0.676611 10.5158C0.431162 10.2259 0.297596 9.85774 0.300083 9.4779V8.19796C0.299912 7.81978 0.434527 7.45392 0.679771 7.16604C0.925014 6.87815 1.26483 6.68709 1.63824 6.62713L2.23944 6.52047C2.27556 6.41474 2.31765 6.31115 2.3655 6.21018L1.98732 5.65748C1.77794 5.34972 1.68098 4.97921 1.71277 4.60834C1.74456 4.23746 1.90316 3.88886 2.16186 3.62122L3.07336 2.74854C3.34087 2.47734 3.69496 2.30846 4.07407 2.27126C4.45319 2.23405 4.83335 2.33088 5.14847 2.54491L5.64301 2.90368L5.94361 2.74854L6.05027 2.11826C6.11847 1.7494 6.31412 1.41623 6.60302 1.17696C6.89193 0.937686 7.25572 0.807533 7.63085 0.809238H8.91082C9.29068 0.806752 9.65888 0.940314 9.94879 1.18576C10.2387 1.4312 10.4312 1.77231 10.4914 2.14735L10.5981 2.74854C10.7152 2.78698 10.8288 2.83565 10.9374 2.89398L11.4514 2.52552C11.7663 2.31721 12.1441 2.22548 12.5195 2.26621C12.8948 2.30693 13.2442 2.47754 13.5071 2.74854L14.4186 3.66001C14.6726 3.92231 14.8286 4.26403 14.8604 4.62777C14.8921 4.99151 14.7978 5.3551 14.5931 5.65748L14.2247 6.1617C14.2731 6.26836 14.3119 6.36533 14.3507 6.47199L14.9713 6.57865C15.3471 6.6393 15.6884 6.83355 15.9325 7.1257C16.1765 7.41785 16.307 7.78827 16.2998 8.16887V9.44881C16.3023 9.82865 16.1687 10.1968 15.9232 10.4867C15.6778 10.7767 15.3367 10.9691 14.9616 11.0293L14.3507 11.136C14.3507 11.205 14.3065 11.279 14.2635 11.3508C14.2461 11.3799 14.2289 11.4086 14.215 11.4366L14.5834 11.9505C14.8035 12.258 14.9068 12.6338 14.8748 13.0105C14.8428 13.3872 14.6776 13.7402 14.4089 14.0062L13.5071 14.9176C13.2348 15.1786 12.8811 15.3384 12.5053 15.3701C12.1294 15.4019 11.754 15.3038 11.4417 15.0922L10.9665 14.7237L10.6659 14.8595L10.5593 15.4703C10.4982 15.8521 10.3 16.1985 10.002 16.4448C9.70395 16.6911 9.32637 16.8204 8.93991 16.8084ZM5.9727 13.3274C5.86793 13.2733 5.75118 13.2466 5.63331 13.2498C5.4763 13.2538 5.32552 13.312 5.20665 13.4147L4.38243 13.9577C4.34575 13.9885 4.2994 14.0053 4.25152 14.0053C4.20364 14.0053 4.15729 13.9885 4.12061 13.9577L3.20912 13.0462C3.17834 13.0095 3.16146 12.9632 3.16146 12.9153C3.16146 12.8674 3.17834 12.8211 3.20912 12.7844L3.71335 11.9699C3.79398 11.8584 3.84133 11.7264 3.84992 11.5891C3.8585 11.4518 3.82795 11.3148 3.76183 11.1942C3.61587 10.9296 3.49883 10.65 3.41275 10.3603C3.3698 10.2318 3.29315 10.1173 3.1908 10.0286C3.08846 9.93991 2.96418 9.88032 2.83094 9.85606L1.86126 9.68153C1.81154 9.6766 1.76564 9.65268 1.73312 9.61475C1.7006 9.57681 1.68398 9.52779 1.68672 9.4779V8.21736C1.68622 8.16803 1.70363 8.1202 1.73573 8.08275C1.76784 8.0453 1.81244 8.02077 1.86126 8.01373L2.83094 7.84889C2.96572 7.8248 3.09127 7.76412 3.19389 7.67349C3.2965 7.58285 3.37221 7.46574 3.41275 7.33498C3.49977 7.04709 3.61339 6.76792 3.75214 6.50108C3.81491 6.38069 3.84273 6.24514 3.83245 6.10976C3.82217 5.97438 3.77419 5.84458 3.69396 5.73506L3.10245 4.89146C3.06974 4.85571 3.05161 4.80901 3.05161 4.76056C3.05161 4.7121 3.06974 4.66541 3.10245 4.62966L4.07213 3.71819C4.10726 3.68814 4.15196 3.67163 4.19819 3.67163C4.24441 3.67163 4.28912 3.68814 4.32425 3.71819L5.14847 4.27089C5.25798 4.35177 5.38848 4.39937 5.52435 4.40797C5.66022 4.41657 5.79569 4.38581 5.91452 4.31937C6.18076 4.17677 6.46 4.05988 6.74844 3.97029C6.87688 3.92734 6.99143 3.8507 7.08012 3.74836C7.16882 3.64602 7.22841 3.52174 7.25267 3.3885L7.42721 2.44795C7.43633 2.4009 7.46175 2.35858 7.499 2.32843C7.53625 2.29828 7.58293 2.28223 7.63085 2.2831H8.91082C8.96071 2.28036 9.00974 2.29698 9.04767 2.3295C9.08561 2.36202 9.10953 2.40792 9.11445 2.45764L9.289 3.42729C9.31124 3.56132 9.37011 3.68659 9.4591 3.78926C9.54808 3.89194 9.66372 3.96801 9.79323 4.00908C10.0942 4.09843 10.3864 4.21528 10.6659 4.35815C10.7848 4.42459 10.9202 4.45535 11.0561 4.44676C11.192 4.43816 11.3225 4.39056 11.432 4.30967L12.2659 3.71819C12.3026 3.68741 12.3489 3.67053 12.3968 3.67053C12.4447 3.67053 12.491 3.68741 12.5277 3.71819L13.4974 4.56178C13.5301 4.59753 13.5482 4.64423 13.5482 4.69268C13.5482 4.74114 13.5301 4.78783 13.4974 4.82359L12.9059 5.65748C12.8273 5.77477 12.7845 5.9124 12.7827 6.0536C12.781 6.19479 12.8204 6.33343 12.8962 6.4526C13.0422 6.71722 13.1592 6.9968 13.2453 7.28649C13.2864 7.416 13.3624 7.53164 13.4651 7.62062C13.5678 7.7096 13.6931 7.76846 13.8271 7.79071L14.7968 7.96525C14.843 7.97226 14.8852 7.99575 14.9155 8.03139C14.9457 8.06702 14.9621 8.11241 14.9616 8.15918V9.44881C14.9625 9.49672 14.9464 9.54341 14.9163 9.58065C14.8861 9.6179 14.8438 9.64332 14.7968 9.65244L13.8271 9.81728C13.6923 9.84137 13.5668 9.90205 13.4641 9.99268C13.3615 10.0833 13.2858 10.2004 13.2453 10.3312C13.1599 10.6197 13.0462 10.899 12.9059 11.1651C12.8346 11.2801 12.7969 11.4128 12.7969 11.5481C12.7969 11.6834 12.8346 11.8161 12.9059 11.9311L13.4295 12.7262C13.4594 12.7652 13.4756 12.8129 13.4756 12.862C13.4756 12.9111 13.4594 12.9588 13.4295 12.9977L12.518 13.9092C12.4813 13.94 12.435 13.9568 12.3871 13.9568C12.3392 13.9568 12.2929 13.94 12.2562 13.9092L11.4223 13.3177C11.3081 13.2442 11.1751 13.2051 11.0393 13.2051C10.9034 13.2051 10.7705 13.2442 10.6562 13.3177C10.3894 13.4565 10.1102 13.5701 9.82232 13.6571C9.69168 13.6961 9.57487 13.7716 9.48557 13.8746C9.39627 13.9777 9.33817 14.104 9.31809 14.2389L9.14354 15.2085C9.13636 15.2565 9.11147 15.3 9.07377 15.3305C9.03608 15.361 8.98832 15.3763 8.93991 15.3734H7.65024C7.60347 15.3739 7.55808 15.3575 7.52245 15.3272C7.48681 15.2969 7.46332 15.2548 7.45631 15.2085L7.28176 14.2389C7.26168 14.104 7.20358 13.9777 7.11428 13.8746C7.02498 13.7716 6.90817 13.6961 6.77753 13.6571C6.49928 13.5733 6.22975 13.4629 5.9727 13.3274Z" />
</svg>
    