<svg width="16" height="16" viewBox="0 0 16 16" fill="none" xmlns="http://www.w3.org/2000/svg">
    <path d="M1.33203 8.00346C1.33203 7.62538 1.36355 7.25504 1.42397 6.89431C1.47901 6.56569 1.78708 6.35965 2.11121 6.28243C2.28143 6.24187 2.4464 6.17896 2.60166 6.0947C2.92582 5.91878 3.19502 5.65665 3.3795 5.33729C3.56399 5.01793 3.65657 4.65377 3.64701 4.28507C3.64243 4.10801 3.61437 3.93322 3.5642 3.76508C3.46912 3.4464 3.49319 3.0774 3.74937 2.86533C4.32327 2.39025 4.97287 2.01481 5.67101 1.7547C5.98309 1.63843 6.31523 1.8024 6.54388 2.04454C6.66428 2.17205 6.8015 2.28378 6.95242 2.37633C7.26705 2.56929 7.62894 2.67143 7.99803 2.67143C8.36712 2.67143 8.72901 2.56929 9.04364 2.37633C9.19456 2.28378 9.33178 2.17205 9.45218 2.04454C9.68083 1.8024 10.013 1.63843 10.3251 1.7547C11.0231 2.01478 11.6727 2.39017 12.2465 2.86517C12.5028 3.0773 12.5268 3.44646 12.4316 3.76522C12.3813 3.93342 12.3532 4.10829 12.3486 4.28544C12.339 4.6543 12.4316 5.01864 12.6162 5.33813C12.8007 5.65763 13.0701 5.91984 13.3945 6.09574C13.5499 6.18 13.715 6.24288 13.8853 6.28338C14.2096 6.36046 14.5178 6.56642 14.5729 6.89511C14.6332 7.25546 14.6647 7.62559 14.6647 8.00346C14.6647 8.38147 14.6332 8.75174 14.5728 9.11241C14.5178 9.44112 14.2095 9.64717 13.8853 9.72434C13.7151 9.76485 13.5501 9.82772 13.3948 9.91193C13.0706 10.0878 12.8013 10.3499 12.6167 10.6693C12.4321 10.9887 12.3395 11.3529 12.349 11.7217C12.3536 11.8988 12.3817 12.0736 12.4318 12.2418C12.5269 12.5605 12.5029 12.9295 12.2467 13.1416C11.6728 13.6167 11.0232 13.9921 10.3251 14.2522C10.013 14.3685 9.68083 14.2045 9.45219 13.9624C9.33178 13.8349 9.19456 13.7231 9.04364 13.6306C8.72901 13.4376 8.36712 13.3355 7.99803 13.3355C7.62894 13.3355 7.26705 13.4376 6.95242 13.6306C6.8015 13.7231 6.66428 13.8349 6.54388 13.9624C6.31523 14.2045 5.98309 14.3685 5.67101 14.2522C4.97295 13.9921 4.32341 13.6167 3.74956 13.1417C3.49329 12.9296 3.46929 12.5605 3.5645 12.2417C3.61474 12.0735 3.64285 11.8986 3.64748 11.7215C3.6571 11.3526 3.5645 10.9883 3.37991 10.6688C3.19531 10.3493 2.92593 10.0871 2.60157 9.91118C2.44633 9.827 2.2814 9.76416 2.11122 9.72365C1.78678 9.64644 1.47839 9.44017 1.4235 9.11122C1.36346 8.75134 1.33203 8.3814 1.33203 8.00346ZM4.5347 10.0035C4.9547 10.7308 5.0747 11.5675 4.9107 12.3528C5.1827 12.5461 5.47203 12.7135 5.77536 12.8528C6.38648 12.3054 7.17824 12.0029 7.9987 12.0035C8.8387 12.0035 9.62403 12.3175 10.222 12.8528C10.5254 12.7135 10.8147 12.5461 11.0867 12.3528C10.9183 11.5501 11.0522 10.7135 11.4627 10.0035C11.8724 9.29304 12.53 8.7589 13.3094 8.50346C13.3402 8.17084 13.3402 7.83608 13.3094 7.50346C12.5298 7.24817 11.8719 6.714 11.462 6.00346C11.0515 5.29341 10.9177 4.45682 11.086 3.65412C10.8141 3.46074 10.5246 3.29334 10.2214 3.15412C9.61042 3.70141 8.81893 4.00386 7.9987 4.00346C7.17824 4.00403 6.38648 3.70157 5.77536 3.15412C5.47212 3.29334 5.18262 3.46074 4.9107 3.65412C5.07907 4.45682 4.94518 5.29341 4.5347 6.00346C4.12495 6.71388 3.46735 7.24802 2.68803 7.50346C2.6572 7.83608 2.6572 8.17084 2.68803 8.50346C3.4676 8.75875 4.12478 9.29291 4.5347 10.0035Z" />
    <path fill-rule="evenodd" clip-rule="evenodd" d="M8 10C7.46957 10 6.96086 9.78929 6.58579 9.41421C6.21071 9.03914 6 8.53043 6 8C6 7.46957 6.21071 6.96086 6.58579 6.58579C6.96086 6.21071 7.46957 6 8 6C8.53043 6 9.03914 6.21071 9.41421 6.58579C9.78929 6.96086 10 7.46957 10 8C10 8.53043 9.78929 9.03914 9.41421 9.41421C9.03914 9.78929 8.53043 10 8 10ZM8.4714 8.4714C8.34638 8.59643 8.17681 8.66667 8 8.66667C7.82319 8.66667 7.65362 8.59643 7.5286 8.4714C7.40357 8.34638 7.33333 8.17681 7.33333 8C7.33333 7.82319 7.40357 7.65362 7.5286 7.5286C7.65362 7.40357 7.82319 7.33333 8 7.33333C8.17681 7.33333 8.34638 7.40357 8.4714 7.5286C8.59643 7.65362 8.66667 7.82319 8.66667 8C8.66667 8.17681 8.59643 8.34638 8.4714 8.4714Z" />
</svg>
    