<svg width="17" height="16" viewBox="0 0 17 16" xmlns="http://www.w3.org/2000/svg">
    <path d="M3.33328 5.88913L8 8.22249L12.6667 5.88913L8 3.55577L3.33328 5.88913ZM8.38034 2.09042L14.5972 5.26068C14.9752 5.45357 15.1113 5.89069 14.9013 6.23836C14.8281 6.35779 14.723 6.45448 14.598 6.51758L8.38034 9.68784C8.26238 9.74733 8.13211 9.77832 8 9.77832C7.86789 9.77832 7.73762 9.74733 7.61966 9.68784L1.40281 6.51758C1.0248 6.32469 0.88869 5.88758 1.09869 5.5399C1.17192 5.42047 1.27695 5.32379 1.40203 5.26068L7.61966 2.09042C7.85611 1.96986 8.14389 1.96986 8.38034 2.09042ZM8.38034 13.2569C8.26267 13.3173 8.13229 13.3489 8 13.3489C7.86771 13.3489 7.73733 13.3173 7.61966 13.2569L1.40281 10.0314C1.0248 9.83537 0.88869 9.39047 1.09869 9.03736C1.17144 8.91636 1.27649 8.81805 1.40203 8.75347C1.49271 8.70629 1.59343 8.68167 1.69564 8.68167C1.79786 8.68167 1.89858 8.70629 1.98926 8.75347L7.62044 11.6741C7.85611 11.7969 8.14389 11.7969 8.38034 11.6741L14.0107 8.75347C14.1013 8.70643 14.2019 8.68187 14.304 8.68187C14.406 8.68187 14.5066 8.70643 14.5972 8.75347C14.9752 8.94947 15.1113 9.39436 14.9013 9.74748C14.8286 9.86848 14.7235 9.96679 14.598 10.0314L8.38034 13.2569Z" />
</svg>
    