<svg viewBox="0 0 20 20" fill="none" xmlns="http://www.w3.org/2000/svg">
    <path fill-rule="evenodd" clip-rule="evenodd" d="M17.99 2.75h-6.33V1.26L1.25 2.86v14.09l10.4 1.79v-2.21H18a.73.73 0 0 0 .76-.69V3.44a.73.73 0 0 0-.76-.69Zm.1 13.2h-6.45l-.02-1.17h1.56V13.4H11.6v-.81h1.57V11.2h-1.59v-.8h1.59V9.02h-1.6V8.2h1.6V6.84h-1.6v-.81h1.6V4.65h-1.6V3.4h6.5v12.56Z" />
    <path d="M14.05 4.65h2.7v1.37h-2.7V4.65ZM14.05 6.84h2.7v1.37h-2.7V6.84ZM14.05 9.03h2.7v1.37h-2.7V9.03ZM14.05 11.21h2.7v1.38h-2.7V11.2ZM14.05 13.4h2.7v1.38h-2.7V13.4Z" />
    <path fill-rule="evenodd" clip-rule="evenodd" d="M3.97 6.67 5.3 6.6l.84 2.32 1-2.41 1.34-.08-1.63 3.3 1.63 3.3-1.42-.1-.96-2.52-.96 2.42-1.3-.11 1.52-2.92-1.4-3.12Z" class="exel-plugin" fill="#fff" />
</svg>