<svg width="16" height="15" viewBox="0 0 16 15" xmlns="http://www.w3.org/2000/svg">
<path fill-rule="evenodd" clip-rule="evenodd" d="M3.5905 9.59561L0.205132 6.37348C0.115406 6.28528 0.0514304 6.17449 0.0208042 6.0541C-0.0097968 5.93381 -0.00658975 5.80765 0.0300966 5.68899C0.0705761 5.56763 0.144884 5.45946 0.244984 5.37688C0.345375 5.29405 0.468201 5.24026 0.598523 5.22206L5.26143 4.54558L7.35195 0.388437C7.4091 0.272475 7.49852 0.174318 7.61027 0.105483C7.72204 0.0366347 7.85151 0 7.98382 0C8.11613 0 8.2456 0.0366348 8.35737 0.105483C8.46913 0.174318 8.5589 0.273182 8.61604 0.389146L10.7062 4.55364L15.3693 5.22227L15.3755 5.2228C15.5113 5.23422 15.6406 5.28409 15.7477 5.36607C15.8536 5.44721 15.9333 5.55627 15.9776 5.68003C16.0104 5.80409 16.0071 5.9347 15.968 6.05709C15.9286 6.18077 15.8539 6.29108 15.7527 6.37534L12.361 9.60356L13.181 14.1811L13.1813 14.1826C13.2062 14.3109 13.1932 14.4436 13.1437 14.565C13.0943 14.6864 13.0099 14.7922 12.9011 14.8688C12.7807 14.9545 12.6347 15.0005 12.4855 15C12.3732 15.0004 12.263 14.972 12.1656 14.918L7.98401 12.7586L3.78837 14.9087C3.67297 14.9689 3.54261 14.9963 3.41199 14.9877C3.2814 14.9792 3.15603 14.935 3.04992 14.8605C2.94107 14.7839 2.85715 14.6785 2.80771 14.557C2.75828 14.4356 2.74528 14.3029 2.77016 14.1746L3.5905 9.59561ZM10.9968 9.19028C11.0321 9.084 11.0933 8.98755 11.1755 8.90947L13.7634 6.3747L10.136 5.85819C10.022 5.8426 9.9137 5.79977 9.82073 5.73365C9.72777 5.66754 9.65292 5.58009 9.60263 5.47937L7.9813 2.24188L6.44546 5.47245C6.39518 5.57279 6.32056 5.65978 6.22788 5.7257C6.13491 5.79182 6.02606 5.83473 5.912 5.85032L2.28562 6.36668L4.87184 8.90823L4.87315 8.90947C4.9553 8.98755 5.01655 9.084 5.05179 9.19028C5.08702 9.29656 5.09521 9.40981 5.07575 9.51985L4.45485 13.0707L7.69365 11.3777C7.79531 11.3245 7.90887 11.2966 8.02431 11.2966C8.13974 11.2966 8.25334 11.3245 8.355 11.3777L11.5938 13.0707L10.9728 9.51964C10.9534 9.40961 10.9616 9.29656 10.9968 9.19028Z" />
</svg>
