<svg xmlns="http://www.w3.org/2000/svg" width="15" height="13" viewBox="0 0 15 13">
    <path fill-rule="evenodd" clip-rule="evenodd" d="m5.362 1.533.626.507-.62-.501-.006-.006Zm-.335-.21h.007-.008.001Zm-3.56.003v.006l-.001.001.001-.007Z" />
    <path fill-rule="evenodd" clip-rule="evenodd" d="M14.977 5.703c.081-.441-.05-.89-.35-1.226a1.62 1.62 0 0 0-1.03-.523 7.58 7.58 0 0 0-.12-1.204c-.058-.29-.147-.597-.296-.843-.153-.25-.41-.496-.8-.496H7.863c-.302.016-.567-.02-.66 0-.281-.206-.93-.694-.922-.717C5.722.25 5.442.104 5.034.083h-3.54C.802.083.201.618.201 1.326V11.46c0 .807.688 1.422 1.485 1.423h10.612c.75.005 1.424-.499 1.57-1.235l1.11-5.946ZM5.354 1.526l.008.006.626.508c.526.448.818.576 1.247.61h4.849a.38.38 0 0 1 .036.058c.057.107.106.278.142.496a4.27 4.27 0 0 1 .04.305c.015.156.023.306.027.435H3.603c-.744-.007-1.414.49-1.564 1.217l-.572 1.986V1.332l-.001.001.001-.007v.006a.04.04 0 0 1 .028-.009h3.539-.007c.004 0 .018.004.042.015a.914.914 0 0 1 .133.074 1.684 1.684 0 0 1 .152.114Zm8.32 3.769a.352.352 0 0 0-.263-.111H3.594c-.17-.003-.29.11-.314.226l-.004.02-1.807 5.933a.216.216 0 0 0-.002.023v.075c0 .079.076.183.22.183h10.618c.172.002.293-.11.318-.227l1.107-5.934a.222.222 0 0 0-.056-.188Zm-1.603-2.657s.002 0 .005.004l-.005-.004Z" />
</svg>