<svg viewBox="0 0 16 16" xmlns="http://www.w3.org/2000/svg">
    <path fill-rule="evenodd" clip-rule="evenodd" d="M15.378 7.22c.08-.441-.05-.89-.35-1.226a1.62 1.62 0 0 0-1.03-.523 7.588 7.588 0 0 0-.12-1.204c-.058-.29-.147-.597-.296-.843-.153-.25-.41-.496-.8-.496H8.264c-.302.016-.567-.02-.66 0-.281-.206-.93-.694-.922-.717-.56-.444-.84-.59-1.247-.611h-3.54c-.692 0-1.293.535-1.293 1.243v10.134c0 .807.688 1.422 1.485 1.423h10.612c.75.005 1.424-.5 1.57-1.235l1.11-5.946h-.001ZM5.755 3.043l.008.006.626.508c.526.448.818.576 1.247.61h4.849a.386.386 0 0 1 .036.058c.057.107.106.278.142.496.017.1.03.202.04.305.015.156.023.306.027.435H4.004c-.744-.007-1.414.49-1.564 1.217l-.572 1.986V2.849h-.001v-.006.006a.04.04 0 0 1 .029-.01h3.539-.007a.914.914 0 0 1 .175.089c.052.036.103.074.152.115Zm8.32 3.769a.353.353 0 0 0-.263-.111H3.995c-.17-.003-.29.11-.314.226l-.004.02L1.87 12.88a.218.218 0 0 0-.002.023v.075c0 .079.076.183.22.183h10.618c.172.002.293-.11.318-.227L14.13 7a.222.222 0 0 0-.056-.188Zm-1.603-2.657s.002 0 .005.004l-.005-.004Z" />
</svg>