<svg width="16" height="18" viewBox="0 0 16 18" xmlns="http://www.w3.org/2000/svg">
    <path fill-rule="evenodd" clip-rule="evenodd" d="M14.2604 12.895V11.2605C14.2604 10.3974 13.5583 9.69526 12.6952 9.69526H8.52128V8.2623C10.2883 8.00777 11.6517 6.48802 11.6517 4.6518C11.6517 2.63802 10.0134 0.999609 7.99953 0.999609C5.98563 0.999609 4.34734 2.63802 4.34734 4.6518C4.34734 6.48802 5.71078 8.00777 7.47778 8.2623V9.69526H3.30388C2.44078 9.69526 1.73866 10.3974 1.73866 11.2605V12.895C0.840127 13.1276 0.173439 13.9424 0.173439 14.9126C0.173439 16.0635 1.1096 16.9996 2.26041 16.9996C3.41122 16.9996 4.34738 16.0635 4.34738 14.9126C4.34738 13.9424 3.68069 13.1276 2.78216 12.895V11.2605C2.78216 10.9728 3.01622 10.7387 3.30391 10.7387H7.47781V12.8944C6.57913 13.1269 5.91259 13.9423 5.91259 14.9127C5.91256 16.0635 6.84872 16.9996 7.99953 16.9996C9.15034 16.9996 10.0865 16.0635 10.0865 14.9126C10.0865 13.9422 9.41997 13.1269 8.52128 12.8943V10.7387H12.6952C12.9829 10.7387 13.2169 10.9728 13.2169 11.2605V12.895C12.3184 13.1276 11.6517 13.9423 11.6517 14.9126C11.6517 16.0634 12.5878 16.9996 13.7387 16.9996C14.8895 16.9996 15.8257 16.0635 15.8257 14.9126C15.8256 13.9424 15.1589 13.1276 14.2604 12.895ZM10.2696 4.68165C10.2696 5.93508 9.25345 6.95119 8.00001 6.95119C6.74658 6.95119 5.73047 5.93508 5.73047 4.68165C5.73047 3.42822 6.74658 2.41211 8.00001 2.41211C9.25345 2.41211 10.2696 3.42822 10.2696 4.68165ZM8.00059 15.9107C8.52482 15.9107 8.94978 15.4858 8.94978 14.9615C8.94978 14.4373 8.52482 14.0123 8.00059 14.0123C7.47636 14.0123 7.0514 14.4373 7.0514 14.9615C7.0514 15.4858 7.47636 15.9107 8.00059 15.9107ZM14.7115 14.9615C14.7115 15.4858 14.2865 15.9107 13.7623 15.9107C13.2381 15.9107 12.8131 15.4858 12.8131 14.9615C12.8131 14.4373 13.2381 14.0123 13.7623 14.0123C14.2865 14.0123 14.7115 14.4373 14.7115 14.9615ZM2.23887 15.9107C2.7631 15.9107 3.18807 15.4858 3.18807 14.9615C3.18807 14.4373 2.7631 14.0123 2.23887 14.0123C1.71465 14.0123 1.28968 14.4373 1.28968 14.9615C1.28968 15.4858 1.71465 15.9107 2.23887 15.9107Z" />
    <path fill-rule="evenodd" clip-rule="evenodd" d="M7.99953 1.14961C6.06847 1.14961 4.49734 2.72086 4.49734 4.6518C4.49734 6.41198 5.80454 7.86972 7.49917 8.11383L7.62778 8.13236V9.84526H3.30387C2.52362 9.84526 1.88866 10.4802 1.88866 11.2605V13.0111L1.77625 13.0402C0.941773 13.2562 0.323438 14.0129 0.323438 14.9126C0.323438 15.9806 1.19243 16.8496 2.26041 16.8496C3.32838 16.8496 4.19737 15.9806 4.19737 14.9126C4.19737 14.0129 3.57904 13.2562 2.74456 13.0402L2.63216 13.0111V11.2605C2.63216 10.89 2.93338 10.5887 3.30391 10.5887H7.62781V13.0105L7.51539 13.0396C6.68084 13.2555 6.06259 14.0127 6.06259 14.9127C6.06256 15.9806 6.93156 16.8496 7.99953 16.8496C9.0675 16.8496 9.9365 15.9806 9.9365 14.9126C9.9365 14.0127 9.31826 13.2555 8.4837 13.0395L8.37128 13.0104V10.5887H12.6952C13.0657 10.5887 13.3669 10.8899 13.3669 11.2605V13.0111L13.2545 13.0402C12.4201 13.2562 11.8017 14.0129 11.8017 14.9126C11.8017 15.9806 12.6707 16.8496 13.7387 16.8496C14.8067 16.8496 15.6757 15.9806 15.6757 14.9126C15.6756 14.0129 15.0573 13.2562 14.2228 13.0402L14.1104 13.0111V11.2605C14.1104 10.4802 13.4754 9.84526 12.6952 9.84526H8.37128V8.13236L8.49989 8.11383C10.1945 7.86972 11.5017 6.41198 11.5017 4.6518C11.5017 2.72086 9.93059 1.14961 7.99953 1.14961ZM4.19734 4.6518C4.19734 2.55518 5.90278 0.849609 7.99953 0.849609C10.0963 0.849609 11.8017 2.55518 11.8017 4.6518C11.8017 6.51924 10.4478 8.07149 8.67128 8.38998V9.54527H12.6952C13.6411 9.54527 14.4104 10.3145 14.4104 11.2605V12.782C15.3157 13.0679 15.9756 13.9128 15.9757 14.9126C15.9757 16.1463 14.9724 17.1496 13.7387 17.1496C12.505 17.1496 11.5017 16.1463 11.5017 14.9126C11.5017 13.9127 12.1616 13.0679 13.0669 12.782V11.2605C13.0669 11.0556 12.9 10.8887 12.6952 10.8887H8.67128V12.7814C9.5768 13.0673 10.2365 13.9127 10.2365 14.9126C10.2365 16.1463 9.23318 17.1496 7.99953 17.1496C6.76588 17.1496 5.76256 16.1463 5.76259 14.9127C5.76259 13.9127 6.42229 13.0673 7.32781 12.7814V10.8887H3.30391C3.09906 10.8887 2.93216 11.0556 2.93216 11.2605V12.782C3.83748 13.0679 4.49737 13.9128 4.49737 14.9126C4.49737 16.1463 3.49406 17.1496 2.26041 17.1496C1.02675 17.1496 0.0234375 16.1463 0.0234375 14.9126C0.0234375 13.9128 0.683334 13.0679 1.58866 12.782V11.2605C1.58866 10.3145 2.35794 9.54527 3.30387 9.54527H7.32778V8.38998C5.55126 8.07149 4.19734 6.51923 4.19734 4.6518ZM5.58047 4.68165C5.58047 3.34538 6.66373 2.26211 8.00001 2.26211C9.33629 2.26211 10.4196 3.34538 10.4196 4.68165C10.4196 6.01793 9.33629 7.10119 8.00001 7.10119C6.66373 7.10119 5.58047 6.01793 5.58047 4.68165ZM8.00001 2.56211C6.82942 2.56211 5.88047 3.51106 5.88047 4.68165C5.88047 5.85224 6.82942 6.80119 8.00001 6.80119C9.1706 6.80119 10.1196 5.85224 10.1196 4.68165C10.1196 3.51106 9.1706 2.56211 8.00001 2.56211ZM2.23887 14.1623C1.79749 14.1623 1.43968 14.5201 1.43968 14.9615C1.43968 15.4029 1.79749 15.7607 2.23887 15.7607C2.68025 15.7607 3.03806 15.4029 3.03806 14.9615C3.03806 14.5201 2.68025 14.1623 2.23887 14.1623ZM1.13968 14.9615C1.13968 14.3545 1.6318 13.8623 2.23887 13.8623C2.84594 13.8623 3.33806 14.3545 3.33806 14.9615C3.33806 15.5686 2.84594 16.0607 2.23887 16.0607C1.6318 16.0607 1.13968 15.5686 1.13968 14.9615ZM8.00059 14.1623C7.55921 14.1623 7.20139 14.5201 7.20139 14.9615C7.20139 15.4029 7.55921 15.7607 8.00059 15.7607C8.44197 15.7607 8.79978 15.4029 8.79978 14.9615C8.79978 14.5201 8.44197 14.1623 8.00059 14.1623ZM6.90139 14.9615C6.90139 14.3545 7.39352 13.8623 8.00059 13.8623C8.60766 13.8623 9.09978 14.3545 9.09978 14.9615C9.09978 15.5686 8.60766 16.0607 8.00059 16.0607C7.39352 16.0607 6.90139 15.5686 6.90139 14.9615ZM12.6631 14.9615C12.6631 14.3545 13.1552 13.8623 13.7623 13.8623C14.3694 13.8623 14.8615 14.3545 14.8615 14.9615C14.8615 15.5686 14.3694 16.0607 13.7623 16.0607C13.1552 16.0607 12.6631 15.5686 12.6631 14.9615ZM13.7623 14.1623C13.3209 14.1623 12.9631 14.5201 12.9631 14.9615C12.9631 15.4029 13.3209 15.7607 13.7623 15.7607C14.2037 15.7607 14.5615 15.4029 14.5615 14.9615C14.5615 14.5201 14.2037 14.1623 13.7623 14.1623Z" />
</svg>
    