<svg width="15" height="17" viewBox="0 0 15 17" xmlns="http://www.w3.org/2000/svg">
<path fill-rule="evenodd" clip-rule="evenodd" d="M12.0657 0.799805C10.4476 0.799805 9.13149 2.11808 9.13149 3.73883C9.13149 4.05507 9.18176 4.35999 9.27463 4.64592L5.02891 7.20099C4.49639 6.65683 3.75416 6.3181 2.93425 6.3181C1.31613 6.3181 0 7.63637 0 9.25712C0 10.8779 1.31613 12.1961 2.93425 12.1961C3.85634 12.1961 4.68001 11.7679 5.21792 11.1006L9.21866 13.1485C9.16171 13.3767 9.13149 13.6154 9.13149 13.8608C9.13149 15.4815 10.4476 16.7998 12.0657 16.7998C13.6839 16.7998 15 15.4815 15 13.8608C15 12.24 13.6839 10.9218 12.0657 10.9218C11.1586 10.9218 10.3468 11.3363 9.80853 11.985L5.79106 9.92857C5.84165 9.71276 5.86851 9.48797 5.86851 9.25712C5.86851 8.92674 5.81363 8.60875 5.71264 8.31185L9.94314 5.76593C10.4775 6.32704 11.2314 6.67785 12.0657 6.67785C13.6839 6.67785 15 5.35958 15 3.73883C15 2.11808 13.6839 0.799805 12.0657 0.799805ZM10.4343 3.73883C10.4343 2.83793 11.1663 2.10468 12.0657 2.10468C12.9652 2.10468 13.6972 2.83793 13.6972 3.73883C13.6972 4.63972 12.9652 5.37297 12.0657 5.37297C11.1663 5.37297 10.4343 4.63972 10.4343 3.73883ZM1.30276 9.25712C1.30276 8.35623 2.03482 7.62297 2.93425 7.62297C3.83369 7.62297 4.56575 8.35623 4.56575 9.25712C4.56575 10.158 3.83369 10.8913 2.93425 10.8913C2.03482 10.8913 1.30276 10.158 1.30276 9.25712ZM10.4343 13.8608C10.4343 12.9599 11.1663 12.2266 12.0657 12.2266C12.9652 12.2266 13.6972 12.9599 13.6972 13.8608C13.6972 14.7617 12.9652 15.4949 12.0657 15.4949C11.1663 15.4949 10.4343 14.7617 10.4343 13.8608Z" />
</svg>
