<svg viewBox="0 0 16 16" xmlns="http://www.w3.org/2000/svg">
	<path fill-rule="evenodd" clip-rule="evenodd" d="M12.5657 0c-1.6181 0-2.9342 1.3183-2.9342 2.939 0 .3163.0503.6212.1431.9071L5.529 6.4011c-.5325-.544-1.2747-.8828-2.0947-.8828C1.8162 5.5183.5 6.8366.5 8.4573c0 1.6208 1.3161 2.939 2.9343 2.939.922 0 1.7457-.4282 2.2836-1.0955l4.0008 2.0479a2.939 2.939 0 0 0-.0872.7123c0 1.6207 1.3161 2.939 2.9342 2.939 1.6182 0 2.9343-1.3183 2.9343-2.939 0-1.6208-1.3161-2.939-2.9343-2.939-.9071 0-1.7189.4145-2.2572 1.0632L6.2911 9.1288a2.939 2.939 0 0 0 .0774-.6715c0-.3304-.0549-.6484-.1559-.9453l4.2305-2.5459c.5344.5611 1.2883.912 2.1226.912 1.6182 0 2.9343-1.3183 2.9343-2.939C15.5 1.3182 14.1839 0 12.5657 0Zm-1.6314 2.939c0-.9009.732-1.6341 1.6314-1.6341.8995 0 1.6315.7332 1.6315 1.6341 0 .901-.732 1.6342-1.6315 1.6342-.8994 0-1.6314-.7333-1.6314-1.6342ZM1.8028 8.4573c0-.9009.732-1.6341 1.6315-1.6341.8994 0 1.6315.7332 1.6315 1.6341 0 .901-.7321 1.6342-1.6316 1.6342-.8994 0-1.6314-.7333-1.6314-1.6342Zm9.1315 4.6037c0-.9009.732-1.6342 1.6314-1.6342.8995 0 1.6315.7333 1.6315 1.6342 0 .9009-.732 1.6341-1.6315 1.6341-.8994 0-1.6314-.7332-1.6314-1.6341Z" />
</svg>
