<svg width="10" height="6" viewBox="0 0 10 6" xmlns="http://www.w3.org/2000/svg">
<path d="M5.55148 0.251094L9.77869 4.66565C9.84882 4.73816 9.90448 4.82443 9.94246 4.91947C9.98044 5.01452 10 5.11646 10 5.21942C10 5.32239 9.98044 5.42433 9.94246 5.51938C9.90448 5.61442 9.84882 5.70069 9.77869 5.77319C9.63851 5.91846 9.44888 6 9.25122 6C9.05357 6 8.86394 5.91846 8.72376 5.77319L4.98287 1.9124L1.27938 5.77319C1.1392 5.91846 0.949576 6 0.751919 6C0.55426 6 0.364634 5.91846 0.224453 5.77319C0.153759 5.70096 0.097518 5.61482 0.0589895 5.51976C0.0204611 5.4247 0.000411042 5.32262 9.30827e-09 5.21942C0.000411044 5.11623 0.0204611 5.01415 0.0589895 4.91909C0.097518 4.82403 0.153759 4.73789 0.224453 4.66565L4.45166 0.251094C4.52172 0.171925 4.60675 0.108742 4.7014 0.0655264C4.79604 0.0223111 4.89825 4.15999e-07 5.00157 4.17231e-07C5.1049 4.18464e-07 5.2071 0.0223112 5.30175 0.0655264C5.39639 0.108742 5.48142 0.171925 5.55148 0.251094Z" />
</svg>
