<svg viewBox="0 0 17 17" xmlns="http://www.w3.org/2000/svg">
	<path
		d="M8.25914 8.92588C8.64773 8.58952 8.9594 8.1735 9.17302 7.70606C9.38663 7.23862 9.49719 6.73069 9.49719 6.21675C9.49719 5.25101 9.11355 4.32483 8.43067 3.64195C7.74779 2.95908 6.82161 2.57544 5.85588 2.57544C4.89014 2.57544 3.96396 2.95908 3.28108 3.64195C2.59821 4.32483 2.21457 5.25101 2.21457 6.21675C2.21456 6.73069 2.32512 7.23862 2.53874 7.70606C2.75235 8.1735 3.06403 8.58952 3.45261 8.92588C2.43315 9.38751 1.56821 10.133 0.961217 11.0732C0.354222 12.0134 0.0308571 13.1085 0.0297852 14.2276C0.0297852 14.4208 0.106512 14.606 0.243088 14.7426C0.379664 14.8792 0.5649 14.9559 0.758047 14.9559C0.951194 14.9559 1.13643 14.8792 1.27301 14.7426C1.40958 14.606 1.48631 14.4208 1.48631 14.2276C1.48631 13.0687 1.94667 11.9573 2.76613 11.1379C3.58558 10.3184 4.697 9.85806 5.85588 9.85806C7.01476 9.85806 8.12618 10.3184 8.94563 11.1379C9.76508 11.9573 10.2254 13.0687 10.2254 14.2276C10.2254 14.4208 10.3022 14.606 10.4388 14.7426C10.5753 14.8792 10.7606 14.9559 10.9537 14.9559C11.1469 14.9559 11.3321 14.8792 11.4687 14.7426C11.6052 14.606 11.682 14.4208 11.682 14.2276C11.6809 13.1085 11.3575 12.0134 10.7505 11.0732C10.1435 10.133 9.27861 9.38751 8.25914 8.92588V8.92588ZM5.85588 8.40153C5.42377 8.40153 5.00136 8.2734 4.64208 8.03333C4.28279 7.79326 4.00276 7.45205 3.8374 7.05283C3.67204 6.65361 3.62877 6.21432 3.71307 5.79052C3.79737 5.36671 4.00545 4.97742 4.311 4.67187C4.61655 4.36632 5.00584 4.15824 5.42965 4.07394C5.85345 3.98964 6.29274 4.03291 6.69196 4.19827C7.09118 4.36363 7.43239 4.64366 7.67246 5.00295C7.91253 5.36223 8.04066 5.78464 8.04066 6.21675C8.04066 6.79619 7.81048 7.3519 7.40075 7.76162C6.99103 8.17135 6.43532 8.40153 5.85588 8.40153ZM12.9491 8.63458C13.4152 8.10974 13.7197 7.46139 13.8258 6.76756C13.932 6.07373 13.8354 5.36401 13.5476 4.72381C13.2598 4.08362 12.7931 3.54024 12.2037 3.15908C11.6143 2.77793 10.9274 2.57525 10.2254 2.57544C10.0323 2.57544 9.84706 2.65217 9.71049 2.78874C9.57391 2.92532 9.49719 3.11055 9.49719 3.3037C9.49719 3.49685 9.57391 3.68208 9.71049 3.81866C9.84706 3.95524 10.0323 4.03196 10.2254 4.03196C10.8049 4.03196 11.3606 4.26214 11.7703 4.67187C12.1801 5.0816 12.4102 5.63731 12.4102 6.21675C12.4092 6.59926 12.3078 6.9748 12.1161 7.30581C11.9244 7.63681 11.6491 7.91169 11.3178 8.10295C11.2099 8.16523 11.1197 8.25418 11.0559 8.36129C10.9922 8.4684 10.957 8.59008 10.9537 8.71468C10.9507 8.83832 10.9791 8.96069 11.0365 9.07026C11.0938 9.17984 11.1781 9.27301 11.2814 9.34099L11.5654 9.53034L11.6601 9.58132C12.538 9.99768 13.2785 10.6562 13.7946 11.4794C14.3107 12.3026 14.5808 13.2561 14.5732 14.2276C14.5732 14.4208 14.6499 14.606 14.7865 14.7426C14.923 14.8792 15.1083 14.9559 15.3014 14.9559C15.4946 14.9559 15.6798 14.8792 15.8164 14.7426C15.953 14.606 16.0297 14.4208 16.0297 14.2276C16.0356 13.1101 15.7557 12.0095 15.2166 11.0306C14.6774 10.0517 13.8969 9.22688 12.9491 8.63458V8.63458Z"
		/>
</svg>
