<svg viewBox="0 0 16 16" fill="none" xmlns="http://www.w3.org/2000/svg">
	<path d="M12.0194 11.0787L14.8747 13.9333L13.9314 14.8767L11.0767 12.0213C10.0145 12.8728 8.69337 13.3359 7.33203 13.334C4.02003 13.334 1.33203 10.646 1.33203 7.33398C1.33203 4.02198 4.02003 1.33398 7.33203 1.33398C10.644 1.33398 13.332 4.02198 13.332 7.33398C13.334 8.69532 12.8708 10.0165 12.0194 11.0787ZM10.682 10.584C11.5281 9.71391 12.0006 8.5476 11.9987 7.33398C11.9987 4.75532 9.91003 2.66732 7.33203 2.66732C4.75336 2.66732 2.66536 4.75532 2.66536 7.33398C2.66536 9.91198 4.75336 12.0007 7.33203 12.0007C8.54565 12.0026 9.71195 11.5301 10.582 10.684L10.682 10.584Z" />
</svg>
