<svg viewBox="0 0 16 16" xmlns="http://www.w3.org/2000/svg">
    <path fill-rule="evenodd" clip-rule="evenodd" d="m7.63 9.3 1.27 1.27c.7.72 1.99.1 1.85-.9l-.13-1.16a.3.3 0 0 1 .12-.27l2.96-2.3a.89.89 0 0 0 .08-1.33L11.4 2.2a.9.9 0 0 0-1.32.09l-2.3 2.97a.3.3 0 0 1-.27.1l-1.17-.12a1.1 1.1 0 0 0-.9 1.86L6.7 8.36l-3.16 3.41c-.25.27-.31.63-.13.8.18.19.54.13.8-.12L7.64 9.3Zm.83-3.5 2.3-2.95 2.4 2.38-2.97 2.31c-.32.25-.5.65-.45 1.06l.14 1.18c0 .05 0 .08-.02.1a.25.25 0 0 1-.1.1.25.25 0 0 1-.14.02.13.13 0 0 1-.09-.05L6.06 6.48a.2.2 0 0 1 0-.3.2.2 0 0 1 .17-.05l1.17.13c.4.04.8-.13 1.06-.45Z" />
</svg>