<svg width="16" height="16" viewBox="0 0 16 16" xmlns="http://www.w3.org/2000/svg">
<path d="M10.913 6.07108C11.4653 6.07108 11.913 5.62337 11.913 5.07109C11.913 4.5188 11.4653 4.07109 10.913 4.07109C10.3607 4.07109 9.91299 4.5188 9.91299 5.07109C9.91299 5.62337 10.3607 6.07108 10.913 6.07108Z" />
<path d="M15.4539 5.31873C15.1361 4.50918 14.5532 3.34111 13.5815 2.37372C12.6132 1.40967 11.4578 0.84333 10.659 0.537954C9.78214 0.202719 8.78569 0.414024 8.12052 1.07625L5.78308 3.40333C5.0902 4.09312 4.8905 5.15452 5.28612 6.04448C5.4088 6.32051 5.54222 6.59049 5.68478 6.85133L0.554594 11.9828C0.442957 12.0945 0.380249 12.2459 0.380249 12.4039V15.0236C0.380249 15.3524 0.646736 15.619 0.975485 15.619H3.59452C3.92327 15.619 4.18976 15.3524 4.18976 15.0236V13.9519L5.26118 13.9518C5.58993 13.9518 5.85642 13.6853 5.85642 13.3564V12.2848H6.92784C7.25659 12.2848 7.52308 12.0182 7.52308 11.6894C7.52308 11.3605 7.25659 11.094 6.92784 11.094H5.26118C4.93243 11.094 4.66595 11.3605 4.66595 11.6894V12.7611L3.59452 12.7611C3.26577 12.7611 2.99929 13.0276 2.99929 13.3565V14.4282H1.57072V12.6505L6.84912 7.37072C7.04305 7.17674 7.07939 6.87538 6.93716 6.64086C6.73088 6.30077 6.54138 5.93734 6.37397 5.56067C6.17758 5.11886 6.27764 4.59108 6.62296 4.24727L8.96036 1.92021C9.29408 1.58801 9.79402 1.48206 10.2341 1.65026C10.9252 1.9145 11.9213 2.40087 12.7417 3.21769C13.5672 4.03945 14.0697 5.05051 14.3459 5.75396C14.5182 6.193 14.4135 6.69179 14.0791 7.02473L11.7134 9.37992C11.3689 9.72284 10.8548 9.8231 10.4034 9.63534C10.0312 9.48048 9.67069 9.29651 9.332 9.08857C9.05185 8.91656 8.68531 9.00432 8.51334 9.28457C8.34138 9.56482 8.42909 9.93146 8.70926 10.1035C8.7919 10.1542 8.87563 10.2037 8.96036 10.2519C9.277 10.4319 9.60752 10.5939 9.94622 10.7348C10.8433 11.1081 11.8666 10.9075 12.5532 10.2239L14.9189 7.86876C15.5898 7.20076 15.7999 6.19982 15.4539 5.31873Z" />
<path d="M7.52308 11.6894C7.52308 12.0182 7.25659 12.2848 6.92784 12.2848C7.28197 12.2848 7.65465 11.6791 7.9993 11.3342C8.35427 10.9791 8.72385 10.5326 8.96036 10.2519C8.87563 10.2037 8.7919 10.1542 8.70926 10.1035C8.42909 9.93146 8.34138 9.56482 8.51334 9.28457L6.92784 11.094C7.25659 11.094 7.52308 11.3605 7.52308 11.6894Z" />
</svg>
