<svg width="6" height="10" viewBox="0 0 6 10" fill="none" xmlns="http://www.w3.org/2000/svg">
<path d="M0.251094 4.44852L4.66565 0.22131C4.73816 0.151184 4.82443 0.0955242 4.91947 0.0575402C5.01452 0.0195562 5.11646 -7.72415e-08 5.21942 -6.82401e-08C5.32239 -5.92387e-08 5.42433 0.0195562 5.51938 0.0575402C5.61442 0.0955243 5.70069 0.151184 5.77319 0.22131C5.91846 0.36149 6 0.551118 6 0.748776C6 0.946434 5.91846 1.13606 5.77319 1.27624L1.9124 5.01713L5.77319 8.72062C5.91846 8.8608 6 9.05042 6 9.24808C6 9.44574 5.91846 9.63537 5.77319 9.77555C5.70096 9.84624 5.61482 9.90248 5.51976 9.94101C5.4247 9.97954 5.32262 9.99959 5.21942 10C5.11623 9.99959 5.01415 9.97954 4.91909 9.94101C4.82403 9.90248 4.73789 9.84624 4.66565 9.77555L0.251094 5.54834C0.171925 5.47828 0.108741 5.39325 0.065526 5.2986C0.0223108 5.20396 3.08277e-08 5.10175 3.98607e-08 4.99843C4.88936e-08 4.8951 0.0223108 4.7929 0.0655261 4.69825C0.108741 4.60361 0.171925 4.51858 0.251094 4.44852Z" fill="#7182A6" fill-opacity="0.5"/>
</svg>
